<svg width="1682" height="354" viewBox="0 0 1682 354" fill="none" xmlns="http://www.w3.org/2000/svg">
<path fill-rule="evenodd" clip-rule="evenodd" d="M206.563 45.9439L206.618 45.9931C208.828 47.9819 210.649 48.7197 212.12 48.7197C213.284 48.7197 214.76 47.9051 216.225 44.5245C217.661 41.2115 218.776 36.0576 219.49 28.9207L219.67 27.1197H231.876L231.757 29.2322C230.8 46.2093 230.32 76.1578 230.32 119.12V121.12H218.207L218.048 119.294C216.376 100.188 213.281 85.296 208.831 74.5232C204.446 63.9047 196.816 54.9659 185.832 47.7179C174.809 40.6843 164.021 37.2397 153.44 37.2397C141.291 37.2397 131.082 40.1554 122.71 45.8897C114.332 51.628 107.649 60.2881 102.724 72.0141C92.7715 95.7104 87.76 124.114 87.76 157.28C87.76 190.445 92.7715 218.849 102.724 242.545C107.649 254.271 114.332 262.931 122.71 268.67C131.082 274.404 141.291 277.32 153.44 277.32C164.025 277.32 174.817 273.872 185.844 266.834L185.857 266.826L185.87 266.818C196.799 260.074 204.421 251.049 208.815 239.717C213.272 228.223 216.372 211.768 218.046 190.245L218.19 188.4H230.32V190.4C230.32 235.282 230.8 266.432 231.757 283.89L231.873 286H219.659L219.489 284.186C218.77 276.522 217.709 271.422 216.424 268.638L216.387 268.557L216.357 268.472C215.819 266.968 215.211 266.028 214.625 265.482C214.085 264.978 213.519 264.76 212.84 264.76C211.504 264.76 209.399 265.461 206.384 267.309C195.51 275.037 185.077 280.985 175.086 285.127L175.067 285.135L175.047 285.143C164.915 289.097 152.774 291.04 138.68 291.04C111.304 291.04 87.2247 285.83 66.4972 275.344C45.758 264.853 29.6279 249.704 18.1501 229.923L18.1448 229.914C6.6602 209.877 0.959991 186.12 0.959991 158.72C0.959991 132.02 6.78841 108.273 18.4985 87.5362C30.2029 66.8097 46.5545 50.703 67.5209 39.2447C88.4895 27.785 112.347 22.0796 139.04 22.0796C153.618 22.0796 166.128 24.1435 176.51 28.3458C186.779 32.5021 196.777 38.3594 206.505 45.8988L206.563 45.9439ZM205.28 265.64C208.4 263.72 210.92 262.76 212.84 262.76C215.24 262.76 217.04 264.44 218.24 267.8C219.68 270.92 220.76 276.32 221.48 284H229.76C229.724 283.352 229.69 282.685 229.655 282C228.765 264.153 228.32 233.62 228.32 190.4H220.04C218.36 212 215.24 228.68 210.68 240.44C206.12 252.2 198.2 261.56 186.92 268.52C175.64 275.72 164.48 279.32 153.44 279.32C128.48 279.32 110.96 267.32 100.88 243.32C90.8 219.32 85.76 190.64 85.76 157.28C85.76 123.92 90.8 95.2397 100.88 71.2397C110.96 47.2397 128.48 35.2397 153.44 35.2397C164.48 35.2397 175.64 38.8397 186.92 46.0397C198.2 53.4797 206.12 62.7197 210.68 73.7597C215.24 84.7997 218.36 99.9197 220.04 119.12H228.32C228.32 77.7932 228.764 48.4598 229.653 31.1197C229.688 30.4343 229.723 29.7676 229.76 29.1197H221.48C220.04 43.5197 216.92 50.7197 212.12 50.7197C209.96 50.7197 207.68 49.6397 205.28 47.4797C195.68 40.0397 185.84 34.2797 175.76 30.1997C165.68 26.1197 153.44 24.0796 139.04 24.0796C112.64 24.0796 89.12 29.7197 68.48 40.9997C47.84 52.2797 31.76 68.1197 20.24 88.5197C8.71999 108.92 2.95999 132.32 2.95999 158.72C2.95999 185.84 8.59999 209.24 19.88 228.92C31.16 248.36 47 263.24 67.4 273.56C87.8 283.88 111.56 289.04 138.68 289.04C152.6 289.04 164.48 287.12 174.32 283.28C184.16 279.2 194.48 273.32 205.28 265.64ZM266.031 275.651L266.011 275.629C257.96 266.824 253.967 255.887 253.967 242.96C253.967 231.809 256.823 222.462 262.68 215.077L262.685 215.07C268.612 207.661 275.555 201.95 283.512 197.971C291.308 194.073 301.364 190.079 313.654 185.982C326.581 181.674 335.891 177.769 341.698 174.285C347.154 171.011 349.727 166.592 349.727 160.88V128.84C349.727 121.511 347.9 115.051 344.282 109.398C340.923 104.149 335.085 101.32 326.167 101.32C320.483 101.32 315.27 102.571 310.497 105.073C317.069 107.999 322.158 112.039 325.644 117.25C329.963 123.11 332.127 129.754 332.127 137.12C332.127 147.025 328.54 155.154 321.348 161.318L321.344 161.322C314.465 167.182 306.071 170.08 296.287 170.08C286.484 170.08 278.486 167.045 272.523 160.823L272.493 160.793L272.465 160.761C266.819 154.344 264.047 146.293 264.047 136.76C264.047 129.211 265.94 122.566 269.794 116.913C273.62 111.302 279.531 106.316 287.381 101.899C301.254 93.9741 320.854 90.1197 345.967 90.1197C359.282 90.1197 370.861 91.4492 380.675 94.1452C390.62 96.6355 399.105 101.5 406.086 108.73L406.095 108.74C411.186 114.086 414.461 120.799 415.966 128.795C417.689 136.446 418.527 147.046 418.527 160.52V257C418.527 262.925 418.888 266.67 419.474 268.515C419.832 269.289 420.238 269.75 420.635 270.025C421.036 270.303 421.555 270.48 422.287 270.48C423.561 270.48 425.027 270.121 426.709 269.292C428.515 268.158 430.207 266.914 431.785 265.561L433.599 264.006L439.258 273.626L437.991 274.716C427.184 284.015 411.891 288.52 392.407 288.52C377.911 288.52 367.214 286.129 360.887 280.856L360.868 280.841L360.85 280.825C355.954 276.541 352.851 271.13 351.509 264.678C339.933 280.562 323.494 288.52 302.407 288.52C286.702 288.52 274.466 284.342 266.052 275.673L266.031 275.651ZM351.045 261.869C351.646 260.99 352.234 260.086 352.807 259.16C352.869 260.254 352.977 261.32 353.129 262.357C354.145 269.282 357.157 274.936 362.167 279.32C367.927 284.12 378.007 286.52 392.407 286.52C411.607 286.52 426.367 282.08 436.687 273.2L433.087 267.08C432.576 267.518 432.053 267.945 431.52 268.361C430.3 269.312 429.023 270.205 427.687 271.04C425.767 272 423.967 272.48 422.287 272.48C420.127 272.48 418.567 271.4 417.607 269.24C416.887 267.08 416.527 263 416.527 257V160.52C416.527 147.08 415.687 136.64 414.007 129.2C412.567 121.52 409.447 115.16 404.647 110.12C397.927 103.16 389.767 98.4797 380.167 96.0797C370.567 93.4397 359.167 92.1197 345.967 92.1197C321.007 92.1197 301.807 95.9596 288.367 103.64C280.687 107.96 275.047 112.76 271.447 118.04C267.847 123.32 266.047 129.56 266.047 136.76C266.047 145.88 268.687 153.44 273.967 159.44C279.487 165.2 286.927 168.08 296.287 168.08C305.647 168.08 313.567 165.32 320.047 159.8C326.767 154.04 330.127 146.48 330.127 137.12C330.127 130.16 328.087 123.92 324.007 118.4C320.54 113.199 315.311 109.172 308.321 106.319C307.57 106.012 306.799 105.719 306.007 105.44C306.707 104.963 307.417 104.515 308.137 104.094C313.586 100.911 319.595 99.3197 326.167 99.3197C335.527 99.3197 342.127 102.32 345.967 108.32C349.807 114.32 351.727 121.16 351.727 128.84V160.88C351.727 167.36 348.727 172.4 342.727 176C336.727 179.6 327.247 183.56 314.287 187.88C302.047 191.96 292.087 195.92 284.407 199.76C276.727 203.6 270.007 209.12 264.247 216.32C258.727 223.28 255.967 232.16 255.967 242.96C255.967 255.44 259.807 265.88 267.487 274.28C275.407 282.44 287.047 286.52 302.407 286.52C323.593 286.52 339.805 278.303 351.045 261.869ZM341.248 191.107L341.234 191.12C334.855 197.264 330.072 203.231 326.832 209.017L326.823 209.032L326.814 209.047C323.702 214.384 322.047 221.906 322.047 231.8C322.047 240.264 323.557 246.255 326.269 250.084C328.891 253.786 332.819 255.72 338.407 255.72C342.604 255.72 346.357 254.133 349.727 250.787V181.858C347.511 184.594 344.68 187.675 341.261 191.094L341.248 191.107ZM349.727 178.6C350.51 177.543 351.177 176.556 351.727 175.64V251.6C347.887 255.68 343.447 257.72 338.407 257.72C326.167 257.72 320.047 249.08 320.047 231.8C320.047 221.72 321.727 213.8 325.087 208.04C328.447 202.04 333.367 195.92 339.847 189.68C344.14 185.386 347.434 181.693 349.727 178.6ZM530.017 97.1596H565.297V104.36H530.017V253.76C530.017 258.56 530.857 261.92 532.537 263.84C534.217 265.76 536.977 266.72 540.817 266.72C543.697 266.72 546.937 265.88 550.537 264.2C554.137 262.52 557.377 259.88 560.257 256.28L565.657 260.6C554.617 279.56 537.577 289.04 514.537 289.04C497.977 289.04 485.617 284.96 477.457 276.8C472.417 271.76 469.057 265.52 467.377 258.08C465.937 250.64 465.217 240.2 465.217 226.76V104.36H437.857V97.1596H465.217V54.6797C478.177 54.6797 489.817 53.4797 500.137 51.0797C509.948 48.6268 519.241 44.931 528.017 39.9921C528.687 39.6152 529.353 39.231 530.017 38.8397V97.1596ZM499.668 49.1354C510.036 46.5418 519.811 42.5363 529.001 37.1169L532.017 35.3383V95.1596H567.297V106.36H532.017V253.76C532.017 258.45 532.863 261.175 534.042 262.523C535.184 263.828 537.26 264.72 540.817 264.72C543.316 264.72 546.261 263.988 549.691 262.387C552.971 260.857 555.976 258.429 558.695 255.03L559.944 253.469L568.253 260.115L567.385 261.606C555.965 281.218 538.245 291.04 514.537 291.04C497.678 291.04 484.715 286.886 476.043 278.214C470.716 272.888 467.183 266.302 465.426 258.52L465.419 258.49L465.413 258.46C463.937 250.834 463.217 240.246 463.217 226.76V106.36H435.857V95.1596H463.217V52.6797H465.217C478.05 52.6797 489.529 51.4917 499.668 49.1354ZM583.14 275.651L583.12 275.629C575.069 266.824 571.076 255.887 571.076 242.96C571.076 231.809 573.932 222.462 579.789 215.077L579.794 215.07C585.722 207.661 592.664 201.95 600.622 197.971C608.417 194.073 618.474 190.079 630.764 185.982C643.69 181.674 653.001 177.769 658.807 174.285C664.263 171.011 666.836 166.592 666.836 160.88V128.84C666.836 121.511 665.01 115.051 661.392 109.398C658.032 104.149 652.195 101.32 643.276 101.32C637.593 101.32 632.379 102.571 627.607 105.073C634.178 107.999 639.267 112.039 642.753 117.249C647.072 123.109 649.236 129.754 649.236 137.12C649.236 147.025 645.649 155.154 638.458 161.318L638.453 161.322C631.574 167.182 623.181 170.08 613.396 170.08C603.594 170.08 595.595 167.045 589.632 160.823L589.603 160.793L589.575 160.761C583.928 154.344 581.156 146.293 581.156 136.76C581.156 129.211 583.049 122.566 586.904 116.913C590.729 111.303 596.64 106.316 604.489 101.9C618.362 93.9744 637.962 90.1197 663.076 90.1197C676.391 90.1197 687.97 91.4492 697.784 94.1451C707.729 96.6354 716.214 101.5 723.195 108.73L723.205 108.74C728.295 114.086 731.57 120.8 733.075 128.796C734.798 136.447 735.636 147.047 735.636 160.52V257C735.636 262.925 735.997 266.67 736.584 268.515C736.941 269.289 737.347 269.75 737.745 270.025C738.145 270.303 738.665 270.48 739.396 270.48C740.671 270.48 742.136 270.121 743.818 269.292C745.624 268.158 747.316 266.914 748.895 265.561L750.709 264.006L756.367 273.626L755.101 274.716C744.293 284.015 729 288.52 709.516 288.52C695.02 288.52 684.324 286.129 677.996 280.856L677.977 280.841L677.959 280.825C673.064 276.541 669.96 271.13 668.619 264.678C657.042 280.562 640.603 288.52 619.516 288.52C603.811 288.52 591.575 284.342 583.161 275.673L583.14 275.651ZM668.154 261.869C668.756 260.99 669.343 260.086 669.916 259.16C669.979 260.254 670.086 261.32 670.238 262.357C671.254 269.282 674.267 274.936 679.276 279.32C685.036 284.12 695.116 286.52 709.516 286.52C728.716 286.52 743.476 282.08 753.796 273.2L750.196 267.08C749.685 267.518 749.163 267.945 748.629 268.361C747.41 269.312 746.132 270.205 744.796 271.04C742.876 272 741.076 272.48 739.396 272.48C737.236 272.48 735.676 271.4 734.716 269.24C733.996 267.08 733.636 263 733.636 257V160.52C733.636 147.08 732.796 136.64 731.116 129.2C729.676 121.52 726.556 115.16 721.756 110.12C715.036 103.16 706.876 98.4797 697.276 96.0797C687.676 93.4397 676.276 92.1197 663.076 92.1197C638.116 92.1197 618.916 95.9596 605.476 103.64C597.796 107.96 592.156 112.76 588.556 118.04C584.956 123.32 583.156 129.56 583.156 136.76C583.156 145.88 585.796 153.44 591.076 159.44C596.596 165.2 604.036 168.08 613.396 168.08C622.756 168.08 630.676 165.32 637.156 159.8C643.876 154.04 647.236 146.48 647.236 137.12C647.236 130.16 645.196 123.92 641.116 118.4C637.649 113.199 632.42 109.172 625.431 106.319C624.68 106.012 623.908 105.719 623.116 105.44C623.817 104.963 624.527 104.515 625.247 104.094C630.695 100.911 636.705 99.3197 643.276 99.3197C652.636 99.3197 659.236 102.32 663.076 108.32C666.916 114.32 668.836 121.16 668.836 128.84V160.88C668.836 167.36 665.836 172.4 659.836 176C653.836 179.6 644.356 183.56 631.396 187.88C619.156 191.96 609.196 195.92 601.516 199.76C593.836 203.6 587.116 209.12 581.356 216.32C575.836 223.28 573.076 232.16 573.076 242.96C573.076 255.44 576.916 265.88 584.596 274.28C592.516 282.44 604.156 286.52 619.516 286.52C640.702 286.52 656.915 278.303 668.154 261.869ZM658.357 191.107L658.344 191.12C651.964 197.264 647.181 203.231 643.941 209.017L643.933 209.032L643.924 209.047C640.811 214.384 639.156 221.906 639.156 231.8C639.156 240.264 640.666 246.255 643.378 250.084C646.001 253.786 649.929 255.72 655.516 255.72C659.713 255.72 663.466 254.133 666.836 250.787V181.858C664.62 184.594 661.789 187.675 658.37 191.094L658.357 191.107ZM666.836 178.6C667.62 177.543 668.286 176.556 668.836 175.64V251.6C664.996 255.68 660.556 257.72 655.516 257.72C643.276 257.72 637.156 249.08 637.156 231.8C637.156 221.72 638.836 213.8 642.196 208.04C645.556 202.04 650.476 195.92 656.956 189.68C661.25 185.386 664.543 181.693 666.836 178.6ZM847.846 250.52C847.846 260.36 849.286 267.2 852.166 271.04C855.286 274.64 860.566 276.44 868.006 276.44V284C867.334 283.975 866.667 283.95 866.006 283.926C841.208 283.015 824.835 282.56 816.886 282.56C808.923 282.56 791.59 283.017 764.886 283.931C764.225 283.954 763.559 283.976 762.886 284V276.44C770.326 276.44 775.486 274.64 778.366 271.04C781.486 267.2 783.046 260.36 783.046 250.52V45.6796C783.046 34.6397 781.486 26.5997 778.366 21.5597C775.486 16.5197 770.326 13.9996 762.886 13.9996V6.43966C763.553 6.50417 764.22 6.5658 764.886 6.62453C771.66 7.22129 778.433 7.51967 785.206 7.51967C809.185 7.51967 829.398 5.96914 845.846 2.86809C846.519 2.7412 847.186 2.61172 847.846 2.47965V250.52ZM853.724 269.783C851.288 266.487 849.846 260.246 849.846 250.52V0.0400391L847.454 0.518486C830.827 3.84389 810.088 5.51967 785.206 5.51967C777.831 5.51967 770.455 5.1628 763.079 4.44896L760.886 4.23677V15.9996H762.886C769.842 15.9996 774.208 18.3146 776.63 22.5519L776.647 22.5825L776.666 22.6124C779.484 27.1651 781.046 34.7392 781.046 45.6796V250.52C781.046 260.285 779.47 266.509 776.814 269.778L776.809 269.784L776.804 269.79C774.487 272.687 770.089 274.44 762.886 274.44H760.886V286.07L762.955 285.998C790.804 285.038 808.767 284.56 816.886 284.56C825.003 284.56 842.004 285.038 867.932 285.998L870.006 286.075V274.44H868.006C860.865 274.44 856.302 272.716 853.724 269.783ZM1044.49 114.084C1027.93 98.0186 1004.56 90.1197 974.696 90.1197C944.829 90.1197 921.467 98.0168 904.908 114.079C888.262 129.984 880.176 155.72 880.176 190.76C880.176 225.804 888.264 251.541 904.914 267.446C921.475 283.265 944.834 291.04 974.696 291.04C1004.56 291.04 1027.92 283.265 1044.48 267.446C1061.13 251.541 1069.22 225.804 1069.22 190.76C1069.22 155.723 1061.13 129.99 1044.49 114.084ZM965.9 106.248C963.073 109.74 960.496 115.13 958.25 122.577C953.778 137.407 951.496 160.087 951.496 190.76C951.496 221.426 953.777 244.103 958.248 258.934C960.493 266.259 963.067 271.557 965.89 274.989C968.676 278.375 971.602 279.84 974.696 279.84C977.789 279.84 980.716 278.375 983.501 274.989C986.323 271.559 988.897 266.263 991.141 258.942C995.613 244.112 997.896 221.432 997.896 190.76C997.896 160.087 995.613 137.407 991.141 122.577C988.895 115.13 986.318 109.74 983.491 106.248C980.701 102.801 977.776 101.32 974.696 101.32C971.615 101.32 968.691 102.801 965.9 106.248ZM993.056 259.52C988.496 274.4 982.376 281.84 974.696 281.84C967.016 281.84 960.896 274.4 956.336 259.52C951.776 244.4 949.496 221.48 949.496 190.76C949.496 160.04 951.776 137.12 956.336 122C960.896 106.88 967.016 99.3197 974.696 99.3197C982.376 99.3197 988.496 106.88 993.056 122C997.616 137.12 999.896 160.04 999.896 190.76C999.896 221.48 997.616 244.4 993.056 259.52ZM1249.51 129.941L1249.46 129.894C1245.41 125.838 1243.48 120.363 1243.48 113.72C1243.48 109.043 1244.51 104.136 1246.53 99.0121C1239.22 102.716 1233.62 107.443 1229.65 113.161C1238.21 122.778 1242.44 135.019 1242.44 149.72C1242.44 169.258 1235.1 184.307 1220.34 194.562L1220.33 194.566C1205.97 204.47 1186.81 209.32 1163.04 209.32C1158.95 209.32 1155.76 209.224 1153.5 209.024C1148.03 212.989 1145.6 217.344 1145.6 222.08C1145.6 225.546 1146.56 227.799 1148.17 229.225C1149.82 230.691 1152.49 231.6 1156.56 231.6H1191.48C1216.14 231.6 1235.63 235.822 1249.75 244.484C1264.33 253.039 1271.6 266.571 1271.6 284.72C1271.6 297.671 1267.35 309.387 1258.92 319.804C1250.7 330.269 1237.97 338.483 1220.96 344.56C1204.11 350.665 1183.1 353.68 1158 353.68C1133.17 353.68 1113.44 350.912 1098.95 345.263C1084.48 339.621 1076.44 331.302 1076.44 320C1076.44 312.276 1080.33 305.397 1087.6 299.379C1094.9 293.339 1105.8 288.686 1120.1 285.294L1121.49 284.962L1126.61 293.156L1125.71 294.266C1119.41 301.962 1116.44 309.208 1116.44 316.04C1116.44 324.658 1120.23 331.226 1128.07 335.925L1128.07 335.929L1128.08 335.933C1136.28 340.946 1147.87 343.56 1163.04 343.56C1178.64 343.56 1190.26 340.362 1198.18 334.256L1198.2 334.237L1198.23 334.218C1206.35 328.35 1210.36 320.55 1210.36 310.64C1210.36 303.803 1207.75 298.385 1202.48 294.21C1197.52 290.336 1188.29 288.16 1174.2 288.16H1154.76C1138.23 288.16 1125.27 285.007 1116.15 278.421C1106.99 271.809 1102.36 262.809 1102.36 251.6C1102.36 241.479 1105.92 232.595 1112.98 225.035L1112.99 225.022L1113 225.01C1119.12 218.674 1127.43 212.763 1137.87 207.25C1122.21 204.371 1109.48 198.686 1099.79 190.096L1099.77 190.08L1099.76 190.064C1088.96 180.025 1083.64 166.499 1083.64 149.72C1083.64 130.196 1090.85 115.258 1105.38 105.235C1119.98 95.0926 1139.26 90.1197 1163.04 90.1197C1187.53 90.1197 1206.92 95.0549 1220.96 105.17C1225.44 99.4609 1230.77 94.8814 1236.95 91.4513C1243.71 87.6914 1250.89 85.7997 1258.44 85.7997C1266.74 85.7997 1273.44 88.201 1278.23 93.2451C1282.97 97.9908 1285.28 104.16 1285.28 111.56C1285.28 118.648 1283.37 124.557 1279.38 129.083L1279.36 129.106L1279.34 129.128C1275.34 133.392 1270.24 135.52 1264.2 135.52C1258.67 135.52 1253.76 133.659 1249.56 129.985L1249.51 129.941ZM1276.8 94.6397C1272.48 90.0797 1266.36 87.7997 1258.44 87.7997C1251.24 87.7997 1244.4 89.5997 1237.92 93.1997C1232 96.4874 1226.88 100.876 1222.57 106.366C1222.16 106.887 1221.75 107.417 1221.36 107.958C1221.36 107.959 1221.36 107.959 1221.36 107.96C1220.83 107.554 1220.3 107.155 1219.75 106.765C1206.17 97.0013 1187.27 92.1197 1163.04 92.1197C1139.52 92.1197 1120.68 97.0397 1106.52 106.88C1092.6 116.48 1085.64 130.76 1085.64 149.72C1085.64 166.04 1090.8 179 1101.12 188.6C1110.99 197.354 1124.23 203.064 1140.82 205.73C1141.97 205.914 1143.14 206.084 1144.32 206.24C1143.24 206.758 1142.18 207.28 1141.15 207.806C1129.72 213.6 1120.82 219.798 1114.44 226.4C1107.72 233.6 1104.36 242 1104.36 251.6C1104.36 262.16 1108.68 270.56 1117.32 276.8C1125.96 283.04 1138.44 286.16 1154.76 286.16H1174.2C1188.36 286.16 1198.2 288.32 1203.72 292.64C1209.48 297.2 1212.36 303.2 1212.36 310.64C1212.36 321.2 1208.04 329.6 1199.4 335.84C1191 342.32 1178.88 345.56 1163.04 345.56C1147.68 345.56 1135.68 342.92 1127.04 337.64C1118.64 332.6 1114.44 325.4 1114.44 316.04C1114.44 308.6 1117.68 300.92 1124.16 293L1120.56 287.24C1106.4 290.6 1095.84 295.16 1088.88 300.92C1081.92 306.68 1078.44 313.04 1078.44 320C1078.44 330.08 1085.52 337.88 1099.68 343.4C1113.84 348.92 1133.28 351.68 1158 351.68C1182.96 351.68 1203.72 348.68 1220.28 342.68C1237.08 336.68 1249.44 328.64 1257.36 318.56C1265.52 308.48 1269.6 297.2 1269.6 284.72C1269.6 267.2 1262.64 254.36 1248.72 246.2C1235.04 237.8 1215.96 233.6 1191.48 233.6H1156.56C1147.92 233.6 1143.6 229.76 1143.6 222.08C1143.6 216.32 1146.72 211.28 1152.96 206.96C1155.12 207.2 1158.48 207.32 1163.04 207.32C1186.56 207.32 1205.28 202.52 1219.2 192.92C1233.36 183.08 1240.44 168.68 1240.44 149.72C1240.44 134.84 1236 122.72 1227.12 113.36C1231.7 106.156 1238.57 100.441 1247.72 96.216C1248.63 95.7958 1249.56 95.3904 1250.52 94.9997C1250.06 95.9166 1249.63 96.8246 1249.24 97.7236C1246.73 103.414 1245.48 108.746 1245.48 113.72C1245.48 119.96 1247.28 124.88 1250.88 128.48C1254.72 131.84 1259.16 133.52 1264.2 133.52C1269.72 133.52 1274.28 131.6 1277.88 127.76C1281.48 123.68 1283.28 118.28 1283.28 111.56C1283.28 104.6 1281.12 98.9597 1276.8 94.6397ZM1171.95 111.13L1171.93 111.095L1171.92 111.06C1169.57 103.287 1166.4 100.6 1163.04 100.6C1159.64 100.6 1156.37 103.33 1153.78 111.094C1151.48 118.46 1150.28 131.263 1150.28 149.72C1150.28 168.154 1151.48 181.083 1153.78 188.702C1156.36 196.18 1159.61 198.84 1163.04 198.84C1166.43 198.84 1169.59 196.217 1171.93 188.723L1171.93 188.705L1171.94 188.687C1174.47 181.098 1175.8 168.181 1175.8 149.72C1175.8 131.251 1174.47 118.467 1171.95 111.13ZM1151.88 110.48C1154.52 102.56 1158.24 98.5997 1163.04 98.5997C1167.84 98.5997 1171.44 102.56 1173.84 110.48C1176.48 118.16 1177.8 131.24 1177.8 149.72C1177.8 168.2 1176.48 181.4 1173.84 189.32C1171.44 197 1167.84 200.84 1163.04 200.84C1158.24 200.84 1154.52 197 1151.88 189.32C1149.48 181.4 1148.28 168.2 1148.28 149.72C1148.28 131.24 1149.48 118.16 1151.88 110.48ZM1481.03 244.76C1481.03 255.8 1482.47 263.84 1485.35 268.88C1488.47 273.92 1493.75 276.44 1501.19 276.44V284C1500.52 283.935 1499.86 283.874 1499.19 283.815C1492.42 283.218 1485.64 282.92 1478.87 282.92C1454.89 282.92 1434.68 284.47 1418.23 287.571C1417.56 287.698 1416.89 287.828 1416.23 287.96V262.04C1415.59 263.103 1414.93 264.134 1414.23 265.134C1403.15 281.071 1384.73 289.04 1358.99 289.04C1339.79 289.04 1326.23 284.24 1318.31 274.64C1314.71 270.32 1312.07 264.56 1310.39 257.36C1308.71 249.92 1307.87 240.2 1307.87 228.2V136.4C1307.87 125.36 1306.31 117.32 1303.19 112.28C1300.31 107.24 1295.15 104.72 1287.71 104.72V97.1596C1288.38 97.2242 1289.04 97.2858 1289.71 97.3445C1296.48 97.9413 1303.26 98.2397 1310.03 98.2397C1334.01 98.2397 1354.22 96.6891 1370.67 93.5881C1371.34 93.4612 1372.01 93.3317 1372.67 93.1997V247.64C1372.67 255.32 1373.99 261.08 1376.63 264.92C1379.51 268.52 1384.07 270.32 1390.31 270.32C1397.27 270.32 1403.27 267.92 1408.31 263.12C1413.59 258.08 1416.23 251.84 1416.23 244.4V136.4C1416.23 125.36 1414.67 117.32 1411.55 112.28C1408.67 107.24 1403.51 104.72 1396.07 104.72V97.1596C1396.74 97.2242 1397.4 97.2858 1398.07 97.3445C1404.84 97.9413 1411.62 98.2397 1418.39 98.2397C1442.37 98.2397 1462.58 96.6891 1479.03 93.5881C1479.7 93.4612 1480.37 93.3317 1481.03 93.1997V244.76ZM1406.93 261.671C1411.81 257.017 1414.23 251.304 1414.23 244.4V136.4C1414.23 125.459 1412.67 117.885 1409.85 113.332L1409.83 113.302L1409.81 113.272C1407.39 109.035 1403.03 106.72 1396.07 106.72H1394.07V94.9568L1396.26 95.169C1403.64 95.8828 1411.01 96.2397 1418.39 96.2397C1443.27 96.2397 1464.01 94.5639 1480.64 91.2385L1483.03 90.76V244.76C1483.03 255.69 1484.47 263.283 1487.07 267.858C1489.73 272.135 1494.26 274.44 1501.19 274.44H1503.19V286.203L1501 285.99C1493.62 285.277 1486.25 284.92 1478.87 284.92C1453.99 284.92 1433.25 286.595 1416.62 289.921L1414.23 290.399V268.516C1402.54 283.631 1383.97 291.04 1358.99 291.04C1339.52 291.04 1325.24 286.176 1316.77 275.912C1312.92 271.291 1310.17 265.222 1308.44 257.814L1308.44 257.8C1306.71 250.158 1305.87 240.274 1305.87 228.2V136.4C1305.87 125.459 1304.31 117.885 1301.49 113.332L1301.47 113.302L1301.45 113.272C1299.03 109.035 1294.67 106.72 1287.71 106.72H1285.71V94.9568L1287.9 95.169C1295.28 95.8828 1302.65 96.2397 1310.03 96.2397C1334.91 96.2397 1355.65 94.5639 1372.28 91.2385L1374.67 90.76V247.64C1374.67 255.108 1375.96 260.37 1378.24 263.726C1380.62 266.663 1384.49 268.32 1390.31 268.32C1396.76 268.32 1402.26 266.117 1406.93 261.671ZM1670.38 223.294L1679.74 226.597L1679.16 228.439C1673.78 245.563 1664.6 260.257 1651.63 272.493C1638.73 284.893 1622.13 291.04 1602.02 291.04C1576.37 291.04 1555.66 283.083 1540.1 267.032C1524.46 250.892 1516.86 225.309 1516.86 190.76C1516.86 157.561 1525.34 132.353 1542.66 115.525C1560.14 98.5408 1583.11 90.1197 1611.38 90.1197C1634.46 90.1197 1652.11 96.976 1663.93 110.99C1675.7 124.939 1681.42 145.646 1681.42 172.76V174.76H1588.4C1588.25 177.465 1588.18 181.112 1588.18 185.72C1588.18 208.623 1592.13 224.478 1599.6 233.772C1607.43 243.204 1616.72 247.8 1627.58 247.8C1644.36 247.8 1658.31 240.149 1669.51 224.515L1670.38 223.294ZM1598.06 235.04C1590.14 225.2 1586.18 208.76 1586.18 185.72C1586.18 179.96 1586.3 175.64 1586.54 172.76H1679.42C1679.42 172.089 1679.41 171.422 1679.4 170.76C1678.85 118.333 1656.17 92.1197 1611.38 92.1197C1583.54 92.1197 1561.1 100.4 1544.06 116.96C1527.26 133.28 1518.86 157.88 1518.86 190.76C1518.86 225.08 1526.42 250.04 1541.54 265.64C1556.66 281.24 1576.82 289.04 1602.02 289.04C1621.7 289.04 1637.78 283.04 1650.26 271.04C1662.98 259.04 1671.98 244.64 1677.26 227.84L1671.14 225.68C1659.62 241.76 1645.1 249.8 1627.58 249.8C1616.06 249.8 1606.22 244.88 1598.06 235.04ZM1620.59 119.236L1620.59 119.218C1619.18 113.213 1617.4 108.928 1615.35 106.185C1613.35 103.505 1611.2 102.4 1608.86 102.4C1603.5 102.4 1598.62 106.695 1594.72 117.461C1590.98 127.754 1588.46 143.199 1587.21 163.92H1624.87C1624.99 145.716 1623.55 130.844 1620.6 119.254L1620.59 119.236ZM1626.86 165.92H1585.1C1585.13 165.248 1585.17 164.581 1585.21 163.92C1587.74 121.573 1595.62 100.4 1608.86 100.4C1615.1 100.4 1619.66 106.52 1622.54 118.76C1625.66 131 1627.1 146.72 1626.86 165.92ZM1043.1 115.52C1027.02 99.9197 1004.22 92.1197 974.696 92.1197C945.176 92.1197 922.376 99.9197 906.296 115.52C890.216 130.88 882.176 155.96 882.176 190.76C882.176 225.56 890.216 250.64 906.296 266C922.376 281.36 945.176 289.04 974.696 289.04C1004.22 289.04 1027.02 281.36 1043.1 266C1059.18 250.64 1067.22 225.56 1067.22 190.76C1067.22 155.96 1059.18 130.88 1043.1 115.52Z" fill="#E9EBF0"/>
</svg>
