<svg width="27" height="27" viewBox="0 0 27 27" fill="none" xmlns="http://www.w3.org/2000/svg">
<path d="M11.9171 13.507L0.343288 1.93323C-0.103411 1.50182 -0.115797 0.789999 0.315619 0.3433C0.747032 -0.1034 1.45885 -0.115786 1.90555 0.315628C1.91491 0.324654 1.92413 0.333878 1.93322 0.3433L13.5071 11.9171L25.0809 0.343234C25.5276 -0.0881803 26.2394 -0.0757939 26.6708 0.370905C27.0917 0.806668 27.0917 1.49747 26.6708 1.93323L15.097 13.507L26.6708 25.0808C27.1098 25.5199 27.1098 26.2317 26.6708 26.6707C26.2318 27.1097 25.5199 27.1097 25.0809 26.6707L13.5071 15.097L1.93329 26.6707C1.48659 27.1022 0.774769 27.0898 0.343355 26.6431C-0.0774517 26.2073 -0.0774517 25.5165 0.343355 25.0808L11.9171 13.507Z" fill="#020F31"/>
</svg>
