<svg width="27" height="27" viewBox="0 0 27 27" fill="none" xmlns="http://www.w3.org/2000/svg">
<path d="M11.917 13.507L0.343227 1.93323C-0.103472 1.50182 -0.115858 0.789999 0.315557 0.3433C0.746971 -0.1034 1.45879 -0.115786 1.90549 0.315628C1.91484 0.324654 1.92407 0.333878 1.93316 0.3433L13.507 11.9171L25.0808 0.343234C25.5275 -0.0881803 26.2393 -0.0757939 26.6708 0.370905C27.0916 0.806668 27.0916 1.49747 26.6708 1.93323L15.097 13.507L26.6708 25.0808C27.1097 25.5199 27.1097 26.2317 26.6708 26.6707C26.2317 27.1097 25.5199 27.1097 25.0808 26.6707L13.507 15.097L1.93323 26.6707C1.48653 27.1022 0.774708 27.0898 0.343294 26.6431C-0.0775127 26.2073 -0.0775127 25.5165 0.343294 25.0808L11.917 13.507Z" fill="#DE162A"/>
</svg>
