<svg width="20" height="20" viewBox="0 0 20 20" fill="none" xmlns="http://www.w3.org/2000/svg">
<g opacity="0.2">
<path d="M8.82746 10.0052L0.254295 1.43202C-0.0765915 1.11246 -0.0857658 0.585183 0.233799 0.254295C0.553364 -0.0765922 1.08064 -0.0857672 1.41152 0.233798C1.41845 0.240484 1.42529 0.247316 1.43202 0.254295L10.0052 8.82745L18.5784 0.254246C18.9093 -0.0653185 19.4366 -0.0561435 19.7561 0.274744C20.0679 0.59753 20.0679 1.10923 19.7561 1.43202L11.183 10.0052L19.7561 18.5783C20.0813 18.9036 20.0813 19.4308 19.7561 19.7561C19.4309 20.0812 18.9036 20.0812 18.5784 19.7561L10.0052 11.1829L1.43207 19.7561C1.10118 20.0756 0.57391 20.0664 0.254345 19.7356C-0.0573635 19.4128 -0.0573635 18.9011 0.254345 18.5783L8.82746 10.0052Z" fill="#020F31"/>
</g>
</svg>
