<svg width="35" height="35" viewBox="0 0 35 35" fill="none" xmlns="http://www.w3.org/2000/svg">
<path d="M9.29688 27.3438H3.82812C3.68308 27.3438 3.54399 27.4014 3.44143 27.5039C3.33887 27.6065 3.28125 27.7456 3.28125 27.8906V32.2656C3.28125 32.4107 3.33887 32.5498 3.44143 32.6523C3.54399 32.7549 3.68308 32.8125 3.82812 32.8125H9.29688C9.44192 32.8125 9.58102 32.7549 9.68357 32.6523C9.78613 32.5498 9.84375 32.4107 9.84375 32.2656V27.8906C9.84375 27.7456 9.78613 27.6065 9.68357 27.5039C9.58102 27.4014 9.44192 27.3438 9.29688 27.3438ZM8.75 31.7188H4.375V28.4375H8.75V31.7188Z" fill="#020F31"/>
<path d="M15.3125 27.3438H10.9375C10.7925 27.3438 10.6534 27.4014 10.5508 27.5039C10.4482 27.6065 10.3906 27.7456 10.3906 27.8906C10.3906 28.0357 10.4482 28.1748 10.5508 28.2773C10.6534 28.3799 10.7925 28.4375 10.9375 28.4375H15.3125C15.4575 28.4375 15.5966 28.3799 15.6992 28.2773C15.8018 28.1748 15.8594 28.0357 15.8594 27.8906C15.8594 27.7456 15.8018 27.6065 15.6992 27.5039C15.5966 27.4014 15.4575 27.3438 15.3125 27.3438Z" fill="#020F31"/>
<path d="M13.125 28.9844H10.9375C10.7925 28.9844 10.6534 29.042 10.5508 29.1446C10.4482 29.2471 10.3906 29.3862 10.3906 29.5312C10.3906 29.6763 10.4482 29.8154 10.5508 29.9179C10.6534 30.0205 10.7925 30.0781 10.9375 30.0781H13.125C13.27 30.0781 13.4091 30.0205 13.5117 29.9179C13.6143 29.8154 13.6719 29.6763 13.6719 29.5312C13.6719 29.3862 13.6143 29.2471 13.5117 29.1446C13.4091 29.042 13.27 28.9844 13.125 28.9844Z" fill="#020F31"/>
<path d="M12.0312 30.625H10.9375C10.7925 30.625 10.6534 30.6826 10.5508 30.7852C10.4482 30.8877 10.3906 31.0268 10.3906 31.1719C10.3906 31.3169 10.4482 31.456 10.5508 31.5586C10.6534 31.6611 10.7925 31.7188 10.9375 31.7188H12.0312C12.1763 31.7188 12.3154 31.6611 12.4179 31.5586C12.5205 31.456 12.5781 31.3169 12.5781 31.1719C12.5781 31.0268 12.5205 30.8877 12.4179 30.7852C12.3154 30.6826 12.1763 30.625 12.0312 30.625Z" fill="#020F31"/>
<path d="M25.7031 5.46875C24.5133 5.46875 23.3503 5.82156 22.361 6.48257C21.3718 7.14357 20.6007 8.08308 20.1454 9.18229C19.6901 10.2815 19.571 11.491 19.8031 12.658C20.0352 13.8249 20.6081 14.8968 21.4494 15.7381C22.2907 16.5794 23.3626 17.1523 24.5295 17.3844C25.6965 17.6165 26.906 17.4974 28.0052 17.0421C29.1044 16.5868 30.0439 15.8157 30.7049 14.8265C31.3659 13.8372 31.7188 12.6742 31.7188 11.4844C31.7169 9.88949 31.0826 8.36044 29.9548 7.23268C28.8271 6.10493 27.298 5.47056 25.7031 5.46875ZM25.7031 16.4062C24.7297 16.4062 23.7781 16.1176 22.9687 15.5768C22.1593 15.0359 21.5284 14.2673 21.1559 13.3679C20.7834 12.4685 20.6859 11.4789 20.8758 10.5242C21.0657 9.56941 21.5345 8.69242 22.2228 8.00408C22.9112 7.31575 23.7882 6.84698 24.7429 6.65707C25.6977 6.46716 26.6873 6.56463 27.5866 6.93716C28.486 7.30968 29.2547 7.94053 29.7955 8.74993C30.3363 9.55933 30.625 10.5109 30.625 11.4844C30.6235 12.7893 30.1045 14.0403 29.1818 14.963C28.2591 15.8858 27.008 16.4048 25.7031 16.4062Z" fill="#020F31"/>
<path d="M31.7345 6.77373L32.6525 5.85566C32.7034 5.80485 32.7437 5.74453 32.7712 5.67815C32.7987 5.61176 32.8128 5.54061 32.8128 5.46875C32.8128 5.39689 32.7987 5.32574 32.7712 5.25935C32.7437 5.19297 32.7034 5.13265 32.6525 5.08184C32.6017 5.03103 32.5414 4.99072 32.475 4.96322C32.4086 4.93572 32.3375 4.92157 32.2656 4.92157C32.1938 4.92157 32.1226 4.93572 32.0562 4.96322C31.9898 4.99072 31.9295 5.03103 31.8787 5.08184L30.9996 5.96094C29.7125 4.72242 28.0317 3.97467 26.25 3.84795V3.28125H27.3438C27.4888 3.28125 27.6279 3.22363 27.7305 3.12107C27.833 3.01851 27.8906 2.87942 27.8906 2.73438V1.09375C27.8906 0.94871 27.833 0.80961 27.7305 0.707051C27.6279 0.604492 27.4888 0.546875 27.3438 0.546875H24.0625C23.9175 0.546875 23.7784 0.604492 23.6758 0.707051C23.5732 0.80961 23.5156 0.94871 23.5156 1.09375V2.73438C23.5156 2.87942 23.5732 3.01851 23.6758 3.12107C23.7784 3.22363 23.9175 3.28125 24.0625 3.28125H25.1563V3.84795C23.2262 3.98844 21.4206 4.8537 20.102 6.27009C18.7834 7.68648 18.0492 9.54919 18.0469 11.4844H3.28125C2.84631 11.485 2.42934 11.658 2.12179 11.9655C1.81424 12.2731 1.6412 12.6901 1.64062 13.125V32.8125C1.6412 33.2474 1.81424 33.6644 2.12179 33.972C2.42934 34.2795 2.84631 34.4525 3.28125 34.4531H22.9688C23.4037 34.4525 23.8207 34.2795 24.1282 33.972C24.4358 33.6644 24.6088 33.2474 24.6094 32.8125V19.062C25.696 19.2189 26.8036 19.1403 27.8572 18.8315C28.9107 18.5227 29.8855 17.9908 30.7155 17.2721C31.5454 16.5534 32.211 15.6646 32.6672 14.6659C33.1234 13.6673 33.3595 12.5823 33.3594 11.4844C33.3611 9.77641 32.7888 8.11742 31.7345 6.77373ZM24.6094 2.1875V1.64062H26.7969V2.1875H24.6094ZM10.3906 12.5781H15.8594V21.9468L13.4285 20.326C13.3386 20.2662 13.233 20.2344 13.125 20.2344C13.017 20.2344 12.9114 20.2662 12.8215 20.326L10.3906 21.9468V12.5781ZM23.5156 32.8125C23.5154 32.9575 23.4577 33.0965 23.3552 33.199C23.2527 33.3015 23.1137 33.3592 22.9688 33.3594H3.28125C3.13627 33.3592 2.99729 33.3015 2.89477 33.199C2.79225 33.0965 2.73457 32.9575 2.73438 32.8125V13.125C2.73457 12.98 2.79225 12.841 2.89477 12.7385C2.99729 12.636 3.13627 12.5783 3.28125 12.5781H9.29688V22.9688C9.29702 23.0677 9.32398 23.1648 9.37488 23.2496C9.42578 23.3345 9.49873 23.4039 9.58596 23.4506C9.67319 23.4973 9.77145 23.5195 9.87029 23.5148C9.96912 23.5101 10.0648 23.4788 10.1473 23.424L13.125 21.4382L16.1027 23.424C16.1927 23.4838 16.2983 23.5156 16.4063 23.5156C16.5512 23.5154 16.6902 23.4576 16.7927 23.3551C16.8952 23.2526 16.9529 23.1137 16.9531 22.9688V12.5781H18.1255C18.3367 14.0238 18.9561 15.3792 19.9109 16.4852C20.8656 17.5911 22.1162 18.4015 23.5156 18.8214V32.8125ZM25.7031 18.0469C24.4052 18.0469 23.1364 17.662 22.0572 16.9409C20.978 16.2198 20.1369 15.1949 19.6402 13.9957C19.1435 12.7966 19.0135 11.4771 19.2667 10.2041C19.5199 8.93109 20.145 7.76177 21.0627 6.84399C21.9805 5.9262 23.1498 5.30119 24.4228 5.04797C25.6958 4.79476 27.0153 4.92472 28.2145 5.42142C29.4136 5.91812 30.4386 6.75925 31.1596 7.83845C31.8807 8.91764 32.2656 10.1864 32.2656 11.4844C32.2635 13.2242 31.5715 14.8922 30.3412 16.1225C29.111 17.3527 27.443 18.0448 25.7031 18.0469Z" fill="#020F31"/>
<path d="M26.25 11.2579V9.29687C26.25 9.15183 26.1924 9.01273 26.0898 8.91018C25.9873 8.80762 25.8482 8.75 25.7031 8.75C25.5581 8.75 25.419 8.80762 25.3164 8.91018C25.2139 9.01273 25.1563 9.15183 25.1563 9.29687V11.4844C25.1562 11.5562 25.1704 11.6273 25.1979 11.6937C25.2254 11.76 25.2656 11.8203 25.3164 11.8711L26.4102 12.9648C26.4609 13.0156 26.5212 13.0559 26.5876 13.0834C26.6539 13.1109 26.7251 13.125 26.7969 13.125C26.8687 13.125 26.9398 13.1109 27.0062 13.0834C27.0725 13.0559 27.1328 13.0156 27.1836 12.9648C27.2344 12.9141 27.2747 12.8538 27.3021 12.7874C27.3296 12.7211 27.3438 12.6499 27.3438 12.5781C27.3438 12.5063 27.3296 12.4352 27.3021 12.3688C27.2747 12.3025 27.2344 12.2422 27.1836 12.1914L26.25 11.2579Z" fill="#020F31"/>
</svg>
