<svg width="27" height="27" viewBox="0 0 27 27" fill="none" xmlns="http://www.w3.org/2000/svg">
<g clip-path="url(#clip0)">
<path d="M26.9136 9.36837L22.5899 2.77526C22.4924 2.62665 22.3267 2.53711 22.149 2.53711H4.87149C4.69414 2.53711 4.52872 2.62623 4.43116 2.77436L0.100504 9.34781C0.0798852 9.37623 0.0620083 9.40692 0.0470845 9.43972C-0.038398 9.6282 -0.00570264 9.84921 0.130668 10.0049L2.32574 12.5112C2.51764 12.7303 2.85071 12.7523 3.06977 12.5605C3.28882 12.3686 3.31087 12.0355 3.11902 11.8165L1.69008 10.1848H8.7829L12.3471 22.3531L8.31947 17.7544C8.12762 17.5353 7.79445 17.5133 7.57544 17.7051C7.35638 17.897 7.33434 18.2301 7.52619 18.4491L13.105 24.819C13.205 24.9333 13.3497 24.9989 13.5016 24.9989C13.6536 24.9989 13.7982 24.9333 13.8982 24.8189L19.8377 18.0356C20.0296 17.8165 20.0075 17.4833 19.7884 17.2916C19.5692 17.0997 19.2361 17.1217 19.0443 17.3409L14.6563 22.3524L18.2203 10.1848H25.3102L22.031 13.9299C21.8391 14.1491 21.8612 14.4822 22.0803 14.674C22.1804 14.7616 22.3042 14.8046 22.4275 14.8046C22.5742 14.8046 22.7202 14.7437 22.8244 14.6246L26.8694 10.0048C27.0254 9.82669 27.0435 9.56639 26.9136 9.36837ZM1.50677 9.13022L4.87043 4.02443L8.2188 9.13022H1.50677ZM5.84781 3.59174H12.5252L9.18653 8.68277L5.84781 3.59174ZM13.5016 4.02596L16.8489 9.13022H10.1543L13.5016 4.02596ZM13.5016 22.5431L9.88178 10.1848H17.1214L13.5016 22.5431ZM17.8253 8.69601L14.478 3.59174H21.1727L17.8253 8.69601ZM18.8016 9.13022L22.149 4.02596L25.4963 9.13022H18.8016Z" fill="#020F31"/>
<path d="M8.28893 15.2451C6.92875 15.2451 5.82212 14.1384 5.82212 12.7783C5.82212 12.4871 5.58603 12.251 5.29483 12.251C5.00363 12.251 4.76754 12.4871 4.76754 12.7783C4.76754 14.1384 3.66091 15.2451 2.30073 15.2451C2.00958 15.2451 1.77344 15.4812 1.77344 15.7724C1.77344 16.0636 2.00958 16.2997 2.30073 16.2997C3.66091 16.2997 4.76754 17.4063 4.76754 18.7665C4.76754 19.0577 5.00368 19.2938 5.29483 19.2938C5.58597 19.2938 5.82212 19.0577 5.82212 18.7665C5.82212 17.4063 6.92875 16.2997 8.28893 16.2997C8.58013 16.2997 8.81622 16.0636 8.81622 15.7724C8.81622 15.4812 8.58013 15.2451 8.28893 15.2451ZM5.29483 16.9146C5.00737 16.4515 4.61566 16.0599 4.1526 15.7724C4.61566 15.4849 5.00732 15.0933 5.29483 14.6301C5.58228 15.0932 5.97399 15.4849 6.43705 15.7724C5.97399 16.0599 5.58234 16.4515 5.29483 16.9146Z" fill="#020F31"/>
<path d="M26.4732 0.110141C25.6009 0.110141 24.8913 -0.599506 24.8913 -1.47173C24.8913 -1.76293 24.6551 -1.99902 24.364 -1.99902C24.0728 -1.99902 23.8367 -1.76293 23.8367 -1.47173C23.8367 -0.599506 23.1271 0.110141 22.2548 0.110141C21.9637 0.110141 21.7275 0.346233 21.7275 0.637432C21.7275 0.928631 21.9637 1.16472 22.2548 1.16472C23.1271 1.16472 23.8367 1.87437 23.8367 2.7466C23.8367 3.0378 24.0728 3.27389 24.364 3.27389C24.6551 3.27389 24.8913 3.0378 24.8913 2.7466C24.8913 1.87437 25.6009 1.16472 26.4732 1.16472C26.7643 1.16472 27.0004 0.928631 27.0004 0.637432C27.0004 0.346233 26.7643 0.110141 26.4732 0.110141ZM24.364 1.16636C24.2135 0.966072 24.0354 0.787883 23.8351 0.637432C24.0354 0.486981 24.2135 0.308791 24.364 0.108506C24.5144 0.308791 24.6926 0.486981 24.8929 0.637432C24.6926 0.78783 24.5144 0.966072 24.364 1.16636Z" fill="#020F31"/>
<path d="M21.2408 15.6858C21.1428 15.5871 21.0067 15.5312 20.8681 15.5312C20.7294 15.5312 20.5939 15.5871 20.4953 15.6858C20.3972 15.7838 20.3408 15.9199 20.3408 16.0585C20.3408 16.1972 20.3972 16.3332 20.4953 16.4313C20.5934 16.5294 20.7294 16.5858 20.8681 16.5858C21.0068 16.5858 21.1428 16.5294 21.2408 16.4313C21.3389 16.3332 21.3954 16.1972 21.3954 16.0585C21.3954 15.9199 21.339 15.7838 21.2408 15.6858Z" fill="#020F31"/>
</g>
<defs>
<clipPath id="clip0">
<rect width="27" height="27" fill="white"/>
</clipPath>
</defs>
</svg>
