<svg width="24" height="16" viewBox="0 0 24 16" fill="none" xmlns="http://www.w3.org/2000/svg">
<path d="M23.8475 8.11532C23.6331 8.40862 18.5245 15.2969 11.9999 15.2969C5.4753 15.2969 0.36647 8.40862 0.152297 8.1156C-0.0507658 7.83735 -0.0507658 7.45996 0.152297 7.18171C0.36647 6.88841 5.4753 0.000157356 11.9999 0.000157356C18.5245 0.000157356 23.6331 6.88846 23.8475 7.18147C24.0508 7.45968 24.0508 7.83735 23.8475 8.11532ZM11.9999 1.58257C7.19383 1.58257 3.03127 6.15444 1.79907 7.64906C3.02968 9.14498 7.18352 13.7145 11.9999 13.7145C16.8057 13.7145 20.968 9.14339 22.2007 7.64798C20.9701 6.1521 16.8163 1.58257 11.9999 1.58257Z" fill="#A8A8A8"/>
<path d="M11.9992 12.3955C9.38163 12.3955 7.25195 10.2658 7.25195 7.64823C7.25195 5.03063 9.38163 2.90095 11.9992 2.90095C14.6168 2.90095 16.7465 5.03063 16.7465 7.64823C16.7465 10.2658 14.6168 12.3955 11.9992 12.3955ZM11.9992 4.48341C10.2541 4.48341 8.83441 5.90311 8.83441 7.64823C8.83441 9.39334 10.2541 10.8131 11.9992 10.8131C13.7443 10.8131 15.1641 9.39334 15.1641 7.64823C15.1641 5.90311 13.7444 4.48341 11.9992 4.48341Z" fill="#A8A8A8"/>
</svg>
