<svg width="28" height="27" viewBox="0 0 28 27" fill="none" xmlns="http://www.w3.org/2000/svg">
<path d="M27.0653 13.4975C27.0563 13.3803 27.0033 13.2708 26.9171 13.1909C26.8308 13.111 26.7175 13.0666 26.6 13.0667H19.9039L19.5994 6.97667C19.5934 6.85709 19.5417 6.74438 19.4549 6.66187C19.3682 6.57935 19.253 6.53333 19.1333 6.53333H15.8666V4.2C15.8669 3.52802 15.7058 2.8658 15.397 2.26898C15.0882 1.67217 14.6406 1.1582 14.0919 0.770274C13.5432 0.382344 12.9094 0.131784 12.2438 0.0396507C11.5781 -0.0524828 10.9001 0.0165016 10.2667 0.240807C9.63321 0.0165016 8.95518 -0.0524828 8.28955 0.0396507C7.62391 0.131784 6.99011 0.382344 6.44142 0.770274C5.89272 1.1582 5.44515 1.67217 5.13632 2.26898C4.82749 2.8658 4.66643 3.52802 4.66666 4.2V6.53333H1.4C1.28027 6.53333 1.16512 6.57935 1.07837 6.66187C0.99162 6.74438 0.939902 6.85709 0.933916 6.97667L0.000583725 25.6433C-0.00257869 25.7065 0.0071327 25.7696 0.0291281 25.8289C0.0511234 25.8882 0.0849437 25.9424 0.128535 25.9883C0.172125 26.0341 0.224577 26.0706 0.282704 26.0955C0.34083 26.1205 0.403418 26.1333 0.466666 26.1333H27.5333C27.5976 26.1333 27.6612 26.12 27.7201 26.0943C27.7791 26.0685 27.832 26.0309 27.8757 25.9837C27.9194 25.9365 27.9529 25.8808 27.974 25.8201C27.9952 25.7594 28.0036 25.6949 27.9986 25.6308L27.0653 13.4975ZM25.6666 23.7079L26.6613 25.2H24.6722L25.6666 23.7079ZM26.9311 23.922L26.1194 22.7045L25.249 14H26.1678L26.9311 23.922ZM24.311 14L25.186 22.7468L24.1616 24.283L23.3706 14H24.311ZM18.9694 13.0667H18.0911L17.7616 7.46666H18.6891L18.9694 13.0667ZM16.8266 7.46666L17.1561 13.0667H16.1703L15.8903 7.46666H16.8266ZM11.6667 0.93334C12.5327 0.934328 13.363 1.27881 13.9754 1.89121C14.5878 2.50362 14.9323 3.33393 14.9333 4.2V6.53333H13.0667V4.2C13.0667 3.57431 12.9266 2.95655 12.6569 2.392C12.3871 1.82745 11.9944 1.33043 11.5076 0.937365C11.5603 0.934856 11.6133 0.93334 11.6667 0.93334ZM10.2667 1.24916C10.8248 1.51443 11.2963 1.9324 11.6267 2.45464C11.9571 2.97689 12.1327 3.58204 12.1333 4.2V6.53333H8.39999V4.2C8.40059 3.58204 8.57624 2.97689 8.9066 2.45464C9.23697 1.9324 9.70852 1.51443 10.2667 1.24916ZM5.59999 4.2C5.60098 3.33393 5.94546 2.50362 6.55787 1.89121C7.17027 1.27881 8.00059 0.934328 8.86666 0.93334C8.92003 0.93334 8.973 0.934856 9.02573 0.937365C8.5389 1.33042 8.1462 1.82744 7.87643 2.39199C7.60666 2.95654 7.46664 3.57431 7.46666 4.2V6.53333H5.59999V4.2ZM11.2345 25.2H0.957249L1.84391 7.46666H4.66666V10.4836L3.47445 11.2784C3.41053 11.321 3.35812 11.3787 3.32188 11.4465C3.28563 11.5142 3.26666 11.5898 3.26666 11.6667V15.4C3.26666 15.5238 3.31583 15.6425 3.40335 15.73C3.49086 15.8175 3.60956 15.8667 3.73333 15.8667H6.53333C6.65709 15.8667 6.77579 15.8175 6.86331 15.73C6.95083 15.6425 6.99999 15.5238 6.99999 15.4V11.6667C6.99999 11.5898 6.98102 11.5142 6.94478 11.4465C6.90853 11.3787 6.85612 11.321 6.79221 11.2784L5.59999 10.4836V7.46666H12.1333V8.86666C12.1333 8.99043 12.1825 9.10913 12.27 9.19665C12.3575 9.28416 12.4762 9.33333 12.6 9.33333C12.7238 9.33333 12.8425 9.28416 12.93 9.19665C13.0175 9.10913 13.0667 8.99043 13.0667 8.86666V7.46666H14.9561L15.2361 13.0667H12.6C12.4824 13.0666 12.3692 13.111 12.2829 13.1909C12.1966 13.2708 12.1437 13.3803 12.1347 13.4975L11.2345 25.2ZM5.13333 11.2942L6.06666 11.9164V14.9333H4.2V11.9164L5.13333 11.2942ZM13.0321 14H22.4345L23.296 25.2H12.1706L13.0321 14Z" fill="#020F31"/>
<path d="M20.0669 15.8667C19.9432 15.8667 19.8245 15.9158 19.7369 16.0034C19.6494 16.0909 19.6003 16.2096 19.6003 16.3333V20.0667C19.5998 20.4378 19.4522 20.7937 19.1897 21.0562C18.9273 21.3186 18.5714 21.4662 18.2003 21.4667H17.2669C16.8957 21.4662 16.5399 21.3186 16.2774 21.0562C16.015 20.7937 15.8673 20.4378 15.8669 20.0667V16.3333C15.8669 16.2096 15.8178 16.0909 15.7302 16.0034C15.6427 15.9158 15.524 15.8667 15.4003 15.8667C15.2765 15.8667 15.1578 15.9158 15.0703 16.0034C14.9828 16.0909 14.9336 16.2096 14.9336 16.3333V20.0667C14.9343 20.6853 15.1803 21.2784 15.6178 21.7158C16.0552 22.1532 16.6483 22.3993 17.2669 22.4H18.2003C18.8189 22.3993 19.412 22.1532 19.8494 21.7158C20.2868 21.2784 20.5329 20.6853 20.5336 20.0667V16.3333C20.5336 16.2096 20.4844 16.0909 20.3969 16.0034C20.3094 15.9158 20.1907 15.8667 20.0669 15.8667Z" fill="#020F31"/>
</svg>
