<svg width="31" height="32" viewBox="0 0 31 32" fill="none" xmlns="http://www.w3.org/2000/svg">
<g clip-path="url(#clip0)">
<path d="M30.0352 18.5879C29.7318 18.4383 29.1545 18.1243 28.6961 17.7021C28.4148 17.4429 28.0795 17.0487 28.0795 16.6427V14.4041C28.0795 11.016 26.7765 7.96587 24.7571 5.60768C22.3687 2.81862 18.6256 1.38312 15.4655 1.38312C12.3227 1.38312 8.69471 2.76506 6.22053 5.55612C4.14686 7.89531 2.8517 10.9907 2.8517 14.4041V16.6426C2.8517 17.3916 1.83518 18.1586 0.964754 18.5879C0.37866 18.8769 0 19.4989 0 20.1724V22.7826C0 23.4561 0.37866 24.0781 0.964754 24.3671C1.83518 24.7964 2.8517 25.5634 2.8517 26.3124C2.8517 26.6576 3.12277 26.9374 3.45717 26.9374H6.3088C6.6432 26.9374 6.91427 26.6576 6.91427 26.3124V16.6427C6.91427 16.2975 6.6432 16.0177 6.3088 16.0177H4.06263V14.4041C4.06263 11.4916 5.09314 8.82324 6.79693 6.76587L7.02005 6.94181C8.30715 7.95637 10.0485 8.06818 11.4562 7.22674C11.9387 6.93837 12.4547 6.70106 12.9898 6.52143C13.3078 6.41468 13.4818 6.06206 13.3784 5.73381C13.275 5.40556 12.9332 5.22581 12.6154 5.33268C11.9995 5.53937 11.4054 5.81268 10.8494 6.14499C9.86648 6.73243 8.65191 6.65537 7.75502 5.94837L7.63617 5.85462C9.68017 3.85893 12.4367 2.63331 15.4655 2.63331C18.5171 2.63331 21.2925 3.87724 23.341 5.89943L23.2342 5.98362C22.3317 6.69493 21.1128 6.76949 20.1289 6.17337C19.5425 5.81812 18.9158 5.52956 18.266 5.31574C17.9475 5.21074 17.6068 5.39249 17.5053 5.72137C17.4037 6.05024 17.5796 6.40187 17.8982 6.50668C18.4626 6.69243 19.0069 6.94299 19.516 7.25149C20.1493 7.63518 20.8507 7.82474 21.5487 7.82474C22.4048 7.82474 23.2556 7.53949 23.9691 6.97712L24.1746 6.81518C25.8542 8.86581 26.8685 11.5148 26.8685 14.4041V16.0177H24.6912C24.3568 16.0177 24.0857 16.2975 24.0857 16.6427V25.9603L18.9732 29.1583C18.7549 29.2949 18.5046 29.3671 18.2493 29.3671H17.8082C17.8103 29.3359 17.8128 29.3048 17.8128 29.273V28.1091C17.8128 27.368 17.2287 26.765 16.5106 26.765H14.9656C14.2476 26.765 13.6635 27.3679 13.6635 28.1091V29.273C13.6635 30.0141 14.2476 30.6171 14.9656 30.6171H18.2492C18.7258 30.6171 19.1931 30.4823 19.6007 30.2274L24.8603 26.9374H27.4739C27.8083 26.9374 28.0794 26.6576 28.0794 26.3124C28.0794 25.9063 28.4148 25.5121 28.6961 25.253C29.1544 24.8307 29.7318 24.5167 30.0352 24.3671C30.6213 24.0781 31 23.4561 31 22.7826V20.1724C31 19.4989 30.6213 18.8769 30.0352 18.5879ZM1.48673 23.2392C1.3192 23.1566 1.21094 22.9773 1.21094 22.7826V20.1724C1.21094 19.9777 1.3192 19.7984 1.48673 19.7158C1.82458 19.5492 2.35782 19.2526 2.8517 18.8363V24.1186C2.35776 23.7023 1.82458 23.4057 1.48673 23.2392ZM5.70333 17.2677V25.6874H4.06263V17.2677H5.70333ZM14.9657 29.3671C14.9154 29.3671 14.8745 29.3249 14.8745 29.273V28.1091C14.8745 28.0572 14.9154 28.015 14.9657 28.015H16.5107C16.561 28.015 16.6019 28.0572 16.6019 28.1091V29.273C16.6019 29.3249 16.561 29.3671 16.5107 29.3671H14.9657ZM25.2967 17.2677H26.8685V25.6874H25.2967V17.2677ZM29.7891 22.7826C29.7891 22.9773 29.6808 23.1566 29.5133 23.2392C28.9105 23.5364 28.4426 23.8435 28.0795 24.1467V18.8084C28.4426 19.1116 28.9105 19.4186 29.5133 19.7159C29.6808 19.7985 29.7891 19.9777 29.7891 20.1725V22.7826Z" fill="#020F31"/>
<path d="M15.5579 23.5827C19.014 23.5827 21.8258 20.6803 21.8258 17.1127C21.8258 13.545 19.014 10.6426 15.5579 10.6426C12.1018 10.6426 9.29004 13.545 9.29004 17.1127C9.29004 18.4972 9.72622 19.8564 10.5224 20.9651V23.7579C10.5224 24.1872 10.9523 24.495 11.3424 24.3423L13.8821 23.3486C14.426 23.504 14.9887 23.5827 15.5579 23.5827ZM13.6434 22.1051L11.7333 22.8525V20.7739C11.738 20.6264 11.692 20.4807 11.6016 20.3636C10.8816 19.4314 10.501 18.3072 10.501 17.1127C10.501 14.2343 12.7696 11.8926 15.558 11.8926C18.3463 11.8926 20.6149 14.2344 20.6149 17.1127C20.6149 19.991 18.3463 22.3327 15.558 22.3327C15.0401 22.3327 14.5292 22.2522 14.0396 22.0933C13.9099 22.0512 13.7704 22.0554 13.6434 22.1051Z" fill="#020F31"/>
<path d="M15.6196 20.5987C15.954 20.5987 16.2251 20.3189 16.2251 19.9737V16.3707C16.2251 16.0255 15.954 15.7457 15.6196 15.7457C15.2852 15.7457 15.0142 16.0255 15.0142 16.3707V19.9737C15.0142 20.3189 15.2852 20.5987 15.6196 20.5987Z" fill="#020F31"/>
<path d="M15.0603 14.4232C15.1855 14.7385 15.5461 14.891 15.8505 14.7613C16.1555 14.6313 16.3043 14.2597 16.178 13.9451C16.0518 13.6305 15.692 13.4767 15.3873 13.607C15.083 13.737 14.9337 14.1095 15.0603 14.4232Z" fill="#020F31"/>
<path d="M15.2345 6.06852C15.7428 6.28709 16.2515 5.7159 16.0066 5.21096C15.8913 4.9734 15.6318 4.8344 15.3771 4.87384C15.1206 4.91359 14.9151 5.12196 14.8698 5.3849C14.8209 5.66877 14.976 5.95909 15.2345 6.06852Z" fill="#020F31"/>
</g>
<defs>
<clipPath id="clip0">
<rect width="31" height="32" fill="white"/>
</clipPath>
</defs>
</svg>
