<svg width="11" height="11" viewBox="0 0 11 11" fill="none" xmlns="http://www.w3.org/2000/svg">
<g clip-path="url(#clip0)">
<path d="M10.8258 3.18521C10.8004 2.60947 10.7073 2.21366 10.5739 1.87068C10.4363 1.50662 10.2246 1.18067 9.94731 0.909712C9.67635 0.634535 9.34825 0.420711 8.9884 0.285272C8.64344 0.151901 8.24969 0.0587971 7.67396 0.0334127C7.09392 0.00587848 6.90978 -0.000488281 5.43864 -0.000488281C3.9675 -0.000488281 3.78336 0.00587848 3.20548 0.0312629C2.62974 0.0566473 2.23392 0.149834 1.89103 0.283122C1.52688 0.420711 1.20094 0.632385 0.929975 0.909712C0.654799 1.18067 0.441057 1.50877 0.305536 1.86861C0.172164 2.21366 0.0790608 2.60732 0.0536764 3.18306C0.0261422 3.7631 0.0197754 3.94724 0.0197754 5.41838C0.0197754 6.88952 0.0261422 7.07366 0.0515266 7.65154C0.076911 8.22728 0.170097 8.6231 0.303469 8.96607C0.441057 9.33014 0.654799 9.65608 0.929975 9.92704C1.20094 10.2022 1.52903 10.416 1.88888 10.5515C2.23392 10.6849 2.62759 10.778 3.20341 10.8033C3.78121 10.8288 3.96544 10.8351 5.43657 10.8351C6.90771 10.8351 7.09185 10.8288 7.66974 10.8033C8.24548 10.778 8.64129 10.6849 8.98419 10.5515C9.7124 10.2699 10.2881 9.6942 10.5697 8.96607C10.703 8.62103 10.7962 8.22728 10.8215 7.65154C10.8469 7.07366 10.8533 6.88952 10.8533 5.41838C10.8533 3.94724 10.8511 3.7631 10.8258 3.18521ZM9.84999 7.60921C9.82667 8.13839 9.73778 8.42416 9.6637 8.61466C9.48162 9.08671 9.10697 9.46136 8.63492 9.64343C8.44442 9.71752 8.15659 9.80641 7.62947 9.82964C7.05795 9.85511 6.88654 9.86139 5.44079 9.86139C3.99504 9.86139 3.82148 9.85511 3.25203 9.82964C2.72284 9.80641 2.43708 9.71752 2.24657 9.64343C2.01166 9.55661 1.79784 9.41903 1.62428 9.2391C1.44436 9.0634 1.30677 8.85172 1.21995 8.61681C1.14587 8.4263 1.05698 8.13839 1.03375 7.61136C1.00828 7.03984 1.00199 6.86835 1.00199 5.4226C1.00199 3.97684 1.00828 3.80329 1.03375 3.23391C1.05698 2.70473 1.14587 2.41897 1.21995 2.22846C1.30677 1.99347 1.44436 1.77973 1.62643 1.60609C1.80206 1.42616 2.01373 1.28858 2.24872 1.20184C2.43923 1.12775 2.72714 1.03887 3.25418 1.01555C3.8257 0.990165 3.99719 0.983798 5.44286 0.983798C6.89076 0.983798 7.06217 0.990165 7.63162 1.01555C8.16081 1.03887 8.44657 1.12775 8.63707 1.20184C8.87198 1.28858 9.08581 1.42616 9.25936 1.60609C9.43929 1.78179 9.57688 1.99347 9.6637 2.22846C9.73778 2.41897 9.82667 2.70679 9.84999 3.23391C9.87537 3.80543 9.88174 3.97684 9.88174 5.4226C9.88174 6.86835 9.87537 7.03769 9.84999 7.60921Z" fill="#020F31"/>
<path d="M5.43806 2.63477C3.90135 2.63477 2.65454 3.8815 2.65454 5.41828C2.65454 6.95507 3.90135 8.2018 5.43806 8.2018C6.97485 8.2018 8.22158 6.95507 8.22158 5.41828C8.22158 3.8815 6.97485 2.63477 5.43806 2.63477ZM5.43806 7.22389C4.44112 7.22389 3.63246 6.4153 3.63246 5.41828C3.63246 4.42127 4.44112 3.61269 5.43806 3.61269C6.43508 3.61269 7.24366 4.42127 7.24366 5.41828C7.24366 6.4153 6.43508 7.22389 5.43806 7.22389Z" fill="#020F31"/>
<path d="M8.98162 2.52482C8.98162 2.88368 8.69065 3.17465 8.33171 3.17465C7.97285 3.17465 7.68188 2.88368 7.68188 2.52482C7.68188 2.16589 7.97285 1.875 8.33171 1.875C8.69065 1.875 8.98162 2.16589 8.98162 2.52482Z" fill="#020F31"/>
</g>
<defs>
<clipPath id="clip0">
<rect width="10.8356" height="10.8356" fill="white" transform="translate(0.000244141 -0.000488281)"/>
</clipPath>
</defs>
</svg>
