<svg width="86" height="69" viewBox="0 0 86 69" fill="none" xmlns="http://www.w3.org/2000/svg">
<path d="M46.8362 0.711135C46.9224 0.714477 47.0083 0.70038 47.0889 0.669691C47.1694 0.639001 47.2429 0.592352 47.305 0.532542L47.372 0.242329C47.5357 0.242329 47.8259 0.208843 47.8594 0.402318C47.7738 1.51852 47.6287 2.57148 47.5655 3.6728L47.0781 3.65419C47.1591 3.25791 47.1566 2.84908 47.0708 2.45381C46.9849 2.05854 46.8176 1.68551 46.5795 1.35853C46.0958 0.822755 45.4633 0.402318 44.6857 0.584632C44.5203 0.646099 44.3691 0.740428 44.2412 0.861928C44.1134 0.983427 44.0114 1.12958 43.9415 1.29156C43.8893 1.52191 43.8899 1.7611 43.9434 1.99117C43.9969 2.22123 44.1018 2.43618 44.2504 2.61984C45.2363 3.52769 46.7879 3.3305 47.6473 4.48019C47.9579 4.85772 48.1534 5.31648 48.2108 5.80192C48.2682 6.28737 48.185 6.77908 47.971 7.21861C47.6808 7.86229 47.0818 8.22319 46.4828 8.54689C45.8537 8.83411 45.1646 8.96516 44.4741 8.92888C43.7836 8.8926 43.112 8.69008 42.5165 8.33853C42.3743 8.28988 42.2228 8.27464 42.0737 8.294C41.9247 8.31336 41.7821 8.36679 41.657 8.45015C41.6273 8.5134 41.5454 8.56177 41.5789 8.65851C41.4194 8.69203 41.2547 8.69203 41.0952 8.65851C41.1622 7.44557 41.3222 6.26239 41.3854 5.04945C41.5316 4.99364 41.6932 4.99364 41.8394 5.04945C41.9845 6.41122 42.5835 8.0446 44.0085 8.39806C44.2848 8.47867 44.5781 8.48063 44.8555 8.40373C45.1329 8.32683 45.3833 8.17412 45.5786 7.96274C45.7147 7.79259 45.8052 7.5906 45.8417 7.37579C45.8781 7.16099 45.8593 6.94044 45.787 6.73492C45.2847 5.7787 44.0866 5.64848 43.1825 5.24665C42.7043 5.02273 42.3014 4.66483 42.0227 4.21637C41.744 3.76792 41.6015 3.2482 41.6124 2.7203C41.657 1.47387 42.71 0.487894 43.7815 0.134429C44.3004 -0.0146557 44.8469 -0.0401457 45.3774 0.0600015C45.9078 0.160149 46.4075 0.383149 46.8362 0.711135Z" fill="#D3A05C"/>
<path d="M54.6049 1.23173C54.5919 1.43716 54.5428 1.63869 54.4598 1.82704C54.3009 1.78059 54.1329 1.77534 53.9715 1.8118C53.81 1.84825 53.6605 1.9252 53.5371 2.0354C53.232 2.34422 53.2952 2.83163 53.1315 3.21858L52.5809 5.48447C53.2952 5.87514 54.1993 5.80817 54.9956 6.09839L55.1407 5.77469C55.3342 4.77382 55.6244 3.80272 55.8178 2.79814C55.7926 2.6172 55.7151 2.44756 55.5948 2.31007C55.4745 2.17259 55.3167 2.07324 55.1407 2.02424C55.0923 1.99075 55.0105 2.02424 54.977 1.9461L55.1556 1.36196C56.5955 1.73403 58.0205 2.10609 59.412 2.56002C59.4361 2.64253 59.4367 2.73015 59.4137 2.81298C59.3907 2.89582 59.345 2.97057 59.2818 3.02882C59.1273 2.99976 58.9681 3.00645 58.8166 3.04837C58.665 3.09029 58.5251 3.16633 58.4074 3.27067L58.214 3.64274C57.7303 5.68167 57.1945 7.73549 56.7741 9.79302C56.7691 9.97276 56.8211 10.1495 56.9227 10.2978C57.0243 10.4462 57.1702 10.5586 57.3396 10.619C57.4029 10.619 57.4847 10.6525 57.5033 10.7195C57.4864 10.9189 57.4254 11.1121 57.3247 11.285C55.9295 10.8311 54.5416 10.3623 53.1166 10.0051L53.2469 9.55118C53.4337 9.6041 53.6322 9.59977 53.8166 9.53875C54.0009 9.47773 54.1628 9.36282 54.2812 9.20888C54.5082 8.35312 54.6868 7.47876 54.9137 6.623C54.1361 6.36255 53.3287 6.23233 52.5325 6.03885L52.4692 6.07234L51.9037 8.48334C51.9096 8.71306 51.9891 8.93481 52.1306 9.11586C52.2921 9.24307 52.4714 9.34586 52.6627 9.42095L52.566 9.90836C51.1595 9.59955 49.7345 9.34282 48.276 9.13074C48.2463 8.90378 48.3579 8.75867 48.3728 8.53171C48.551 8.56789 48.736 8.55206 48.9055 8.48609C49.075 8.42012 49.222 8.30681 49.329 8.15964C49.8796 6.02397 50.4452 3.90318 50.8656 1.71914C50.869 1.49896 50.7878 1.28587 50.6387 1.12383C50.4973 0.908034 49.9429 0.975006 50.155 0.588055C50.1847 0.524804 50.155 0.409463 50.2517 0.375977C51.74 0.602938 53.1799 0.848503 54.6049 1.20197V1.23173Z" fill="#D3A05C"/>
<path d="M21.8963 5.17594C21.7796 5.24094 21.6812 5.33437 21.6103 5.44755C21.5394 5.56073 21.4983 5.69 21.4907 5.82334L21.5093 6.03542C22.4804 8.0111 23.418 10.0166 24.3705 11.9885C24.4432 12.0765 24.5358 12.146 24.6406 12.1912C24.7453 12.2365 24.8594 12.2563 24.9733 12.249C25.3453 12.2155 25.5872 11.795 25.8141 11.5048C26.0709 11.0661 26.231 10.5775 26.2836 10.0719C26.3362 9.56621 26.2802 9.05515 26.1192 8.57293L26.5248 8.37573C27.0457 9.39892 27.548 10.4519 28.0131 11.4862C25.8824 12.4075 23.812 13.4626 21.8144 14.6451C21.6991 14.4516 21.4721 14.1912 21.554 13.9791C21.6821 13.9237 21.7958 13.8395 21.8862 13.733C21.9765 13.6265 22.0411 13.5007 22.0749 13.3652C22.1046 12.7624 21.6693 12.3308 21.4907 11.8397C20.7763 10.2547 19.9838 8.70315 19.1913 7.18139C19.0387 7.06478 18.8568 6.99264 18.6657 6.97294C18.4746 6.95324 18.2818 6.98675 18.1086 7.06977L17.863 6.66422C19.1162 5.90702 20.4078 5.21528 21.7325 4.5918C21.8144 4.75551 22.1716 5.02712 21.8777 5.15734L21.8963 5.17594Z" fill="#D3A05C"/>
<path d="M34.6658 1.49287C34.8002 1.68415 34.8805 1.90819 34.8982 2.14133C34.9159 2.37447 34.8703 2.60805 34.7663 2.81743C34.436 3.36064 34.0201 3.84688 33.5347 4.25733C33.9193 4.75934 34.383 5.19541 34.9076 5.54841C35.1048 4.53266 35.395 3.37925 36.3959 2.86208C36.6227 2.7728 36.8676 2.73971 37.1099 2.76563C37.3523 2.79154 37.5847 2.87569 37.7874 3.0109C38.0016 3.18746 38.1622 3.42039 38.2509 3.68338C38.3397 3.94637 38.3531 4.22895 38.2897 4.49918C38.2259 4.6899 38.1241 4.86571 37.9905 5.01599C37.8568 5.16627 37.6941 5.2879 37.5121 5.37354C37.2705 5.4675 37.0072 5.49151 36.7526 5.44282C36.4979 5.39412 36.2621 5.27469 36.0722 5.09821C35.8787 4.98287 35.8787 4.72614 35.7001 4.59591C35.5369 5.0151 35.4185 5.45036 35.3467 5.89443C35.9792 6.41161 36.7345 6.8953 37.6609 6.86553C37.8802 6.81634 38.0831 6.71138 38.25 6.56082C38.4169 6.41025 38.542 6.21917 38.6134 6.00605C38.7404 6.36126 38.7819 6.74136 38.7348 7.11561C38.6876 7.48986 38.553 7.84775 38.3418 8.16033C37.8395 8.74076 37.1921 9.27653 36.3141 9.08306C35.6828 8.96282 35.0796 8.72558 34.5356 8.38357C34.3163 8.88837 33.9583 9.32063 33.5033 9.63017C33.0482 9.9397 32.5146 10.1138 31.9646 10.1323C31.4813 10.1294 31.0101 9.98133 30.612 9.70733C30.214 9.43332 29.9074 9.04601 29.7322 8.59565C29.5983 8.22903 29.5522 7.83618 29.5974 7.44853C29.6426 7.06088 29.778 6.6892 29.9926 6.36324C30.2828 5.86095 30.7702 5.66747 31.1944 5.24703C30.8819 4.72614 30.3982 4.22757 30.3982 3.54668C30.3511 3.07706 30.437 2.60366 30.6463 2.1806C30.8555 1.75754 31.1795 1.40188 31.5813 1.15428C32.4706 0.618506 33.9923 0.603623 34.6695 1.49287H34.6658ZM31.9981 1.73099C31.9725 1.85533 31.9828 1.98436 32.0278 2.10306C32.3446 2.7129 32.7317 3.28357 33.1812 3.80341C33.3115 3.75132 33.3449 3.62482 33.4752 3.58761C33.7728 2.89928 32.9654 2.39699 32.7422 1.82773C32.5636 1.63425 32.2139 1.45566 31.9981 1.72727V1.73099ZM31.1423 5.99117C31.0084 6.73531 31.6744 7.27109 32.1097 7.72129C32.5301 8.09336 33.0659 8.62913 33.7096 8.62913C33.9007 8.50113 34.0342 8.30353 34.0816 8.07847C33.1315 7.40832 32.2755 6.61368 31.5367 5.71584C31.3767 5.71584 31.2316 5.87955 31.1386 5.99117H31.1423Z" fill="#D3A05C"/>
<path d="M67.307 5.95546C66.8568 8.75714 66.3025 11.5067 65.8857 14.3047C65.9284 14.4722 66.0049 14.6293 66.1105 14.7662C66.216 14.9031 66.3485 15.017 66.4996 15.1009C66.441 15.2907 66.3531 15.4702 66.2392 15.633C64.9779 14.8405 63.6868 14.1447 62.4032 13.4005C62.4032 13.2703 62.5185 13.1103 62.6004 12.9764C62.8571 13.0917 63.1845 13.2703 63.4561 13.0917L63.5529 12.9429L63.9249 10.7105C63.311 10.3198 62.6636 10.0259 62.0311 9.68731H61.9344C61.4805 10.3682 60.1522 10.904 60.8182 11.9383C60.9793 12.0773 61.1524 12.2018 61.3353 12.3104C61.1902 12.4183 61.2535 12.8722 60.9633 12.6825L58.5039 11.6146C58.553 11.4218 58.6281 11.2365 58.7271 11.064C60.0257 11.6779 60.4759 10.1412 61.287 9.57569C62.7269 8.08741 64.2152 6.56194 65.6588 5.0625C66.2455 5.28615 66.8038 5.57839 67.3219 5.93314L67.307 5.95546ZM64.4607 7.12004L62.3883 9.24083V9.32268C62.9055 9.58313 63.4413 9.88823 63.9621 10.1152C64.1221 9.09572 64.3789 8.17299 64.4607 7.13864V7.12004Z" fill="#D3A05C"/>
<path d="M16.8809 7.80366C16.7391 7.91375 16.6328 8.06309 16.5753 8.23311C16.5177 8.40312 16.5114 8.58631 16.5572 8.75988C16.8958 9.37379 17.398 9.80911 17.8036 10.3933L20.2295 13.4851C20.4163 13.8305 20.5075 14.2195 20.4938 14.612C20.4801 15.0044 20.3619 15.3861 20.1514 15.7176C19.1468 16.7221 18.0603 17.7118 16.4604 17.5332C15.9753 17.4695 15.5339 17.2201 15.2289 16.8375C14.1759 15.4273 12.963 14.0358 11.8803 12.6443C11.776 12.5641 11.6538 12.5104 11.5242 12.4877C11.3946 12.465 11.2615 12.4741 11.1361 12.514L10.7641 12.6926C10.6859 12.581 10.3287 12.3727 10.5706 12.2238C11.6422 11.2527 12.7249 10.3449 13.7778 9.50401C13.9713 9.57098 14.068 9.79795 14.1797 9.90957C14.1797 10.0696 14.0197 10.0882 13.9527 10.2184C13.4839 10.929 14.2615 11.4648 14.6187 11.9671C15.5079 13.1168 16.6725 14.6013 17.625 15.7362C17.8182 15.8939 18.048 16.0005 18.2931 16.0462C18.5383 16.092 18.791 16.0754 19.0281 15.9979C19.2652 15.9205 19.479 15.7848 19.6499 15.6031C19.8208 15.4215 19.9433 15.1999 20.0062 14.9585C20.085 14.6184 20.0564 14.2623 19.9244 13.9391C18.6966 12.2387 17.5469 10.9142 16.2037 9.24356C16.1052 9.17045 15.9918 9.11989 15.8716 9.09546C15.7513 9.07103 15.6272 9.07332 15.5079 9.10218C15.3145 9.10218 15.1842 9.26217 15.0243 9.27705C14.8921 9.1391 14.7679 8.99376 14.6522 8.84173C15.2588 8.33862 15.8963 7.87387 16.5609 7.4502C16.7088 7.52874 16.8197 7.66243 16.8697 7.82226L16.8809 7.80366Z" fill="#D3A05C"/>
<path d="M76.1327 11.8953C77.2005 12.7696 78.1679 14.2579 77.6507 15.7499C77.2266 16.5424 76.3559 16.7694 75.4667 16.6726C75.1649 16.627 74.8674 16.5561 74.5775 16.4605C74.8007 17.1749 75.2546 17.9823 74.9012 18.7897C74.6072 19.4855 73.9747 19.8724 73.5245 20.4268C73.4724 20.49 73.5245 20.557 73.5878 20.5868C74.1719 20.6203 74.5775 20.2147 74.9309 19.8426C75.0611 19.9394 75.2546 20.0547 75.2546 20.2147C74.7374 20.7951 74.0566 21.2305 73.1524 21.037C72.8727 20.9753 72.6082 20.8578 72.3749 20.6916C72.1416 20.5254 71.9441 20.3138 71.7944 20.0696C71.6567 19.839 71.5841 19.5754 71.5841 19.3069C71.5841 19.0383 71.6567 18.7747 71.7944 18.5441C72.3413 17.8521 73.1338 17.3014 73.5878 16.5387C73.6694 16.2962 73.6628 16.0327 73.5691 15.7945C73.3623 15.5169 73.1109 15.2755 72.825 15.0802C72.0474 15.8243 71.3367 16.6838 70.641 17.4763C70.6049 17.6617 70.6153 17.8532 70.6711 18.0336C70.7269 18.2141 70.8265 18.378 70.961 18.5106C70.8307 18.693 70.7861 18.8381 70.6075 18.9497C69.4913 17.9786 68.3416 17.1228 67.2068 16.1666C67.3145 15.9649 67.4627 15.7876 67.6421 15.6457C67.8092 15.8051 68.029 15.8977 68.2597 15.9062L68.6951 15.7945L73.0966 10.9242C73.15 10.8015 73.1775 10.6691 73.1775 10.5354C73.1775 10.4016 73.15 10.2692 73.0966 10.1465L72.8436 9.77448C72.9218 9.59589 73.2157 9.2573 73.3943 9.581L76.1141 11.8767L76.1327 11.8953ZM75.4183 12.1743C74.631 12.9824 73.8859 13.8306 73.1859 14.7155C73.3496 14.8755 73.5915 15.0392 73.7403 15.1992C73.9337 15.2841 74.1471 15.3123 74.3559 15.2807C74.5647 15.2491 74.7602 15.1589 74.9198 15.0206C75.4034 14.4886 76.0843 13.9528 76.1774 13.1305C76.1774 12.658 75.7271 12.3864 75.4332 12.1743H75.4183Z" fill="#D3A05C"/>
<path d="M81.5316 17.3536C82.2944 18.2392 82.9901 19.2624 83.7343 20.2335L83.2357 20.6055C82.9752 20.3786 82.7483 20.1367 82.4097 20.1851L82.1306 20.2521C81.3865 20.8325 80.5642 21.3348 79.8015 21.9338L79.9168 21.9971L83.2841 22.5477C83.4861 22.4704 83.6564 22.3276 83.7677 22.1422C83.8188 21.9944 83.8382 21.8376 83.8247 21.6818C83.8112 21.5261 83.7652 21.3749 83.6896 21.238C83.8223 21.0839 83.9967 20.9715 84.1919 20.9143C84.8691 21.8854 85.4346 22.8863 86.0002 23.8909C85.8933 24.0287 85.7557 24.1396 85.5983 24.2146C84.7574 22.9682 83.0385 23.1802 81.6804 22.8565C80.9549 24.4899 80.0954 26.06 79.3327 27.6934C79.2346 28.15 79.2855 28.6259 79.4778 29.0515C79.3343 29.2114 79.1579 29.3383 78.9606 29.4235C78.2351 28.1436 77.4277 26.927 76.6501 25.7029C76.8733 25.5875 77.0705 25.2936 77.357 25.4722C77.8928 25.2489 77.9412 24.5829 78.2351 24.1439C78.4769 23.597 78.7523 23.0761 78.9792 22.5291C78.2139 22.9871 77.4982 23.5233 76.8436 24.129C76.7883 24.2571 76.7598 24.3951 76.7598 24.5346C76.7598 24.674 76.7883 24.8121 76.8436 24.9401C76.7319 25.115 76.505 25.1671 76.3599 25.3122C75.519 24.2295 74.6446 23.1133 73.7852 22.0752L74.2391 21.7031C74.3452 21.8473 74.4897 21.9587 74.6562 22.0245C74.8227 22.0904 75.0044 22.1079 75.1804 22.0752L75.6009 21.8185L80.6796 18.2094C80.7825 18.0787 80.8488 17.923 80.8717 17.7582C80.8946 17.5935 80.8732 17.4256 80.8098 17.2718C80.8098 17.1751 80.6163 17.0597 80.7614 16.9779C81.1819 16.3825 81.2451 17.2718 81.5353 17.3871L81.5316 17.3536Z" fill="#D3A05C"/>
<path d="M15.0837 18.6983C15.5526 18.8434 15.8279 18.0472 16.2 18.516L16.3785 18.7616C15.2623 19.7662 14.2243 20.8675 13.2532 21.9018C13.0914 21.8047 12.9488 21.6786 12.8327 21.5298C12.9778 21.3065 13.3499 20.9642 13.1081 20.6405C12.4752 20.2584 11.8149 19.9238 11.1324 19.6397C10.5721 20.1396 10.0486 20.6793 9.56598 21.2544C9.85137 21.8388 10.1862 22.3977 10.5668 22.925C10.7008 23.0164 10.856 23.0719 11.0175 23.0862C11.1791 23.1006 11.3416 23.0732 11.4896 23.0069C11.7016 22.9548 11.8951 22.5046 12.0886 22.7762L12.2821 22.9883C11.683 23.6989 11.084 24.4766 10.5334 25.2207C10.3308 25.1308 10.1533 24.9929 10.0162 24.8189C10.8087 23.9259 9.91944 22.9585 9.499 22.1958C8.3828 20.2685 7.29636 18.4081 6.15039 16.5143C6.54509 16.0384 6.96619 15.585 7.4117 15.1562C9.96781 16.2725 12.509 17.5338 15.0986 18.7021L15.0837 18.6983ZM7.7354 18.1626C8.23769 19.0332 8.69162 19.9597 9.27576 20.767C9.72058 20.3259 10.1416 19.8614 10.5371 19.3755L7.7354 18.1477V18.1626Z" fill="#D3A05C"/>
<path d="M6.97628 21.0406C7.1899 21.3918 7.32627 21.7845 7.37631 22.1925C7.42635 22.6005 7.38892 23.0145 7.26649 23.4069C7.02465 23.9427 6.65258 24.445 6.39213 24.9473C7.00891 25.4114 7.65246 25.8387 8.31944 26.2272C8.51082 26.258 8.70701 26.2329 8.88452 26.1551C9.06203 26.0772 9.21333 25.9498 9.32031 25.7882C9.51292 25.8551 9.69007 25.9601 9.8412 26.097C9.09707 27.295 8.17062 28.5378 7.49345 29.7991C7.29948 29.7394 7.1223 29.6349 6.97628 29.494C7.06856 29.341 7.11978 29.1667 7.125 28.9881C7.13021 28.8095 7.08924 28.6326 7.00604 28.4745C5.1457 27.2616 3.31885 26.0449 1.45851 24.884C1.28478 24.8306 1.09942 24.8277 0.92413 24.8758C0.748844 24.9239 0.590899 25.021 0.468806 25.1557C0.43532 25.1854 0.43532 25.2673 0.372068 25.2673C0.193475 25.2673 0.145107 25.1557 0 25.0589C0.804472 23.5434 1.74073 22.1017 2.79795 20.7504C3.10567 20.4253 3.48698 20.1789 3.90979 20.0319C4.33261 19.8849 4.78454 19.8416 5.22756 19.9058C5.92357 20.0607 6.54274 20.4559 6.97628 21.022V21.0406ZM2.97655 21.7996C2.82795 21.8375 2.69239 21.9149 2.58429 22.0236C2.47619 22.1324 2.39959 22.2684 2.36263 22.4172C3.51232 23.1279 4.65829 23.9539 5.93821 24.6496L6.19866 24.3148C6.23138 24.0878 6.20195 23.8561 6.1135 23.6445C6.02505 23.4329 5.8809 23.2492 5.69636 23.113C4.77363 22.6628 4.14112 21.7847 2.97655 21.7996Z" fill="#D3A05C"/>
<path d="M49.7495 44.5413C50.1215 45.9328 49.2137 46.9858 48.5179 48.0499C46.7692 50.2823 44.4252 51.9343 42.0774 53.3258C41.9807 53.5714 41.7537 53.7798 41.7053 54.0253C42.6095 53.6532 43.7778 52.8756 44.8121 53.5714C45.0872 53.7685 45.2981 54.0424 45.4186 54.3587C45.539 54.6749 45.5636 55.0197 45.4893 55.3499C44.7005 56.8568 43.8745 58.3599 42.9853 59.837C42.9561 59.8845 42.9379 59.9378 42.9321 59.9932C42.9264 60.0486 42.9331 60.1046 42.9518 60.157C42.9739 60.2267 43.0201 60.2863 43.0822 60.3252C43.1442 60.364 43.2179 60.3796 43.2904 60.3691C43.6393 60.2418 43.9548 60.0369 44.2131 59.7701H45.1061C44.7844 60.2414 44.3705 60.6426 43.8894 60.9495C43.5665 61.1291 43.2017 61.2197 42.8323 61.2118C42.4628 61.204 42.1022 61.098 41.7872 60.9049C41.4542 60.6806 41.1967 60.361 41.0486 59.9878C40.9006 59.6146 40.8688 59.2054 40.9575 58.8138L41.1063 58.3599L43.2904 54.5574C43.2904 54.4458 43.1601 54.3155 43.0485 54.349L40.8794 55.4652C40.6054 55.8479 40.3568 56.2481 40.1352 56.6633C39.2013 58.2036 38.2749 59.7403 37.3373 61.262C36.4964 61.3253 35.3467 61.2918 34.5542 61.2918C35.8155 59.2231 37.2256 57.0874 38.4535 54.9481C38.0814 55.015 37.661 55.1936 37.2889 55.2569V54.349C37.9214 54.0923 38.6321 53.9137 39.2981 53.6532C41.27 50.4163 43.2457 46.8407 46.5794 44.8204C47.372 44.4148 48.1831 43.9274 49.1839 44.0762C49.4425 44.1537 49.662 44.3266 49.7978 44.5599L49.7495 44.5413ZM48.8416 44.8315C47.4538 45.4157 46.412 46.6286 45.4744 47.8081C44.6521 49.1177 43.8113 50.4646 43.1155 51.7408C43.7445 51.3629 44.3496 50.9467 44.9275 50.4944C46.6278 49.0061 48.7486 47.4695 49.0723 45.0064C49.0388 44.9283 48.9718 44.798 48.8416 44.8464V44.8315Z" fill="#E30613"/>
<path d="M56.4352 45.2661C55.9292 46.1925 55.3488 47.1599 54.7647 48.1013C56.2083 48.1943 57.5477 48.0492 59.1365 48.1645L58.5523 49.1356L54.0875 49.2175C51.8551 52.7781 49.7752 56.3835 47.5763 59.9293C47.5506 60.022 47.5618 60.1211 47.6076 60.2058C47.6534 60.2904 47.7302 60.354 47.8219 60.3832C48.2721 60.3832 48.5325 60.0298 48.8376 59.8177H49.7455C49.5418 60.1544 49.2645 60.4406 48.9343 60.6548C48.6835 60.8858 48.3811 61.0535 48.0523 61.1441C47.7236 61.2347 47.378 61.2455 47.0442 61.1757C46.6645 61.0721 46.3224 60.8618 46.0586 60.5696C45.7948 60.2775 45.6204 59.9158 45.556 59.5275C45.5194 59.1024 45.6032 58.6756 45.7978 58.2959C47.7251 55.3008 49.5185 52.2089 51.3491 49.2323C51.1644 49.1782 50.9681 49.1782 50.7835 49.2323L50.7352 49.1691C50.151 49.1691 49.5706 49.2175 48.9381 49.1691C49.0981 48.8305 49.3101 48.5068 49.4887 48.1794C50.2143 48.1013 51.2858 48.1794 52.0299 48.1161C52.6253 47.1636 53.1945 46.1777 53.827 45.2363C54.6828 45.2363 55.5534 45.2363 56.4315 45.2363L56.4352 45.2661Z" fill="#E30613"/>
<path d="M57.1797 50.6239C57.2422 50.8201 57.2528 51.0291 57.2104 51.2306C57.168 51.4321 57.0741 51.6192 56.9378 51.7736C56.7196 51.9704 56.4514 52.1034 56.1626 52.1579C55.8739 52.2123 55.5756 52.1862 55.3007 52.0824C55.1139 51.9892 54.9598 51.8414 54.8588 51.6587C54.7579 51.476 54.7147 51.267 54.7352 51.0592C54.7658 50.8447 54.8565 50.6432 54.9967 50.4779C55.1369 50.3127 55.321 50.1905 55.5277 50.1253C56.0784 49.8649 56.9192 49.9914 57.1797 50.6239Z" fill="#E30613"/>
<path d="M36.7527 54.0386C36.8578 54.3586 36.8879 54.6985 36.8409 55.032C36.7938 55.3656 36.6707 55.6838 36.4811 55.9622C36.3145 56.1491 36.0956 56.2816 35.8528 56.3426C35.61 56.4036 35.3545 56.3904 35.1193 56.3045C34.9001 56.2161 34.7146 56.0604 34.5896 55.8598C34.4645 55.6592 34.4064 55.4241 34.4236 55.1883C34.4484 55.0029 34.5256 54.8283 34.6463 54.6853C34.7669 54.5423 34.9258 54.4367 35.1044 54.3809C35.2402 54.3893 35.3758 54.3622 35.4978 54.3022C35.6198 54.2421 35.7241 54.1513 35.8002 54.0386C35.8784 53.7968 35.67 53.6665 35.5249 53.5735C34.4571 53.3466 34.1445 54.4628 33.4711 55.0916C32.4595 56.3714 31.6051 57.768 30.9261 59.2513C30.8471 59.3941 30.8094 59.556 30.8173 59.719C30.8252 59.882 30.8783 60.0396 30.9708 60.174C31.067 60.308 31.1977 60.4133 31.3491 60.4789C31.5004 60.5444 31.6667 60.5676 31.8303 60.5461C33.2441 60.1219 34.1966 59.1546 35.0226 57.9714H35.8337C35.0756 59.3862 33.8519 60.4955 32.3697 61.1116C31.4284 61.387 30.1373 61.4651 29.4565 60.6912C28.3402 59.4783 29.1625 57.7146 29.7467 56.4831C30.2455 55.5687 30.9359 54.7729 31.7707 54.15C32.6055 53.5271 33.565 53.0919 34.5836 52.874C35.02 52.807 35.4663 52.8845 35.8546 53.0948C36.2429 53.3051 36.5517 53.6365 36.7341 54.0386H36.7527Z" fill="#E30613"/>
<path d="M56.1416 53.0048C54.7501 55.3154 53.3102 57.6482 51.9522 59.929C51.8703 60.1374 52.0638 60.2378 52.1605 60.3383C52.5809 60.3383 52.8563 60.0109 53.1986 59.769C53.619 59.4453 53.8274 58.943 54.218 58.571H55.1073C54.1846 59.7355 53.2469 61.3726 51.4982 61.1122C51.1668 61.0435 50.8591 60.8891 50.6059 60.6646C50.3526 60.44 50.1625 60.1531 50.0546 59.8323C49.5263 58.411 50.9178 57.4213 51.4015 56.2753C52.1159 55.1889 52.6777 54.0429 53.4218 52.9899C54.4264 52.9899 55.2226 52.9379 56.1416 52.9899V53.0048Z" fill="#E30613"/>
<path d="M64.2189 54.0259C64.8477 55.1086 63.765 55.9048 63.4078 56.7903C62.7939 57.8284 62.1465 58.8479 61.5809 59.8971C61.6107 60.0125 61.6293 60.1576 61.726 60.2245C62.0981 60.4478 62.4367 59.9976 62.712 59.8525C63.1139 59.4504 63.4776 59.012 63.7985 58.5428C64.1036 58.5039 64.4124 58.5039 64.7175 58.5428C64.1035 59.4171 63.4078 60.4031 62.4851 60.9352C62.2073 61.0775 61.8999 61.1524 61.5878 61.1538C61.2757 61.1552 60.9677 61.083 60.6886 60.9431C60.4096 60.8032 60.1675 60.5996 59.9818 60.3487C59.7962 60.0978 59.6723 59.8067 59.6201 59.499C59.5431 59.0715 59.6182 58.6306 59.8322 58.2526C60.6396 56.9206 61.4172 55.6481 62.1614 54.3496C62.113 54.2863 62.1316 54.1598 62.0162 54.1412C61.3354 54.3198 60.8666 54.7737 60.3159 55.2574C59.6834 56.0351 59.3299 56.9206 58.7458 57.7652C58.0351 58.8814 57.4175 60.0311 56.7068 61.1473L54.0056 61.1956C54.4223 60.325 54.9581 59.5771 55.4269 58.7363C56.2231 57.3931 57.0454 56.1318 57.7933 54.7403C57.7263 54.6249 57.5328 54.6733 57.451 54.7068L57.2426 54.8333L55.8994 57.0657H55.1218L55.1553 56.9206C55.8027 55.9495 56.238 54.8147 57.0454 53.9738C57.3122 53.7709 57.6234 53.6344 57.9533 53.5756C58.2833 53.5167 58.6225 53.5371 58.943 53.6352C59.376 53.7834 59.7502 54.0664 60.0108 54.4426C60.8182 53.9589 61.5288 53.1329 62.6339 53.0994C62.9656 53.0803 63.2955 53.1612 63.5808 53.3317C63.866 53.5022 64.0935 53.7544 64.2338 54.0556L64.2189 54.0259Z" fill="#E30613"/>
<path d="M27.0459 53.488C27.1426 53.488 27.2728 53.2945 27.3212 53.1792C28.2104 53.1792 29.2299 53.1792 30.0187 53.1792C28.709 55.4451 27.3212 57.6179 26.071 59.9136C26.1045 60.0289 26.1194 60.2224 26.2831 60.2857C26.7668 60.2857 27.2207 59.7164 27.5147 59.3927H28.2774C28.0411 59.8569 27.7106 60.2667 27.307 60.596C26.9034 60.9253 26.4356 61.1668 25.9334 61.3051C25.6935 61.3672 25.442 61.3683 25.2016 61.3086C24.9612 61.2488 24.7396 61.13 24.5567 60.9628C24.3353 60.7559 24.1636 60.5015 24.0544 60.2187C23.5521 60.8847 22.7782 61.5433 21.7736 61.4651C21.4624 61.4454 21.1604 61.3514 20.893 61.1908C20.6256 61.0303 20.4007 60.8079 20.237 60.5424C19.4259 58.7974 20.5905 57.1268 21.4165 55.7055C22.4694 54.5372 23.5856 53.3094 25.2339 52.9671C25.8805 52.9095 26.5247 53.1011 27.0347 53.5029L27.0459 53.488ZM26.2347 53.7968C25.8627 53.6517 25.5873 54.1019 25.3418 54.314C23.9639 55.8802 22.8152 57.634 21.9299 59.5229C21.8332 59.8429 21.4909 60.2671 21.8183 60.6056C21.9634 60.7508 22.1904 60.6354 22.3355 60.5722C23.9056 59.0653 24.8767 57.2235 25.9594 55.4116C26.2013 54.9577 26.5398 54.5186 26.4282 53.9866C26.3848 53.904 26.3173 53.8365 26.2347 53.7931V53.7968Z" fill="#E30613"/>
<path d="M72.3117 53.7001C72.4902 53.4881 72.6316 53.2127 72.8139 52.956C73.7032 52.9076 74.5924 52.9374 75.5003 52.956C73.5878 56.2079 71.4075 59.4114 69.4914 62.6C70.7713 62.7637 71.9061 62.3433 72.9739 61.8559L73.4279 62.44C72.1182 63.2809 70.336 63.5227 68.7807 63.426C66.0125 65.8705 62.5672 68.0731 58.4744 67.7978C57.1796 67.6006 55.7062 67.0537 55.3342 65.677C55.2288 65.2858 55.224 64.8743 55.3203 64.4808C55.4166 64.0872 55.6108 63.7244 55.8848 63.426C57.5033 61.9191 60.1376 61.4354 62.3588 62.0159C63.8111 62.3009 65.2822 62.48 66.7604 62.5516C67.1325 62.1796 67.3073 61.6624 67.6459 61.2717C67.6013 61.1266 67.8096 61.0634 67.8096 60.8997C67.2106 61.0969 66.3214 61.2717 65.7409 60.855C64.9782 60.416 64.8963 59.3481 64.9968 58.5705C65.2518 57.4752 65.7223 56.4416 66.3809 55.5301C67.0395 54.6185 67.873 53.8472 68.8328 53.2611C69.2122 52.9983 69.653 52.8379 70.1126 52.7955C70.5721 52.7531 71.0349 52.8302 71.4559 53.0193C71.7639 53.2113 72.0475 53.4399 72.3005 53.7001H72.3117ZM70.9015 54.102C69.8374 54.6712 69.1044 55.8209 68.4273 56.7734C67.8096 57.6813 67.1473 58.6338 67.0506 59.75C67.0804 59.91 67.2255 59.9955 67.3259 60.0774C67.8915 60.2374 68.3454 59.7649 68.6989 59.4412C69.5286 58.2133 70.336 56.9669 71.0801 55.6572C71.2401 55.2851 71.5973 54.9615 71.5154 54.4778C71.4601 54.363 71.3726 54.2668 71.2636 54.2007C71.1547 54.1347 71.0289 54.1017 70.9015 54.1057V54.102ZM61.451 62.5182C60.5537 62.3721 59.636 62.4102 58.7539 62.6303C57.8718 62.8503 57.0437 63.2477 56.3202 63.7981C56.0851 64.046 55.924 64.3547 55.855 64.6893C55.786 65.0239 55.8118 65.3712 55.9295 65.6919C56.2718 66.6295 57.3061 66.9048 58.2958 66.9048C61.4324 66.8714 64.394 65.6919 66.3362 63.3776V63.3107L64.1857 63.0688L61.451 62.5182Z" fill="#E30613"/>
<path d="M22.0747 53.2632L18.3837 59.1568C17.6582 60.3846 16.6834 61.6794 16.0397 62.9928C17.2178 63.0568 18.39 62.7873 19.4218 62.2152C19.6488 62.3119 19.7269 62.5872 19.8906 62.7658C18.5958 63.6551 16.9141 63.8448 15.2286 63.8002C12.8511 65.9545 9.95268 67.7664 6.60406 68.2018C4.78837 68.3803 2.76804 67.9748 1.92716 66.3079C1.75202 65.8601 1.71369 65.3704 1.81701 64.9008C1.92034 64.4313 2.16067 64.0029 2.50759 63.67C3.2615 63.0767 4.12828 62.6431 5.05514 62.3955C5.982 62.148 6.94954 62.0917 7.89886 62.2301C9.67432 62.5958 11.4757 62.8222 13.2864 62.9072C13.6735 62.37 14.0252 61.8083 14.3394 61.2255C13.3683 61.4078 11.88 61.858 11.2624 60.7902C10.4215 59.5586 11.7163 58.5094 12.1702 57.4713L14.6965 53.3116C15.5188 53.2483 16.475 53.3116 17.4126 53.2818C16.0211 55.5328 14.7598 57.8136 13.3199 60.139C13.3024 60.2378 13.3182 60.3395 13.3646 60.4283C13.4111 60.5172 13.4856 60.5881 13.5766 60.6302C15.437 60.5632 15.7607 58.7028 16.7318 57.5197C17.5912 56.0835 18.5475 54.7068 19.3846 53.2818C20.2627 53.2297 21.1817 53.2148 22.0412 53.2148L22.0895 53.2632H22.0747ZM10.3582 63.3797C8.643 63.0077 6.7008 62.5203 4.90371 63.0709C4.04795 63.443 3.04337 63.7369 2.54108 64.5592C2.4082 64.8219 2.33619 65.1112 2.33039 65.4056C2.3246 65.6999 2.38516 65.9918 2.50759 66.2596C2.87966 67.1153 3.93261 67.3758 4.90371 67.3125C8.02908 67.1823 11.0056 66.081 12.8511 63.6848L10.3582 63.3946V63.3797Z" fill="#E30613"/>
<path d="M44.1832 20.0205C42.7665 21.6581 41.7037 23.5708 41.0615 25.6387C41.0004 25.8961 40.9991 26.1642 41.0578 26.4222C41.1165 26.6802 41.2336 26.9213 41.4001 27.127C41.7771 27.5172 42.2812 27.76 42.8214 27.8116L58.199 30.6095H58.2622C61.3392 26.833 65.8561 24.2472 70.9646 24.0016L70.8195 24.1951C68.0706 26.6631 65.7904 29.6076 64.0888 32.8866C64.5269 35.6115 66.0047 38.0602 68.2113 39.7178C66.2611 39.8058 64.3182 39.4255 62.5452 38.6086C60.7722 37.7916 59.2206 36.5619 58.0204 35.0223L51.7399 36.0268L51.658 36.0752L52.2756 36.7189C50.832 37.597 49.2805 38.3411 47.8108 39.1485L45.2659 37.757C42.0741 38.2266 38.8452 38.3948 35.6219 38.2593C35.4353 38.2764 35.256 38.3403 35.1006 38.445C34.9452 38.5497 34.8187 38.6918 34.7326 38.8583C33.8918 41.3363 34.621 44.1156 36.0423 46.1248C32.5002 45.6411 29.959 42.6608 28.973 39.4275C28.973 39.3606 28.973 39.2824 28.8912 39.2676C26.0448 40.2684 23.0683 41.8534 21.2079 44.1677C21.2522 42.1957 21.8533 40.2764 22.9418 38.6313C23.1836 38.196 23.5892 37.8239 23.8459 37.4333C21.9903 37.0289 20.1672 36.4879 18.3914 35.8148C18.7124 35.4365 19.0593 35.081 19.4295 34.7506C18.926 34.8431 18.4289 34.9674 17.9412 35.1227C16.2412 34.2763 14.7193 33.1118 13.4578 31.6922C17.744 29.2664 22.7148 28.3101 27.6336 27.339C29.8176 26.967 32.0984 26.7251 34.368 26.4833C36.9725 23.4398 39.9155 20.4595 44.0418 19.9609H44.1869V20.0242L44.1832 20.0205ZM41.1434 22.171C38.5166 23.4844 36.8013 25.4899 34.9559 27.752C33.6313 27.8488 32.2733 27.979 30.9933 28.1241C25.617 28.9389 20.3113 29.8914 15.4707 31.9639C16.2637 32.6692 17.138 33.2775 18.0751 33.7758C20.3894 33.0987 23.046 32.7229 25.5537 33.1619C23.7901 33.5042 22.0414 34.1181 20.7168 35.2976C23.1854 36.0795 25.7385 36.5641 28.3219 36.7412C28.3219 36.3691 28.1954 35.9971 28.2103 35.625C28.6386 35.5472 29.0735 35.5111 29.5088 35.5171C29.6985 38.7801 30.852 41.9688 33.5718 43.7361C33.2295 41.9688 33.0658 39.8666 33.7615 38.1997C33.9405 37.9064 34.1778 37.653 34.4588 37.4552C34.7398 37.2575 35.0584 37.1195 35.3949 37.05C38.7956 37.117 42.2075 37.05 45.4631 36.4212L47.8443 37.7123L50.1735 36.4361L49.0573 35.3683C49.0238 35.3348 48.9568 35.2567 49.0573 35.2232L57.7785 33.8242L58.571 33.7275C60.0593 35.8966 62.2917 37.6305 64.9483 38.1327C63.7769 36.6235 63.042 34.8218 62.8238 32.9238C63.9007 30.2938 65.4548 27.8857 67.4077 25.821C65.0247 26.5447 62.8298 27.7831 60.9783 29.4487C60.1757 30.2236 59.4191 31.0448 58.7124 31.908L42.1889 28.9315L41.4447 28.6711C40.9025 28.3935 40.4565 27.9588 40.1651 27.4238C39.8737 26.8888 39.7504 26.2783 39.8114 25.6722C40.1149 24.4548 40.566 23.2791 41.1545 22.171H41.1434ZM25.3937 37.7235C24.5043 38.5196 23.7876 39.4896 23.2878 40.5735C24.0755 40.0402 24.904 39.5699 25.7658 39.1671C26.6401 38.7132 27.6931 38.423 28.5489 38.0509C27.4959 37.9728 26.4281 37.876 25.3937 37.7123V37.7235Z" fill="black"/>
<path d="M19.7418 31.7078C19.7961 31.8007 19.8183 31.9089 19.8051 32.0157C19.7919 32.1224 19.7441 32.2219 19.6688 32.2989C19.5936 32.3758 19.4952 32.4259 19.3887 32.4414C19.2823 32.457 19.1736 32.4372 19.0796 32.385C18.9834 32.3153 18.9126 32.2164 18.8777 32.1029C18.8428 31.9895 18.8457 31.8678 18.8861 31.7562C18.9344 31.5739 19.1279 31.5106 19.2581 31.4623C19.3514 31.4555 19.4447 31.4749 19.5275 31.5183C19.6103 31.5617 19.6794 31.6273 19.7269 31.7078H19.7418Z" fill="black"/>
</svg>
