<svg width="267" height="212" viewBox="0 0 267 212" fill="none" xmlns="http://www.w3.org/2000/svg">
<path d="M145.474 2.20667C145.741 2.21704 146.008 2.1733 146.258 2.07807C146.508 1.98284 146.736 1.83808 146.928 1.65249L147.136 0.751953C147.644 0.751953 148.545 0.648044 148.649 1.2484C148.383 4.71201 147.933 7.97935 147.737 11.3968L146.224 11.3391C146.476 10.1094 146.468 8.84076 146.201 7.61423C145.935 6.38769 145.416 5.23017 144.677 4.21556C143.176 2.55303 141.213 1.2484 138.8 1.81413C138.287 2.00486 137.818 2.29757 137.421 2.67458C137.025 3.0516 136.708 3.50511 136.491 4.00774C136.329 4.72252 136.331 5.46475 136.497 6.17864C136.663 6.89253 136.989 7.55951 137.45 8.12944C140.509 10.9465 145.324 10.3346 147.991 13.9021C148.954 15.0736 149.561 16.4971 149.739 18.0035C149.917 19.5099 149.659 21.0357 148.995 22.3995C148.094 24.3969 146.236 25.5168 144.377 26.5212C142.425 27.4125 140.287 27.8191 138.144 27.7065C136.001 27.594 133.917 26.9655 132.07 25.8747C131.628 25.7237 131.158 25.6764 130.696 25.7365C130.233 25.7965 129.791 25.9623 129.403 26.221C129.31 26.4173 129.056 26.5674 129.16 26.8676C128.665 26.9716 128.154 26.9716 127.659 26.8676C127.867 23.1038 128.363 19.4324 128.56 15.6686C129.013 15.4954 129.515 15.4954 129.968 15.6686C130.419 19.8942 132.277 24.9626 136.699 26.0594C137.557 26.3095 138.467 26.3156 139.327 26.077C140.188 25.8384 140.965 25.3645 141.571 24.7086C141.994 24.1806 142.275 23.5538 142.388 22.8873C142.501 22.2207 142.442 21.5363 142.218 20.8986C140.659 17.9315 136.942 17.5274 134.136 16.2805C132.652 15.5857 131.402 14.4751 130.537 13.0835C129.672 11.6919 129.23 10.0792 129.264 8.44116C129.403 4.57347 132.67 1.51395 135.995 0.417137C137.605 -0.045477 139.301 -0.124573 140.947 0.186186C142.593 0.496945 144.143 1.18892 145.474 2.20667Z" fill="#D3A05C"/>
<path d="M169.581 3.8234C169.54 4.46086 169.388 5.08621 169.13 5.67066C168.637 5.52652 168.116 5.51024 167.615 5.62335C167.114 5.73646 166.65 5.97524 166.267 6.3172C165.32 7.27547 165.517 8.78791 165.009 9.98863L163.3 17.0198C165.517 18.232 168.322 18.0242 170.793 18.9247L171.243 17.9203C171.843 14.8146 172.744 11.8013 173.344 8.684C173.266 8.12253 173.026 7.59615 172.652 7.16952C172.279 6.74289 171.789 6.43461 171.243 6.28257C171.093 6.17866 170.839 6.28257 170.735 6.04011L171.289 4.22749C175.757 5.38203 180.179 6.53656 184.497 7.9451C184.572 8.20114 184.574 8.47302 184.502 8.73005C184.431 8.98709 184.289 9.21906 184.093 9.39981C183.614 9.30964 183.12 9.33039 182.649 9.46046C182.179 9.59054 181.745 9.82649 181.38 10.1503L180.78 11.3048C179.279 17.6317 177.616 24.0047 176.311 30.3893C176.296 30.947 176.458 31.4953 176.773 31.9557C177.088 32.4161 177.541 32.765 178.066 32.9524C178.263 32.9524 178.517 33.0563 178.574 33.2641C178.522 33.8829 178.333 34.4823 178.02 35.019C173.691 33.6104 169.384 32.1557 164.962 31.0474L165.366 29.6388C165.946 29.8031 166.562 29.7896 167.134 29.6003C167.706 29.4109 168.209 29.0544 168.576 28.5767C169.28 25.9212 169.835 23.2081 170.539 20.5526C168.126 19.7445 165.62 19.3404 163.15 18.74L162.953 18.8439L161.199 26.3253C161.217 27.0381 161.464 27.7262 161.903 28.288C162.404 28.6828 162.96 29.0017 163.554 29.2348L163.254 30.7472C158.89 29.7889 154.468 28.9923 149.942 28.3342C149.849 27.6299 150.196 27.1797 150.242 26.4754C150.795 26.5877 151.369 26.5385 151.895 26.3338C152.421 26.1291 152.877 25.7775 153.209 25.3209C154.918 18.6938 156.673 12.113 157.977 5.33585C157.988 4.65261 157.736 3.99138 157.273 3.48859C156.834 2.81896 155.114 3.02677 155.772 1.82605C155.865 1.62978 155.772 1.27188 156.072 1.16797C160.691 1.87224 165.159 2.63423 169.581 3.73104V3.8234Z" fill="#D3A05C"/>
<path d="M68.085 16.0607C67.723 16.2624 67.4178 16.5523 67.1977 16.9035C66.9777 17.2547 66.85 17.6558 66.8266 18.0696L66.8843 18.7276C69.8976 24.8582 72.8071 31.0812 75.7627 37.2002C75.9883 37.4732 76.2755 37.6888 76.6006 37.8293C76.9258 37.9698 77.2796 38.0312 77.633 38.0084C78.7876 37.9045 79.538 36.5999 80.2423 35.6993C81.0391 34.3379 81.5357 32.8218 81.699 31.2528C81.8623 29.6838 81.6884 28.098 81.189 26.6016L82.4474 25.9897C84.0638 29.1647 85.6224 32.432 87.0656 35.6416C80.454 38.5005 74.0296 41.7743 67.831 45.4436C67.4731 44.8433 66.7688 44.0351 67.0228 43.377C67.4206 43.2052 67.7734 42.9439 68.0537 42.6135C68.3341 42.2831 68.5344 41.8925 68.6392 41.472C68.7315 39.6017 67.3807 38.2624 66.8266 36.7384C64.6098 31.8201 62.1507 27.0057 59.6915 22.2836C59.2179 21.9218 58.6534 21.6979 58.0605 21.6368C57.4676 21.5757 56.8693 21.6796 56.3318 21.9373L55.5698 20.6788C59.4584 18.3292 63.4662 16.1827 67.577 14.248C67.831 14.756 68.9394 15.5989 68.0273 16.0029L68.085 16.0607Z" fill="#D3A05C"/>
<path d="M107.709 4.63189C108.126 5.22546 108.375 5.92065 108.43 6.64408C108.485 7.36752 108.343 8.09234 108.02 8.74204C106.996 10.4276 105.705 11.9365 104.199 13.2101C105.392 14.7678 106.831 16.121 108.459 17.2163C109.071 14.0645 109.972 10.4854 113.077 8.88058C113.781 8.60356 114.541 8.50088 115.293 8.58129C116.045 8.66171 116.766 8.92284 117.395 9.3424C118.06 9.89025 118.558 10.613 118.834 11.4291C119.109 12.2452 119.151 13.122 118.954 13.9605C118.756 14.5524 118.44 15.0979 118.025 15.5642C117.611 16.0305 117.106 16.408 116.541 16.6737C115.791 16.9653 114.974 17.0398 114.184 16.8887C113.394 16.7376 112.662 16.367 112.073 15.8193C111.473 15.4614 111.473 14.6648 110.918 14.2607C110.412 15.5615 110.044 16.9121 109.822 18.2901C111.784 19.8949 114.128 21.3958 117.003 21.3034C117.683 21.1508 118.313 20.8251 118.831 20.3579C119.348 19.8906 119.737 19.2977 119.958 18.6364C120.352 19.7386 120.481 20.9181 120.335 22.0794C120.188 23.2407 119.771 24.3512 119.116 25.3212C117.557 27.1223 115.548 28.7848 112.823 28.1844C110.865 27.8113 108.993 27.0752 107.305 26.0139C106.624 27.5803 105.514 28.9216 104.101 29.8821C102.689 30.8426 101.034 31.3829 99.3268 31.4402C97.8273 31.4312 96.3651 30.9718 95.1299 30.1216C93.8946 29.2713 92.9434 28.0695 92.3996 26.672C91.9843 25.5344 91.8411 24.3153 91.9815 23.1125C92.1218 21.9096 92.5418 20.7562 93.2078 19.7448C94.1083 18.1861 95.6208 17.5858 96.9369 16.2812C95.9671 14.6648 94.4662 13.1177 94.4662 11.0049C94.32 9.54769 94.5868 8.07872 95.236 6.76594C95.8853 5.45316 96.8908 4.34955 98.1377 3.58126C100.897 1.91873 105.619 1.87255 107.72 4.63189H107.709ZM99.4307 5.37079C99.3515 5.75661 99.3835 6.15701 99.5231 6.52533C100.506 8.41769 101.707 10.1885 103.102 11.8016C103.506 11.6399 103.61 11.2474 104.014 11.1319C104.938 8.99604 102.433 7.43741 101.74 5.67097C101.186 5.07061 100.1 4.51643 99.4307 5.35925V5.37079ZM96.7753 18.5902C96.3597 20.8993 98.4263 22.5618 99.7771 23.9588C101.082 25.1134 102.744 26.7759 104.742 26.7759C105.335 26.3787 105.749 25.7655 105.896 25.0672C102.948 22.9877 100.292 20.5219 97.9991 17.7359C97.5027 17.7359 97.0524 18.2439 96.7638 18.5902H96.7753Z" fill="#D3A05C"/>
<path d="M208.996 18.4857C207.599 27.1794 205.879 35.7114 204.586 44.3935C204.718 44.9134 204.955 45.4008 205.283 45.8256C205.611 46.2505 206.022 46.6039 206.491 46.8642C206.309 47.4532 206.036 48.0102 205.682 48.5152C201.769 46.0561 197.762 43.8971 193.779 41.588C193.779 41.1839 194.137 40.6875 194.391 40.2718C195.188 40.6297 196.204 41.1839 197.047 40.6297L197.347 40.1679L198.501 33.2407C196.596 32.0284 194.587 31.1164 192.625 30.0657H192.325C190.916 32.1785 186.794 33.8411 188.861 37.0507C189.361 37.4819 189.898 37.8682 190.466 38.2052C190.015 38.54 190.212 39.9486 189.311 39.3597L181.68 36.0462C181.832 35.4479 182.065 34.8731 182.372 34.3375C186.402 36.2425 187.799 31.4743 190.316 29.7194C194.784 25.1012 199.402 20.3676 203.881 15.7148C205.702 16.4088 207.434 17.3157 209.042 18.4165L208.996 18.4857ZM200.164 22.0994L193.733 28.6803V28.9343C195.338 29.7425 197 30.6892 198.617 31.3934C199.113 28.23 199.91 25.3668 200.164 22.1572V22.0994Z" fill="#D3A05C"/>
<path d="M52.5219 24.212C52.082 24.5536 51.7523 25.0171 51.5737 25.5446C51.3951 26.0722 51.3755 26.6406 51.5175 27.1792C52.5681 29.0842 54.1268 30.435 55.3852 32.2476L62.9128 41.8418C63.4925 42.9136 63.7756 44.1206 63.733 45.3384C63.6904 46.5561 63.3235 47.7404 62.6703 48.769C59.5531 51.8863 56.1818 54.9573 51.2173 54.4032C49.7121 54.2052 48.3422 53.4313 47.3958 52.2442C44.1285 47.8685 40.3647 43.5505 37.005 39.2326C36.6813 38.9838 36.3022 38.8171 35.9001 38.7468C35.498 38.6764 35.0848 38.7044 34.6959 38.8285L33.5414 39.3827C33.2989 39.0363 32.1906 38.3897 32.941 37.9279C36.2661 34.9146 39.6258 32.0975 42.8931 29.4883C43.4935 29.6961 43.7937 30.4004 44.14 30.7467C44.14 31.2432 43.6436 31.3009 43.4357 31.705C41.981 33.9101 44.394 35.5727 45.5024 37.1313C48.2617 40.6988 51.8754 45.3054 54.831 48.8268C55.4305 49.3161 56.1434 49.6469 56.9042 49.7889C57.6649 49.9308 58.4492 49.8793 59.1848 49.6391C59.9204 49.3988 60.5839 48.9776 61.1143 48.414C61.6446 47.8504 62.0249 47.1626 62.2201 46.4138C62.4643 45.3584 62.3756 44.2532 61.9661 43.2503C58.1561 37.9741 54.5886 33.864 50.4207 28.6801C50.115 28.4532 49.7631 28.2963 49.39 28.2205C49.0169 28.1447 48.6317 28.1518 48.2617 28.2414C47.6614 28.2414 47.2573 28.7378 46.7608 28.784C46.3507 28.3559 45.9653 27.9049 45.6063 27.4332C47.4888 25.872 49.4669 24.4299 51.529 23.1152C51.988 23.359 52.3323 23.7738 52.4873 24.2698L52.5219 24.212Z" fill="#D3A05C"/>
<path d="M236.382 36.9127C239.695 39.6259 242.697 44.244 241.092 48.8737C239.776 51.3329 237.075 52.0371 234.315 51.737C233.379 51.5955 232.456 51.3754 231.556 51.0789C232.249 53.2956 233.657 55.8009 232.56 58.3063C231.648 60.4653 229.686 61.666 228.289 63.3862C228.127 63.5825 228.289 63.7903 228.485 63.8827C230.297 63.9866 231.556 62.7281 232.653 61.5736C233.057 61.8738 233.657 62.2317 233.657 62.7281C232.052 64.5292 229.94 65.88 227.134 65.2797C226.266 65.0881 225.445 64.7236 224.721 64.2078C223.997 63.6921 223.385 63.0357 222.92 62.2779C222.493 61.5623 222.267 60.7444 222.267 59.9111C222.267 59.0777 222.493 58.2599 222.92 57.5443C224.617 55.3968 227.076 53.6881 228.485 51.3213C228.738 50.5689 228.718 49.7511 228.427 49.0123C227.785 48.1507 227.005 47.4016 226.118 46.7955C223.705 49.1046 221.5 51.7716 219.341 54.2308C219.229 54.8061 219.261 55.4003 219.434 55.9602C219.608 56.5202 219.917 57.0287 220.334 57.4404C219.93 58.0061 219.791 58.4564 219.237 58.8027C215.773 55.7894 212.206 53.134 208.685 50.1668C209.019 49.5409 209.479 48.9906 210.035 48.5504C210.554 49.045 211.236 49.3324 211.952 49.3586L213.303 49.0123L226.961 33.8994C227.126 33.5187 227.212 33.108 227.212 32.6929C227.212 32.2778 227.126 31.8671 226.961 31.4864L226.176 30.3319C226.418 29.7777 227.33 28.7271 227.885 29.7315L236.324 36.855L236.382 36.9127ZM234.165 37.7786C231.722 40.2862 229.41 42.9182 227.238 45.6641C227.746 46.1606 228.496 46.6685 228.958 47.165C229.558 47.4283 230.221 47.5159 230.868 47.4178C231.516 47.3197 232.123 47.0399 232.618 46.6108C234.119 44.9598 236.232 43.2973 236.52 40.7458C236.52 39.2795 235.123 38.4367 234.211 37.7786H234.165Z" fill="#D3A05C"/>
<path d="M253.134 53.8491C255.501 56.5969 257.66 59.7719 259.969 62.7852L258.422 63.9398C257.614 63.2355 256.909 62.4851 255.859 62.6352L254.993 62.843C252.684 64.644 250.132 66.2027 247.766 68.0615L248.123 68.2577L258.572 69.9665C259.199 69.7266 259.727 69.2835 260.073 68.708C260.231 68.2495 260.291 67.7628 260.25 67.2795C260.208 66.7962 260.065 66.3271 259.83 65.9025C260.242 65.4242 260.783 65.0753 261.389 64.898C263.49 67.9114 265.245 71.0171 267 74.1343C266.669 74.5619 266.242 74.9059 265.753 75.1388C263.144 71.2711 257.81 71.9292 253.596 70.9247C251.345 75.9931 248.678 80.8653 246.311 85.9337C246.007 87.3504 246.164 88.8273 246.761 90.1478C246.316 90.6439 245.768 91.0378 245.156 91.3023C242.905 87.3307 240.4 83.5554 237.987 79.7569C238.679 79.399 239.291 78.4869 240.18 79.0411C241.843 78.3484 241.993 76.2818 242.905 74.9194C243.655 73.2223 244.51 71.6059 245.214 69.9087C242.839 71.3299 240.618 72.9936 238.587 74.8732C238.415 75.2706 238.327 75.6989 238.327 76.1317C238.327 76.5645 238.415 76.9928 238.587 77.3901C238.241 77.9328 237.536 78.0944 237.086 78.5447C234.477 75.185 231.764 71.7214 229.097 68.5002L230.505 67.3457C230.834 67.7932 231.283 68.1388 231.8 68.343C232.316 68.5473 232.88 68.6017 233.426 68.5002L234.731 67.7036L250.49 56.5046C250.81 56.0991 251.015 55.6159 251.086 55.1046C251.157 54.5933 251.091 54.0723 250.894 53.5951C250.894 53.295 250.294 52.937 250.744 52.6831C252.049 50.8358 252.245 53.5951 253.146 53.953L253.134 53.8491Z" fill="#D3A05C"/>
<path d="M46.9455 58.0166C48.4002 58.4668 49.2546 55.9961 50.4091 57.4509L50.9633 58.2128C47.4997 61.3301 44.2785 64.7475 41.2652 67.9571C40.7631 67.6557 40.3209 67.2643 39.9606 66.8026C40.4108 66.1099 41.5654 65.0477 40.8149 64.0433C38.8512 62.8574 36.8021 61.8193 34.6843 60.9376C32.9459 62.4888 31.3215 64.1634 29.8237 65.9482C30.7093 67.7616 31.7483 69.4958 32.9294 71.1321C33.3452 71.4156 33.8267 71.5878 34.328 71.6323C34.8292 71.6768 35.3335 71.592 35.7927 71.3861C36.4508 71.2245 37.0511 69.8275 37.6515 70.6703L38.2519 71.3284C36.3931 73.5335 34.5342 75.9465 32.8255 78.2556C32.1971 77.9767 31.6463 77.5487 31.2207 77.0087C33.6799 74.2378 30.9206 71.236 29.6159 68.8692C26.1523 62.8887 22.7811 57.116 19.2251 51.2394C20.4499 49.7626 21.7565 48.3557 23.139 47.0254C31.0706 50.489 38.9561 54.4029 46.9917 58.0281L46.9455 58.0166ZM24.1434 56.354C25.702 59.0557 27.1106 61.9305 28.9232 64.4358C30.3035 63.0669 31.6099 61.6255 32.8371 60.1178L24.1434 56.3079V56.354Z" fill="#D3A05C"/>
<path d="M21.7882 65.2904C22.4511 66.3803 22.8742 67.5988 23.0295 68.8649C23.1848 70.131 23.0686 71.4156 22.6887 72.6333C21.9383 74.2958 20.7837 75.8545 19.9756 77.4131C21.8894 78.8531 23.8864 80.1793 25.9561 81.3847C26.5499 81.4801 27.1587 81.4024 27.7095 81.1608C28.2603 80.9192 28.7298 80.5239 29.0618 80.0223C29.6594 80.23 30.2092 80.5559 30.6781 80.9806C28.369 84.6982 25.4942 88.5544 23.393 92.4682C22.7911 92.2832 22.2413 91.9588 21.7882 91.5215C22.0745 91.0468 22.2335 90.5061 22.2497 89.9519C22.2658 89.3977 22.1387 88.8487 21.8805 88.3581C16.1079 84.5943 10.4391 80.819 4.66641 77.2168C4.12734 77.0509 3.55214 77.042 3.00822 77.1913C2.4643 77.3406 1.9742 77.6418 1.59534 78.0596C1.49143 78.152 1.49143 78.406 1.29516 78.406C0.740984 78.406 0.590894 78.0596 0.140625 77.7594C2.63692 73.0569 5.54216 68.5831 8.82274 64.3899C9.77758 63.3811 10.9608 62.6165 12.2728 62.1604C13.5848 61.7043 14.9872 61.5701 16.3619 61.7691C18.5216 62.2498 20.4429 63.4761 21.7882 65.2327V65.2904ZM9.37692 67.6457C8.91582 67.7632 8.49517 68.0034 8.15973 68.3409C7.82429 68.6783 7.5866 69.1004 7.47193 69.5622C11.0394 71.7674 14.5954 74.3305 18.567 76.4894L19.3752 75.4504C19.4767 74.7459 19.3854 74.0272 19.111 73.3705C18.8365 72.7139 18.3892 72.1439 17.8166 71.7212C14.9533 70.3242 12.9906 67.5995 9.37692 67.6457Z" fill="#D3A05C"/>
<path d="M154.514 138.212C155.669 142.53 152.852 145.797 150.693 149.099C145.266 156.026 137.993 161.152 130.708 165.47C130.407 166.232 129.703 166.879 129.553 167.641C132.358 166.486 135.984 164.073 139.193 166.232C140.047 166.844 140.702 167.694 141.075 168.675C141.449 169.657 141.525 170.726 141.295 171.751C138.847 176.427 136.284 181.091 133.525 185.675C133.434 185.822 133.378 185.988 133.36 186.159C133.342 186.331 133.363 186.505 133.421 186.668C133.489 186.884 133.633 187.069 133.825 187.189C134.018 187.31 134.247 187.358 134.471 187.326C135.554 186.931 136.533 186.295 137.335 185.467H140.105C139.107 186.929 137.823 188.174 136.33 189.127C135.328 189.684 134.196 189.965 133.05 189.941C131.904 189.916 130.784 189.588 129.807 188.988C128.774 188.293 127.975 187.301 127.515 186.143C127.056 184.985 126.957 183.715 127.232 182.5L127.694 181.091L134.471 169.292C134.471 168.946 134.067 168.541 133.721 168.645L126.99 172.109C126.14 173.296 125.368 174.538 124.681 175.827C121.783 180.606 118.908 185.375 115.999 190.097C113.389 190.293 109.822 190.189 107.363 190.189C111.277 183.77 115.652 177.143 119.462 170.504C118.308 170.712 117.003 171.266 115.849 171.462V168.645C117.811 167.849 120.017 167.295 122.083 166.486C128.202 156.442 134.333 145.347 144.677 139.078C147.137 137.819 149.653 136.307 152.759 136.769C153.562 137.009 154.243 137.546 154.664 138.269L154.514 138.212ZM151.697 139.112C147.391 140.925 144.158 144.689 141.248 148.349C138.697 152.413 136.088 156.592 133.929 160.552C135.88 159.379 137.758 158.088 139.551 156.684C144.827 152.066 151.408 147.298 152.413 139.655C152.309 139.412 152.101 139.008 151.697 139.158V139.112Z" fill="#E30613"/>
<path d="M175.261 140.462C173.69 143.337 171.889 146.339 170.077 149.26C174.556 149.549 178.713 149.098 183.643 149.456L181.83 152.47L167.976 152.724C161.048 163.773 154.594 174.96 147.771 185.963C147.691 186.251 147.726 186.558 147.868 186.821C148.01 187.083 148.249 187.281 148.533 187.371C149.93 187.371 150.738 186.274 151.685 185.616H154.502C153.87 186.661 153.01 187.549 151.985 188.214C151.207 188.931 150.268 189.451 149.248 189.732C148.228 190.013 147.156 190.047 146.12 189.83C144.942 189.509 143.88 188.856 143.062 187.95C142.243 187.043 141.702 185.921 141.502 184.716C141.389 183.397 141.649 182.073 142.252 180.894C148.233 171.6 153.798 162.006 159.478 152.77C158.905 152.602 158.296 152.602 157.723 152.77L157.573 152.574C155.761 152.574 153.959 152.724 151.997 152.574C152.493 151.523 153.151 150.518 153.705 149.503C155.957 149.26 159.282 149.503 161.591 149.306C163.438 146.351 165.205 143.291 167.167 140.37C169.823 140.37 172.524 140.37 175.249 140.37L175.261 140.462Z" fill="#E30613"/>
<path d="M177.57 157.086C177.764 157.695 177.797 158.344 177.665 158.969C177.534 159.595 177.242 160.175 176.819 160.654C176.142 161.265 175.31 161.677 174.414 161.847C173.518 162.016 172.593 161.935 171.74 161.612C171.16 161.323 170.682 160.865 170.368 160.298C170.055 159.731 169.921 159.082 169.985 158.437C170.08 157.772 170.361 157.146 170.796 156.634C171.231 156.121 171.802 155.742 172.444 155.539C174.153 154.731 176.762 155.124 177.57 157.086Z" fill="#E30613"/>
<path d="M114.186 167.686C114.512 168.679 114.605 169.733 114.459 170.768C114.313 171.803 113.931 172.791 113.343 173.654C112.826 174.234 112.147 174.645 111.393 174.835C110.64 175.024 109.847 174.983 109.117 174.717C108.437 174.442 107.861 173.959 107.473 173.337C107.085 172.714 106.905 171.985 106.958 171.253C107.035 170.678 107.275 170.136 107.649 169.692C108.024 169.248 108.517 168.921 109.071 168.748C109.492 168.774 109.913 168.69 110.292 168.503C110.67 168.317 110.994 168.035 111.23 167.686C111.473 166.935 110.826 166.531 110.376 166.242C107.062 165.538 106.092 169.002 104.003 170.953C100.864 174.924 98.2127 179.258 96.1057 183.861C95.8605 184.304 95.7435 184.806 95.768 185.312C95.7925 185.818 95.9574 186.307 96.2442 186.724C96.5427 187.14 96.9484 187.466 97.4181 187.67C97.8878 187.873 98.4038 187.945 98.9112 187.878C103.298 186.562 106.254 183.56 108.817 179.889H111.334C108.982 184.279 105.184 187.721 100.585 189.633C97.6643 190.488 93.6581 190.73 91.5453 188.329C88.0817 184.565 90.6332 179.092 92.4458 175.271C93.9937 172.434 96.1361 169.964 98.7265 168.031C101.317 166.098 104.294 164.748 107.455 164.072C108.809 163.864 110.194 164.104 111.399 164.757C112.604 165.409 113.562 166.438 114.128 167.686H114.186Z" fill="#E30613"/>
<path d="M174.349 164.477C170.031 171.647 165.563 178.886 161.349 185.963C161.095 186.61 161.695 186.922 161.995 187.233C163.3 187.233 164.154 186.217 165.216 185.467C166.521 184.462 167.167 182.904 168.38 181.749H171.139C168.276 185.363 165.366 190.443 159.94 189.635C158.912 189.421 157.957 188.943 157.171 188.246C156.385 187.549 155.795 186.659 155.46 185.663C153.821 181.253 158.139 178.182 159.64 174.626C161.856 171.255 163.6 167.699 165.909 164.431C169.026 164.431 171.497 164.27 174.349 164.431V164.477Z" fill="#E30613"/>
<path d="M199.414 167.64C201.365 171 198.005 173.471 196.897 176.218C194.992 179.44 192.983 182.603 191.228 185.859C191.32 186.217 191.378 186.667 191.678 186.875C192.833 187.567 193.883 186.17 194.738 185.72C195.985 184.473 197.113 183.112 198.109 181.656C199.056 181.535 200.014 181.535 200.961 181.656C199.056 184.369 196.897 187.429 194.034 189.08C193.172 189.522 192.218 189.754 191.249 189.758C190.281 189.762 189.325 189.539 188.459 189.105C187.593 188.67 186.842 188.039 186.266 187.26C185.69 186.482 185.306 185.578 185.144 184.623C184.905 183.297 185.138 181.929 185.802 180.756C188.307 176.622 190.72 172.674 193.029 168.645C192.879 168.448 192.937 168.056 192.579 167.998C190.466 168.552 189.011 169.961 187.303 171.462C185.34 173.875 184.243 176.622 182.43 179.243C180.225 182.707 178.309 186.274 176.104 189.738L167.722 189.888C169.015 187.186 170.677 184.866 172.132 182.257C174.603 178.089 177.154 174.175 179.475 169.857C179.267 169.499 178.667 169.649 178.413 169.753L177.766 170.146L173.598 177.073H171.185L171.289 176.622C173.298 173.609 174.649 170.088 177.154 167.479C177.982 166.849 178.948 166.426 179.972 166.243C180.995 166.06 182.048 166.124 183.042 166.428C184.386 166.888 185.547 167.766 186.356 168.933C188.861 167.432 191.066 164.869 194.495 164.765C195.525 164.706 196.548 164.957 197.434 165.486C198.319 166.015 199.025 166.798 199.46 167.733L199.414 167.64Z" fill="#E30613"/>
<path d="M84.0636 165.978C84.3638 165.978 84.7679 165.377 84.918 165.019C87.6773 165.019 90.8407 165.019 93.2884 165.019C89.2244 172.05 84.918 178.793 81.0387 185.916C81.1426 186.274 81.1888 186.875 81.6968 187.071C83.1977 187.071 84.6062 185.305 85.5183 184.3H87.8851C87.1518 185.741 86.1263 187.012 84.8739 188.034C83.6215 189.056 82.1698 189.805 80.6115 190.234C79.8674 190.427 79.0869 190.431 78.341 190.245C77.595 190.06 76.9071 189.691 76.3398 189.172C75.6527 188.53 75.1199 187.741 74.7811 186.863C73.2225 188.93 70.8211 190.973 67.7038 190.731C66.738 190.67 65.8009 190.378 64.9712 189.88C64.1415 189.381 63.4434 188.691 62.9356 187.868C60.4187 182.453 64.0324 177.269 66.5955 172.859C69.8628 169.233 73.3264 165.423 78.441 164.361C80.4475 164.182 82.4466 164.777 84.029 166.024L84.0636 165.978ZM81.5467 166.936C80.3922 166.486 79.5378 167.883 78.7758 168.541C74.5003 173.401 70.9358 178.843 68.1887 184.704C67.8885 185.697 66.8264 187.013 67.8424 188.064C68.2926 188.514 68.9969 188.156 69.4472 187.96C74.3193 183.284 77.3327 177.569 80.6924 171.947C81.4428 170.538 82.4934 169.176 82.1471 167.525C82.0123 167.268 81.8029 167.059 81.5467 166.924V166.936Z" fill="#E30613"/>
<path d="M224.525 166.635C225.079 165.977 225.518 165.123 226.084 164.326C228.843 164.176 231.602 164.268 234.419 164.326C228.485 174.417 221.72 184.357 215.774 194.252C219.745 194.76 223.267 193.455 226.58 191.943L227.989 193.755C223.925 196.365 218.394 197.115 213.569 196.815C204.979 204.4 194.288 211.235 181.588 210.381C177.57 209.769 172.998 208.072 171.844 203.8C171.517 202.586 171.502 201.309 171.801 200.088C172.099 198.867 172.702 197.741 173.552 196.815C178.575 192.139 186.749 190.638 193.641 192.439C198.148 193.324 202.712 193.879 207.299 194.102C208.454 192.947 208.997 191.342 210.047 190.13C209.909 189.68 210.555 189.483 210.555 188.976C208.696 189.587 205.937 190.13 204.136 188.837C201.769 187.475 201.515 184.161 201.827 181.748C202.618 178.349 204.078 175.142 206.122 172.314C208.166 169.485 210.752 167.092 213.73 165.273C214.907 164.457 216.275 163.96 217.701 163.828C219.127 163.697 220.563 163.936 221.87 164.522C222.825 165.118 223.705 165.828 224.49 166.635H224.525ZM220.149 167.882C216.847 169.649 214.573 173.216 212.472 176.172C210.555 178.989 208.5 181.944 208.2 185.408C208.292 185.904 208.743 186.17 209.054 186.424C210.809 186.92 212.218 185.454 213.315 184.45C215.889 180.64 218.394 176.772 220.704 172.708C221.2 171.554 222.308 170.549 222.054 169.048C221.883 168.692 221.611 168.393 221.273 168.189C220.935 167.984 220.545 167.881 220.149 167.894V167.882ZM190.824 193.998C188.04 193.544 185.192 193.663 182.455 194.346C179.718 195.028 177.148 196.261 174.903 197.969C174.174 198.739 173.674 199.697 173.46 200.735C173.246 201.773 173.326 202.851 173.691 203.846C174.753 206.755 177.963 207.61 181.034 207.61C190.766 207.506 199.957 203.846 205.983 196.665V196.457L199.31 195.706L190.824 193.998Z" fill="#E30613"/>
<path d="M68.6391 165.273L57.1861 183.561C54.9347 187.371 51.9099 191.389 49.9125 195.464C53.5681 195.663 57.2055 194.826 60.4073 193.051C61.1115 193.351 61.354 194.206 61.862 194.76C57.8442 197.519 52.6257 198.108 47.3956 197.97C40.0181 204.654 31.0243 210.277 20.6335 211.628C14.9993 212.182 8.73021 210.924 6.12095 205.751C5.57749 204.362 5.45854 202.842 5.77915 201.385C6.09977 199.928 6.84553 198.599 7.92203 197.566C10.2614 195.725 12.9511 194.379 15.8271 193.611C18.7032 192.843 21.7055 192.668 24.6513 193.097C30.1606 194.232 35.7502 194.935 41.3689 195.199C42.57 193.532 43.6614 191.789 44.6363 189.98C41.6229 190.546 37.0048 191.943 35.0883 188.629C32.479 184.808 36.4968 181.552 37.9053 178.331L45.7446 165.423C48.2962 165.227 51.2633 165.423 54.1728 165.331C49.8548 172.316 45.9409 179.393 41.4729 186.609C41.4187 186.915 41.4675 187.231 41.6116 187.507C41.7557 187.782 41.987 188.003 42.2695 188.133C48.0422 187.925 49.0466 182.152 52.06 178.481C54.7269 174.025 57.6941 169.753 60.2918 165.331C63.0165 165.169 65.8682 165.123 68.5352 165.123L68.6853 165.273H68.6391ZM32.2827 196.665C26.9603 195.51 20.9337 193.998 15.3572 195.707C12.7018 196.861 9.58456 197.773 8.02594 200.325C7.61362 201.14 7.39017 202.038 7.37218 202.951C7.35419 203.865 7.54212 204.77 7.92203 205.601C9.07657 208.257 12.3439 209.065 15.3572 208.868C25.0554 208.464 34.2916 205.047 40.0181 197.612L32.2827 196.711V196.665Z" fill="#E30613"/>
<path d="M137.242 62.1271C132.846 67.2086 129.548 73.1439 127.555 79.5606C127.365 80.3595 127.361 81.1912 127.543 81.9918C127.726 82.7924 128.089 83.5406 128.606 84.1788C129.776 85.3898 131.34 86.1431 133.016 86.3031L180.733 94.9852H180.929C190.477 83.2667 204.493 75.2426 220.345 74.4806L219.895 75.081C211.365 82.7393 204.289 91.8761 199.009 102.051C200.368 110.506 204.954 118.105 211.801 123.248C205.75 123.522 199.721 122.341 194.219 119.806C188.718 117.271 183.903 113.456 180.179 108.678L160.69 111.795L160.436 111.945L162.353 113.943C157.873 116.667 153.059 118.976 148.498 121.482L140.601 117.164C130.697 118.621 120.678 119.143 110.676 118.722C110.097 118.776 109.54 118.974 109.058 119.299C108.576 119.624 108.183 120.065 107.916 120.581C105.307 128.27 107.57 136.895 111.98 143.129C100.989 141.628 93.1036 132.381 90.0441 122.348C90.0441 122.14 90.0441 121.897 89.7901 121.851C80.9579 124.957 71.7216 129.875 65.9489 137.057C66.0864 130.937 67.9515 124.982 71.329 119.877C72.0795 118.526 73.3379 117.372 74.1346 116.159C68.3767 114.905 62.7194 113.226 57.2091 111.137C58.2052 109.963 59.2815 108.86 60.4302 107.835C58.868 108.122 57.3255 108.508 55.8121 108.99C50.537 106.363 45.8143 102.75 41.8999 98.3449C55.2002 90.8173 70.6248 87.8502 85.8877 84.8368C92.6649 83.6823 99.7422 82.9318 106.785 82.1814C114.867 72.7373 123.999 63.4895 136.803 61.9424H137.253V62.1387L137.242 62.1271ZM127.809 68.8003C119.658 72.8758 114.336 79.0988 108.609 86.1184C104.499 86.4186 100.285 86.8226 96.3132 87.2729C79.6302 89.8013 63.1665 92.757 48.1459 99.1877C50.6068 101.376 53.3199 103.264 56.2277 104.81C63.4089 102.709 71.6523 101.543 79.4339 102.905C73.9614 103.968 68.5351 105.872 64.4249 109.532C72.085 111.959 80.0072 113.462 88.0236 114.012C88.0236 112.857 87.6311 111.703 87.6773 110.548C89.0064 110.307 90.3558 110.195 91.7066 110.214C92.2954 120.339 95.8745 130.233 104.314 135.717C103.252 130.233 102.744 123.71 104.903 118.538C105.458 117.628 106.195 116.841 107.067 116.228C107.939 115.614 108.927 115.186 109.971 114.97C120.524 115.178 131.111 114.97 141.213 113.019L148.602 117.025L155.83 113.065L152.366 109.752C152.262 109.648 152.054 109.405 152.366 109.301L179.428 104.96L181.887 104.66C186.506 111.391 193.433 116.771 201.676 118.33C198.041 113.647 195.761 108.056 195.084 102.166C198.426 94.0056 203.248 86.5332 209.308 80.1263C201.913 82.3719 195.103 86.2148 189.357 91.3831C186.867 93.7877 184.519 96.3358 182.326 99.0145L131.053 89.7783L128.744 88.9701C127.061 88.1087 125.678 86.7598 124.773 85.0997C123.869 83.4396 123.487 81.5454 123.676 79.6645C124.618 75.887 126.017 72.2386 127.844 68.8003H127.809ZM78.9374 117.06C76.1777 119.53 73.9537 122.54 72.4028 125.904C74.8469 124.249 77.418 122.789 80.092 121.54C82.8051 120.131 86.0725 119.23 88.7279 118.076C85.4606 117.833 82.147 117.533 78.9374 117.025V117.06Z" fill="white"/>
<path d="M61.4005 98.3911C61.5689 98.6794 61.6379 99.015 61.5969 99.3463C61.556 99.6777 61.4074 99.9864 61.174 100.225C60.9405 100.464 60.6352 100.619 60.3048 100.667C59.9745 100.716 59.6374 100.654 59.3454 100.492C59.0472 100.276 58.8274 99.9691 58.7191 99.6171C58.6108 99.2651 58.6199 98.8875 58.7451 98.5412C58.8952 97.9754 59.4955 97.7792 59.8996 97.6291C60.189 97.6081 60.4785 97.6683 60.7355 97.8029C60.9925 97.9376 61.2068 98.1412 61.3543 98.3911H61.4005Z" fill="white"/>
</svg>
