<svg width="131" height="104" viewBox="0 0 131 104" fill="none" xmlns="http://www.w3.org/2000/svg">
<path d="M71.0732 1.07913C71.2039 1.0842 71.3343 1.06281 71.4565 1.01624C71.5788 0.96967 71.6904 0.898881 71.7846 0.808121L71.8862 0.367729C72.1346 0.367729 72.575 0.316914 72.6259 0.610509C72.496 2.30432 72.2758 3.90216 72.1798 5.57339L71.4402 5.54516C71.5631 4.9438 71.5594 4.32341 71.4291 3.7236C71.2988 3.12379 71.0449 2.55772 70.6836 2.06154C69.9496 1.24851 68.9898 0.610509 67.8098 0.887165C67.5589 0.98044 67.3294 1.12358 67.1354 1.30796C66.9413 1.49233 66.7866 1.71411 66.6806 1.95991C66.6013 2.30946 66.6022 2.67243 66.6834 3.02155C66.7646 3.37067 66.9238 3.69684 67.1492 3.97555C68.6454 5.35319 70.9998 5.05395 72.304 6.79858C72.7752 7.37147 73.072 8.06763 73.1591 8.80428C73.2462 9.54094 73.1199 10.2871 72.7952 10.9541C72.3548 11.9308 71.4458 12.4785 70.5368 12.9697C69.5823 13.4056 68.5366 13.6044 67.4887 13.5494C66.4408 13.4943 65.4217 13.187 64.5181 12.6535C64.3023 12.5797 64.0724 12.5566 63.8462 12.586C63.62 12.6153 63.4037 12.6964 63.2139 12.8229C63.1687 12.9189 63.0445 12.9923 63.0953 13.1391C62.8533 13.19 62.6033 13.19 62.3613 13.1391C62.463 11.2985 62.7057 9.50304 62.8017 7.66243C63.0235 7.57773 63.2687 7.57773 63.4905 7.66243C63.7107 9.72888 64.6197 12.2075 66.7822 12.7439C67.2015 12.8662 67.6466 12.8692 68.0675 12.7525C68.4884 12.6358 68.8684 12.404 69.1648 12.0833C69.3713 11.8251 69.5087 11.5186 69.564 11.1926C69.6193 10.8666 69.5907 10.532 69.481 10.2201C68.7188 8.76905 66.9008 8.57144 65.5288 7.96167C64.8031 7.62188 64.1917 7.07877 63.7688 6.39825C63.3459 5.71773 63.1295 4.92907 63.1461 4.128C63.2139 2.23657 64.8117 0.740368 66.4378 0.203993C67.2251 -0.0222397 68.0545 -0.0609202 68.8594 0.0910509C69.6644 0.243022 70.4225 0.58142 71.0732 1.07913Z" fill="#D3A05C"/>
<path d="M82.8635 1.8689C82.8438 2.18064 82.7693 2.48646 82.6433 2.77227C82.4023 2.70178 82.1473 2.69382 81.9023 2.74913C81.6573 2.80445 81.4305 2.92122 81.2431 3.08845C80.7801 3.55707 80.8761 4.29671 80.6277 4.88389L79.7921 8.32234C80.8761 8.91517 82.2481 8.81354 83.4563 9.25394L83.6765 8.76273C83.9701 7.24394 84.4105 5.77032 84.7041 4.24589C84.6659 3.97132 84.5482 3.71389 84.3657 3.50526C84.1831 3.29663 83.9436 3.14587 83.6765 3.07151C83.6031 3.0207 83.4789 3.07151 83.4281 2.95295L83.6991 2.06652C85.8841 2.63112 88.0466 3.19573 90.1582 3.88454C90.1948 4.00976 90.1957 4.14271 90.1608 4.26841C90.1259 4.39411 90.0565 4.50755 89.9606 4.59595C89.7261 4.55185 89.4846 4.56199 89.2546 4.6256C89.0247 4.68921 88.8123 4.8046 88.6338 4.96294L88.3402 5.52754C87.6062 8.62158 86.7932 11.7382 86.1552 14.8605C86.1476 15.1332 86.2266 15.4014 86.3808 15.6265C86.5349 15.8516 86.7563 16.0222 87.0134 16.1139C87.1093 16.1139 87.2336 16.1647 87.2618 16.2663C87.2361 16.5689 87.1436 16.8621 86.9908 17.1245C84.8735 16.4357 82.7675 15.7243 80.6051 15.1823L80.8027 14.4935C81.0863 14.5738 81.3874 14.5672 81.6672 14.4746C81.947 14.382 82.1926 14.2076 82.3723 13.974C82.7167 12.6754 82.9877 11.3486 83.3321 10.05C82.1521 9.65481 80.9269 9.45719 79.7187 9.1636L79.6227 9.21441L78.7645 12.8731C78.7734 13.2216 78.8941 13.5581 79.1089 13.8329C79.3539 14.0259 79.6259 14.1819 79.9163 14.2959L79.7695 15.0355C77.6353 14.5669 75.4728 14.1773 73.2596 13.8555C73.2144 13.5111 73.3838 13.2909 73.4064 12.9465C73.6769 13.0014 73.9575 12.9773 74.2148 12.8772C74.4721 12.7771 74.6951 12.6052 74.8574 12.3818C75.693 9.14102 76.5512 5.92277 77.1892 2.60854C77.1944 2.27441 77.0711 1.95105 76.8448 1.70517C76.6303 1.3777 75.789 1.47933 76.1108 0.892137C76.156 0.796154 76.1108 0.621127 76.2576 0.570312C78.516 0.914722 80.7011 1.28736 82.8635 1.82374V1.8689Z" fill="#D3A05C"/>
<path d="M33.2258 7.8542C33.0487 7.95283 32.8995 8.09461 32.7919 8.26636C32.6843 8.43811 32.6219 8.63427 32.6104 8.83662L32.6386 9.15844C34.1122 12.1565 35.535 15.1997 36.9804 18.1921C37.0908 18.3256 37.2312 18.4311 37.3902 18.4998C37.5492 18.5685 37.7222 18.5985 37.8951 18.5873C38.4597 18.5365 38.8267 17.8985 39.1711 17.4581C39.5607 16.7923 39.8036 16.0509 39.8835 15.2836C39.9633 14.5163 39.8783 13.7408 39.6341 13.009L40.2495 12.7098C41.0399 14.2625 41.8021 15.8603 42.5079 17.4299C39.2746 18.828 36.1329 20.429 33.1016 22.2234C32.9265 21.9298 32.5821 21.5346 32.7064 21.2128C32.9009 21.1287 33.0734 21.001 33.2105 20.8394C33.3476 20.6778 33.4456 20.4868 33.4968 20.2812C33.542 19.3665 32.8814 18.7116 32.6104 17.9663C31.5263 15.5611 30.3237 13.2067 29.1211 10.8974C28.8895 10.7205 28.6134 10.611 28.3235 10.5811C28.0335 10.5512 27.741 10.6021 27.4781 10.728L27.1055 10.1126C29.0071 8.96359 30.967 7.9139 32.9774 6.96777C33.1016 7.2162 33.6436 7.62836 33.1976 7.82597L33.2258 7.8542Z" fill="#D3A05C"/>
<path d="M52.6034 2.2649C52.8074 2.55518 52.9293 2.89515 52.9561 3.24893C52.983 3.60271 52.9138 3.95717 52.7559 4.2749C52.2548 5.0992 51.6237 5.83706 50.887 6.45992C51.4706 7.22171 52.1742 7.88342 52.9704 8.4191C53.2697 6.87773 53.7101 5.12745 55.2288 4.34265C55.5729 4.20718 55.9447 4.15696 56.3124 4.19629C56.6801 4.23561 57.0328 4.36331 57.3405 4.56849C57.6655 4.83641 57.9091 5.18987 58.0438 5.58896C58.1785 5.98804 58.1989 6.41684 58.1027 6.82691C58.0058 7.11633 57.8514 7.38311 57.6485 7.61116C57.4457 7.8392 57.1988 8.02378 56.9227 8.15373C56.556 8.29632 56.1565 8.33276 55.7701 8.25886C55.3837 8.18497 55.0259 8.00374 54.7376 7.73592C54.444 7.5609 54.444 7.17132 54.173 6.97371C53.9254 7.60981 53.7456 8.2703 53.6367 8.94418C54.5965 9.72898 55.7426 10.463 57.1485 10.4178C57.4813 10.3432 57.7892 10.1839 58.0424 9.9554C58.2956 9.72692 58.4856 9.43695 58.5939 9.11356C58.7865 9.65258 58.8496 10.2294 58.778 10.7973C58.7064 11.3652 58.5021 11.9083 58.1817 12.3826C57.4195 13.2634 56.4371 14.0764 55.1046 13.7828C54.1467 13.6004 53.2314 13.2404 52.4058 12.7214C52.0731 13.4874 51.5299 14.1434 50.8393 14.6131C50.1487 15.0828 49.3391 15.347 48.5044 15.375C47.7711 15.3706 47.056 15.146 46.4519 14.7302C45.8479 14.3144 45.3827 13.7266 45.1168 13.0432C44.9137 12.4869 44.8437 11.8907 44.9123 11.3025C44.9809 10.7142 45.1863 10.1502 45.512 9.65558C45.9524 8.89336 46.692 8.59977 47.3357 7.96177C46.8614 7.17132 46.1274 6.41475 46.1274 5.38152C46.0559 4.66889 46.1864 3.95051 46.5039 3.30852C46.8214 2.66653 47.3131 2.12683 47.9229 1.75111C49.2723 0.938081 51.5815 0.915496 52.6091 2.2649H52.6034ZM48.5552 2.62625C48.5165 2.81493 48.5321 3.01074 48.6004 3.19085C49.0811 4.11628 49.6686 4.98225 50.3507 5.7711C50.5483 5.69205 50.5991 5.50009 50.7967 5.44363C51.2484 4.39911 50.0232 3.63689 49.6844 2.77305C49.4134 2.47945 48.8827 2.20844 48.5552 2.6206V2.62625ZM47.2566 9.09098C47.0534 10.2202 48.064 11.0332 48.7246 11.7164C49.3626 12.281 50.1756 13.094 51.1524 13.094C51.4424 12.8998 51.645 12.5999 51.717 12.2584C50.2751 11.2415 48.9762 10.0356 47.8551 8.67317C47.6123 8.67317 47.3921 8.92159 47.251 9.09098H47.2566Z" fill="#D3A05C"/>
<path d="M102.138 9.03669C101.455 13.2882 100.613 17.4606 99.9811 21.7064C100.046 21.9607 100.162 22.199 100.322 22.4068C100.482 22.6145 100.683 22.7874 100.913 22.9147C100.824 23.2027 100.69 23.4751 100.517 23.7221C98.6034 22.5195 96.6442 21.4636 94.6964 20.3344C94.6964 20.1368 94.8714 19.894 94.9956 19.6908C95.3852 19.8658 95.882 20.1368 96.2942 19.8658L96.441 19.64L97.0056 16.2523C96.074 15.6595 95.0916 15.2135 94.1317 14.6997H93.985C93.2961 15.7329 91.2805 16.5459 92.2911 18.1155C92.5357 18.3264 92.7983 18.5153 93.0759 18.6801C92.8557 18.8439 92.9517 19.5327 92.5113 19.2448L88.7793 17.6243C88.8538 17.3317 88.9678 17.0506 89.1181 16.7887C91.0885 17.7203 91.7717 15.3885 93.0025 14.5303C95.1876 12.2719 97.446 9.957 99.6366 7.68164C100.527 8.02102 101.374 8.46449 102.16 9.00282L102.138 9.03669ZM97.8186 10.8039L94.6738 14.0222V14.1464C95.4586 14.5416 96.2716 15.0046 97.062 15.349C97.3048 13.802 97.6944 12.4017 97.8186 10.8321V10.8039Z" fill="#D3A05C"/>
<path d="M25.6174 11.842C25.4022 12.0091 25.241 12.2357 25.1536 12.4937C25.0663 12.7517 25.0567 13.0297 25.1262 13.2931C25.6399 14.2247 26.4022 14.8853 27.0176 15.7717L30.6988 20.4636C30.9823 20.9877 31.1208 21.578 31.0999 22.1735C31.0791 22.769 30.8997 23.3482 30.5802 23.8512C29.0558 25.3756 27.4072 26.8775 24.9794 26.6065C24.2432 26.5097 23.5733 26.1312 23.1105 25.5506C21.5127 23.4108 19.6721 21.2992 18.0291 19.1876C17.8708 19.0659 17.6854 18.9844 17.4888 18.95C17.2921 18.9156 17.0901 18.9293 16.8999 18.9899L16.3353 19.2609C16.2167 19.0916 15.6747 18.7754 16.0417 18.5495C17.6677 17.0759 19.3107 15.6983 20.9086 14.4223C21.2022 14.5239 21.349 14.8683 21.5183 15.0377C21.5183 15.2805 21.2756 15.3087 21.1739 15.5063C20.4625 16.5847 21.6425 17.3978 22.1846 18.16C23.534 19.9046 25.3012 22.1574 26.7466 23.8794C27.0398 24.1187 27.3884 24.2805 27.7604 24.3499C28.1324 24.4193 28.516 24.3941 28.8757 24.2767C29.2355 24.1592 29.5599 23.9532 29.8193 23.6776C30.0787 23.402 30.2646 23.0656 30.36 22.6994C30.4795 22.1833 30.4361 21.6428 30.2358 21.1524C28.3726 18.5721 26.628 16.5621 24.5898 14.0271C24.4403 13.9161 24.2682 13.8394 24.0857 13.8023C23.9033 13.7652 23.7149 13.7687 23.534 13.8125C23.2404 13.8125 23.0428 14.0553 22.8 14.0779C22.5994 13.8685 22.4109 13.648 22.2354 13.4173C23.156 12.6538 24.1233 11.9486 25.1318 11.3057C25.3562 11.4249 25.5246 11.6277 25.6004 11.8703L25.6174 11.842Z" fill="#D3A05C"/>
<path d="M115.531 18.0503C117.152 19.3771 118.62 21.6355 117.835 23.8996C117.191 25.1022 115.87 25.4466 114.521 25.2998C114.063 25.2306 113.611 25.123 113.171 24.978C113.51 26.062 114.199 27.2872 113.662 28.5124C113.216 29.5682 112.256 30.1554 111.573 30.9966C111.494 31.0926 111.573 31.1943 111.669 31.2394C112.556 31.2902 113.171 30.6748 113.708 30.1102C113.905 30.257 114.199 30.432 114.199 30.6748C113.414 31.5556 112.381 32.2162 111.009 31.9226C110.584 31.8289 110.183 31.6506 109.829 31.3984C109.475 31.1462 109.175 30.8252 108.948 30.4546C108.739 30.1047 108.629 29.7047 108.629 29.2972C108.629 28.8896 108.739 28.4897 108.948 28.1397C109.778 27.0896 110.98 26.254 111.669 25.0965C111.793 24.7285 111.783 24.3286 111.641 23.9673C111.327 23.546 110.946 23.1797 110.512 22.8833C109.332 24.0125 108.253 25.3167 107.198 26.5193C107.143 26.8007 107.159 27.0912 107.243 27.3651C107.328 27.6389 107.479 27.8876 107.683 28.0889C107.486 28.3656 107.418 28.5858 107.147 28.7552C105.453 27.2815 103.708 25.983 101.986 24.5319C102.15 24.2258 102.375 23.9567 102.647 23.7415C102.901 23.9833 103.234 24.1239 103.584 24.1367L104.245 23.9673L110.924 16.5766C111.005 16.3905 111.047 16.1896 111.047 15.9866C111.047 15.7836 111.005 15.5828 110.924 15.3966L110.54 14.832C110.659 14.561 111.105 14.0472 111.376 14.5384L115.503 18.022L115.531 18.0503ZM114.447 18.4737C113.252 19.7 112.122 20.9871 111.06 22.33C111.308 22.5727 111.675 22.8212 111.901 23.0639C112.194 23.1927 112.518 23.2356 112.835 23.1876C113.152 23.1396 113.448 23.0028 113.691 22.7929C114.425 21.9855 115.458 21.1725 115.599 19.9247C115.599 19.2077 114.916 18.7955 114.47 18.4737H114.447Z" fill="#D3A05C"/>
<path d="M123.722 26.3341C124.879 27.6778 125.935 29.2305 127.064 30.7041L126.308 31.2687C125.913 30.9243 125.568 30.5573 125.054 30.6307L124.631 30.7323C123.502 31.6131 122.254 32.3753 121.096 33.2843L121.271 33.3803L126.381 34.2159C126.688 34.0986 126.946 33.882 127.115 33.6005C127.193 33.3763 127.222 33.1383 127.202 32.9019C127.181 32.6656 127.111 32.4362 126.997 32.2285C127.198 31.9946 127.463 31.824 127.759 31.7373C128.786 33.2109 129.645 34.7297 130.503 36.2542C130.341 36.4633 130.132 36.6315 129.893 36.7454C128.617 34.8539 126.009 35.1758 123.948 34.6846C122.847 37.1632 121.542 39.5458 120.385 42.0244C120.236 42.7172 120.313 43.4395 120.605 44.0852C120.387 44.3279 120.12 44.5205 119.82 44.6498C118.719 42.7076 117.494 40.8613 116.314 39.0038C116.653 38.8288 116.952 38.3827 117.387 38.6537C118.2 38.315 118.273 37.3043 118.719 36.6381C119.086 35.8081 119.504 35.0177 119.849 34.1877C118.687 34.8827 117.601 35.6963 116.608 36.6155C116.524 36.8098 116.481 37.0193 116.481 37.2309C116.481 37.4426 116.524 37.652 116.608 37.8463C116.438 38.1117 116.094 38.1908 115.874 38.411C114.598 36.768 113.271 35.0741 111.967 33.4989L112.656 32.9343C112.817 33.1531 113.036 33.3222 113.289 33.422C113.541 33.5219 113.817 33.5485 114.084 33.4989L114.722 33.1093L122.429 27.6326C122.585 27.4343 122.686 27.198 122.72 26.948C122.755 26.698 122.723 26.4432 122.627 26.2098C122.627 26.063 122.333 25.888 122.553 25.7638C123.191 24.8604 123.287 26.2098 123.728 26.3849L123.722 26.3341Z" fill="#D3A05C"/>
<path d="M22.8901 28.3741C23.6016 28.5943 24.0194 27.386 24.584 28.0974L24.855 28.47C23.1612 29.9945 21.5859 31.6657 20.1123 33.2353C19.8668 33.0879 19.6505 32.8965 19.4743 32.6707C19.6945 32.3319 20.2591 31.8125 19.8921 31.3213C18.9318 30.7414 17.9297 30.2337 16.894 29.8025C16.0439 30.5611 15.2495 31.3801 14.5171 32.2529C14.9501 33.1397 15.4582 33.9878 16.0358 34.788C16.2392 34.9266 16.4746 35.0108 16.7198 35.0326C16.9649 35.0543 17.2115 35.0129 17.4361 34.9122C17.7579 34.8331 18.0515 34.15 18.3451 34.5621L18.6387 34.884C17.7297 35.9624 16.8206 37.1424 15.985 38.2716C15.6777 38.1352 15.4083 37.9259 15.2002 37.6618C16.4028 36.3068 15.0534 34.8388 14.4154 33.6813C12.7216 30.7567 11.073 27.9337 9.33398 25.0598C9.93293 24.3376 10.5719 23.6496 11.248 22.999C15.1268 24.6928 18.9831 26.6068 22.9127 28.3797L22.8901 28.3741ZM11.7392 27.561C12.5014 28.8822 13.1902 30.2881 14.0767 31.5133C14.7517 30.8438 15.3906 30.139 15.9907 29.4016L11.7392 27.5384V27.561Z" fill="#D3A05C"/>
<path d="M10.5863 31.9289C10.9105 32.4618 11.1174 33.0577 11.1934 33.6769C11.2693 34.296 11.2125 34.9243 11.0267 35.5198C10.6597 36.3328 10.0951 37.095 9.69991 37.8572C10.6359 38.5614 11.6124 39.21 12.6246 39.7995C12.915 39.8461 13.2127 39.8081 13.4821 39.69C13.7514 39.5718 13.981 39.3785 14.1434 39.1332C14.4356 39.2348 14.7045 39.3941 14.9338 39.6018C13.8046 41.4199 12.3987 43.3057 11.3711 45.2197C11.0768 45.1292 10.8079 44.9705 10.5863 44.7567C10.7264 44.5245 10.8041 44.2601 10.812 43.9891C10.8199 43.7181 10.7578 43.4496 10.6315 43.2097C7.80849 41.3691 5.03628 39.5228 2.21325 37.7612C1.94963 37.6801 1.66834 37.6758 1.40235 37.7488C1.13635 37.8218 0.896676 37.9691 0.711402 38.1734C0.660588 38.2186 0.660588 38.3428 0.564605 38.3428C0.293595 38.3428 0.220196 38.1734 0 38.0266C1.22077 35.7269 2.64152 33.5391 4.24583 31.4885C4.71278 30.9951 5.29141 30.6212 5.93302 30.3982C6.57463 30.1751 7.26043 30.1095 7.9327 30.2068C8.98888 30.4419 9.92845 31.0416 10.5863 31.9006V31.9289ZM4.51684 33.0807C4.29135 33.1381 4.08564 33.2556 3.9216 33.4206C3.75756 33.5857 3.64132 33.7921 3.58524 34.0179C5.32987 35.0963 7.06885 36.3497 9.0111 37.4055L9.40632 36.8974C9.45597 36.5529 9.41131 36.2014 9.2771 35.8803C9.14288 35.5591 8.92412 35.2804 8.6441 35.0737C7.24388 34.3905 6.28405 33.0581 4.51684 33.0807Z" fill="#D3A05C"/>
<path d="M75.496 67.5901C76.0606 69.7017 74.6829 71.2995 73.6271 72.9143C70.9735 76.3019 67.4165 78.8088 63.8538 80.9204C63.707 81.2931 63.3626 81.6092 63.2892 81.9819C64.6612 81.4173 66.4341 80.2372 68.0037 81.2931C68.4211 81.5922 68.7412 82.0077 68.9239 82.4877C69.1067 82.9677 69.144 83.4908 69.0312 83.9919C67.8343 86.2785 66.5809 88.5595 65.2314 90.801C65.1872 90.873 65.1596 90.954 65.1508 91.038C65.142 91.122 65.1522 91.207 65.1806 91.2866C65.2143 91.3924 65.2844 91.4828 65.3785 91.5418C65.4726 91.6007 65.5845 91.6243 65.6944 91.6084C66.2239 91.4152 66.7027 91.1044 67.0946 90.6994H68.4497C67.9615 91.4146 67.3335 92.0234 66.6034 92.4892C66.1135 92.7617 65.5598 92.8991 64.9993 92.8872C64.4387 92.8753 63.8914 92.7145 63.4134 92.4214C62.908 92.0812 62.5174 91.5961 62.2927 91.0298C62.068 90.4635 62.0197 89.8425 62.1544 89.2483L62.3802 88.5595L65.6944 82.7893C65.6944 82.6199 65.4968 82.4223 65.3274 82.4731L62.0358 84.1669C61.6201 84.7476 61.2428 85.3549 60.9066 85.9849C59.4894 88.3224 58.0835 90.6542 56.6607 92.9634C55.3847 93.0594 53.6401 93.0086 52.4375 93.0086C54.3515 89.8694 56.4914 86.6286 58.3546 83.3821C57.79 83.4837 57.152 83.7547 56.5873 83.8507V82.4731C57.5472 82.0835 58.6256 81.8125 59.6362 81.4173C62.6286 76.5052 65.6267 71.0794 70.6855 68.0135C71.8881 67.3981 73.119 66.6585 74.6378 66.8843C75.0302 67.002 75.3632 67.2643 75.5694 67.6183L75.496 67.5901ZM74.1183 68.0305C72.0124 68.9169 70.4315 70.7575 69.0087 72.5473C67.7609 74.5347 66.4849 76.5786 65.4291 78.5152C66.3835 77.9417 67.3018 77.3101 68.1787 76.6238C70.7589 74.3654 73.9772 72.0335 74.4684 68.2959C74.4176 68.1773 74.3159 67.9797 74.1183 68.0531V68.0305Z" fill="#E30613"/>
<path d="M85.637 68.6907C84.8691 70.0965 83.9883 71.5645 83.1019 72.993C85.2926 73.1341 87.3251 72.9139 89.736 73.0889L88.8496 74.5626L82.0743 74.6868C78.6867 80.09 75.5305 85.5611 72.1937 90.9418C72.1547 91.0825 72.1717 91.2328 72.2412 91.3613C72.3107 91.4897 72.4272 91.5862 72.5664 91.6306C73.2495 91.6306 73.6448 91.0942 74.1077 90.7724H75.4854C75.1763 91.2834 74.7555 91.7177 74.2545 92.0427C73.8738 92.3932 73.415 92.6477 72.9161 92.7852C72.4173 92.9227 71.8928 92.9391 71.3863 92.8332C70.8101 92.676 70.291 92.3568 69.8907 91.9134C69.4904 91.4701 69.2257 90.9212 69.1279 90.332C69.0725 89.6869 69.1996 89.0393 69.4949 88.4631C72.4196 83.9181 75.141 79.2262 77.9188 74.7094C77.6386 74.6272 77.3408 74.6272 77.0606 74.7094L76.9872 74.6134C76.1008 74.6134 75.22 74.6868 74.2602 74.6134C74.503 74.0996 74.8248 73.6084 75.0958 73.1115C76.1968 72.993 77.8228 73.1115 78.952 73.0156C79.8554 71.5702 80.7193 70.074 81.6791 68.6455C82.9777 68.6455 84.2989 68.6455 85.6313 68.6455L85.637 68.6907Z" fill="#E30613"/>
<path d="M86.7697 76.8208C86.8646 77.1185 86.8807 77.4357 86.8164 77.7415C86.7521 78.0473 86.6095 78.3312 86.4027 78.5654C86.0716 78.8642 85.6646 79.0659 85.2264 79.1486C84.7882 79.2312 84.3356 79.1916 83.9185 79.034C83.635 78.8926 83.4012 78.6684 83.2479 78.3912C83.0947 78.1139 83.0292 77.7966 83.0603 77.4814C83.1068 77.1558 83.2444 76.85 83.4571 76.5993C83.6699 76.3486 83.9492 76.1631 84.2629 76.0642C85.0985 75.669 86.3745 75.8609 86.7697 76.8208Z" fill="#E30613"/>
<path d="M55.7691 82.002C55.9285 82.4876 55.9743 83.0034 55.9028 83.5095C55.8314 84.0156 55.6446 84.4985 55.3569 84.921C55.1041 85.2046 54.7719 85.4057 54.4035 85.4983C54.0351 85.5909 53.6473 85.5707 53.2904 85.4405C52.9578 85.3063 52.6763 85.07 52.4866 84.7656C52.2968 84.4612 52.2086 84.1044 52.2346 83.7467C52.2723 83.4652 52.3895 83.2004 52.5726 82.9834C52.7556 82.7663 52.9968 82.6061 53.2679 82.5215C53.4738 82.5343 53.6796 82.4931 53.8648 82.402C54.0499 82.3109 54.2081 82.173 54.3237 82.002C54.4422 81.635 54.1261 81.4374 53.9059 81.2963C52.2855 80.9519 51.8112 82.6457 50.7892 83.5999C49.2543 85.542 47.9577 87.6613 46.9274 89.9121C46.8074 90.1288 46.7502 90.3746 46.7622 90.6219C46.7742 90.8692 46.8548 91.1083 46.9951 91.3124C47.1411 91.5157 47.3395 91.6755 47.5692 91.775C47.7988 91.8744 48.0512 91.9097 48.2993 91.877C50.4448 91.2333 51.8902 89.7653 53.1436 87.9699H54.3745C53.2241 90.1168 51.3671 91.8002 49.118 92.7352C47.6896 93.153 45.7304 93.2715 44.6972 92.0972C43.0033 90.2566 44.2511 87.5803 45.1376 85.7115C45.8945 84.324 46.9422 83.1163 48.209 82.1711C49.4758 81.2258 50.9318 80.5654 52.4774 80.2348C53.1397 80.1331 53.817 80.2508 54.4062 80.5698C54.9954 80.8889 55.4641 81.3918 55.7408 82.002H55.7691Z" fill="#E30613"/>
<path d="M85.195 80.4337C83.0834 83.9399 80.8984 87.48 78.8376 90.941C78.7134 91.2572 79.007 91.4096 79.1538 91.5621C79.7918 91.5621 80.2096 91.0652 80.729 90.6982C81.367 90.207 81.6832 89.4448 82.276 88.8802H83.6254C82.2252 90.6474 80.8024 93.1317 78.1488 92.7364C77.6458 92.6321 77.179 92.398 76.7946 92.0572C76.4103 91.7165 76.1219 91.281 75.9581 90.7942C75.1564 88.6374 77.268 87.1356 78.002 85.3966C79.086 83.7479 79.9386 82.0089 81.0678 80.4111C82.5922 80.4111 83.8005 80.3321 85.195 80.4111V80.4337Z" fill="#E30613"/>
<path d="M97.4515 81.9833C98.4057 83.6263 96.7627 84.8345 96.2207 86.1783C95.2891 87.7535 94.3067 89.3006 93.4485 90.8928C93.4937 91.0678 93.5219 91.288 93.6687 91.3896C94.2333 91.7284 94.7471 91.0452 95.1649 90.825C95.7747 90.2149 96.3266 89.5496 96.8135 88.8376C97.2765 88.7785 97.7451 88.7785 98.2081 88.8376C97.2765 90.1644 96.2207 91.6606 94.8205 92.468C94.399 92.684 93.9325 92.7976 93.4589 92.7997C92.9853 92.8018 92.5179 92.6923 92.0945 92.48C91.6711 92.2678 91.3036 91.9588 91.0219 91.578C90.7402 91.1973 90.5522 90.7556 90.473 90.2886C90.3562 89.6399 90.47 88.9708 90.7948 88.3972C92.02 86.3759 93.2001 84.445 94.3293 82.4745C94.2559 82.3785 94.2841 82.1865 94.1091 82.1583C93.0758 82.4293 92.3644 83.1181 91.5288 83.8521C90.569 85.0322 90.0326 86.3759 89.1462 87.6576C88.0678 89.3514 87.1306 91.096 86.0522 92.7898L81.9531 92.8632C82.5855 91.542 83.3985 90.4072 84.1099 89.1312C85.3182 87.093 86.566 85.179 87.7008 83.0673C87.5992 82.8923 87.3056 82.9657 87.1814 83.0165L86.8652 83.2085L84.827 86.5961H83.6469L83.6978 86.3759C84.6802 84.9023 85.3408 83.1802 86.566 81.9042C86.9708 81.5964 87.443 81.3893 87.9437 81.2999C88.4444 81.2106 88.9591 81.2416 89.4454 81.3905C90.1025 81.6153 90.6704 82.0447 91.0658 82.6156C92.291 81.8817 93.3694 80.6282 95.0463 80.5774C95.5498 80.5484 96.0503 80.6712 96.4832 80.9299C96.916 81.1886 97.2613 81.5713 97.4741 82.0285L97.4515 81.9833Z" fill="#E30613"/>
<path d="M41.0419 81.1661C41.1887 81.1661 41.3863 80.8725 41.4597 80.6974C42.8092 80.6974 44.3562 80.6974 45.5531 80.6974C43.5657 84.1359 41.4597 87.4332 39.5627 90.9168C39.6135 91.0918 39.6361 91.3854 39.8845 91.4814C40.6185 91.4814 41.3073 90.6175 41.7533 90.1263H42.9108C42.5522 90.8307 42.0506 91.4527 41.4382 91.9523C40.8257 92.452 40.1158 92.8185 39.3538 93.0284C38.9898 93.1225 38.6082 93.1243 38.2434 93.0336C37.8786 92.9429 37.5422 92.7626 37.2647 92.509C36.9287 92.1949 36.6682 91.8088 36.5025 91.3798C35.7403 92.3904 34.5659 93.3897 33.0415 93.2712C32.5692 93.2413 32.1109 93.0986 31.7051 92.8549C31.2994 92.6113 30.958 92.2739 30.7097 91.871C29.4788 89.223 31.246 86.6879 32.4995 84.5311C34.0973 82.7582 35.7911 80.895 38.2923 80.3756C39.2736 80.2882 40.2511 80.579 41.025 81.1886L41.0419 81.1661ZM39.8111 81.6347C39.2465 81.4145 38.8287 82.0977 38.456 82.4195C36.3652 84.7963 34.622 87.4576 33.2786 90.324C33.1318 90.8095 32.6124 91.4532 33.1092 91.9669C33.3294 92.1871 33.6738 92.0121 33.894 91.9161C36.2767 89.6295 37.7503 86.8347 39.3933 84.0851C39.7603 83.3962 40.2741 82.73 40.1047 81.9226C40.0388 81.7973 39.9364 81.695 39.8111 81.629V81.6347Z" fill="#E30613"/>
<path d="M109.732 81.4886C110.003 81.1668 110.218 80.7489 110.494 80.3594C111.844 80.286 113.193 80.3311 114.571 80.3594C111.669 85.294 108.36 90.1553 105.452 94.9939C107.395 95.2424 109.117 94.6044 110.737 93.8647L111.426 94.7512C109.439 96.0272 106.734 96.3942 104.374 96.2474C100.173 99.9568 94.9452 103.299 88.7345 102.881C86.7697 102.582 84.5339 101.752 83.9693 99.6632C83.8094 99.0696 83.8021 98.4451 83.9482 97.8479C84.0943 97.2507 84.389 96.7002 84.8049 96.2474C87.2609 93.9607 91.2583 93.2267 94.629 94.1075C96.8328 94.54 99.0651 94.8118 101.308 94.9205C101.873 94.3559 102.138 93.5711 102.652 92.9783C102.584 92.7581 102.9 92.6621 102.9 92.4137C101.991 92.7129 100.642 92.9783 99.7613 92.3459C98.6038 91.6797 98.4796 90.0593 98.6321 88.8793C99.019 87.2172 99.733 85.6488 100.732 84.2655C101.732 82.8822 102.997 81.7117 104.453 80.8224C105.029 80.4235 105.698 80.1801 106.395 80.1158C107.093 80.0515 107.795 80.1685 108.434 80.4554C108.901 80.7467 109.331 81.0936 109.715 81.4886H109.732ZM107.592 82.0984C105.978 82.9622 104.865 84.7068 103.838 86.1522C102.9 87.5299 101.895 88.9752 101.749 90.6691C101.794 90.9118 102.014 91.0417 102.166 91.1659C103.025 91.4087 103.713 90.6916 104.25 90.2004C105.509 88.3372 106.734 86.4458 107.863 84.4584C108.106 83.8938 108.648 83.4026 108.524 82.6686C108.44 82.4945 108.307 82.3484 108.142 82.2482C107.976 82.148 107.786 82.0979 107.592 82.104V82.0984ZM93.2514 94.8697C91.8897 94.648 90.4972 94.7059 89.1586 95.0398C87.82 95.3738 86.5635 95.9767 85.4655 96.812C85.1088 97.1882 84.8643 97.6567 84.7596 98.1644C84.6549 98.6722 84.694 99.1991 84.8726 99.6858C85.3921 101.109 86.9617 101.526 88.4635 101.526C93.2231 101.476 97.7174 99.6858 100.665 96.174V96.0723L97.4012 95.7053L93.2514 94.8697Z" fill="#E30613"/>
<path d="M33.4966 80.8244L27.8957 89.7677C26.7947 91.6309 25.3154 93.5957 24.3387 95.5888C26.1264 95.6859 27.9052 95.2769 29.4709 94.4088C29.8153 94.5556 29.9339 94.9734 30.1823 95.2444C28.2175 96.5938 25.6655 96.8817 23.1078 96.814C19.5 100.083 15.1017 102.833 10.0203 103.493C7.26502 103.764 4.19921 103.149 2.9232 100.619C2.65743 99.9399 2.59926 99.1968 2.75605 98.4842C2.91284 97.7716 3.27755 97.1216 3.80399 96.6164C4.94803 95.7161 6.26335 95.0581 7.66983 94.6825C9.07632 94.3068 10.5445 94.2214 11.9851 94.4314C14.6793 94.9863 17.4128 95.3299 20.1606 95.4589C20.7479 94.6438 21.2817 93.7913 21.7584 92.9069C20.2848 93.1836 18.0264 93.8667 17.0891 92.2463C15.8131 90.3775 17.778 88.7853 18.4668 87.2101L22.3004 80.8978C23.5482 80.8018 24.9993 80.8978 26.4221 80.8526C24.3104 84.2685 22.3964 87.7295 20.2114 91.2583C20.1849 91.4081 20.2088 91.5624 20.2793 91.6973C20.3497 91.8321 20.4629 91.9398 20.601 92.0035C23.424 91.9019 23.9152 89.0789 25.3888 87.2835C26.6931 85.1041 28.1441 83.015 29.4145 80.8526C30.7469 80.7736 32.1415 80.751 33.4457 80.751L33.5191 80.8244H33.4966ZM15.7172 96.176C13.1143 95.6114 10.1671 94.8717 7.44004 95.7074C6.14145 96.272 4.61702 96.718 3.8548 97.9658C3.65316 98.3645 3.54389 98.8034 3.53509 99.2501C3.5263 99.6968 3.6182 100.14 3.80399 100.546C4.36859 101.845 5.96643 102.24 7.44004 102.144C12.1827 101.946 16.6996 100.275 19.5 96.639L15.7172 96.1986V96.176Z" fill="#E30613"/>
<path d="M67.047 30.3804C64.8972 32.8654 63.2845 35.768 62.3099 38.9059C62.2172 39.2966 62.2152 39.7033 62.3043 40.0948C62.3934 40.4864 62.5711 40.8522 62.8237 41.1643C63.3959 41.7566 64.1607 42.125 64.9805 42.2032L88.3156 46.449H88.4116C93.0809 40.7183 99.9352 36.7943 107.687 36.4216L107.467 36.7152C103.296 40.4604 99.8355 44.9286 97.2533 49.9044C97.9181 54.0393 100.161 57.7553 103.509 60.2706C100.55 60.4042 97.6014 59.827 94.9109 58.5874C92.2204 57.3477 89.8659 55.4816 88.0446 53.1452L78.5141 54.6697L78.3899 54.7431L79.3271 55.7198C77.1364 57.0523 74.782 58.1815 72.5519 59.4067L68.69 57.2951C63.8465 58.0078 58.9467 58.263 54.0554 58.0573C53.7723 58.0834 53.5002 58.1803 53.2644 58.3392C53.0286 58.498 52.8365 58.7137 52.706 58.9663C51.43 62.7266 52.5366 66.9442 54.6934 69.9931C49.3184 69.2591 45.4621 64.7366 43.9659 59.8302C43.9659 59.7285 43.9659 59.61 43.8417 59.5874C39.5225 61.1062 35.0056 63.5114 32.1826 67.0232C32.2498 64.0307 33.1619 61.1182 34.8137 58.6219C35.1807 57.9613 35.7961 57.3967 36.1856 56.8039C33.3699 56.1903 30.6033 55.3694 27.9085 54.3479C28.3957 53.7739 28.922 53.2343 29.4838 52.7331C28.7198 52.8734 27.9655 53.062 27.2254 53.2977C24.6457 52.0132 22.3362 50.2461 20.4219 48.092C26.9261 44.4108 34.4692 42.9598 41.9333 41.4862C45.2476 40.9215 48.7086 40.5546 52.1527 40.1876C56.1049 35.5691 60.5709 31.0466 66.8324 30.29H67.0526V30.386L67.047 30.3804ZM62.4341 33.6438C58.448 35.6368 55.8452 38.6801 53.0448 42.1129C51.0348 42.2597 48.974 42.4573 47.0317 42.6775C38.8732 43.914 30.8219 45.3593 23.4764 48.5042C24.6798 49.5745 26.0066 50.4976 27.4286 51.2538C30.9405 50.2262 34.9717 49.656 38.7772 50.3222C36.101 50.8417 33.4473 51.7733 31.4373 53.5631C35.1834 54.7496 39.0576 55.485 42.9778 55.7537C42.9778 55.1891 42.7859 54.6245 42.8085 54.0599C43.4585 53.9419 44.1184 53.8871 44.7789 53.8962C45.0669 58.8478 46.8172 63.6864 50.9444 66.3683C50.425 63.6864 50.1766 60.4964 51.2324 57.967C51.504 57.5219 51.8641 57.1373 52.2905 56.8372C52.7169 56.5371 53.2004 56.3278 53.711 56.2223C58.8715 56.324 64.0489 56.2223 68.9892 55.2682L72.6027 57.2273L76.1371 55.2907L74.4433 53.6703C74.3925 53.6195 74.2908 53.5009 74.4433 53.4501L87.6776 51.3272L88.8802 51.1804C91.1386 54.4721 94.5263 57.1031 98.5576 57.8653C96.7799 55.5751 95.6648 52.841 95.3337 49.9609C96.9679 45.9699 99.3262 42.3157 102.29 39.1826C98.6735 40.2807 95.3429 42.16 92.5332 44.6875C91.3153 45.8634 90.1672 47.1095 89.0948 48.4195L64.0207 43.9027L62.8915 43.5074C62.0686 43.0862 61.3918 42.4266 60.9496 41.6147C60.5075 40.8029 60.3204 39.8765 60.4128 38.9567C60.8735 37.1094 61.5579 35.3252 62.4511 33.6438H62.4341ZM38.5344 57.2443C37.1848 58.4523 36.0972 59.9243 35.3387 61.5692C36.534 60.7598 37.7913 60.0462 39.099 59.4349C40.4258 58.7461 42.0237 58.3057 43.3223 57.7411C41.7244 57.6226 40.104 57.4758 38.5344 57.2273V57.2443Z" fill="#020F31"/>
<path d="M29.9574 48.1168C30.0397 48.2578 30.0734 48.4219 30.0534 48.584C30.0334 48.746 29.9607 48.897 29.8466 49.0137C29.7324 49.1304 29.5831 49.2064 29.4215 49.2301C29.26 49.2537 29.0952 49.2236 28.9524 49.1444C28.8065 49.0387 28.699 48.8885 28.6461 48.7164C28.5931 48.5443 28.5976 48.3596 28.6588 48.1902C28.7322 47.9136 29.0258 47.8176 29.2234 47.7442C29.3649 47.7339 29.5065 47.7634 29.6321 47.8292C29.7578 47.895 29.8626 47.9946 29.9348 48.1168H29.9574Z" fill="#020F31"/>
</svg>
