<svg width="86" height="69" viewBox="0 0 86 69" fill="none" xmlns="http://www.w3.org/2000/svg">
<g opacity="0.1">
<path d="M46.8367 0.711135C46.9229 0.714477 47.0088 0.70038 47.0894 0.669691C47.1699 0.639001 47.2434 0.592352 47.3055 0.532542L47.3725 0.242329C47.5362 0.242329 47.8264 0.208843 47.8599 0.402318C47.7743 1.51852 47.6292 2.57148 47.566 3.6728L47.0786 3.65419C47.1596 3.25791 47.1571 2.84908 47.0713 2.45381C46.9854 2.05854 46.8181 1.68551 46.58 1.35853C46.0963 0.822755 45.4638 0.402318 44.6862 0.584632C44.5208 0.646099 44.3696 0.740428 44.2417 0.861928C44.1138 0.983427 44.0119 1.12958 43.942 1.29156C43.8898 1.52191 43.8904 1.7611 43.9439 1.99117C43.9974 2.22123 44.1023 2.43618 44.2508 2.61984C45.2368 3.52769 46.7883 3.3305 47.6478 4.48019C47.9583 4.85772 48.1539 5.31648 48.2113 5.80192C48.2687 6.28737 48.1855 6.77908 47.9715 7.21861C47.6813 7.86229 47.0823 8.22319 46.4833 8.54689C45.8542 8.83411 45.1651 8.96516 44.4746 8.92888C43.784 8.8926 43.1125 8.69008 42.517 8.33853C42.3748 8.28988 42.2233 8.27464 42.0742 8.294C41.9252 8.31336 41.7826 8.36679 41.6575 8.45015C41.6278 8.5134 41.5459 8.56177 41.5794 8.65851C41.4199 8.69203 41.2552 8.69203 41.0957 8.65851C41.1627 7.44557 41.3227 6.26239 41.3859 5.04945C41.5321 4.99364 41.6937 4.99364 41.8398 5.04945C41.9849 6.41122 42.584 8.0446 44.009 8.39806C44.2853 8.47867 44.5786 8.48063 44.856 8.40373C45.1333 8.32683 45.3838 8.17412 45.5791 7.96274C45.7152 7.79259 45.8057 7.5906 45.8422 7.37579C45.8786 7.16099 45.8598 6.94044 45.7875 6.73492C45.2852 5.7787 44.0871 5.64848 43.183 5.24665C42.7048 5.02273 42.3019 4.66483 42.0232 4.21637C41.7445 3.76792 41.6019 3.2482 41.6129 2.7203C41.6575 1.47387 42.7105 0.487894 43.782 0.134429C44.3009 -0.0146557 44.8474 -0.0401457 45.3779 0.0600015C45.9083 0.160149 46.408 0.383149 46.8367 0.711135Z" fill="#020F31"/>
<path d="M54.6054 1.23076C54.5924 1.43619 54.5433 1.63772 54.4603 1.82607C54.3014 1.77961 54.1334 1.77437 53.972 1.81082C53.8105 1.84727 53.661 1.92422 53.5376 2.03442C53.2325 2.34324 53.2957 2.83065 53.132 3.2176L52.5813 5.4835C53.2957 5.87417 54.1998 5.8072 54.9961 6.09741L55.1412 5.77371C55.3346 4.77285 55.6249 3.80175 55.8183 2.79716C55.7931 2.61622 55.7156 2.44658 55.5953 2.3091C55.475 2.17161 55.3172 2.07226 55.1412 2.02326C55.0928 1.98978 55.0109 2.02326 54.9775 1.94513L55.1561 1.36098C56.596 1.73305 58.021 2.10512 59.4125 2.55904C59.4366 2.64156 59.4372 2.72917 59.4142 2.81201C59.3912 2.89484 59.3455 2.9696 59.2823 3.02785C59.1278 2.99879 58.9686 3.00547 58.8171 3.04739C58.6655 3.08931 58.5256 3.16535 58.4079 3.26969L58.2145 3.64176C57.7308 5.68069 57.195 7.73451 56.7745 9.79205C56.7696 9.97179 56.8216 10.1485 56.9232 10.2969C57.0248 10.4452 57.1707 10.5576 57.3401 10.618C57.4033 10.618 57.4852 10.6515 57.5038 10.7185C57.4869 10.9179 57.4259 11.1111 57.3252 11.284C55.93 10.8301 54.5421 10.3613 53.1171 10.0041L53.2473 9.5502C53.4342 9.60312 53.6327 9.59879 53.817 9.53777C54.0014 9.47675 54.1633 9.36185 54.2817 9.2079C54.5086 8.35214 54.6872 7.47778 54.9142 6.62202C54.1366 6.36158 53.3292 6.23135 52.533 6.03788L52.4697 6.07136L51.9042 8.48237C51.91 8.71209 51.9896 8.93383 52.1311 9.11488C52.2926 9.24209 52.4719 9.34489 52.6632 9.41998L52.5665 9.90739C51.16 9.59857 49.735 9.34184 48.2765 9.12976C48.2467 8.9028 48.3584 8.7577 48.3732 8.53074C48.5515 8.56692 48.7365 8.55108 48.906 8.48511C49.0755 8.41915 49.2225 8.30583 49.3295 8.15867C49.8801 6.023 50.4457 3.90221 50.8661 1.71817C50.8695 1.49798 50.7883 1.28489 50.6391 1.12286C50.4978 0.907057 49.9434 0.97403 50.1555 0.587079C50.1852 0.523827 50.1555 0.408486 50.2522 0.375C51.7405 0.601962 53.1804 0.847527 54.6054 1.20099V1.23076Z" fill="#020F31"/>
<path d="M21.8965 5.17594C21.7798 5.24094 21.6815 5.33437 21.6106 5.44755C21.5397 5.56073 21.4985 5.69 21.4909 5.82334L21.5096 6.03542C22.4806 8.0111 23.4183 10.0166 24.3708 11.9885C24.4435 12.0765 24.536 12.146 24.6408 12.1912C24.7456 12.2365 24.8596 12.2563 24.9735 12.249C25.3456 12.2155 25.5874 11.795 25.8144 11.5048C26.0712 11.0661 26.2312 10.5775 26.2838 10.0719C26.3365 9.56621 26.2804 9.05515 26.1195 8.57293L26.525 8.37573C27.0459 9.39892 27.5482 10.4519 28.0133 11.4862C25.8826 12.4075 23.8123 13.4626 21.8146 14.6451C21.6993 14.4516 21.4723 14.1912 21.5542 13.9791C21.6824 13.9237 21.7961 13.8395 21.8864 13.733C21.9768 13.6265 22.0413 13.5007 22.0751 13.3652C22.1049 12.7624 21.6695 12.3308 21.4909 11.8397C20.7766 10.2547 19.9841 8.70315 19.1916 7.18139C19.0389 7.06478 18.857 6.99264 18.6659 6.97294C18.4749 6.95324 18.2821 6.98675 18.1088 7.06977L17.8633 6.66422C19.1164 5.90702 20.408 5.21528 21.7328 4.5918C21.8146 4.75551 22.1718 5.02712 21.8779 5.15734L21.8965 5.17594Z" fill="#020F31"/>
<path d="M34.6653 1.49189C34.7997 1.68318 34.88 1.90722 34.8977 2.14035C34.9154 2.37349 34.8698 2.60708 34.7658 2.81645C34.4355 3.35966 34.0197 3.8459 33.5342 4.25636C33.9188 4.75837 34.3825 5.19443 34.9071 5.54743C35.1043 4.53169 35.3946 3.37828 36.3954 2.8611C36.6222 2.77183 36.8672 2.73873 37.1095 2.76465C37.3518 2.79057 37.5842 2.87472 37.787 3.00993C38.0011 3.18648 38.1617 3.41941 38.2504 3.6824C38.3392 3.9454 38.3526 4.22797 38.2892 4.4982C38.2254 4.68892 38.1236 4.86473 37.99 5.01501C37.8563 5.16529 37.6936 5.28692 37.5116 5.37256C37.27 5.46653 37.0068 5.49054 36.7521 5.44184C36.4974 5.39315 36.2616 5.27372 36.0717 5.09723C35.8782 4.98189 35.8782 4.72516 35.6997 4.59494C35.5364 5.01413 35.418 5.44938 35.3462 5.89346C35.9787 6.41063 36.734 6.89432 37.6605 6.86455C37.8798 6.81536 38.0827 6.71041 38.2495 6.55984C38.4164 6.40927 38.5416 6.21819 38.6129 6.00508C38.7399 6.36028 38.7815 6.74039 38.7343 7.11463C38.6871 7.48888 38.5525 7.84677 38.3413 8.15935C37.839 8.73978 37.1916 9.27556 36.3136 9.08208C35.6823 8.96185 35.0791 8.72461 34.5351 8.38259C34.3158 8.8874 33.9578 9.31966 33.5028 9.62919C33.0477 9.93872 32.5142 10.1128 31.9641 10.1313C31.4808 10.1284 31.0096 9.98035 30.6115 9.70635C30.2135 9.43234 29.9069 9.04504 29.7317 8.59467C29.5978 8.22806 29.5517 7.8352 29.5969 7.44755C29.6421 7.0599 29.7775 6.68822 29.9921 6.36226C30.2823 5.85997 30.7697 5.66649 31.1939 5.24606C30.8814 4.72516 30.3977 4.22659 30.3977 3.54571C30.3506 3.07609 30.4365 2.60269 30.6458 2.17962C30.855 1.75656 31.179 1.4009 31.5809 1.15331C32.4701 0.617529 33.9919 0.602646 34.669 1.49189H34.6653ZM31.9976 1.73001C31.972 1.85435 31.9824 1.98339 32.0273 2.10208C32.3442 2.71193 32.7313 3.28259 33.1808 3.80243C33.311 3.75034 33.3445 3.62384 33.4747 3.58663C33.7723 2.89831 32.965 2.39602 32.7417 1.82675C32.5631 1.63328 32.2134 1.45468 31.9976 1.72629V1.73001ZM31.1418 5.99019C31.0079 6.73433 31.6739 7.27011 32.1092 7.72031C32.5296 8.09238 33.0654 8.62816 33.7091 8.62816C33.9002 8.50015 34.0337 8.30255 34.0812 8.0775C33.131 7.40734 32.275 6.61271 31.5362 5.71486C31.3762 5.71486 31.2311 5.87857 31.1381 5.99019H31.1418Z" fill="#020F31"/>
<path d="M67.307 5.95546C66.8568 8.75714 66.3025 11.5067 65.8857 14.3047C65.9284 14.4722 66.0049 14.6293 66.1105 14.7662C66.216 14.9031 66.3485 15.017 66.4996 15.1009C66.441 15.2907 66.3531 15.4702 66.2392 15.633C64.9779 14.8405 63.6868 14.1447 62.4032 13.4005C62.4032 13.2703 62.5185 13.1103 62.6004 12.9764C62.8571 13.0917 63.1845 13.2703 63.4561 13.0917L63.5529 12.9429L63.9249 10.7105C63.311 10.3198 62.6636 10.0259 62.0311 9.68731H61.9344C61.4805 10.3682 60.1522 10.904 60.8182 11.9383C60.9793 12.0773 61.1524 12.2018 61.3353 12.3104C61.1902 12.4183 61.2535 12.8722 60.9633 12.6825L58.5039 11.6146C58.553 11.4218 58.6281 11.2365 58.7271 11.064C60.0257 11.6779 60.4759 10.1412 61.287 9.57569C62.7269 8.08741 64.2152 6.56194 65.6588 5.0625C66.2455 5.28615 66.8038 5.57839 67.3219 5.93314L67.307 5.95546ZM64.4607 7.12004L62.3883 9.24083V9.32268C62.9055 9.58313 63.4413 9.88823 63.9621 10.1152C64.1221 9.09572 64.3789 8.17299 64.4607 7.13864V7.12004Z" fill="#020F31"/>
<path d="M16.8814 7.80268C16.7396 7.91277 16.6333 8.06211 16.5758 8.23213C16.5182 8.40215 16.5119 8.58533 16.5577 8.7589C16.8962 9.37281 17.3985 9.80813 17.8041 10.3923L20.23 13.4842C20.4168 13.8296 20.508 14.2186 20.4943 14.611C20.4806 15.0034 20.3623 15.3851 20.1518 15.7166C19.1473 16.7212 18.0608 17.7109 16.4609 17.5323C15.9758 17.4685 15.5344 17.2191 15.2294 16.8365C14.1764 15.4264 12.9635 14.0348 11.8808 12.6433C11.7765 12.5631 11.6543 12.5094 11.5247 12.4867C11.3951 12.4641 11.262 12.4731 11.1366 12.5131L10.7646 12.6917C10.6864 12.58 10.3292 12.3717 10.5711 12.2229C11.6426 11.2518 12.7254 10.3439 13.7783 9.50304C13.9718 9.57001 14.0685 9.79697 14.1801 9.90859C14.1801 10.0686 14.0202 10.0872 13.9532 10.2174C13.4844 10.9281 14.262 11.4638 14.6192 11.9661C15.5084 13.1158 16.673 14.6004 17.6255 15.7352C17.8187 15.8929 18.0484 15.9995 18.2936 16.0452C18.5388 16.091 18.7915 16.0744 19.0286 15.997C19.2656 15.9195 19.4795 15.7838 19.6504 15.6022C19.8213 15.4205 19.9438 15.1989 20.0067 14.9576C20.0855 14.6174 20.0569 14.2613 19.9249 13.9381C18.6971 12.2377 17.5474 10.9132 16.2042 9.24259C16.1057 9.16948 15.9923 9.11891 15.872 9.09448C15.7518 9.07005 15.6277 9.07234 15.5084 9.1012C15.315 9.1012 15.1847 9.26119 15.0247 9.27607C14.8926 9.13812 14.7684 8.99278 14.6527 8.84075C15.2593 8.33764 15.8968 7.8729 16.5614 7.44922C16.7093 7.52777 16.8202 7.66146 16.8702 7.82129L16.8814 7.80268Z" fill="#020F31"/>
<path d="M76.1329 11.8962C77.2008 12.7706 78.1682 14.2589 77.651 15.7509C77.2268 16.5434 76.3562 16.7703 75.4669 16.6736C75.1651 16.628 74.8676 16.5571 74.5777 16.4615C74.8009 17.1759 75.2549 17.9833 74.9014 18.7907C74.6075 19.4864 73.975 19.8734 73.5247 20.4278C73.4727 20.491 73.5247 20.558 73.588 20.5878C74.1721 20.6212 74.5777 20.2157 74.9312 19.8436C75.0614 19.9404 75.2549 20.0557 75.2549 20.2157C74.7377 20.7961 74.0568 21.2314 73.1527 21.038C72.8729 20.9762 72.6085 20.8587 72.3752 20.6925C72.1418 20.5263 71.9444 20.3148 71.7946 20.0706C71.657 19.84 71.5843 19.5764 71.5843 19.3078C71.5843 19.0393 71.657 18.7757 71.7946 18.5451C72.3416 17.8531 73.1341 17.3024 73.588 16.5397C73.6696 16.2972 73.663 16.0336 73.5694 15.7955C73.3626 15.5179 73.1111 15.2765 72.8253 15.0811C72.0476 15.8253 71.337 16.6848 70.6412 17.4773C70.6052 17.6627 70.6155 17.8542 70.6713 18.0346C70.7272 18.2151 70.8267 18.3789 70.9612 18.5116C70.831 18.6939 70.7863 18.839 70.6077 18.9507C69.4915 17.9796 68.3418 17.1238 67.207 16.1676C67.3148 15.9659 67.463 15.7885 67.6424 15.6467C67.8095 15.8061 68.0292 15.8987 68.26 15.9071L68.6953 15.7955L73.0969 10.9251C73.1502 10.8025 73.1778 10.6701 73.1778 10.5363C73.1778 10.4026 73.1502 10.2702 73.0969 10.1475L72.8439 9.77546C72.922 9.59686 73.2159 9.25828 73.3945 9.58198L76.1143 11.8776L76.1329 11.8962ZM75.4186 12.1753C74.6312 12.9834 73.8861 13.8316 73.1862 14.7165C73.3499 14.8765 73.5917 15.0402 73.7405 15.2002C73.9339 15.285 74.1474 15.3133 74.3561 15.2817C74.5649 15.2501 74.7604 15.1599 74.92 15.0216C75.4037 14.4896 76.0846 13.9538 76.1776 13.1315C76.1776 12.659 75.7274 12.3874 75.4335 12.1753H75.4186Z" fill="#020F31"/>
<path d="M81.5316 17.3546C82.2944 18.2401 82.9901 19.2633 83.7343 20.2344L83.2357 20.6065C82.9752 20.3795 82.7483 20.1377 82.4097 20.1861L82.1306 20.253C81.3865 20.8335 80.5642 21.3358 79.8015 21.9348L79.9168 21.998L83.2841 22.5487C83.4861 22.4714 83.6564 22.3286 83.7677 22.1431C83.8188 21.9954 83.8382 21.8385 83.8247 21.6828C83.8112 21.527 83.7652 21.3758 83.6896 21.239C83.8223 21.0849 83.9967 20.9724 84.1919 20.9153C84.8691 21.8864 85.4346 22.8873 86.0002 23.8919C85.8933 24.0297 85.7557 24.1405 85.5983 24.2156C84.7574 22.9691 83.0385 23.1812 81.6804 22.8575C80.9549 24.4909 80.0954 26.061 79.3327 27.6944C79.2346 28.151 79.2855 28.6269 79.4778 29.0524C79.3343 29.2123 79.1579 29.3393 78.9606 29.4245C78.2351 28.1446 77.4277 26.9279 76.6501 25.7038C76.8733 25.5885 77.0705 25.2946 77.357 25.4732C77.8928 25.2499 77.9412 24.5839 78.2351 24.1449C78.4769 23.5979 78.7523 23.077 78.9792 22.5301C78.2139 22.9881 77.4982 23.5243 76.8436 24.13C76.7883 24.258 76.7598 24.3961 76.7598 24.5355C76.7598 24.675 76.7883 24.813 76.8436 24.9411C76.7319 25.116 76.505 25.1681 76.3599 25.3132C75.519 24.2304 74.6446 23.1142 73.7852 22.0762L74.2391 21.7041C74.3452 21.8483 74.4897 21.9597 74.6562 22.0255C74.8227 22.0913 75.0044 22.1089 75.1804 22.0762L75.6009 21.8194L80.6796 18.2104C80.7825 18.0797 80.8488 17.924 80.8717 17.7592C80.8946 17.5944 80.8732 17.4266 80.8098 17.2728C80.8098 17.176 80.6163 17.0607 80.7614 16.9788C81.1819 16.3835 81.2451 17.2728 81.5353 17.3881L81.5316 17.3546Z" fill="#020F31"/>
<path d="M15.0837 18.6983C15.5526 18.8434 15.8279 18.0472 16.2 18.516L16.3785 18.7616C15.2623 19.7662 14.2243 20.8675 13.2532 21.9018C13.0914 21.8047 12.9488 21.6786 12.8327 21.5298C12.9778 21.3065 13.3499 20.9642 13.1081 20.6405C12.4752 20.2584 11.8149 19.9238 11.1324 19.6397C10.5721 20.1396 10.0486 20.6793 9.56598 21.2544C9.85137 21.8388 10.1862 22.3977 10.5668 22.925C10.7008 23.0164 10.856 23.0719 11.0175 23.0862C11.1791 23.1006 11.3416 23.0732 11.4896 23.0069C11.7016 22.9548 11.8951 22.5046 12.0886 22.7762L12.2821 22.9883C11.683 23.6989 11.084 24.4766 10.5334 25.2207C10.3308 25.1308 10.1533 24.9929 10.0162 24.8189C10.8087 23.9259 9.91944 22.9585 9.499 22.1958C8.3828 20.2685 7.29636 18.4081 6.15039 16.5143C6.54509 16.0384 6.96619 15.585 7.4117 15.1562C9.96781 16.2725 12.509 17.5338 15.0986 18.7021L15.0837 18.6983ZM7.7354 18.1626C8.23769 19.0332 8.69162 19.9597 9.27576 20.767C9.72058 20.3259 10.1416 19.8614 10.5371 19.3755L7.7354 18.1477V18.1626Z" fill="#020F31"/>
<path d="M6.97628 21.0406C7.1899 21.3918 7.32627 21.7845 7.37631 22.1925C7.42635 22.6005 7.38892 23.0145 7.26649 23.4069C7.02465 23.9427 6.65258 24.445 6.39213 24.9473C7.00891 25.4114 7.65246 25.8387 8.31944 26.2272C8.51082 26.258 8.70701 26.2329 8.88452 26.1551C9.06203 26.0772 9.21333 25.9498 9.32031 25.7882C9.51292 25.8551 9.69007 25.9601 9.8412 26.097C9.09707 27.295 8.17062 28.5378 7.49345 29.7991C7.29948 29.7394 7.1223 29.6349 6.97628 29.494C7.06856 29.341 7.11978 29.1667 7.125 28.9881C7.13021 28.8095 7.08924 28.6326 7.00604 28.4745C5.1457 27.2616 3.31885 26.0449 1.45851 24.884C1.28478 24.8306 1.09942 24.8277 0.92413 24.8758C0.748844 24.9239 0.590899 25.021 0.468806 25.1557C0.43532 25.1854 0.43532 25.2673 0.372068 25.2673C0.193475 25.2673 0.145107 25.1557 0 25.0589C0.804472 23.5434 1.74073 22.1017 2.79795 20.7504C3.10567 20.4253 3.48698 20.1789 3.90979 20.0319C4.33261 19.8849 4.78454 19.8416 5.22756 19.9058C5.92357 20.0607 6.54274 20.4559 6.97628 21.022V21.0406ZM2.97655 21.7996C2.82795 21.8375 2.69239 21.9149 2.58429 22.0236C2.47619 22.1324 2.39959 22.2684 2.36263 22.4172C3.51232 23.1279 4.65829 23.9539 5.93821 24.6496L6.19866 24.3148C6.23138 24.0878 6.20195 23.8561 6.1135 23.6445C6.02505 23.4329 5.8809 23.2492 5.69636 23.113C4.77363 22.6628 4.14112 21.7847 2.97655 21.7996Z" fill="#020F31"/>
<path d="M49.75 44.5413C50.122 45.9328 49.2142 46.9858 48.5184 48.0499C46.7697 50.2823 44.4257 51.9343 42.0779 53.3258C41.9812 53.5714 41.7542 53.7798 41.7058 54.0253C42.61 53.6532 43.7783 52.8756 44.8126 53.5714C45.0877 53.7685 45.2986 54.0424 45.4191 54.3587C45.5395 54.6749 45.5641 55.0197 45.4898 55.3499C44.701 56.8568 43.875 58.3599 42.9858 59.837C42.9566 59.8845 42.9384 59.9378 42.9326 59.9932C42.9268 60.0486 42.9336 60.1046 42.9523 60.157C42.9744 60.2267 43.0206 60.2863 43.0826 60.3252C43.1447 60.364 43.2184 60.3796 43.2908 60.3691C43.6398 60.2418 43.9553 60.0369 44.2136 59.7701H45.1065C44.7848 60.2414 44.371 60.6426 43.8899 60.9495C43.567 61.1291 43.2021 61.2197 42.8327 61.2118C42.4633 61.204 42.1027 61.098 41.7877 60.9049C41.4547 60.6806 41.1972 60.361 41.0491 59.9878C40.9011 59.6146 40.8693 59.2054 40.958 58.8138L41.1068 58.3599L43.2908 54.5574C43.2908 54.4458 43.1606 54.3155 43.049 54.349L40.8798 55.4652C40.6059 55.8479 40.3573 56.2481 40.1357 56.6633C39.2018 58.2036 38.2754 59.7403 37.3378 61.262C36.4969 61.3253 35.3472 61.2918 34.5547 61.2918C35.816 59.2231 37.2261 57.0874 38.454 54.9481C38.0819 55.015 37.6615 55.1936 37.2894 55.2569V54.349C37.9219 54.0923 38.6326 53.9137 39.2986 53.6532C41.2705 50.4163 43.2462 46.8407 46.5799 44.8204C47.3724 44.4148 48.1835 43.9274 49.1844 44.0762C49.443 44.1537 49.6624 44.3266 49.7983 44.5599L49.75 44.5413ZM48.8421 44.8315C47.4543 45.4157 46.4125 46.6286 45.4749 47.8081C44.6526 49.1177 43.8117 50.4646 43.116 51.7408C43.745 51.3629 44.3501 50.9467 44.9279 50.4944C46.6283 49.0061 48.7491 47.4695 49.0728 45.0064C49.0393 44.9283 48.9723 44.798 48.8421 44.8464V44.8315Z" fill="#020F31"/>
<path d="M56.4345 45.2661C55.9285 46.1925 55.3481 47.1599 54.7639 48.1013C56.2075 48.1943 57.547 48.0492 59.1357 48.1645L58.5516 49.1356L54.0868 49.2175C51.8543 52.7781 49.7745 56.3835 47.5756 59.9293C47.5498 60.022 47.5611 60.1211 47.6069 60.2058C47.6526 60.2904 47.7294 60.354 47.8211 60.3832C48.2713 60.3832 48.5318 60.0298 48.8369 59.8177H49.7447C49.5411 60.1544 49.2638 60.4406 48.9336 60.6548C48.6827 60.8858 48.3803 61.0535 48.0516 61.1441C47.7229 61.2347 47.3773 61.2455 47.0435 61.1757C46.6638 61.0721 46.3217 60.8618 46.0579 60.5696C45.7941 60.2775 45.6197 59.9158 45.5552 59.5275C45.5187 59.1024 45.6025 58.6756 45.7971 58.2959C47.7244 55.3008 49.5178 52.2089 51.3483 49.2323C51.1637 49.1782 50.9674 49.1782 50.7828 49.2323L50.7344 49.1691C50.1503 49.1691 49.5698 49.2175 48.9373 49.1691C49.0973 48.8305 49.3094 48.5068 49.488 48.1794C50.2135 48.1013 51.2851 48.1794 52.0292 48.1161C52.6245 47.1636 53.1938 46.1777 53.8263 45.2363C54.6821 45.2363 55.5527 45.2363 56.4308 45.2363L56.4345 45.2661Z" fill="#020F31"/>
<path d="M57.1799 50.6239C57.2425 50.8201 57.2531 51.0291 57.2107 51.2306C57.1683 51.4321 57.0744 51.6192 56.9381 51.7736C56.7199 51.9704 56.4517 52.1034 56.1629 52.1579C55.8741 52.2123 55.5759 52.1862 55.301 52.0824C55.1142 51.9892 54.9601 51.8414 54.8591 51.6587C54.7581 51.476 54.715 51.267 54.7354 51.0592C54.7661 50.8447 54.8567 50.6432 54.997 50.4779C55.1372 50.3127 55.3212 50.1905 55.5279 50.1253C56.0786 49.8649 56.9195 49.9914 57.1799 50.6239Z" fill="#020F31"/>
<path d="M36.752 54.0396C36.8571 54.3596 36.8872 54.6995 36.8401 55.033C36.793 55.3665 36.6699 55.6848 36.4804 55.9632C36.3138 56.15 36.0949 56.2826 35.8521 56.3436C35.6093 56.4046 35.3538 56.3913 35.1186 56.3055C34.8994 56.2171 34.7139 56.0614 34.5888 55.8608C34.4638 55.6602 34.4057 55.425 34.4228 55.1893C34.4476 55.0038 34.5249 54.8293 34.6455 54.6863C34.7661 54.5433 34.9251 54.4377 35.1037 54.3819C35.2394 54.3903 35.375 54.3632 35.4971 54.3031C35.6191 54.2431 35.7233 54.1523 35.7995 54.0396C35.8776 53.7977 35.6693 53.6675 35.5242 53.5745C34.4563 53.3475 34.1438 54.4638 33.4703 55.0925C32.4588 56.3724 31.6044 57.769 30.9254 59.2523C30.8464 59.395 30.8087 59.557 30.8166 59.72C30.8244 59.883 30.8776 60.0405 30.97 60.175C31.0662 60.309 31.197 60.4143 31.3483 60.4798C31.4997 60.5454 31.666 60.5686 31.8295 60.5471C33.2434 60.1229 34.1959 59.1555 35.0219 57.9724H35.833C35.0749 59.3871 33.8512 60.4965 32.369 61.1126C31.4277 61.3879 30.1366 61.4661 29.4557 60.6922C28.3395 59.4792 29.1618 57.7156 29.7459 56.4841C30.2448 55.5697 30.9352 54.7739 31.77 54.151C32.6048 53.5281 33.5643 53.0929 34.5828 52.875C35.0192 52.808 35.4656 52.8855 35.8539 53.0958C36.2421 53.306 36.551 53.6375 36.7334 54.0396H36.752Z" fill="#020F31"/>
<path d="M56.1424 53.0048C54.7508 55.3154 53.3109 57.6482 51.9529 59.929C51.871 60.1374 52.0645 60.2378 52.1612 60.3383C52.5817 60.3383 52.857 60.0109 53.1993 59.769C53.6197 59.4453 53.8281 58.943 54.2188 58.571H55.108C54.1853 59.7355 53.2477 61.3726 51.499 61.1122C51.1675 61.0435 50.8599 60.8891 50.6066 60.6646C50.3533 60.44 50.1633 60.1531 50.0553 59.8323C49.527 58.411 50.9185 57.4213 51.4022 56.2753C52.1166 55.1889 52.6784 54.0429 53.4226 52.9899C54.4271 52.9899 55.2234 52.9379 56.1424 52.9899V53.0048Z" fill="#020F31"/>
<path d="M64.2191 54.0269C64.8479 55.1096 63.7652 55.9058 63.408 56.7913C62.7941 57.8294 62.1467 58.8489 61.5812 59.8981C61.6109 60.0134 61.6295 60.1585 61.7263 60.2255C62.0983 60.4488 62.4369 59.9986 62.7123 59.8534C63.1141 59.4514 63.4778 59.013 63.7987 58.5438C64.1038 58.5048 64.4126 58.5048 64.7177 58.5438C64.1038 59.4181 63.408 60.4041 62.4853 60.9362C62.2075 61.0785 61.9001 61.1534 61.588 61.1548C61.2759 61.1561 60.9679 61.084 60.6889 60.9441C60.4099 60.8042 60.1677 60.6006 59.9821 60.3497C59.7965 60.0988 59.6725 59.8077 59.6204 59.5C59.5434 59.0725 59.6184 58.6315 59.8324 58.2536C60.6398 56.9215 61.4175 55.6491 62.1616 54.3506C62.1132 54.2873 62.1318 54.1608 62.0165 54.1422C61.3356 54.3208 60.8668 54.7747 60.3161 55.2584C59.6836 56.036 59.3302 56.9215 58.746 57.7661C58.0354 58.8823 57.4177 60.032 56.7071 61.1482L54.0059 61.1966C54.4226 60.326 54.9584 59.5781 55.4272 58.7372C56.2234 57.3941 57.0457 56.1328 57.7935 54.7412C57.7265 54.6259 57.5331 54.6743 57.4512 54.7077L57.2429 54.8342L55.8997 57.0667H55.1221L55.1556 56.9216C55.803 55.9505 56.2383 54.8156 57.0457 53.9748C57.3124 53.7719 57.6236 53.6354 57.9536 53.5765C58.2835 53.5177 58.6227 53.5381 58.9432 53.6362C59.3762 53.7844 59.7504 54.0673 60.011 54.4436C60.8184 53.9599 61.5291 53.1339 62.6341 53.1004C62.9659 53.0813 63.2958 53.1622 63.581 53.3327C63.8663 53.5032 64.0937 53.7554 64.234 54.0566L64.2191 54.0269Z" fill="#020F31"/>
<path d="M27.0463 53.488C27.1431 53.488 27.2733 53.2945 27.3217 53.1792C28.2109 53.1792 29.2304 53.1792 30.0192 53.1792C28.7095 55.4451 27.3217 57.6179 26.0715 59.9136C26.105 60.0289 26.1199 60.2224 26.2836 60.2857C26.7673 60.2857 27.2212 59.7164 27.5151 59.3927H28.2779C28.0416 59.8569 27.7111 60.2667 27.3075 60.596C26.9039 60.9253 26.436 61.1668 25.9339 61.3051C25.694 61.3672 25.4425 61.3683 25.2021 61.3086C24.9617 61.2488 24.7401 61.13 24.5572 60.9628C24.3358 60.7559 24.1641 60.5015 24.0549 60.2187C23.5526 60.8847 22.7787 61.5433 21.7741 61.4651C21.4629 61.4454 21.1609 61.3514 20.8935 61.1908C20.6261 61.0303 20.4011 60.8079 20.2375 60.5424C19.4264 58.7974 20.591 57.1268 21.4169 55.7055C22.4699 54.5372 23.5861 53.3094 25.2344 52.9671C25.881 52.9095 26.5252 53.1011 27.0352 53.5029L27.0463 53.488ZM26.2352 53.7968C25.8632 53.6517 25.5878 54.1019 25.3423 54.314C23.9644 55.8802 22.8157 57.634 21.9304 59.5229C21.8337 59.8429 21.4914 60.2671 21.8188 60.6056C21.9639 60.7508 22.1908 60.6354 22.336 60.5722C23.9061 59.0653 24.8772 57.2235 25.9599 55.4116C26.2017 54.9577 26.5403 54.5186 26.4287 53.9866C26.3853 53.904 26.3178 53.8365 26.2352 53.7931V53.7968Z" fill="#020F31"/>
<path d="M72.3121 53.6992C72.4907 53.4871 72.6321 53.2118 72.8144 52.955C73.7037 52.9067 74.5929 52.9364 75.5008 52.955C73.5883 56.2069 71.408 59.4104 69.4919 62.599C70.7718 62.7627 71.9066 62.3423 72.9744 61.8549L73.4283 62.439C72.1187 63.2799 70.3365 63.5218 68.7812 63.425C66.013 65.8695 62.5677 68.0722 58.4749 67.7968C57.1801 67.5996 55.7067 67.0527 55.3347 65.676C55.2293 65.2848 55.2245 64.8733 55.3208 64.4798C55.4171 64.0862 55.6113 63.7234 55.8853 63.425C57.5038 61.9181 60.1381 61.4345 62.3593 62.0149C63.8116 62.2999 65.2826 62.479 66.7609 62.5507C67.1329 62.1786 67.3078 61.6614 67.6464 61.2708C67.6018 61.1256 67.8101 61.0624 67.8101 60.8987C67.2111 61.0959 66.3218 61.2708 65.7414 60.854C64.9787 60.415 64.8968 59.3472 64.9973 58.5695C65.2523 57.4742 65.7228 56.4407 66.3814 55.5291C67.04 54.6175 67.8735 53.8462 68.8333 53.2601C69.2127 52.9973 69.6535 52.8369 70.1131 52.7945C70.5726 52.7521 71.0354 52.8292 71.4564 53.0183C71.7644 53.2103 72.048 53.4389 72.301 53.6992H72.3121ZM70.902 54.101C69.8379 54.6703 69.1049 55.82 68.4277 56.7724C67.8101 57.6803 67.1478 58.6328 67.0511 59.749C67.0809 59.909 67.226 59.9946 67.3264 60.0764C67.892 60.2364 68.3459 59.7639 68.6994 59.4402C69.5291 58.2124 70.3365 56.9659 71.0806 55.6562C71.2406 55.2842 71.5978 54.9605 71.5159 54.4768C71.4605 54.362 71.3731 54.2658 71.2641 54.1997C71.1551 54.1337 71.0294 54.1007 70.902 54.1047V54.101ZM61.4515 62.5172C60.5541 62.3711 59.6365 62.4092 58.7544 62.6293C57.8723 62.8493 57.0442 63.2467 56.3206 63.7971C56.0856 64.0451 55.9245 64.3537 55.8555 64.6883C55.7865 65.023 55.8123 65.3702 55.93 65.6909C56.2723 66.6285 57.3066 66.9039 58.2963 66.9039C61.4329 66.8704 64.3945 65.6909 66.3367 63.3767V63.3097L64.1862 63.0678L61.4515 62.5172Z" fill="#020F31"/>
<path d="M22.0742 53.2632L18.3833 59.1568C17.6577 60.3846 16.6829 61.6794 16.0392 62.9928C17.2173 63.0568 18.3895 62.7873 19.4213 62.2152C19.6483 62.3119 19.7264 62.5872 19.8901 62.7658C18.5953 63.6551 16.9136 63.8448 15.2281 63.8002C12.8506 65.9545 9.95219 67.7664 6.60357 68.2018C4.78788 68.3803 2.76755 67.9748 1.92668 66.3079C1.75154 65.8601 1.7132 65.3704 1.81653 64.9008C1.91985 64.4313 2.16018 64.0029 2.5071 63.67C3.26101 63.0767 4.12779 62.6431 5.05465 62.3955C5.98151 62.148 6.94905 62.0917 7.89837 62.2301C9.67384 62.5958 11.4752 62.8222 13.2859 62.9072C13.673 62.37 14.0247 61.8083 14.3389 61.2255C13.3678 61.4078 11.8795 61.858 11.2619 60.7902C10.421 59.5586 11.7158 58.5094 12.1697 57.4713L14.6961 53.3116C15.5183 53.2483 16.4745 53.3116 17.4122 53.2818C16.0206 55.5328 14.7593 57.8136 13.3194 60.139C13.302 60.2378 13.3177 60.3395 13.3641 60.4283C13.4106 60.5172 13.4851 60.5881 13.5761 60.6302C15.4365 60.5632 15.7602 58.7028 16.7313 57.5197C17.5907 56.0835 18.547 54.7068 19.3841 53.2818C20.2622 53.2297 21.1812 53.2148 22.0407 53.2148L22.0891 53.2632H22.0742ZM10.3577 63.3797C8.64251 63.0077 6.70031 62.5203 4.90322 63.0709C4.04747 63.443 3.04288 63.7369 2.54059 64.5592C2.40771 64.8219 2.3357 65.1112 2.3299 65.4056C2.32411 65.6999 2.38467 65.9918 2.5071 66.2596C2.87917 67.1153 3.93212 67.3758 4.90322 67.3125C8.02859 67.1823 11.0051 66.081 12.8506 63.6848L10.3577 63.3946V63.3797Z" fill="#020F31"/>
<path d="M44.1824 20.0205C42.7658 21.6581 41.703 23.5708 41.0608 25.6387C40.9996 25.8961 40.9984 26.1642 41.0571 26.4222C41.1158 26.6802 41.2329 26.9213 41.3994 27.127C41.7764 27.5172 42.2804 27.76 42.8207 27.8116L58.1982 30.6095H58.2615C61.3385 26.833 65.8554 24.2472 70.9639 24.0016L70.8188 24.1951C68.0699 26.6631 65.7897 29.6076 64.0881 32.8866C64.5261 35.6115 66.0039 38.0602 68.2106 39.7178C66.2604 39.8058 64.3175 39.4255 62.5444 38.6086C60.7714 37.7916 59.2199 36.5619 58.0196 35.0223L51.7391 36.0268L51.6573 36.0752L52.2749 36.7189C50.8313 37.597 49.2798 38.3411 47.8101 39.1485L45.2651 37.757C42.0734 38.2266 38.8444 38.3948 35.6211 38.2593C35.4345 38.2764 35.2553 38.3403 35.0999 38.445C34.9445 38.5497 34.8179 38.6918 34.7319 38.8583C33.891 41.3363 34.6203 44.1156 36.0416 46.1248C32.4995 45.6411 29.9583 42.6608 28.9723 39.4275C28.9723 39.3606 28.9723 39.2824 28.8904 39.2676C26.0441 40.2684 23.0676 41.8534 21.2072 44.1677C21.2515 42.1957 21.8526 40.2764 22.9411 38.6313C23.1829 38.196 23.5884 37.8239 23.8452 37.4333C21.9896 37.0289 20.1665 36.4879 18.3907 35.8148C18.7117 35.4365 19.0585 35.081 19.4287 34.7506C18.9253 34.8431 18.4282 34.9674 17.9405 35.1227C16.2405 34.2763 14.7185 33.1118 13.457 31.6922C17.7433 29.2664 22.7141 28.3101 27.6328 27.339C29.8169 26.967 32.0977 26.7251 34.3673 26.4833C36.9717 23.4398 39.9148 20.4595 44.041 19.9609H44.1861V20.0242L44.1824 20.0205ZM41.1426 22.171C38.5158 23.4844 36.8006 25.4899 34.9551 27.752C33.6306 27.8488 32.2725 27.979 30.9926 28.1241C25.6162 28.9389 20.3105 29.8914 15.4699 31.9639C16.263 32.6692 17.1373 33.2775 18.0744 33.7758C20.3887 33.0987 23.0452 32.7229 25.553 33.1619C23.7894 33.5042 22.0406 34.1181 20.7161 35.2976C23.1847 36.0795 25.7377 36.5641 28.3212 36.7412C28.3212 36.3691 28.1947 35.9971 28.2095 35.625C28.6379 35.5472 29.0727 35.5111 29.5081 35.5171C29.6978 38.7801 30.8512 41.9688 33.571 43.7361C33.2287 41.9688 33.065 39.8666 33.7608 38.1997C33.9398 37.9064 34.1771 37.653 34.4581 37.4552C34.7391 37.2575 35.0577 37.1195 35.3942 37.05C38.7949 37.117 42.2067 37.05 45.4623 36.4212L47.8436 37.7123L50.1727 36.4361L49.0565 35.3683C49.023 35.3348 48.9561 35.2567 49.0565 35.2232L57.7778 33.8242L58.5703 33.7275C60.0586 35.8966 62.291 37.6305 64.9476 38.1327C63.7761 36.6235 63.0413 34.8218 62.823 32.9238C63.9 30.2938 65.4541 27.8857 67.4069 25.821C65.024 26.5447 62.8291 27.7831 60.9776 29.4487C60.175 30.2236 59.4184 31.0448 58.7117 31.908L42.1881 28.9315L41.444 28.6711C40.9017 28.3935 40.4558 27.9588 40.1644 27.4238C39.873 26.8888 39.7497 26.2783 39.8106 25.6722C40.1142 24.4548 40.5652 23.2791 41.1538 22.171H41.1426ZM25.393 37.7235C24.5036 38.5196 23.7869 39.4896 23.2871 40.5735C24.0747 40.0402 24.9033 39.5699 25.765 39.1671C26.6394 38.7132 27.6924 38.423 28.5481 38.0509C27.4952 37.9728 26.4273 37.876 25.393 37.7123V37.7235Z" fill="#020F31"/>
<path d="M19.7418 31.7078C19.7961 31.8007 19.8183 31.9089 19.8051 32.0157C19.7919 32.1224 19.7441 32.2219 19.6688 32.2989C19.5936 32.3758 19.4952 32.4259 19.3887 32.4414C19.2823 32.457 19.1736 32.4372 19.0796 32.385C18.9834 32.3153 18.9126 32.2164 18.8777 32.1029C18.8428 31.9895 18.8457 31.8678 18.8861 31.7562C18.9344 31.5739 19.1279 31.5106 19.2581 31.4623C19.3514 31.4555 19.4447 31.4749 19.5275 31.5183C19.6103 31.5617 19.6794 31.6273 19.7269 31.7078H19.7418Z" fill="#020F31"/>
</g>
</svg>
