<svg width="24" height="16" viewBox="0 0 24 16" fill="none" xmlns="http://www.w3.org/2000/svg">
<g opacity="0.5">
<rect width="24" height="16" rx="2" fill="#F2F0EC"/>
<g opacity="0.01">
<rect x="2.32007" y="1.6001" width="19.35" height="12.8" fill="white"/>
</g>
<rect x="9.44995" y="3.83008" width="5.11" height="8.34" fill="#F26122"/>
<path d="M9.99996 8.00028C9.9945 6.37772 10.7312 4.8417 12 3.83028C9.82637 2.12515 6.70758 2.3756 4.83394 4.40573C2.9603 6.43586 2.9603 9.5647 4.83394 11.5948C6.70758 13.625 9.82637 13.8754 12 12.1703C10.7288 11.1608 9.99153 9.62351 9.99996 8.00028Z" fill="#EA1D25"/>
<path fill-rule="evenodd" clip-rule="evenodd" d="M20.41 11.0801V11.2901H20.3V11.2301L20.36 11.0801H20.41ZM20.2786 11.1765L20.3 11.2301V11.1301L20.2786 11.1765ZM20.24 11.0801L20.2786 11.1765L20.24 11.2601L20.18 11.1301V11.0801H20.24ZM20.07 11.1201V11.2901H20V11.1201H20.07Z" fill="#F69E1E"/>
<path d="M20.58 8.00028C20.5748 10.0282 19.415 11.876 17.5911 12.7624C15.7672 13.6489 13.5977 13.4191 12 12.1703C13.2772 11.1634 14.0226 9.62668 14.0226 8.00028C14.0226 6.37389 13.2772 4.83719 12 3.83028C13.5957 2.57307 15.7696 2.33857 17.5968 3.22657C19.4239 4.11457 20.5826 5.96881 20.58 8.00028Z" fill="#F69E1E"/>
<g style="mix-blend-mode:color">
<g opacity="0.01">
<rect x="2.32007" y="1.59961" width="19.35" height="12.8" fill="#A8A8A8"/>
</g>
<rect x="9.44995" y="3.82959" width="5.11" height="8.34" fill="#A8A8A8"/>
<path d="M9.99996 7.99979C9.9945 6.37723 10.7312 4.84122 12 3.82979C9.82637 2.12467 6.70758 2.37512 4.83394 4.40524C2.9603 6.43537 2.9603 9.56421 4.83394 11.5943C6.70758 13.6245 9.82637 13.8749 12 12.1698C10.7288 11.1603 9.99153 9.62302 9.99996 7.99979Z" fill="#A8A8A8"/>
<path fill-rule="evenodd" clip-rule="evenodd" d="M20.41 11.0796V11.2896H20.3V11.2296L20.36 11.0796H20.41ZM20.2786 11.176L20.3 11.2296V11.1296L20.2786 11.176ZM20.24 11.0796L20.2786 11.176L20.24 11.2596L20.18 11.1296V11.0796H20.24ZM20.07 11.1196V11.2896H20V11.1196H20.07Z" fill="#A8A8A8"/>
<path d="M20.58 7.9998C20.5748 10.0277 19.415 11.8755 17.5911 12.762C15.7672 13.6484 13.5977 13.4186 12 12.1698C13.2772 11.1629 14.0226 9.62619 14.0226 7.9998C14.0226 6.3734 13.2772 4.8367 12 3.8298C13.5957 2.57258 15.7696 2.33808 17.5968 3.22608C19.4239 4.11409 20.5826 5.96832 20.58 7.9998Z" fill="#A8A8A8"/>
</g>
</g>
</svg>
