<svg width="63" height="50" viewBox="0 0 63 50" fill="none" xmlns="http://www.w3.org/2000/svg">
<path d="M34.038 0.516392C34.1005 0.518819 34.1629 0.508583 34.2214 0.486297C34.2799 0.464012 34.3333 0.430137 34.3784 0.386706L34.427 0.175968C34.5459 0.175968 34.7567 0.151652 34.781 0.292144C34.7188 1.10268 34.6135 1.86728 34.5675 2.66701L34.2136 2.6535C34.2724 2.36574 34.2706 2.06887 34.2083 1.78184C34.146 1.49481 34.0245 1.22394 33.8516 0.986502C33.5003 0.597445 33.041 0.292144 32.4764 0.424531C32.3563 0.469166 32.2465 0.537663 32.1536 0.62589C32.0608 0.714117 31.9867 0.820245 31.936 0.93787C31.8981 1.10514 31.8985 1.27883 31.9374 1.44589C31.9762 1.61295 32.0524 1.76903 32.1603 1.90241C32.8762 2.56164 34.0029 2.41845 34.627 3.25329C34.8525 3.52744 34.9945 3.86057 35.0361 4.21308C35.0778 4.56558 35.0174 4.92264 34.862 5.24181C34.6513 5.70921 34.2163 5.97129 33.7813 6.20634C33.3246 6.41491 32.8242 6.51006 32.3227 6.48372C31.8213 6.45738 31.3336 6.31032 30.9012 6.05504C30.798 6.01971 30.6879 6.00865 30.5797 6.0227C30.4715 6.03676 30.3679 6.07556 30.2771 6.13609C30.2555 6.18202 30.1961 6.21715 30.2204 6.28739C30.1046 6.31174 29.985 6.31174 29.8691 6.28739C29.9178 5.40661 30.034 4.54745 30.0799 3.66667C30.186 3.62614 30.3034 3.62614 30.4095 3.66667C30.5149 4.65552 30.9499 5.8416 31.9846 6.09827C32.1853 6.1568 32.3983 6.15822 32.5997 6.10238C32.8011 6.04654 32.9829 5.93565 33.1248 5.78216C33.2236 5.6586 33.2893 5.51193 33.3158 5.35595C33.3423 5.19996 33.3286 5.03981 33.2761 4.89057C32.9113 4.19622 32.0414 4.10165 31.3848 3.80986C31.0376 3.64727 30.745 3.38737 30.5427 3.06173C30.3403 2.73608 30.2368 2.35869 30.2447 1.97535C30.2771 1.07026 31.0417 0.354285 31.8198 0.097616C32.1966 -0.0106423 32.5935 -0.0291519 32.9786 0.0435702C33.3638 0.116292 33.7266 0.278224 34.038 0.516392Z" fill="#D3A05C"/>
<path d="M39.6795 0.894359C39.67 1.04353 39.6344 1.18987 39.5741 1.32664C39.4587 1.29291 39.3367 1.2891 39.2195 1.31557C39.1023 1.34204 38.9937 1.39792 38.904 1.47794C38.6825 1.70219 38.7284 2.05612 38.6095 2.33711L38.2097 3.98249C38.7284 4.26618 39.385 4.21755 39.9631 4.42829L40.0685 4.19323C40.209 3.46645 40.4197 2.76129 40.5602 2.03181C40.5419 1.90042 40.4856 1.77723 40.3983 1.6774C40.3109 1.57756 40.1963 1.50542 40.0685 1.46984C40.0334 1.44552 39.9739 1.46984 39.9496 1.4131L40.0793 0.988921C41.1249 1.2591 42.1597 1.52928 43.1702 1.85889C43.1877 1.91881 43.1881 1.98243 43.1714 2.04258C43.1547 2.10273 43.1215 2.15702 43.0756 2.19932C42.9634 2.17822 42.8478 2.18307 42.7378 2.21351C42.6277 2.24395 42.5261 2.29917 42.4407 2.37493L42.3002 2.64511C41.949 4.12569 41.5599 5.61707 41.2546 7.11115C41.251 7.24167 41.2888 7.36998 41.3626 7.47772C41.4363 7.58546 41.5423 7.66709 41.6653 7.71095C41.7112 7.71095 41.7706 7.73526 41.7841 7.7839C41.7719 7.9287 41.7276 8.06898 41.6545 8.19457C40.6413 7.86495 39.6335 7.52453 38.5987 7.26515L38.6933 6.93554C38.829 6.97397 38.9731 6.97082 39.107 6.92651C39.2409 6.8822 39.3584 6.79876 39.4444 6.68697C39.6092 6.06556 39.7389 5.43065 39.9037 4.80924C39.339 4.62011 38.7527 4.52555 38.1746 4.38506L38.1286 4.40937L37.718 6.16013C37.7222 6.32694 37.78 6.48796 37.8828 6.61943C38 6.7118 38.1302 6.78645 38.2691 6.84098L38.1989 7.19491C37.1776 6.97066 36.1428 6.78424 35.0837 6.63024C35.0621 6.46543 35.1432 6.36006 35.154 6.19525C35.2834 6.22152 35.4177 6.21002 35.5408 6.16212C35.6639 6.11422 35.7707 6.03193 35.8483 5.92507C36.2482 4.37425 36.6589 2.83424 36.9642 1.24829C36.9666 1.0884 36.9076 0.933668 36.7994 0.816007C36.6967 0.659304 36.2941 0.707936 36.4481 0.426951C36.4697 0.38102 36.4481 0.297265 36.5184 0.272949C37.5991 0.437758 38.6447 0.616075 39.6795 0.872744V0.894359Z" fill="#D3A05C"/>
<path d="M15.9268 3.75816C15.8421 3.80536 15.7706 3.8732 15.7191 3.95539C15.6677 4.03758 15.6378 4.13145 15.6323 4.22827L15.6458 4.38227C16.351 5.81692 17.0318 7.27318 17.7235 8.70512C17.7763 8.76901 17.8435 8.81946 17.9196 8.85233C17.9956 8.88521 18.0784 8.89957 18.1611 8.89425C18.4313 8.86993 18.6069 8.56463 18.7717 8.35389C18.9582 8.03529 19.0744 7.68051 19.1127 7.31334C19.1509 6.94616 19.1102 6.57506 18.9933 6.22489L19.2878 6.08169C19.666 6.82468 20.0308 7.58929 20.3685 8.34038C18.8213 9.0094 17.3179 9.77553 15.8673 10.6342C15.7836 10.4937 15.6188 10.3046 15.6782 10.1506C15.7713 10.1104 15.8539 10.0492 15.9195 9.9719C15.9851 9.89458 16.0319 9.80317 16.0565 9.70478C16.0781 9.26709 15.762 8.95369 15.6323 8.59705C15.1135 7.44609 14.5381 6.31945 13.9626 5.21442C13.8517 5.12974 13.7196 5.07736 13.5809 5.06305C13.4422 5.04875 13.3021 5.07308 13.1764 5.13337L12.998 4.83888C13.908 4.28903 14.8459 3.78673 15.8079 3.33398C15.8673 3.45286 16.1267 3.65009 15.9133 3.74465L15.9268 3.75816Z" fill="#D3A05C"/>
<path d="M25.1985 1.0839C25.2961 1.22281 25.3544 1.38549 25.3673 1.55479C25.3801 1.72408 25.347 1.8937 25.2715 2.04574C25.0317 2.44019 24.7297 2.79327 24.3772 3.09133C24.6564 3.45586 24.9931 3.77251 25.3741 4.02884C25.5173 3.29126 25.7281 2.45371 26.4548 2.07816C26.6195 2.01333 26.7974 1.9893 26.9733 2.00812C27.1493 2.02694 27.3181 2.08805 27.4653 2.18623C27.6208 2.31443 27.7374 2.48358 27.8019 2.67455C27.8663 2.86552 27.8761 3.07071 27.83 3.26694C27.7837 3.40543 27.7098 3.5331 27.6127 3.64222C27.5157 3.75135 27.3975 3.83967 27.2654 3.90186C27.0899 3.97009 26.8988 3.98753 26.7138 3.95217C26.5289 3.91681 26.3577 3.83008 26.2198 3.70193C26.0793 3.61817 26.0793 3.43175 25.9496 3.33719C25.8311 3.64158 25.745 3.95764 25.6929 4.28011C26.1522 4.65566 26.7007 5.00689 27.3734 4.98527C27.5327 4.94955 27.68 4.87334 27.8012 4.764C27.9224 4.65467 28.0133 4.51591 28.0651 4.36116C28.1573 4.6191 28.1875 4.89511 28.1532 5.16687C28.1189 5.43863 28.0212 5.69851 27.8679 5.92549C27.5031 6.34697 27.033 6.73603 26.3954 6.59553C25.937 6.50823 25.499 6.33595 25.1039 6.0876C24.9447 6.45416 24.6848 6.76805 24.3543 6.99282C24.0239 7.21759 23.6364 7.34402 23.237 7.35743C22.8861 7.35533 22.5439 7.24782 22.2549 7.04885C21.9658 6.84988 21.7432 6.56863 21.6159 6.2416C21.5188 5.97538 21.4853 5.69011 21.5181 5.40862C21.5509 5.12713 21.6492 4.85723 21.8051 4.62053C22.0158 4.25579 22.3697 4.1153 22.6777 3.81C22.4508 3.43175 22.0996 3.06971 22.0996 2.57529C22.0653 2.23427 22.1278 1.89051 22.2797 1.5833C22.4316 1.27609 22.6669 1.01783 22.9587 0.838041C23.6045 0.448985 24.7095 0.438178 25.2012 1.0839H25.1985ZM23.2613 1.25682C23.2428 1.3471 23.2503 1.4408 23.2829 1.52699C23.513 1.96983 23.7941 2.38423 24.1205 2.76171C24.2151 2.72388 24.2394 2.63202 24.3339 2.605C24.5501 2.10518 23.9638 1.74044 23.8017 1.32706C23.672 1.18657 23.418 1.05689 23.2613 1.25412V1.25682ZM22.6399 4.35035C22.5427 4.89071 23.0263 5.27977 23.3424 5.60668C23.6477 5.87686 24.0367 6.26592 24.5041 6.26592C24.6429 6.17297 24.7399 6.02948 24.7743 5.86605C24.0843 5.37942 23.4628 4.80239 22.9263 4.15042C22.8101 4.15042 22.7048 4.2693 22.6372 4.35035H22.6399Z" fill="#D3A05C"/>
<path d="M48.9022 4.3247C48.5753 6.35914 48.1727 8.35575 47.8701 10.3875C47.9011 10.5092 47.9566 10.6232 48.0333 10.7226C48.1099 10.822 48.2061 10.9048 48.3159 10.9657C48.2733 11.1035 48.2095 11.2338 48.1268 11.352C47.2109 10.7765 46.2733 10.2713 45.3412 9.73096C45.3412 9.6364 45.425 9.52022 45.4844 9.42296C45.6708 9.50671 45.9086 9.6364 46.1058 9.50671L46.1761 9.39864L46.4463 7.77757C46.0005 7.49388 45.5304 7.28044 45.0711 7.03458H45.0008C44.6712 7.52901 43.7067 7.91806 44.1903 8.66916C44.3073 8.77007 44.4329 8.86048 44.5658 8.93934C44.4605 9.01769 44.5064 9.34731 44.2956 9.20951L42.5098 8.4341C42.5454 8.29409 42.6 8.15957 42.6719 8.03424C43.6148 8.48003 43.9417 7.3642 44.5307 6.95353C45.5763 5.87282 46.657 4.76509 47.7053 3.67627C48.1314 3.83867 48.5367 4.05088 48.913 4.30849L48.9022 4.3247ZM46.8353 5.17035L45.3304 6.71037V6.76981C45.706 6.95893 46.095 7.18048 46.4733 7.34529C46.5895 6.605 46.7759 5.93496 46.8353 5.18386V5.17035Z" fill="#D3A05C"/>
<path d="M12.2869 5.66634C12.1839 5.74628 12.1068 5.85472 12.065 5.97818C12.0232 6.10164 12.0186 6.23466 12.0518 6.36069C12.2977 6.80649 12.6624 7.1226 12.9569 7.54678L14.7185 9.79196C14.8541 10.0428 14.9204 10.3252 14.9104 10.6102C14.9004 10.8952 14.8146 11.1723 14.6617 11.413C13.9323 12.1425 13.1433 12.8612 11.9816 12.7315C11.6293 12.6852 11.3088 12.5041 11.0873 12.2263C10.3227 11.2023 9.4419 10.1918 8.65568 9.18135C8.57994 9.12314 8.49123 9.08413 8.39713 9.06767C8.30303 9.0512 8.20634 9.05776 8.11533 9.08679L7.84515 9.21648C7.78841 9.13542 7.52904 8.98412 7.70466 8.87605C8.48277 8.17089 9.26899 7.51165 10.0336 6.90105C10.1741 6.94968 10.2443 7.11449 10.3254 7.19554C10.3254 7.31172 10.2092 7.32523 10.1606 7.41979C9.82015 7.93583 10.3848 8.32489 10.6442 8.68963C11.2899 9.52448 12.1356 10.6025 12.8272 11.4265C12.9675 11.541 13.1344 11.6185 13.3124 11.6517C13.4904 11.6849 13.6739 11.6728 13.8461 11.6166C14.0182 11.5604 14.1735 11.4618 14.2976 11.3299C14.4217 11.1981 14.5107 11.0371 14.5564 10.8619C14.6135 10.6149 14.5928 10.3563 14.4969 10.1216C13.6053 8.88686 12.7705 7.92503 11.7952 6.71193C11.7236 6.65884 11.6413 6.62212 11.554 6.60438C11.4667 6.58664 11.3765 6.5883 11.2899 6.60926C11.1494 6.60926 11.0549 6.72543 10.9387 6.73624C10.8427 6.63607 10.7525 6.53053 10.6685 6.42013C11.109 6.0548 11.5719 5.71732 12.0545 5.40967C12.1619 5.46671 12.2425 5.56378 12.2788 5.67985L12.2869 5.66634Z" fill="#D3A05C"/>
<path d="M55.3116 8.63771C56.0871 9.27262 56.7895 10.3533 56.414 11.4367C56.106 12.0122 55.4738 12.177 54.828 12.1068C54.6088 12.0737 54.3928 12.0222 54.1823 11.9528C54.3444 12.4715 54.674 13.0578 54.4174 13.6441C54.2039 14.1493 53.7446 14.4303 53.4177 14.8329C53.3799 14.8788 53.4177 14.9274 53.4636 14.9491C53.8878 14.9734 54.1823 14.6789 54.439 14.4087C54.5335 14.479 54.674 14.5627 54.674 14.6789C54.2985 15.1004 53.8041 15.4165 53.1475 15.276C52.9444 15.2312 52.7524 15.1458 52.5829 15.0251C52.4135 14.9045 52.2701 14.7509 52.1614 14.5735C52.0614 14.4061 52.0087 14.2147 52.0087 14.0196C52.0087 13.8246 52.0614 13.6332 52.1614 13.4658C52.5585 12.9633 53.134 12.5634 53.4636 12.0095C53.5229 11.8334 53.5181 11.6421 53.4501 11.4692C53.2999 11.2676 53.1173 11.0923 52.9098 10.9504C52.3451 11.4908 51.8291 12.1149 51.3238 12.6904C51.2976 12.825 51.3052 12.9641 51.3457 13.0951C51.3862 13.2261 51.4585 13.3451 51.5562 13.4415C51.4616 13.5739 51.4292 13.6792 51.2995 13.7603C50.489 13.0551 49.6541 12.4337 48.8301 11.7393C48.9083 11.5929 49.0159 11.4641 49.1462 11.3611C49.2676 11.4768 49.4271 11.5441 49.5947 11.5502L49.9108 11.4692L53.107 7.93254C53.1457 7.84346 53.1657 7.74735 53.1657 7.65021C53.1657 7.55306 53.1457 7.45695 53.107 7.36787L52.9233 7.09769C52.98 6.96801 53.1934 6.72214 53.3231 6.9572L55.2981 8.6242L55.3116 8.63771ZM54.7929 8.84034C54.2212 9.42715 53.6801 10.0431 53.1718 10.6857C53.2907 10.8018 53.4663 10.9207 53.5744 11.0369C53.7148 11.0985 53.8698 11.119 54.0214 11.0961C54.173 11.0731 54.315 11.0076 54.4309 10.9072C54.7821 10.5208 55.2765 10.1318 55.3441 9.5347C55.3441 9.19157 55.0172 8.99434 54.8037 8.84034H54.7929Z" fill="#D3A05C"/>
<path d="M59.2306 12.6013C59.7844 13.2443 60.2897 13.9873 60.83 14.6925L60.468 14.9626C60.2789 14.7978 60.1141 14.6222 59.8682 14.6573L59.6656 14.706C59.1252 15.1274 58.5281 15.4922 57.9742 15.9272L58.058 15.9731L60.5031 16.373C60.6498 16.3168 60.7735 16.2131 60.8543 16.0785C60.8914 15.9712 60.9055 15.8573 60.8957 15.7442C60.8859 15.6311 60.8525 15.5213 60.7976 15.4219C60.8939 15.31 61.0206 15.2284 61.1623 15.1869C61.6541 15.892 62.0647 16.6188 62.4754 17.3483C62.3978 17.4484 62.2979 17.5289 62.1836 17.5834C61.573 16.6783 60.3248 16.8323 59.3386 16.5972C58.8118 17.7833 58.1877 18.9234 57.6338 20.1095C57.5626 20.441 57.5995 20.7867 57.7392 21.0957C57.635 21.2118 57.5069 21.304 57.3636 21.3658C56.8368 20.4364 56.2505 19.553 55.6858 18.6641C55.8479 18.5803 55.9911 18.3669 56.1992 18.4966C56.5882 18.3345 56.6234 17.8508 56.8368 17.532C57.0124 17.1349 57.2123 16.7566 57.3772 16.3595C56.8214 16.692 56.3017 17.0814 55.8263 17.5212C55.7862 17.6142 55.7655 17.7144 55.7655 17.8157C55.7655 17.917 55.7862 18.0172 55.8263 18.1102C55.7453 18.2372 55.5805 18.275 55.4751 18.3804C54.8645 17.5942 54.2296 16.7836 53.6055 16.0298L53.9351 15.7597C54.0121 15.8644 54.1171 15.9453 54.238 15.9931C54.3589 16.0408 54.4908 16.0536 54.6186 16.0298L54.9239 15.8434L58.6119 13.2227C58.6866 13.1278 58.7348 13.0147 58.7514 12.8951C58.768 12.7754 58.7525 12.6535 58.7064 12.5418C58.7064 12.4716 58.5659 12.3878 58.6713 12.3284C58.9766 11.8961 59.0225 12.5418 59.2333 12.6256L59.2306 12.6013Z" fill="#D3A05C"/>
<path d="M10.9811 13.578C11.3215 13.6833 11.5215 13.1051 11.7916 13.4456L11.9213 13.6239C11.1108 14.3534 10.357 15.1531 9.65184 15.9042C9.53434 15.8336 9.43085 15.7421 9.34654 15.634C9.45191 15.4719 9.72208 15.2233 9.54647 14.9883C9.08694 14.7108 8.6074 14.4678 8.11182 14.2615C7.70499 14.6245 7.32486 15.0164 6.97437 15.4341C7.18161 15.8584 7.42476 16.2643 7.70115 16.6472C7.79845 16.7135 7.91112 16.7538 8.02843 16.7642C8.14573 16.7746 8.26374 16.7548 8.37119 16.7066C8.5252 16.6688 8.66569 16.3419 8.80618 16.5391L8.94667 16.6931C8.51169 17.2091 8.0767 17.7738 7.67684 18.3142C7.52978 18.2489 7.40087 18.1487 7.30129 18.0224C7.87677 17.374 7.23104 16.6715 6.92574 16.1176C6.11521 14.7181 5.32629 13.3672 4.49414 11.992C4.78075 11.6464 5.08653 11.3172 5.41004 11.0059C7.26617 11.8164 9.11148 12.7323 10.9919 13.5807L10.9811 13.578ZM5.6451 13.1889C6.00984 13.8211 6.33946 14.4939 6.76364 15.0801C7.08664 14.7598 7.39237 14.4225 7.67954 14.0697L5.6451 13.1781V13.1889Z" fill="#D3A05C"/>
<path d="M5.09318 15.2786C5.2483 15.5336 5.34733 15.8187 5.38367 16.115C5.42 16.4113 5.39282 16.7119 5.30392 16.9969C5.1283 17.386 4.85813 17.7507 4.669 18.1154C5.11688 18.4524 5.58419 18.7628 6.06852 19.0448C6.20749 19.0672 6.34996 19.049 6.47885 18.9925C6.60775 18.9359 6.71762 18.8434 6.7953 18.726C6.93517 18.7746 7.06381 18.8509 7.17355 18.9503C6.63319 19.8203 5.96045 20.7226 5.46873 21.6386C5.32787 21.5952 5.19921 21.5193 5.09318 21.417C5.16019 21.3059 5.19738 21.1794 5.20117 21.0497C5.20496 20.92 5.17521 20.7915 5.11479 20.6767C3.7639 19.7959 2.43733 18.9125 1.08644 18.0695C0.960292 18.0307 0.825687 18.0286 0.698403 18.0635C0.571118 18.0985 0.456426 18.1689 0.367768 18.2667C0.343452 18.2883 0.343452 18.3478 0.297522 18.3478C0.167836 18.3478 0.132713 18.2667 0.0273438 18.1965C0.611512 17.096 1.29138 16.0491 2.05908 15.0678C2.28253 14.8318 2.55942 14.6528 2.86645 14.5461C3.17347 14.4394 3.50165 14.408 3.82334 14.4545C4.32875 14.567 4.77836 14.854 5.09318 15.2651V15.2786ZM2.18877 15.8297C2.08086 15.8572 1.98243 15.9134 1.90393 15.9924C1.82543 16.0714 1.76981 16.1702 1.74297 16.2782C2.57782 16.7943 3.40997 17.3941 4.33938 17.8993L4.52851 17.6561C4.55227 17.4913 4.5309 17.3231 4.46667 17.1694C4.40245 17.0157 4.29777 16.8824 4.16377 16.7835C3.49373 16.4565 3.03442 15.8189 2.18877 15.8297Z" fill="#D3A05C"/>
<path d="M36.1532 32.3435C36.4234 33.3539 35.7642 34.1185 35.2589 34.8912C33.9891 36.5123 32.287 37.7119 30.5821 38.7224C30.5119 38.9007 30.3471 39.052 30.312 39.2303C30.9685 38.9601 31.8169 38.3954 32.5679 38.9007C32.7677 39.0438 32.9209 39.2427 33.0083 39.4723C33.0958 39.702 33.1136 39.9524 33.0597 40.1921C32.4869 41.2863 31.8871 42.3779 31.2414 43.4505C31.2202 43.4849 31.207 43.5237 31.2028 43.5639C31.1986 43.6041 31.2035 43.6447 31.2171 43.6828C31.2332 43.7335 31.2667 43.7767 31.3117 43.8049C31.3568 43.8331 31.4103 43.8444 31.4629 43.8368C31.7163 43.7444 31.9454 43.5956 32.133 43.4018H32.7814C32.5478 43.7441 32.2472 44.0354 31.8979 44.2583C31.6634 44.3887 31.3985 44.4545 31.1303 44.4488C30.862 44.4431 30.6001 44.3661 30.3714 44.2259C30.1296 44.0631 29.9426 43.8309 29.8351 43.56C29.7276 43.289 29.7045 42.9918 29.7689 42.7075L29.877 42.3779L31.4629 39.6166C31.4629 39.5356 31.3684 39.441 31.2873 39.4653L29.7122 40.2759C29.5132 40.5537 29.3327 40.8444 29.1718 41.1459C28.4937 42.2644 27.8209 43.3802 27.1401 44.4852C26.5295 44.5312 25.6946 44.5069 25.1191 44.5069C26.035 43.0047 27.059 41.4539 27.9506 39.9003C27.6804 39.949 27.3751 40.0786 27.1049 40.1246V39.4653C27.5643 39.2789 28.0803 39.1492 28.5639 38.9601C29.9959 36.6096 31.4305 34.0132 33.8513 32.5461C34.4268 32.2516 35.0158 31.8977 35.7425 32.0057C35.9303 32.062 36.0897 32.1876 36.1883 32.357L36.1532 32.3435ZM35.494 32.5542C34.4862 32.9784 33.7297 33.8591 33.0489 34.7156C32.4518 35.6666 31.8412 36.6447 31.3359 37.5714C31.7927 37.297 32.2321 36.9947 32.6517 36.6663C33.8864 35.5856 35.4264 34.4698 35.6615 32.6812C35.6372 32.6244 35.5885 32.5299 35.494 32.565V32.5542Z" fill="#E30613"/>
<path d="M41.0076 32.8702C40.6402 33.543 40.2187 34.2455 39.7945 34.929C40.8428 34.9965 41.8155 34.8912 42.9691 34.9749L42.5449 35.6801L39.3028 35.7395C37.6817 38.3251 36.1714 40.9432 34.5747 43.518C34.556 43.5853 34.5642 43.6572 34.5974 43.7187C34.6307 43.7802 34.6864 43.8264 34.753 43.8476C35.0799 43.8476 35.2691 43.5909 35.4906 43.4369H36.1498C36.002 43.6814 35.8006 43.8893 35.5608 44.0448C35.3787 44.2125 35.1591 44.3343 34.9204 44.4001C34.6817 44.4659 34.4307 44.4737 34.1883 44.4231C33.9126 44.3478 33.6642 44.1951 33.4726 43.9829C33.2811 43.7708 33.1544 43.5081 33.1076 43.2262C33.0811 42.9175 33.1419 42.6076 33.2832 42.3319C34.6828 40.1569 35.985 37.9118 37.3143 35.7503C37.1802 35.711 37.0377 35.711 36.9036 35.7503L36.8685 35.7044C36.4443 35.7044 36.0229 35.7395 35.5635 35.7044C35.6797 35.4586 35.8337 35.2235 35.9634 34.9857C36.4903 34.929 37.2684 34.9857 37.8087 34.9398C38.241 34.2482 38.6544 33.5322 39.1137 32.8486C39.7351 32.8486 40.3673 32.8486 41.0049 32.8486L41.0076 32.8702Z" fill="#E30613"/>
<path d="M41.5482 36.7606C41.5936 36.9031 41.6013 37.0549 41.5705 37.2012C41.5398 37.3475 41.4716 37.4834 41.3726 37.5955C41.2141 37.7384 41.0194 37.835 40.8097 37.8745C40.6 37.9141 40.3834 37.8951 40.1838 37.8197C40.0482 37.752 39.9363 37.6447 39.8629 37.5121C39.7896 37.3794 39.7583 37.2276 39.7731 37.0767C39.7954 36.9209 39.8612 36.7746 39.963 36.6546C40.0649 36.5346 40.1985 36.4459 40.3486 36.3986C40.7485 36.2094 41.3591 36.3013 41.5482 36.7606Z" fill="#E30613"/>
<path d="M26.7137 39.2401C26.79 39.4725 26.8119 39.7193 26.7777 39.9615C26.7435 40.2037 26.6541 40.4348 26.5165 40.637C26.3955 40.7726 26.2365 40.8689 26.0602 40.9132C25.8839 40.9575 25.6984 40.9479 25.5276 40.8855C25.3684 40.8213 25.2337 40.7082 25.1429 40.5626C25.0521 40.4169 25.0099 40.2462 25.0224 40.075C25.0404 39.9403 25.0965 39.8136 25.1841 39.7097C25.2717 39.6059 25.3871 39.5292 25.5168 39.4887C25.6154 39.4948 25.7138 39.4751 25.8024 39.4315C25.891 39.3879 25.9667 39.3219 26.022 39.2401C26.0788 39.0645 25.9275 38.97 25.8221 38.9024C25.0467 38.7376 24.8198 39.5481 24.3307 40.0047C23.5962 40.9341 22.9758 41.9482 22.4827 43.0253C22.4253 43.129 22.398 43.2466 22.4037 43.365C22.4094 43.4833 22.448 43.5977 22.5151 43.6954C22.585 43.7926 22.6799 43.8692 22.7898 43.9167C22.8997 43.9643 23.0205 43.9812 23.1392 43.9655C24.1659 43.6575 24.8576 42.9551 25.4574 42.0959H26.0464C25.4959 43.1233 24.6073 43.9288 23.531 44.3762C22.8475 44.5761 21.9099 44.6329 21.4155 44.0709C20.605 43.1901 21.2021 41.9095 21.6262 41.0152C21.9885 40.3512 22.4898 39.7733 23.096 39.321C23.7022 38.8687 24.3989 38.5527 25.1386 38.3945C25.4555 38.3458 25.7796 38.4021 26.0615 38.5548C26.3435 38.7075 26.5678 38.9481 26.7002 39.2401H26.7137Z" fill="#E30613"/>
<path d="M40.7947 38.4895C39.7843 40.1673 38.7387 41.8614 37.7525 43.5175C37.6931 43.6688 37.8336 43.7418 37.9038 43.8147C38.2091 43.8147 38.4091 43.577 38.6576 43.4014C38.9629 43.1663 39.1142 42.8016 39.3979 42.5314H40.0436C39.3736 43.3771 38.6928 44.5658 37.4229 44.3767C37.1823 44.3268 36.9588 44.2147 36.7749 44.0517C36.591 43.8886 36.453 43.6803 36.3746 43.4473C35.991 42.4152 37.0014 41.6965 37.3527 40.8644C37.8714 40.0755 38.2794 39.2433 38.8197 38.4787C39.5492 38.4787 40.1274 38.4409 40.7947 38.4787V38.4895Z" fill="#E30613"/>
<path d="M46.6605 39.2309C47.1171 40.0171 46.3309 40.5953 46.0715 41.2383C45.6257 41.9921 45.1556 42.7324 44.745 43.4943C44.7666 43.5781 44.7801 43.6834 44.8503 43.7321C45.1205 43.8942 45.3664 43.5673 45.5663 43.4619C45.8581 43.17 46.1222 42.8516 46.3552 42.5109C46.5768 42.4826 46.801 42.4826 47.0226 42.5109C46.5768 43.1458 46.0715 43.8617 45.4015 44.2481C45.1998 44.3514 44.9766 44.4058 44.75 44.4068C44.5233 44.4078 44.2996 44.3554 44.097 44.2539C43.8944 44.1523 43.7186 44.0044 43.5838 43.8222C43.449 43.64 43.359 43.4287 43.3211 43.2052C43.2652 42.8948 43.3197 42.5746 43.4751 42.3001C44.0614 41.3329 44.6261 40.4089 45.1664 39.466C45.1313 39.42 45.1448 39.3282 45.0611 39.3147C44.5666 39.4443 44.2262 39.774 43.8264 40.1252C43.3671 40.6899 43.1104 41.3329 42.6862 41.9462C42.1702 42.7567 41.7217 43.5916 41.2056 44.4021L39.2441 44.4372C39.5467 43.805 39.9358 43.2619 40.2762 42.6513C40.8544 41.676 41.4515 40.7601 41.9946 39.7496C41.9459 39.6659 41.8054 39.701 41.746 39.7253L41.5947 39.8172L40.6193 41.4383H40.0547L40.079 41.3329C40.5491 40.6277 40.8652 39.8037 41.4515 39.1931C41.6452 39.0458 41.8712 38.9466 42.1108 38.9039C42.3504 38.8611 42.5967 38.876 42.8294 38.9472C43.1438 39.0548 43.4156 39.2603 43.6048 39.5335C44.1911 39.1823 44.7071 38.5825 45.5096 38.5582C45.7505 38.5443 45.99 38.603 46.1971 38.7268C46.4043 38.8506 46.5695 39.0337 46.6713 39.2525L46.6605 39.2309Z" fill="#E30613"/>
<path d="M19.6671 38.8401C19.7373 38.8401 19.8319 38.6996 19.867 38.6159C20.5128 38.6159 21.253 38.6159 21.8258 38.6159C20.8748 40.2613 19.867 41.8391 18.9592 43.5061C18.9835 43.5899 18.9944 43.7304 19.1132 43.7763C19.4645 43.7763 19.7941 43.3629 20.0075 43.1279H20.5614C20.3898 43.4649 20.1498 43.7625 19.8567 44.0017C19.5636 44.2408 19.2239 44.4161 18.8593 44.5166C18.6851 44.5616 18.5025 44.5625 18.3279 44.5191C18.1534 44.4757 17.9924 44.3894 17.8596 44.268C17.6988 44.1177 17.5741 43.933 17.4949 43.7277C17.1301 44.2113 16.5682 44.6895 15.8387 44.6328C15.6127 44.6185 15.3934 44.5502 15.1992 44.4336C15.005 44.317 14.8417 44.1555 14.7228 43.9627C14.1339 42.6956 14.9795 41.4825 15.5793 40.4504C16.3439 39.602 17.1544 38.7105 18.3513 38.4619C18.8209 38.42 19.2887 38.5592 19.659 38.8509L19.6671 38.8401ZM19.0781 39.0644C18.8079 38.959 18.608 39.2859 18.4297 39.4399C17.4291 40.5773 16.595 41.8508 15.9521 43.2224C15.8819 43.4548 15.6333 43.7628 15.8711 44.0086C15.9765 44.114 16.1413 44.0303 16.2466 43.9843C17.3868 42.8901 18.092 41.5527 18.8782 40.237C19.0538 39.9073 19.2997 39.5885 19.2186 39.2022C19.1871 39.1422 19.1381 39.0932 19.0781 39.0617V39.0644Z" fill="#E30613"/>
<path d="M52.5367 38.9942C52.6664 38.8402 52.7691 38.6403 52.9015 38.4539C53.5472 38.4187 54.1929 38.4404 54.8521 38.4539C53.4634 40.8152 51.8802 43.1415 50.4888 45.4569C51.4182 45.5758 52.2422 45.2705 53.0176 44.9165L53.3473 45.3407C52.3962 45.9513 51.1021 46.1269 49.9727 46.0567C47.9626 47.8317 45.4608 49.4312 42.4888 49.2313C41.5486 49.0881 40.4787 48.6909 40.2085 47.6913C40.132 47.4072 40.1285 47.1084 40.1984 46.8226C40.2683 46.5368 40.4093 46.2734 40.6084 46.0567C41.7836 44.9625 43.6965 44.6112 45.3095 45.0327C46.364 45.2397 47.4322 45.3697 48.5057 45.4218C48.7758 45.1516 48.9028 44.776 49.1487 44.4924C49.1163 44.387 49.2676 44.3411 49.2676 44.2222C48.8326 44.3654 48.1869 44.4923 47.7654 44.1897C47.2115 43.8709 47.1521 43.0955 47.225 42.5309C47.4102 41.7355 47.7519 40.985 48.2301 40.323C48.7084 39.6611 49.3136 39.101 50.0106 38.6754C50.286 38.4846 50.6061 38.3681 50.9399 38.3373C51.2736 38.3065 51.6096 38.3625 51.9153 38.4998C52.139 38.6392 52.3449 38.8052 52.5286 38.9942H52.5367ZM51.5127 39.286C50.74 39.6994 50.2078 40.5342 49.7161 41.2259C49.2676 41.8851 48.7867 42.5768 48.7164 43.3873C48.738 43.5035 48.8434 43.5656 48.9163 43.6251C49.327 43.7413 49.6566 43.3981 49.9133 43.1631C50.5158 42.2715 51.1021 41.3664 51.6424 40.4154C51.7586 40.1452 52.018 39.9101 51.9585 39.5589C51.9183 39.4756 51.8548 39.4057 51.7757 39.3577C51.6966 39.3098 51.6052 39.2858 51.5127 39.2887V39.286ZM44.6502 45.3974C43.9986 45.2914 43.3323 45.3191 42.6917 45.4789C42.0512 45.6386 41.4499 45.9272 40.9245 46.3269C40.7538 46.5069 40.6368 46.7311 40.5867 46.974C40.5366 47.217 40.5553 47.4692 40.6408 47.7021C40.8893 48.3829 41.6404 48.5828 42.3591 48.5828C44.6367 48.5585 46.7873 47.7021 48.1977 46.0216V45.9729L46.636 45.7973L44.6502 45.3974Z" fill="#E30613"/>
<path d="M16.056 38.6767L13.3759 42.9563C12.849 43.8479 12.1411 44.7882 11.6737 45.7419C12.5292 45.7883 13.3804 45.5926 14.1297 45.1772C14.2945 45.2475 14.3512 45.4474 14.4701 45.5771C13.5299 46.2228 12.3087 46.3606 11.0848 46.3282C9.35831 47.8925 7.25363 49.2083 4.82203 49.5244C3.50356 49.6541 2.03649 49.3596 1.42589 48.1492C1.29871 47.824 1.27088 47.4684 1.3459 47.1274C1.42093 46.7864 1.59545 46.4754 1.84737 46.2336C2.39482 45.8028 3.02423 45.4879 3.69727 45.3082C4.37031 45.1284 5.0729 45.0875 5.76225 45.188C7.0515 45.4536 8.35954 45.618 9.67442 45.6797C9.95548 45.2897 10.2109 44.8817 10.439 44.4585C9.73386 44.5909 8.65315 44.9178 8.20465 44.1424C7.59405 43.2481 8.53427 42.4862 8.86389 41.7324L10.6984 38.7118C11.2955 38.6659 11.9898 38.7118 12.6707 38.6902C11.6602 40.3248 10.7443 41.981 9.69874 43.6696C9.68607 43.7413 9.69748 43.8152 9.73121 43.8797C9.76493 43.9442 9.81907 43.9957 9.88516 44.0262C11.2361 43.9776 11.4711 42.6267 12.1763 41.7676C12.8004 40.7247 13.4947 39.725 14.1026 38.6902C14.7403 38.6524 15.4076 38.6416 16.0317 38.6416L16.0668 38.6767H16.056ZM7.54812 46.0229C6.3026 45.7527 4.89227 45.3988 3.58731 45.7986C2.9659 46.0688 2.23642 46.2822 1.87168 46.8793C1.77519 47.0701 1.7229 47.2802 1.71869 47.4939C1.71449 47.7077 1.75846 47.9196 1.84737 48.114C2.11755 48.7355 2.88215 48.9246 3.58731 48.8786C5.85681 48.7841 8.01823 47.9844 9.35831 46.2444L7.54812 46.0337V46.0229Z" fill="#E30613"/>
<path d="M32.1101 14.5379C31.0814 15.727 30.3097 17.116 29.8433 18.6175C29.7989 18.8045 29.798 18.9991 29.8407 19.1865C29.8833 19.3738 29.9683 19.5489 30.0892 19.6983C30.363 19.9817 30.729 20.1579 31.1213 20.1954L42.2877 22.2271H42.3337C44.568 19.4848 47.848 17.6071 51.5575 17.4288L51.4522 17.5693C49.4561 19.3614 47.8003 21.4995 46.5646 23.8806C46.8827 25.8593 47.9558 27.6375 49.5582 28.8411C48.1421 28.905 46.7312 28.6288 45.4437 28.0356C44.1563 27.4424 43.0296 26.5494 42.158 25.4314L37.5974 26.1609L37.538 26.196L37.9865 26.6634C36.9382 27.3011 35.8116 27.8414 34.7444 28.4277L32.8963 27.4172C30.5786 27.7583 28.2339 27.8804 25.8933 27.782C25.7578 27.7945 25.6277 27.8408 25.5148 27.9169C25.402 27.9929 25.3101 28.0961 25.2476 28.217C24.637 30.0164 25.1666 32.0346 26.1986 33.4935C23.6265 33.1423 21.7812 30.9782 21.0653 28.6303C21.0653 28.5817 21.0653 28.525 21.0058 28.5142C18.939 29.2409 16.7775 30.3919 15.4266 32.0724C15.4588 30.6404 15.8953 29.2467 16.6857 28.0522C16.8613 27.736 17.1558 27.4659 17.3422 27.1822C15.9948 26.8886 14.6709 26.4957 13.3814 26.0069C13.6145 25.7322 13.8664 25.4741 14.1352 25.2342C13.7696 25.3014 13.4086 25.3916 13.0545 25.5044C11.82 24.8897 10.7149 24.0441 9.79883 23.0133C12.9113 21.2518 16.5209 20.5574 20.0926 19.8523C21.6786 19.5821 23.3347 19.4065 24.9828 19.2308C26.8741 17.0208 29.0112 14.8567 32.0075 14.4946H32.1128V14.5406L32.1101 14.5379ZM29.9028 16.0995C27.9953 17.0532 26.7498 18.5095 25.4097 20.1522C24.4479 20.2224 23.4617 20.317 22.5323 20.4223C18.6282 21.014 14.7755 21.7057 11.2605 23.2106C11.8364 23.7228 12.4713 24.1645 13.1517 24.5263C14.8322 24.0346 16.7613 23.7617 18.5823 24.0805C17.3017 24.3291 16.0318 24.7749 15.07 25.6314C16.8626 26.1992 18.7165 26.5511 20.5924 26.6797C20.5924 26.4095 20.5006 26.1393 20.5114 25.8691C20.8224 25.8127 21.1382 25.7864 21.4543 25.7908C21.5921 28.1602 22.4297 30.4757 24.4047 31.759C24.1561 30.4757 24.0372 28.9492 24.5424 27.7388C24.6724 27.5258 24.8447 27.3418 25.0488 27.1981C25.2528 27.0545 25.4842 26.9544 25.7285 26.9039C28.1979 26.9525 30.6755 26.9039 33.0395 26.4473L34.7687 27.3848L36.46 26.4581L35.6495 25.6827C35.6251 25.6584 35.5765 25.6016 35.6495 25.5773L41.9824 24.5615L42.5579 24.4912C43.6386 26.0663 45.2597 27.3254 47.1888 27.6901C46.3381 26.5942 45.8045 25.2859 45.646 23.9076C46.4281 21.9979 47.5566 20.2492 48.9746 18.7499C47.2442 19.2754 45.6504 20.1747 44.306 21.3842C43.7232 21.9469 43.1738 22.5432 42.6606 23.17L30.662 21.0086L30.1216 20.8195C29.7278 20.6179 29.404 20.3023 29.1924 19.9138C28.9808 19.5253 28.8913 19.082 28.9355 18.6419C29.1559 17.7579 29.4835 16.9041 29.9109 16.0995H29.9028ZM18.4661 27.3929C17.8203 27.971 17.2999 28.6754 16.9369 29.4625C17.5089 29.0752 18.1106 28.7337 18.7363 28.4412C19.3712 28.1116 20.1358 27.9009 20.7572 27.6307C19.9926 27.5739 19.2172 27.5037 18.4661 27.3848V27.3929Z" fill="#020F31"/>
<path d="M14.3618 23.025C14.4012 23.0924 14.4174 23.171 14.4078 23.2485C14.3982 23.3261 14.3635 23.3983 14.3088 23.4542C14.2542 23.51 14.1827 23.5464 14.1054 23.5577C14.0281 23.569 13.9493 23.5546 13.8809 23.5167C13.8111 23.4661 13.7597 23.3942 13.7344 23.3119C13.709 23.2295 13.7112 23.1411 13.7404 23.0601C13.7756 22.9277 13.9161 22.8818 14.0106 22.8467C14.0783 22.8418 14.1461 22.8558 14.2062 22.8873C14.2664 22.9188 14.3165 22.9665 14.351 23.025H14.3618Z" fill="#020F31"/>
</svg>
