<svg width="50" height="14" viewBox="0 0 50 14" fill="none" xmlns="http://www.w3.org/2000/svg">
<g opacity="0.3">
<path d="M27.6315 1.47929L24.4988 8.26661H24.1804V0H19.7251V13.9975H23.5051C23.991 13.9977 24.4667 13.8586 24.876 13.5967C25.2853 13.3348 25.611 12.9612 25.8145 12.52L28.9472 5.73268H29.2656V13.9975H33.7192V0H29.9426C29.4564 0.000339553 28.9804 0.139805 28.5709 0.401928C28.1614 0.664051 27.8354 1.03789 27.6315 1.47929Z" fill="#20AA4D"/>
<path d="M10.9224 1.83954L9.06717 8.2788H8.74869L6.89348 1.83954C6.74075 1.31077 6.42078 0.845728 5.98153 0.514093C5.54228 0.182457 5.00739 0.00208401 4.45701 0H0V13.9993H4.45353V5.72746H4.77201L7.31639 13.9993H10.4995L13.0438 5.72746H13.3606V13.9993H17.8159V0H13.3675C12.8157 0.000202409 12.2788 0.179709 11.8378 0.511485C11.3968 0.843261 11.0755 1.30934 10.9224 1.83954Z" fill="#20AA4D"/>
<path d="M35.6318 6.36334V14H40.0767V9.54294H44.8574C45.8438 9.54228 46.8058 9.23583 47.6109 8.66578C48.4159 8.09572 49.0245 7.29011 49.3527 6.35986L35.6318 6.36334Z" fill="#20AA4D"/>
<path d="M44.8569 0H34.9944C35.2916 1.60819 36.1426 3.06154 37.3996 4.10776C38.6566 5.15399 40.2403 5.72705 41.8757 5.72746H49.5332C49.6742 5.03407 49.6594 4.318 49.4899 3.63104C49.3203 2.94407 49.0002 2.30337 48.5527 1.75526C48.1052 1.20716 47.5414 0.765356 46.9023 0.461793C46.2631 0.15823 45.5645 0.000496807 44.8569 0Z" fill="url(#paint0_linear)"/>
<g style="mix-blend-mode:color">
<path d="M27.6315 1.47929L24.4988 8.26661H24.1804V0H19.7251V13.9975H23.5051C23.991 13.9977 24.4667 13.8586 24.876 13.5967C25.2853 13.3348 25.611 12.9612 25.8145 12.52L28.9472 5.73268H29.2656V13.9975H33.7192V0H29.9426C29.4564 0.000339553 28.9804 0.139805 28.5709 0.401928C28.1614 0.664051 27.8354 1.03789 27.6315 1.47929Z" fill="#A8A8A8"/>
<path d="M10.9224 1.83954L9.06717 8.2788H8.74869L6.89348 1.83954C6.74075 1.31077 6.42078 0.845728 5.98153 0.514093C5.54228 0.182457 5.00739 0.00208401 4.45701 0H0V13.9993H4.45353V5.72746H4.77201L7.31639 13.9993H10.4995L13.0438 5.72746H13.3606V13.9993H17.8159V0H13.3675C12.8157 0.000202409 12.2788 0.179709 11.8378 0.511485C11.3968 0.843261 11.0755 1.30934 10.9224 1.83954Z" fill="#A8A8A8"/>
<path d="M35.6318 6.36334V14H40.0767V9.54294H44.8574C45.8438 9.54228 46.8058 9.23583 47.6109 8.66578C48.4159 8.09572 49.0245 7.29011 49.3527 6.35986L35.6318 6.36334Z" fill="#A8A8A8"/>
<path d="M44.8569 0H34.9944C35.2916 1.60819 36.1426 3.06154 37.3996 4.10776C38.6566 5.15399 40.2403 5.72705 41.8757 5.72746H49.5332C49.6742 5.03407 49.6594 4.318 49.4899 3.63104C49.3203 2.94407 49.0002 2.30337 48.5527 1.75526C48.1052 1.20716 47.5414 0.765356 46.9023 0.461793C46.2631 0.15823 45.5645 0.000496807 44.8569 0Z" fill="#A8A8A8"/>
</g>
</g>
<defs>
<linearGradient id="paint0_linear" x1="34.9944" y1="2.8646" x2="49.6289" y2="2.8646" gradientUnits="userSpaceOnUse">
<stop offset="0.01" stop-color="#00A7E3"/>
<stop offset="0.34" stop-color="#009EDC"/>
<stop offset="0.87" stop-color="#0085C9"/>
<stop offset="1" stop-color="#007EC4"/>
</linearGradient>
</defs>
</svg>
