<svg width="16" height="16" viewBox="0 0 16 16" fill="none" xmlns="http://www.w3.org/2000/svg">
<g opacity="0.5">
<path d="M14.1431 3.07568C14.5165 3.55724 14.8276 4.08539 15.0921 4.64462L7.90393 9.9417L4.8855 8.04656V5.7786L7.88837 7.65821L14.1431 3.07568Z" fill="#21A038"/>
<path d="M1.82039 7.89119C1.82039 7.78245 1.82039 7.68925 1.83595 7.58051L0.0155589 7.4873C0.0155589 7.61158 0 7.75138 0 7.87565C0 10.0504 0.886858 12.0232 2.31828 13.4524L3.60967 12.163C2.50498 11.0757 1.82039 9.56886 1.82039 7.89119Z" fill="url(#paint0_linear)"/>
<path d="M7.88845 1.8331C7.99736 1.8331 8.09072 1.8331 8.19963 1.84863L8.29298 0.031159C8.16851 0.031159 8.02848 0.015625 7.90401 0.015625C5.72576 0.015625 3.74978 0.901062 2.31836 2.33019L3.60975 3.61951C4.69887 2.5166 6.22365 1.8331 7.88845 1.8331Z" fill="url(#paint1_linear)"/>
<path d="M7.88842 13.9495C7.77951 13.9495 7.68615 13.9495 7.57724 13.934L7.48389 15.7514C7.60836 15.7514 7.74839 15.767 7.87286 15.767C10.0511 15.767 12.0271 14.8815 13.4585 13.4524L12.1671 12.1631C11.078 13.2815 9.56878 13.9495 7.88842 13.9495Z" fill="url(#paint2_linear)"/>
<path d="M11.3114 2.88932L12.8517 1.75534C11.4981 0.667961 9.77106 0 7.88843 0V1.81748C9.16426 1.83301 10.3467 2.22136 11.3114 2.88932Z" fill="url(#paint3_linear)"/>
<path d="M15.7923 7.89113C15.7923 7.40958 15.7457 6.94356 15.6679 6.47754L13.9719 7.73579C13.9719 7.78239 13.9719 7.84453 13.9719 7.89113C13.9719 9.67754 13.194 11.2775 11.9648 12.3805L13.194 13.7319C14.781 12.3028 15.7923 10.2057 15.7923 7.89113Z" fill="#21A038"/>
<path d="M7.88848 13.9497C6.09921 13.9497 4.49664 13.173 3.39196 11.9458L2.03833 13.173C3.48531 14.773 5.5702 15.7672 7.88848 15.7672V13.9497Z" fill="url(#paint4_linear)"/>
<path d="M3.82749 3.40175L2.59834 2.05029C0.99577 3.49495 0 5.57651 0 7.89107H1.82039C1.82039 6.1202 2.59834 4.50466 3.82749 3.40175Z" fill="url(#paint5_linear)"/>
<g style="mix-blend-mode:color">
<path d="M14.1431 3.07568C14.5165 3.55724 14.8276 4.08539 15.0921 4.64462L7.90393 9.9417L4.8855 8.04656V5.7786L7.88837 7.65821L14.1431 3.07568Z" fill="#A8A8A8"/>
<path d="M1.82039 7.89119C1.82039 7.78245 1.82039 7.68925 1.83595 7.58051L0.0155589 7.4873C0.0155589 7.61158 0 7.75138 0 7.87565C0 10.0504 0.886858 12.0232 2.31828 13.4524L3.60967 12.163C2.50498 11.0757 1.82039 9.56886 1.82039 7.89119Z" fill="#A8A8A8"/>
<path d="M7.88845 1.8331C7.99736 1.8331 8.09072 1.8331 8.19963 1.84863L8.29298 0.031159C8.16851 0.031159 8.02848 0.015625 7.90401 0.015625C5.72576 0.015625 3.74978 0.901062 2.31836 2.33019L3.60975 3.61951C4.69887 2.5166 6.22365 1.8331 7.88845 1.8331Z" fill="#A8A8A8"/>
<path d="M7.88842 13.9495C7.77951 13.9495 7.68615 13.9495 7.57724 13.934L7.48389 15.7514C7.60836 15.7514 7.74839 15.767 7.87286 15.767C10.0511 15.767 12.0271 14.8815 13.4585 13.4524L12.1671 12.1631C11.078 13.2815 9.56878 13.9495 7.88842 13.9495Z" fill="#A8A8A8"/>
<path d="M11.3114 2.88932L12.8517 1.75534C11.4981 0.667961 9.77106 0 7.88843 0V1.81748C9.16426 1.83301 10.3467 2.22136 11.3114 2.88932Z" fill="#A8A8A8"/>
<path d="M15.7923 7.89113C15.7923 7.40958 15.7457 6.94356 15.6679 6.47754L13.9719 7.73579C13.9719 7.78239 13.9719 7.84453 13.9719 7.89113C13.9719 9.67754 13.194 11.2775 11.9648 12.3805L13.194 13.7319C14.781 12.3028 15.7923 10.2057 15.7923 7.89113Z" fill="#A8A8A8"/>
<path d="M7.88848 13.9497C6.09921 13.9497 4.49664 13.173 3.39196 11.9458L2.03833 13.173C3.48531 14.773 5.5702 15.7672 7.88848 15.7672V13.9497Z" fill="#A8A8A8"/>
<path d="M3.82749 3.40175L2.59834 2.05029C0.99577 3.49495 0 5.57651 0 7.89107H1.82039C1.82039 6.1202 2.59834 4.50466 3.82749 3.40175Z" fill="#A8A8A8"/>
</g>
</g>
<defs>
<linearGradient id="paint0_linear" x1="2.12997" y1="13.2312" x2="0.272074" y2="7.86942" gradientUnits="userSpaceOnUse">
<stop offset="0.1444" stop-color="#F2E913"/>
<stop offset="0.3037" stop-color="#E7E518"/>
<stop offset="0.5823" stop-color="#CADB26"/>
<stop offset="0.891" stop-color="#A3CD39"/>
</linearGradient>
<linearGradient id="paint1_linear" x1="2.83726" y1="2.11947" x2="7.55826" y2="0.323267" gradientUnits="userSpaceOnUse">
<stop offset="0.0592" stop-color="#0FA8E0"/>
<stop offset="0.5385" stop-color="#0099F9"/>
<stop offset="0.9234" stop-color="#0291EB"/>
</linearGradient>
<linearGradient id="paint2_linear" x1="7.377" y1="14.2166" x2="13.0037" y2="12.947" gradientUnits="userSpaceOnUse">
<stop offset="0.1226" stop-color="#A3CD39"/>
<stop offset="0.2846" stop-color="#86C339"/>
<stop offset="0.8693" stop-color="#21A038"/>
</linearGradient>
<linearGradient id="paint3_linear" x1="7.51441" y1="1.16286" x2="12.1937" y2="2.60431" gradientUnits="userSpaceOnUse">
<stop offset="0.0566" stop-color="#0291EB"/>
<stop offset="0.79" stop-color="#0C8ACB"/>
</linearGradient>
<linearGradient id="paint4_linear" x1="2.50119" y1="13.4682" x2="7.52584" y2="15.3426" gradientUnits="userSpaceOnUse">
<stop offset="0.1324" stop-color="#F2E913"/>
<stop offset="0.2977" stop-color="#EBE716"/>
<stop offset="0.5306" stop-color="#D9E01F"/>
<stop offset="0.8023" stop-color="#BBD62D"/>
<stop offset="0.9829" stop-color="#A3CD39"/>
</linearGradient>
<linearGradient id="paint5_linear" x1="1.38515" y1="8.1106" x2="3.3942" y2="2.89269" gradientUnits="userSpaceOnUse">
<stop offset="0.0698" stop-color="#A3CD39"/>
<stop offset="0.2599" stop-color="#81C55F"/>
<stop offset="0.9216" stop-color="#0FA8E0"/>
</linearGradient>
</defs>
</svg>
