<svg width="182" height="144" viewBox="0 0 182 144" fill="none" xmlns="http://www.w3.org/2000/svg">
<path d="M98.8328 1.50062C99.0146 1.50768 99.196 1.47793 99.3659 1.41317C99.5359 1.34841 99.6911 1.24997 99.8221 1.12376L99.9634 0.511358C100.309 0.511358 100.921 0.440696 100.992 0.848965C100.811 3.20436 100.505 5.42628 100.372 7.75027L99.3432 7.71102C99.5142 6.87478 99.5089 6.01208 99.3278 5.17799C99.1466 4.34389 98.7936 3.55673 98.2911 2.86675C97.2704 1.73616 95.9357 0.848965 94.2948 1.23368C93.9459 1.36339 93.6268 1.56244 93.357 1.81882C93.0871 2.07521 92.8719 2.38362 92.7245 2.72543C92.6142 3.2115 92.6156 3.71625 92.7285 4.20173C92.8413 4.6872 93.0628 5.14078 93.3762 5.52835C95.4568 7.44407 98.7308 7.02795 100.544 9.45401C101.2 10.2507 101.612 11.2187 101.733 12.2431C101.855 13.2675 101.679 14.3051 101.227 15.2326C100.615 16.5909 99.351 17.3524 98.087 18.0355C96.7596 18.6416 95.3055 18.9181 93.8483 18.8416C92.3911 18.765 90.974 18.3377 89.7175 17.5958C89.4174 17.4932 89.0977 17.461 88.7831 17.5019C88.4686 17.5427 88.1677 17.6555 87.9038 17.8314C87.841 17.9648 87.6683 18.0669 87.7389 18.271C87.4024 18.3418 87.0548 18.3418 86.7183 18.271C86.8596 15.7115 87.1972 13.2148 87.3307 10.6553C87.6391 10.5375 87.9801 10.5375 88.2885 10.6553C88.5947 13.5288 89.8588 16.9756 92.8658 17.7214C93.4489 17.8915 94.0678 17.8957 94.6531 17.7334C95.2384 17.5711 95.7669 17.2489 96.1791 16.8028C96.4662 16.4438 96.6573 16.0175 96.7342 15.5643C96.8111 15.111 96.7714 14.6456 96.6188 14.2119C95.5588 12.1941 93.0307 11.9193 91.1229 11.0714C90.1138 10.5989 89.2636 9.84364 88.6755 8.89732C88.0873 7.95099 87.7865 6.85429 87.8096 5.74034C87.9038 3.11014 90.1257 1.02955 92.3869 0.28367C93.4817 -0.0309262 94.635 -0.0847148 95.7544 0.126614C96.8738 0.337943 97.9281 0.808514 98.8328 1.50062Z" fill="white"/>
<path d="M98.8328 1.50062C99.0146 1.50768 99.196 1.47793 99.3659 1.41317C99.5359 1.34841 99.6911 1.24997 99.8221 1.12376L99.9634 0.511358C100.309 0.511358 100.921 0.440696 100.992 0.848965C100.811 3.20436 100.505 5.42628 100.372 7.75027L99.3432 7.71102C99.5142 6.87478 99.5089 6.01208 99.3278 5.17799C99.1466 4.34389 98.7936 3.55673 98.2911 2.86675C97.2704 1.73616 95.9357 0.848965 94.2948 1.23368C93.9459 1.36339 93.6268 1.56244 93.357 1.81882C93.0871 2.07521 92.8719 2.38362 92.7245 2.72543C92.6142 3.2115 92.6156 3.71625 92.7285 4.20173C92.8413 4.6872 93.0628 5.14078 93.3762 5.52835C95.4568 7.44407 98.7308 7.02795 100.544 9.45401C101.2 10.2507 101.612 11.2187 101.733 12.2431C101.855 13.2675 101.679 14.3051 101.227 15.2326C100.615 16.5909 99.351 17.3524 98.087 18.0355C96.7596 18.6416 95.3055 18.9181 93.8483 18.8416C92.3911 18.765 90.974 18.3377 89.7175 17.5958C89.4174 17.4932 89.0977 17.461 88.7831 17.5019C88.4686 17.5427 88.1677 17.6555 87.9038 17.8314C87.841 17.9648 87.6683 18.0669 87.7389 18.271C87.4024 18.3418 87.0548 18.3418 86.7183 18.271C86.8596 15.7115 87.1972 13.2148 87.3307 10.6553C87.6391 10.5375 87.9801 10.5375 88.2885 10.6553C88.5947 13.5288 89.8588 16.9756 92.8658 17.7214C93.4489 17.8915 94.0678 17.8957 94.6531 17.7334C95.2384 17.5711 95.7669 17.2489 96.1791 16.8028C96.4662 16.4438 96.6573 16.0175 96.7342 15.5643C96.8111 15.111 96.7714 14.6456 96.6188 14.2119C95.5588 12.1941 93.0307 11.9193 91.1229 11.0714C90.1138 10.5989 89.2636 9.84364 88.6755 8.89732C88.0873 7.95099 87.7865 6.85429 87.8096 5.74034C87.9038 3.11014 90.1257 1.02955 92.3869 0.28367C93.4817 -0.0309262 94.635 -0.0847148 95.7544 0.126614C96.8738 0.337943 97.9281 0.808514 98.8328 1.50062Z" fill="white"/>
<path d="M115.226 2.59877C115.199 3.03227 115.095 3.45753 114.92 3.85498C114.585 3.75696 114.23 3.74589 113.889 3.82281C113.549 3.89973 113.233 4.06211 112.973 4.29466C112.329 4.94632 112.462 5.97484 112.117 6.79137L110.955 11.5728C112.462 12.3972 114.37 12.2559 116.05 12.8683L116.357 12.1852C116.765 10.0732 117.377 8.02403 117.786 5.90418C117.732 5.52236 117.569 5.16439 117.315 4.87427C117.061 4.58414 116.728 4.3745 116.357 4.2711C116.255 4.20044 116.082 4.2711 116.011 4.10622L116.388 2.87357C119.427 3.6587 122.434 4.44383 125.37 5.40169C125.421 5.57581 125.422 5.7607 125.374 5.93549C125.325 6.11029 125.229 6.26804 125.095 6.39096C124.769 6.32964 124.433 6.34374 124.113 6.4322C123.794 6.52066 123.498 6.68111 123.25 6.90129L122.842 7.68642C121.821 11.9889 120.691 16.3229 119.803 20.6646C119.793 21.0439 119.903 21.4168 120.117 21.7299C120.331 22.043 120.639 22.2802 120.997 22.4076C121.13 22.4076 121.303 22.4783 121.342 22.6196C121.307 23.0404 121.178 23.4481 120.965 23.813C118.021 22.8552 115.093 21.8659 112.086 21.1122L112.36 20.1543C112.755 20.266 113.173 20.2569 113.562 20.1281C113.952 19.9993 114.293 19.7569 114.543 19.432C115.022 17.6262 115.399 15.7811 115.878 13.9753C114.237 13.4257 112.533 13.1509 110.853 12.7427L110.719 12.8133L109.526 17.901C109.538 18.3857 109.706 18.8537 110.005 19.2357C110.346 19.5041 110.724 19.7211 111.128 19.8795L110.924 20.908C107.956 20.2564 104.949 19.7146 101.871 19.2671C101.808 18.7882 102.044 18.482 102.075 18.0031C102.451 18.0794 102.842 18.046 103.199 17.9068C103.557 17.7676 103.867 17.5285 104.093 17.2179C105.255 12.7113 106.448 8.23602 107.335 3.62729C107.343 3.16266 107.171 2.713 106.857 2.37108C106.558 1.91571 105.388 2.05703 105.836 1.24049C105.899 1.10702 105.836 0.863631 106.04 0.792969C109.181 1.2719 112.219 1.79009 115.226 2.53596V2.59877Z" fill="white"/>
<path d="M115.226 2.59877C115.199 3.03227 115.095 3.45753 114.92 3.85498C114.585 3.75696 114.23 3.74589 113.889 3.82281C113.549 3.89973 113.233 4.06211 112.973 4.29466C112.329 4.94632 112.462 5.97484 112.117 6.79137L110.955 11.5728C112.462 12.3972 114.37 12.2559 116.05 12.8683L116.357 12.1852C116.765 10.0732 117.377 8.02403 117.786 5.90418C117.732 5.52236 117.569 5.16439 117.315 4.87427C117.061 4.58414 116.728 4.3745 116.357 4.2711C116.255 4.20044 116.082 4.2711 116.011 4.10622L116.388 2.87357C119.427 3.6587 122.434 4.44383 125.37 5.40169C125.421 5.57581 125.422 5.7607 125.374 5.93549C125.325 6.11029 125.229 6.26804 125.095 6.39096C124.769 6.32964 124.433 6.34374 124.113 6.4322C123.794 6.52066 123.498 6.68111 123.25 6.90129L122.842 7.68642C121.821 11.9889 120.691 16.3229 119.803 20.6646C119.793 21.0439 119.903 21.4168 120.117 21.7299C120.331 22.043 120.639 22.2802 120.997 22.4076C121.13 22.4076 121.303 22.4783 121.342 22.6196C121.307 23.0404 121.178 23.4481 120.965 23.813C118.021 22.8552 115.093 21.8659 112.086 21.1122L112.36 20.1543C112.755 20.266 113.173 20.2569 113.562 20.1281C113.952 19.9993 114.293 19.7569 114.543 19.432C115.022 17.6262 115.399 15.7811 115.878 13.9753C114.237 13.4257 112.533 13.1509 110.853 12.7427L110.719 12.8133L109.526 17.901C109.538 18.3857 109.706 18.8537 110.005 19.2357C110.346 19.5041 110.724 19.7211 111.128 19.8795L110.924 20.908C107.956 20.2564 104.949 19.7146 101.871 19.2671C101.808 18.7882 102.044 18.482 102.075 18.0031C102.451 18.0794 102.842 18.046 103.199 17.9068C103.557 17.7676 103.867 17.5285 104.093 17.2179C105.255 12.7113 106.448 8.23602 107.335 3.62729C107.343 3.16266 107.171 2.713 106.857 2.37108C106.558 1.91571 105.388 2.05703 105.836 1.24049C105.899 1.10702 105.836 0.863631 106.04 0.792969C109.181 1.2719 112.219 1.79009 115.226 2.53596V2.59877Z" fill="white"/>
<path d="M46.2052 10.9221C45.959 11.0593 45.7514 11.2564 45.6018 11.4953C45.4522 11.7341 45.3653 12.0069 45.3494 12.2882L45.3886 12.7358C47.4378 16.9048 49.4164 21.1367 51.4263 25.2979C51.5797 25.4835 51.775 25.6301 51.9961 25.7257C52.2172 25.8212 52.4578 25.8629 52.6982 25.8475C53.4833 25.7768 53.9937 24.8896 54.4726 24.2772C55.0145 23.3513 55.3522 22.3204 55.4633 21.2534C55.5743 20.1864 55.456 19.108 55.1164 18.0904L55.9722 17.6742C57.0714 19.8334 58.1313 22.0553 59.1127 24.2379C54.6166 26.1821 50.2478 28.4085 46.0324 30.9037C45.789 30.4954 45.3101 29.9459 45.4828 29.4983C45.7534 29.3815 45.9933 29.2038 46.1839 28.9791C46.3745 28.7544 46.5108 28.4888 46.582 28.2029C46.6448 26.9309 45.7262 26.0202 45.3494 24.9838C43.8419 21.6392 42.1696 18.3652 40.4973 15.154C40.1752 14.9079 39.7913 14.7557 39.3881 14.7141C38.9849 14.6725 38.578 14.7432 38.2125 14.9184L37.6943 14.0626C40.3387 12.4648 43.0642 11.0051 45.8597 9.68945C46.0324 10.0349 46.7862 10.6081 46.1659 10.8829L46.2052 10.9221Z" fill="white"/>
<path d="M46.2052 10.9221C45.959 11.0593 45.7514 11.2564 45.6018 11.4953C45.4522 11.7341 45.3653 12.0069 45.3494 12.2882L45.3886 12.7358C47.4378 16.9048 49.4164 21.1367 51.4263 25.2979C51.5797 25.4835 51.775 25.6301 51.9961 25.7257C52.2172 25.8212 52.4578 25.8629 52.6982 25.8475C53.4833 25.7768 53.9937 24.8896 54.4726 24.2772C55.0145 23.3513 55.3522 22.3204 55.4633 21.2534C55.5743 20.1864 55.456 19.108 55.1164 18.0904L55.9722 17.6742C57.0714 19.8334 58.1313 22.0553 59.1127 24.2379C54.6166 26.1821 50.2478 28.4085 46.0324 30.9037C45.789 30.4954 45.3101 29.9459 45.4828 29.4983C45.7534 29.3815 45.9933 29.2038 46.1839 28.9791C46.3745 28.7544 46.5108 28.4888 46.582 28.2029C46.6448 26.9309 45.7262 26.0202 45.3494 24.9838C43.8419 21.6392 42.1696 18.3652 40.4973 15.154C40.1752 14.9079 39.7913 14.7557 39.3881 14.7141C38.9849 14.6725 38.578 14.7432 38.2125 14.9184L37.6943 14.0626C40.3387 12.4648 43.0642 11.0051 45.8597 9.68945C46.0324 10.0349 46.7862 10.6081 46.1659 10.8829L46.2052 10.9221Z" fill="white"/>
<path d="M73.1512 3.14997C73.4349 3.55362 73.6043 4.02638 73.6416 4.51834C73.6789 5.01031 73.5827 5.50322 73.3631 5.94504C72.6663 7.09131 71.7887 8.11737 70.7644 8.9835C71.5758 10.0428 72.5543 10.963 73.6615 11.7079C74.0776 9.5645 74.69 7.13059 76.802 6.03925C77.2805 5.85087 77.7975 5.78104 78.3088 5.83573C78.8201 5.89041 79.3106 6.06799 79.7384 6.35331C80.1904 6.72587 80.5291 7.21739 80.7164 7.77235C80.9037 8.32731 80.9321 8.9236 80.7983 9.49383C80.6637 9.89629 80.4489 10.2673 80.1668 10.5844C79.8848 10.9015 79.5414 11.1582 79.1574 11.3389C78.6475 11.5372 78.0921 11.5878 77.5547 11.4851C77.0173 11.3823 76.5197 11.1303 76.119 10.7579C75.7107 10.5145 75.7107 9.97276 75.3338 9.69797C74.9894 10.5825 74.7394 11.501 74.588 12.4381C75.9227 13.5294 77.5165 14.5501 79.4715 14.4873C79.9342 14.3835 80.3624 14.162 80.7145 13.8443C81.0666 13.5265 81.3308 13.1233 81.4814 12.6736C81.7493 13.4232 81.837 14.2253 81.7374 15.015C81.6379 15.8047 81.3538 16.5599 80.9083 17.2195C79.8483 18.4443 78.4822 19.5749 76.6293 19.1667C75.2972 18.9129 74.0244 18.4123 72.8764 17.6906C72.4137 18.7558 71.6583 19.668 70.698 20.3212C69.7377 20.9743 68.6118 21.3417 67.4511 21.3807C66.4314 21.3746 65.437 21.0622 64.597 20.484C63.757 19.9058 63.1101 19.0885 62.7403 18.1381C62.4579 17.3645 62.3605 16.5355 62.456 15.7175C62.5514 14.8995 62.837 14.1152 63.2899 13.4273C63.9023 12.3674 64.9308 11.9591 65.8259 11.0719C65.1664 9.97276 64.1457 8.92069 64.1457 7.4839C64.0463 6.49292 64.2277 5.49396 64.6692 4.60121C65.1107 3.70847 65.7945 2.95797 66.6424 2.4355C68.5189 1.30491 71.7301 1.2735 73.159 3.14997H73.1512ZM67.5218 3.65245C67.4679 3.91483 67.4897 4.18711 67.5846 4.43758C68.2531 5.72447 69.07 6.92868 70.0185 8.02564C70.2933 7.91572 70.3639 7.64877 70.6387 7.57026C71.2668 6.11777 69.5631 5.05784 69.092 3.85659C68.7152 3.44832 67.9771 3.07146 67.5218 3.6446V3.65245ZM65.716 12.6422C65.4333 14.2125 66.8387 15.3431 67.7573 16.2931C68.6445 17.0782 69.7751 18.2088 71.1334 18.2088C71.5366 17.9387 71.8183 17.5217 71.9185 17.0468C69.9134 15.6327 68.1072 13.9558 66.5482 12.0612C66.2106 12.0612 65.9044 12.4067 65.7081 12.6422H65.716Z" fill="white"/>
<path d="M73.1512 3.14997C73.4349 3.55362 73.6043 4.02638 73.6416 4.51834C73.6789 5.01031 73.5827 5.50322 73.3631 5.94504C72.6663 7.09131 71.7887 8.11737 70.7644 8.9835C71.5758 10.0428 72.5543 10.963 73.6615 11.7079C74.0776 9.5645 74.69 7.13059 76.802 6.03925C77.2805 5.85087 77.7975 5.78104 78.3088 5.83573C78.8201 5.89041 79.3106 6.06799 79.7384 6.35331C80.1904 6.72587 80.5291 7.21739 80.7164 7.77235C80.9037 8.32731 80.9321 8.9236 80.7983 9.49383C80.6637 9.89629 80.4489 10.2673 80.1668 10.5844C79.8848 10.9015 79.5414 11.1582 79.1574 11.3389C78.6475 11.5372 78.0921 11.5878 77.5547 11.4851C77.0173 11.3823 76.5197 11.1303 76.119 10.7579C75.7107 10.5145 75.7107 9.97276 75.3338 9.69797C74.9894 10.5825 74.7394 11.501 74.588 12.4381C75.9227 13.5294 77.5165 14.5501 79.4715 14.4873C79.9342 14.3835 80.3624 14.162 80.7145 13.8443C81.0666 13.5265 81.3308 13.1233 81.4814 12.6736C81.7493 13.4232 81.837 14.2253 81.7374 15.015C81.6379 15.8047 81.3538 16.5599 80.9083 17.2195C79.8483 18.4443 78.4822 19.5749 76.6293 19.1667C75.2972 18.9129 74.0244 18.4123 72.8764 17.6906C72.4137 18.7558 71.6583 19.668 70.698 20.3212C69.7377 20.9743 68.6118 21.3417 67.4511 21.3807C66.4314 21.3746 65.437 21.0622 64.597 20.484C63.757 19.9058 63.1101 19.0885 62.7403 18.1381C62.4579 17.3645 62.3605 16.5355 62.456 15.7175C62.5514 14.8995 62.837 14.1152 63.2899 13.4273C63.9023 12.3674 64.9308 11.9591 65.8259 11.0719C65.1664 9.97276 64.1457 8.92069 64.1457 7.4839C64.0463 6.49292 64.2277 5.49396 64.6692 4.60121C65.1107 3.70847 65.7945 2.95797 66.6424 2.4355C68.5189 1.30491 71.7301 1.2735 73.159 3.14997H73.1512ZM67.5218 3.65245C67.4679 3.91483 67.4897 4.18711 67.5846 4.43758C68.2531 5.72447 69.07 6.92868 70.0185 8.02564C70.2933 7.91572 70.3639 7.64877 70.6387 7.57026C71.2668 6.11777 69.5631 5.05784 69.092 3.85659C68.7152 3.44832 67.9771 3.07146 67.5218 3.6446V3.65245ZM65.716 12.6422C65.4333 14.2125 66.8387 15.3431 67.7573 16.2931C68.6445 17.0782 69.7751 18.2088 71.1334 18.2088C71.5366 17.9387 71.8183 17.5217 71.9185 17.0468C69.9134 15.6327 68.1072 13.9558 66.5482 12.0612C66.2106 12.0612 65.9044 12.4067 65.7081 12.6422H65.716Z" fill="white"/>
<path d="M142.03 12.5669C141.08 18.479 139.91 24.2811 139.031 30.1853C139.121 30.5388 139.282 30.8702 139.505 31.1592C139.728 31.4481 140.007 31.6885 140.326 31.8655C140.202 32.266 140.017 32.6448 139.776 32.9882C137.115 31.3159 134.39 29.8477 131.682 28.2774C131.682 28.0026 131.925 27.665 132.098 27.3824C132.64 27.6258 133.331 28.0026 133.904 27.6258L134.108 27.3117L134.893 22.6009C133.598 21.7765 132.231 21.1563 130.897 20.4418H130.693C129.735 21.8786 126.932 23.0092 128.337 25.1919C128.677 25.4851 129.042 25.7478 129.428 25.977C129.122 26.2047 129.256 27.1625 128.643 26.7621L123.454 24.5088C123.557 24.1019 123.716 23.711 123.925 23.3468C126.665 24.6423 127.615 21.3997 129.326 20.2063C132.365 17.0657 135.505 13.8467 138.552 10.6826C139.79 11.1546 140.968 11.7712 142.061 12.5198L142.03 12.5669ZM136.024 15.0244L131.65 19.4996V19.6724C132.742 20.222 133.872 20.8658 134.971 21.3447C135.309 19.1934 135.851 17.2463 136.024 15.0637V15.0244Z" fill="white"/>
<path d="M142.03 12.5669C141.08 18.479 139.91 24.2811 139.031 30.1853C139.121 30.5388 139.282 30.8702 139.505 31.1592C139.728 31.4481 140.007 31.6885 140.326 31.8655C140.202 32.266 140.017 32.6448 139.776 32.9882C137.115 31.3159 134.39 29.8477 131.682 28.2774C131.682 28.0026 131.925 27.665 132.098 27.3824C132.64 27.6258 133.331 28.0026 133.904 27.6258L134.108 27.3117L134.893 22.6009C133.598 21.7765 132.231 21.1563 130.897 20.4418H130.693C129.735 21.8786 126.932 23.0092 128.337 25.1919C128.677 25.4851 129.042 25.7478 129.428 25.977C129.122 26.2047 129.256 27.1625 128.643 26.7621L123.454 24.5088C123.557 24.1019 123.716 23.711 123.925 23.3468C126.665 24.6423 127.615 21.3997 129.326 20.2063C132.365 17.0657 135.505 13.8467 138.552 10.6826C139.79 11.1546 140.968 11.7712 142.061 12.5198L142.03 12.5669ZM136.024 15.0244L131.65 19.4996V19.6724C132.742 20.222 133.872 20.8658 134.971 21.3447C135.309 19.1934 135.851 17.2463 136.024 15.0637V15.0244Z" fill="white"/>
<path d="M35.6219 16.4676C35.3227 16.6999 35.0985 17.015 34.977 17.3738C34.8556 17.7325 34.8423 18.1191 34.9388 18.4853C35.6533 19.7808 36.7132 20.6994 37.569 21.9321L42.6881 28.4565C43.0823 29.1854 43.2748 30.0062 43.2459 30.8343C43.2169 31.6624 42.9674 32.4678 42.5232 33.1673C40.4034 35.2872 38.1108 37.3756 34.7347 36.9987C33.7111 36.8642 32.7795 36.3379 32.1359 35.5306C29.914 32.5549 27.3545 29.6185 25.0697 26.6821C24.8496 26.513 24.5918 26.3996 24.3184 26.3518C24.0449 26.3039 23.764 26.323 23.4995 26.4073L22.7143 26.7842C22.5495 26.5486 21.7957 26.109 22.3061 25.7949C24.5673 23.7457 26.852 21.83 29.0739 20.0556C29.4822 20.1969 29.6863 20.6759 29.9219 20.9114C29.9219 21.249 29.5842 21.2883 29.4429 21.5631C28.4537 23.0627 30.0946 24.1933 30.8483 25.2532C32.7248 27.6792 35.1822 30.8119 37.1922 33.2066C37.5999 33.5393 38.0847 33.7643 38.602 33.8608C39.1193 33.9574 39.6526 33.9223 40.1529 33.759C40.6532 33.5956 41.1044 33.3091 41.465 32.9259C41.8257 32.5426 42.0843 32.0749 42.217 31.5656C42.3831 30.8479 42.3228 30.0964 42.0443 29.4144C39.4534 25.8263 37.0273 23.0313 34.193 19.506C33.9851 19.3517 33.7458 19.245 33.4921 19.1935C33.2383 19.1419 32.9764 19.1468 32.7248 19.2077C32.3165 19.2077 32.0417 19.5453 31.7041 19.5767C31.4252 19.2856 31.1631 18.9789 30.919 18.6581C32.1991 17.5964 33.5443 16.6157 34.9467 15.7217C35.2588 15.8874 35.4929 16.1695 35.5984 16.5068L35.6219 16.4676Z" fill="white"/>
<path d="M35.6219 16.4676C35.3227 16.6999 35.0985 17.015 34.977 17.3738C34.8556 17.7325 34.8423 18.1191 34.9388 18.4853C35.6533 19.7808 36.7132 20.6994 37.569 21.9321L42.6881 28.4565C43.0823 29.1854 43.2748 30.0062 43.2459 30.8343C43.2169 31.6624 42.9674 32.4678 42.5232 33.1673C40.4034 35.2872 38.1108 37.3756 34.7347 36.9987C33.7111 36.8642 32.7795 36.3379 32.1359 35.5306C29.914 32.5549 27.3545 29.6185 25.0697 26.6821C24.8496 26.513 24.5918 26.3996 24.3184 26.3518C24.0449 26.3039 23.764 26.323 23.4995 26.4073L22.7143 26.7842C22.5495 26.5486 21.7957 26.109 22.3061 25.7949C24.5673 23.7457 26.852 21.83 29.0739 20.0556C29.4822 20.1969 29.6863 20.6759 29.9219 20.9114C29.9219 21.249 29.5842 21.2883 29.4429 21.5631C28.4537 23.0627 30.0946 24.1933 30.8483 25.2532C32.7248 27.6792 35.1822 30.8119 37.1922 33.2066C37.5999 33.5393 38.0847 33.7643 38.602 33.8608C39.1193 33.9574 39.6526 33.9223 40.1529 33.759C40.6532 33.5956 41.1044 33.3091 41.465 32.9259C41.8257 32.5426 42.0843 32.0749 42.217 31.5656C42.3831 30.8479 42.3228 30.0964 42.0443 29.4144C39.4534 25.8263 37.0273 23.0313 34.193 19.506C33.9851 19.3517 33.7458 19.245 33.4921 19.1935C33.2383 19.1419 32.9764 19.1468 32.7248 19.2077C32.3165 19.2077 32.0417 19.5453 31.7041 19.5767C31.4252 19.2856 31.1631 18.9789 30.919 18.6581C32.1991 17.5964 33.5443 16.6157 34.9467 15.7217C35.2588 15.8874 35.4929 16.1695 35.5984 16.5068L35.6219 16.4676Z" fill="white"/>
<path d="M160.654 25.1014C162.907 26.9464 164.948 30.087 163.857 33.2353C162.962 34.9077 161.125 35.3866 159.248 35.1825C158.611 35.0863 157.984 34.9366 157.372 34.735C157.843 36.2424 158.801 37.9461 158.055 39.6499C157.435 41.1181 156.1 41.9346 155.15 43.1045C155.04 43.2379 155.15 43.3792 155.283 43.4421C156.516 43.5127 157.372 42.6569 158.118 41.8718C158.392 42.0759 158.801 42.3193 158.801 42.6569C157.709 43.8817 156.273 44.8003 154.365 44.3921C153.774 44.2618 153.216 44.0139 152.724 43.6632C152.232 43.3124 151.815 42.8661 151.499 42.3507C151.209 41.8641 151.055 41.3079 151.055 40.7412C151.055 40.1745 151.209 39.6183 151.499 39.1317C152.653 37.6713 154.326 36.5093 155.283 34.8998C155.456 34.3881 155.442 33.832 155.244 33.3296C154.808 32.7437 154.277 32.2343 153.674 31.8221C152.033 33.3924 150.533 35.206 149.065 36.8784C148.989 37.2696 149.011 37.6737 149.129 38.0545C149.247 38.4353 149.457 38.781 149.74 39.061C149.466 39.4457 149.371 39.7519 148.994 39.9875C146.639 37.9383 144.213 36.1325 141.818 34.1147C142.046 33.689 142.358 33.3149 142.737 33.0155C143.09 33.3518 143.553 33.5473 144.04 33.5651L144.959 33.3296L154.247 23.0522C154.36 22.7933 154.418 22.514 154.418 22.2317C154.418 21.9494 154.36 21.6701 154.247 21.4113L153.713 20.6261C153.878 20.2493 154.498 19.5348 154.875 20.2179L160.614 25.0621L160.654 25.1014ZM159.146 25.6902C157.485 27.3955 155.912 29.1854 154.435 31.0527C154.781 31.3903 155.291 31.7357 155.605 32.0734C156.013 32.2524 156.464 32.312 156.904 32.2453C157.345 32.1786 157.757 31.9883 158.094 31.6965C159.115 30.5738 160.552 29.4432 160.748 27.708C160.748 26.7109 159.798 26.1378 159.178 25.6902H159.146Z" fill="white"/>
<path d="M160.654 25.1014C162.907 26.9464 164.948 30.087 163.857 33.2353C162.962 34.9077 161.125 35.3866 159.248 35.1825C158.611 35.0863 157.984 34.9366 157.372 34.735C157.843 36.2424 158.801 37.9461 158.055 39.6499C157.435 41.1181 156.1 41.9346 155.15 43.1045C155.04 43.2379 155.15 43.3792 155.283 43.4421C156.516 43.5127 157.372 42.6569 158.118 41.8718C158.392 42.0759 158.801 42.3193 158.801 42.6569C157.709 43.8817 156.273 44.8003 154.365 44.3921C153.774 44.2618 153.216 44.0139 152.724 43.6632C152.232 43.3124 151.815 42.8661 151.499 42.3507C151.209 41.8641 151.055 41.3079 151.055 40.7412C151.055 40.1745 151.209 39.6183 151.499 39.1317C152.653 37.6713 154.326 36.5093 155.283 34.8998C155.456 34.3881 155.442 33.832 155.244 33.3296C154.808 32.7437 154.277 32.2343 153.674 31.8221C152.033 33.3924 150.533 35.206 149.065 36.8784C148.989 37.2696 149.011 37.6737 149.129 38.0545C149.247 38.4353 149.457 38.781 149.74 39.061C149.466 39.4457 149.371 39.7519 148.994 39.9875C146.639 37.9383 144.213 36.1325 141.818 34.1147C142.046 33.689 142.358 33.3149 142.737 33.0155C143.09 33.3518 143.553 33.5473 144.04 33.5651L144.959 33.3296L154.247 23.0522C154.36 22.7933 154.418 22.514 154.418 22.2317C154.418 21.9494 154.36 21.6701 154.247 21.4113L153.713 20.6261C153.878 20.2493 154.498 19.5348 154.875 20.2179L160.614 25.0621L160.654 25.1014ZM159.146 25.6902C157.485 27.3955 155.912 29.1854 154.435 31.0527C154.781 31.3903 155.291 31.7357 155.605 32.0734C156.013 32.2524 156.464 32.312 156.904 32.2453C157.345 32.1786 157.757 31.9883 158.094 31.6965C159.115 30.5738 160.552 29.4432 160.748 27.708C160.748 26.7109 159.798 26.1378 159.178 25.6902H159.146Z" fill="white"/>
<path d="M172.046 36.6188C173.656 38.4874 175.124 40.6465 176.694 42.6957L175.642 43.4808C175.092 43.0019 174.614 42.4916 173.899 42.5936L173.31 42.7349C171.74 43.9598 170.005 45.0197 168.395 46.2837L168.639 46.4172L175.744 47.5792C176.17 47.4161 176.53 47.1148 176.765 46.7234C176.872 46.4116 176.913 46.0806 176.885 45.752C176.857 45.4233 176.759 45.1043 176.6 44.8155C176.88 44.4903 177.248 44.253 177.66 44.1325C179.089 46.1817 180.282 48.2937 181.476 50.4135C181.25 50.7043 180.96 50.9383 180.628 51.0966C178.853 48.4664 175.226 48.9139 172.36 48.2309C170.829 51.6776 169.016 54.9909 167.406 58.4376C167.199 59.401 167.306 60.4054 167.712 61.3033C167.409 61.6407 167.037 61.9086 166.621 62.0884C165.09 59.3876 163.386 56.8202 161.745 54.2371C162.216 53.9937 162.632 53.3735 163.237 53.7503C164.368 53.2793 164.47 51.8739 165.09 50.9474C165.6 49.7933 166.181 48.6941 166.66 47.54C165.045 48.5064 163.535 49.6378 162.153 50.916C162.037 51.1863 161.977 51.4775 161.977 51.7718C161.977 52.0662 162.037 52.3574 162.153 52.6276C161.918 52.9966 161.439 53.1065 161.133 53.4127C159.358 51.128 157.513 48.7726 155.7 46.5821L156.658 45.797C156.881 46.1013 157.187 46.3364 157.538 46.4752C157.889 46.6141 158.273 46.6511 158.644 46.5821L159.531 46.0404L170.248 38.4246C170.465 38.1488 170.605 37.8202 170.654 37.4725C170.702 37.1248 170.657 36.7706 170.523 36.446C170.523 36.2419 170.115 35.9985 170.421 35.8258C171.308 34.5696 171.442 36.446 172.054 36.6894L172.046 36.6188Z" fill="white"/>
<path d="M172.046 36.6188C173.656 38.4874 175.124 40.6465 176.694 42.6957L175.642 43.4808C175.092 43.0019 174.614 42.4916 173.899 42.5936L173.31 42.7349C171.74 43.9598 170.005 45.0197 168.395 46.2837L168.639 46.4172L175.744 47.5792C176.17 47.4161 176.53 47.1148 176.765 46.7234C176.872 46.4116 176.913 46.0806 176.885 45.752C176.857 45.4233 176.759 45.1043 176.6 44.8155C176.88 44.4903 177.248 44.253 177.66 44.1325C179.089 46.1817 180.282 48.2937 181.476 50.4135C181.25 50.7043 180.96 50.9383 180.628 51.0966C178.853 48.4664 175.226 48.9139 172.36 48.2309C170.829 51.6776 169.016 54.9909 167.406 58.4376C167.199 59.401 167.306 60.4054 167.712 61.3033C167.409 61.6407 167.037 61.9086 166.621 62.0884C165.09 59.3876 163.386 56.8202 161.745 54.2371C162.216 53.9937 162.632 53.3735 163.237 53.7503C164.368 53.2793 164.47 51.8739 165.09 50.9474C165.6 49.7933 166.181 48.6941 166.66 47.54C165.045 48.5064 163.535 49.6378 162.153 50.916C162.037 51.1863 161.977 51.4775 161.977 51.7718C161.977 52.0662 162.037 52.3574 162.153 52.6276C161.918 52.9966 161.439 53.1065 161.133 53.4127C159.358 51.128 157.513 48.7726 155.7 46.5821L156.658 45.797C156.881 46.1013 157.187 46.3364 157.538 46.4752C157.889 46.6141 158.273 46.6511 158.644 46.5821L159.531 46.0404L170.248 38.4246C170.465 38.1488 170.605 37.8202 170.654 37.4725C170.702 37.1248 170.657 36.7706 170.523 36.446C170.523 36.2419 170.115 35.9985 170.421 35.8258C171.308 34.5696 171.442 36.446 172.054 36.6894L172.046 36.6188Z" fill="white"/>
<path d="M31.8295 39.4569C32.8188 39.7631 33.3998 38.0829 34.1849 39.0722L34.5618 39.5903C32.2064 41.7102 30.0159 44.0342 27.9667 46.2169C27.6252 46.0119 27.3245 45.7457 27.0795 45.4317C27.3857 44.9606 28.1708 44.2383 27.6605 43.5553C26.3251 42.7488 24.9316 42.0429 23.4914 41.4433C22.3092 42.4982 21.2045 43.637 20.186 44.8507C20.7883 46.0839 21.4948 47.2632 22.298 48.376C22.5808 48.5688 22.9082 48.6859 23.2491 48.7161C23.59 48.7464 23.9329 48.6887 24.2452 48.5487C24.6927 48.4388 25.1009 47.4888 25.5092 48.0619L25.9175 48.5094C24.6534 50.009 23.3894 51.65 22.2274 53.2202C21.8 53.0306 21.4254 52.7395 21.136 52.3723C22.8084 50.488 20.9319 48.4466 20.0447 46.8371C17.6893 42.7701 15.3967 38.8445 12.9785 34.8482C13.8114 33.8439 14.7 32.8871 15.6401 31.9824C21.034 34.3378 26.3964 36.9994 31.8609 39.4647L31.8295 39.4569ZM16.3232 38.3263C17.3831 40.1635 18.341 42.1185 19.5736 43.8222C20.5123 42.8913 21.4007 41.9111 22.2352 40.8858L16.3232 38.2949V38.3263Z" fill="white"/>
<path d="M31.8295 39.4569C32.8188 39.7631 33.3998 38.0829 34.1849 39.0722L34.5618 39.5903C32.2064 41.7102 30.0159 44.0342 27.9667 46.2169C27.6252 46.0119 27.3245 45.7457 27.0795 45.4317C27.3857 44.9606 28.1708 44.2383 27.6605 43.5553C26.3251 42.7488 24.9316 42.0429 23.4914 41.4433C22.3092 42.4982 21.2045 43.637 20.186 44.8507C20.7883 46.0839 21.4948 47.2632 22.298 48.376C22.5808 48.5688 22.9082 48.6859 23.2491 48.7161C23.59 48.7464 23.9329 48.6887 24.2452 48.5487C24.6927 48.4388 25.1009 47.4888 25.5092 48.0619L25.9175 48.5094C24.6534 50.009 23.3894 51.65 22.2274 53.2202C21.8 53.0306 21.4254 52.7395 21.136 52.3723C22.8084 50.488 20.9319 48.4466 20.0447 46.8371C17.6893 42.7701 15.3967 38.8445 12.9785 34.8482C13.8114 33.8439 14.7 32.8871 15.6401 31.9824C21.034 34.3378 26.3964 36.9994 31.8609 39.4647L31.8295 39.4569ZM16.3232 38.3263C17.3831 40.1635 18.341 42.1185 19.5736 43.8222C20.5123 42.8913 21.4007 41.9111 22.2352 40.8858L16.3232 38.2949V38.3263Z" fill="white"/>
<path d="M14.7212 44.3998C15.172 45.1409 15.4598 45.9695 15.5654 46.8305C15.671 47.6915 15.592 48.5652 15.3336 49.3932C14.8233 50.5238 14.0382 51.5838 13.4886 52.6437C14.7901 53.6229 16.1481 54.5248 17.5555 55.3445C17.9594 55.4095 18.3734 55.3566 18.748 55.1923C19.1225 55.028 19.4418 54.7592 19.6675 54.4181C20.074 54.5593 20.4478 54.7809 20.7667 55.0697C19.1965 57.5979 17.2415 60.2202 15.8126 62.8818C15.4032 62.756 15.0293 62.5354 14.7212 62.238C14.9159 61.9151 15.024 61.5475 15.035 61.1706C15.046 60.7937 14.9596 60.4204 14.784 60.0867C10.8584 57.5272 7.00337 54.9598 3.07772 52.5102C2.71113 52.3974 2.31997 52.3913 1.95008 52.4929C1.5802 52.5944 1.2469 52.7992 0.989266 53.0834C0.918604 53.1462 0.918604 53.3189 0.785132 53.3189C0.408268 53.3189 0.306201 53.0834 0 52.8792C1.69758 49.6813 3.67326 46.639 5.90419 43.7874C6.55352 43.1014 7.35816 42.5814 8.25037 42.2713C9.14259 41.9611 10.0963 41.8698 11.0311 42.0051C12.4998 42.332 13.8064 43.166 14.7212 44.3605V44.3998ZM6.28105 46.0015C5.96749 46.0813 5.68143 46.2447 5.45332 46.4742C5.22521 46.7037 5.06356 46.9907 4.98559 47.3048C7.41164 48.8044 9.82985 50.5474 12.5307 52.0156L13.0803 51.309C13.1493 50.8299 13.0872 50.3411 12.9006 49.8946C12.714 49.448 12.4098 49.0604 12.0204 48.773C10.0732 47.823 8.73852 45.9701 6.28105 46.0015Z" fill="white"/>
<path d="M14.7212 44.3998C15.172 45.1409 15.4598 45.9695 15.5654 46.8305C15.671 47.6915 15.592 48.5652 15.3336 49.3932C14.8233 50.5238 14.0382 51.5838 13.4886 52.6437C14.7901 53.6229 16.1481 54.5248 17.5555 55.3445C17.9594 55.4095 18.3734 55.3566 18.748 55.1923C19.1225 55.028 19.4418 54.7592 19.6675 54.4181C20.074 54.5593 20.4478 54.7809 20.7667 55.0697C19.1965 57.5979 17.2415 60.2202 15.8126 62.8818C15.4032 62.756 15.0293 62.5354 14.7212 62.238C14.9159 61.9151 15.024 61.5475 15.035 61.1706C15.046 60.7937 14.9596 60.4204 14.784 60.0867C10.8584 57.5272 7.00337 54.9598 3.07772 52.5102C2.71113 52.3974 2.31997 52.3913 1.95008 52.4929C1.5802 52.5944 1.2469 52.7992 0.989266 53.0834C0.918604 53.1462 0.918604 53.3189 0.785132 53.3189C0.408268 53.3189 0.306201 53.0834 0 52.8792C1.69758 49.6813 3.67326 46.639 5.90419 43.7874C6.55352 43.1014 7.35816 42.5814 8.25037 42.2713C9.14259 41.9611 10.0963 41.8698 11.0311 42.0051C12.4998 42.332 13.8064 43.166 14.7212 44.3605V44.3998ZM6.28105 46.0015C5.96749 46.0813 5.68143 46.2447 5.45332 46.4742C5.22521 46.7037 5.06356 46.9907 4.98559 47.3048C7.41164 48.8044 9.82985 50.5474 12.5307 52.0156L13.0803 51.309C13.1493 50.8299 13.0872 50.3411 12.9006 49.8946C12.714 49.448 12.4098 49.0604 12.0204 48.773C10.0732 47.823 8.73852 45.9701 6.28105 46.0015Z" fill="white"/>
<path d="M104.98 93.9904C105.765 96.9268 103.85 99.1487 102.382 101.394C98.6914 106.105 93.7451 109.591 88.7909 112.527C88.5868 113.046 88.1078 113.485 88.0058 114.003C89.9136 113.218 92.3789 111.577 94.5616 113.046C95.1421 113.462 95.5872 114.039 95.8413 114.707C96.0955 115.374 96.1474 116.102 95.9905 116.798C94.3261 119.978 92.5831 123.15 90.7066 126.267C90.6451 126.367 90.6068 126.48 90.5945 126.597C90.5823 126.714 90.5965 126.832 90.636 126.942C90.6827 127.09 90.7802 127.215 90.9111 127.297C91.0419 127.379 91.1976 127.412 91.3504 127.39C92.0867 127.121 92.7525 126.689 93.2975 126.126H95.1819C94.503 127.12 93.6296 127.967 92.6145 128.615C91.9331 128.994 91.1632 129.185 90.3837 129.168C89.6042 129.152 88.8431 128.928 88.1785 128.52C87.4757 128.047 86.9324 127.373 86.62 126.585C86.3075 125.798 86.2405 124.934 86.4276 124.108L86.7417 123.15L91.3504 115.126C91.3504 114.891 91.0756 114.616 90.8401 114.686L86.2628 117.042C85.6847 117.849 85.1601 118.694 84.6925 119.57C82.7218 122.82 80.7668 126.063 78.7883 129.274C77.0139 129.408 74.5879 129.337 72.9155 129.337C75.5771 124.972 78.5528 120.465 81.1437 115.951C80.3586 116.092 79.4714 116.469 78.6862 116.602V114.686C80.021 114.145 81.5206 113.768 82.926 113.218C87.0872 106.388 91.2562 98.8425 98.291 94.5792C99.9633 93.7234 101.675 92.6949 103.787 93.009C104.333 93.1726 104.796 93.5374 105.082 94.0296L104.98 93.9904ZM103.065 94.6028C100.136 95.8354 97.9377 98.395 95.9591 100.884C94.224 103.648 92.4496 106.49 90.9814 109.183C92.3087 108.385 93.5857 107.507 94.805 106.552C98.3931 103.412 102.868 100.169 103.551 94.9718C103.481 94.8069 103.339 94.5321 103.065 94.6342V94.6028Z" fill="white"/>
<path d="M104.98 93.9904C105.765 96.9268 103.85 99.1487 102.382 101.394C98.6914 106.105 93.7451 109.591 88.7909 112.527C88.5868 113.046 88.1078 113.485 88.0058 114.003C89.9136 113.218 92.3789 111.577 94.5616 113.046C95.1421 113.462 95.5872 114.039 95.8413 114.707C96.0955 115.374 96.1474 116.102 95.9905 116.798C94.3261 119.978 92.5831 123.15 90.7066 126.267C90.6451 126.367 90.6068 126.48 90.5945 126.597C90.5823 126.714 90.5965 126.832 90.636 126.942C90.6827 127.09 90.7802 127.215 90.9111 127.297C91.0419 127.379 91.1976 127.412 91.3504 127.39C92.0867 127.121 92.7525 126.689 93.2975 126.126H95.1819C94.503 127.12 93.6296 127.967 92.6145 128.615C91.9331 128.994 91.1632 129.185 90.3837 129.168C89.6042 129.152 88.8431 128.928 88.1785 128.52C87.4757 128.047 86.9324 127.373 86.62 126.585C86.3075 125.798 86.2405 124.934 86.4276 124.108L86.7417 123.15L91.3504 115.126C91.3504 114.891 91.0756 114.616 90.8401 114.686L86.2628 117.042C85.6847 117.849 85.1601 118.694 84.6925 119.57C82.7218 122.82 80.7668 126.063 78.7883 129.274C77.0139 129.408 74.5879 129.337 72.9155 129.337C75.5771 124.972 78.5528 120.465 81.1437 115.951C80.3586 116.092 79.4714 116.469 78.6862 116.602V114.686C80.021 114.145 81.5206 113.768 82.926 113.218C87.0872 106.388 91.2562 98.8425 98.291 94.5792C99.9633 93.7234 101.675 92.6949 103.787 93.009C104.333 93.1726 104.796 93.5374 105.082 94.0296L104.98 93.9904ZM103.065 94.6028C100.136 95.8354 97.9377 98.395 95.9591 100.884C94.224 103.648 92.4496 106.49 90.9814 109.183C92.3087 108.385 93.5857 107.507 94.805 106.552C98.3931 103.412 102.868 100.169 103.551 94.9718C103.481 94.8069 103.339 94.5321 103.065 94.6342V94.6028Z" fill="white"/>
<path d="M119.089 95.5198C118.021 97.4748 116.796 99.5162 115.563 101.503C118.61 101.699 121.436 101.393 124.789 101.636L123.556 103.685L114.134 103.858C109.424 111.372 105.035 118.98 100.395 126.462C100.34 126.658 100.364 126.867 100.461 127.045C100.557 127.224 100.719 127.358 100.913 127.42C101.863 127.42 102.412 126.674 103.056 126.226H104.972C104.542 126.937 103.957 127.541 103.26 127.993C102.731 128.48 102.093 128.834 101.399 129.025C100.706 129.216 99.9762 129.239 99.2719 129.092C98.4706 128.873 97.7488 128.43 97.1921 127.813C96.6355 127.197 96.2673 126.433 96.1314 125.614C96.0543 124.717 96.2311 123.816 96.6417 123.015C100.709 116.695 104.493 110.17 108.356 103.889C107.966 103.775 107.552 103.775 107.163 103.889L107.06 103.756C105.828 103.756 104.603 103.858 103.268 103.756C103.606 103.041 104.053 102.358 104.43 101.667C105.961 101.503 108.222 101.667 109.793 101.534C111.049 99.524 112.25 97.4434 113.585 95.457C115.391 95.457 117.228 95.457 119.081 95.457L119.089 95.5198Z" fill="white"/>
<path d="M119.089 95.5198C118.021 97.4748 116.796 99.5162 115.563 101.503C118.61 101.699 121.436 101.393 124.789 101.636L123.556 103.685L114.134 103.858C109.424 111.372 105.035 118.98 100.395 126.462C100.34 126.658 100.364 126.867 100.461 127.045C100.557 127.224 100.719 127.358 100.913 127.42C101.863 127.42 102.412 126.674 103.056 126.226H104.972C104.542 126.937 103.957 127.541 103.26 127.993C102.731 128.48 102.093 128.834 101.399 129.025C100.706 129.216 99.9762 129.239 99.2719 129.092C98.4706 128.873 97.7488 128.43 97.1921 127.813C96.6355 127.197 96.2673 126.433 96.1314 125.614C96.0543 124.717 96.2311 123.816 96.6417 123.015C100.709 116.695 104.493 110.17 108.356 103.889C107.966 103.775 107.552 103.775 107.163 103.889L107.06 103.756C105.828 103.756 104.603 103.858 103.268 103.756C103.606 103.041 104.053 102.358 104.43 101.667C105.961 101.503 108.222 101.667 109.793 101.534C111.049 99.524 112.25 97.4434 113.585 95.457C115.391 95.457 117.228 95.457 119.081 95.457L119.089 95.5198Z" fill="white"/>
<path d="M120.659 106.825C120.791 107.239 120.814 107.681 120.724 108.106C120.635 108.531 120.437 108.926 120.149 109.252C119.689 109.667 119.123 109.948 118.513 110.063C117.904 110.177 117.275 110.122 116.695 109.903C116.3 109.707 115.975 109.395 115.762 109.009C115.549 108.624 115.458 108.183 115.501 107.744C115.566 107.291 115.757 106.866 116.053 106.518C116.349 106.169 116.737 105.911 117.174 105.773C118.336 105.224 120.11 105.491 120.659 106.825Z" fill="white"/>
<path d="M120.659 106.825C120.791 107.239 120.814 107.681 120.724 108.106C120.635 108.531 120.437 108.926 120.149 109.252C119.689 109.667 119.123 109.948 118.513 110.063C117.904 110.177 117.275 110.122 116.695 109.903C116.3 109.707 115.975 109.395 115.762 109.009C115.549 108.624 115.458 108.183 115.501 107.744C115.566 107.291 115.757 106.866 116.053 106.518C116.349 106.169 116.737 105.911 117.174 105.773C118.336 105.224 120.11 105.491 120.659 106.825Z" fill="white"/>
<path d="M77.5549 114.031C77.7766 114.707 77.8402 115.424 77.7409 116.128C77.6415 116.831 77.3818 117.503 76.9817 118.091C76.6301 118.485 76.1683 118.764 75.6559 118.893C75.1436 119.022 74.6044 118.994 74.1082 118.813C73.6456 118.626 73.2541 118.298 72.9903 117.874C72.7264 117.451 72.6038 116.955 72.64 116.457C72.6923 116.066 72.8554 115.698 73.1099 115.396C73.3644 115.094 73.6999 114.871 74.0767 114.754C74.3632 114.771 74.6493 114.714 74.9068 114.588C75.1643 114.461 75.3842 114.269 75.5449 114.031C75.7098 113.521 75.2702 113.246 74.964 113.05C72.7106 112.571 72.0511 114.926 70.63 116.253C68.4955 118.954 66.6926 121.901 65.2597 125.031C65.093 125.332 65.0134 125.674 65.0301 126.018C65.0467 126.362 65.1589 126.694 65.3539 126.978C65.5569 127.261 65.8328 127.483 66.1522 127.621C66.4716 127.76 66.8225 127.809 67.1676 127.763C70.1511 126.868 72.161 124.827 73.904 122.33H75.6156C74.0159 125.316 71.4336 127.657 68.306 128.957C66.3196 129.538 63.5952 129.703 62.1585 128.07C59.8031 125.51 61.5382 121.788 62.7709 119.19C63.8235 117.26 65.2804 115.581 67.042 114.266C68.8036 112.952 70.8282 112.034 72.9776 111.574C73.8985 111.432 74.8404 111.596 75.6597 112.04C76.479 112.483 77.1308 113.183 77.5156 114.031H77.5549Z" fill="white"/>
<path d="M77.5549 114.031C77.7766 114.707 77.8402 115.424 77.7409 116.128C77.6415 116.831 77.3818 117.503 76.9817 118.091C76.6301 118.485 76.1683 118.764 75.6559 118.893C75.1436 119.022 74.6044 118.994 74.1082 118.813C73.6456 118.626 73.2541 118.298 72.9903 117.874C72.7264 117.451 72.6038 116.955 72.64 116.457C72.6923 116.066 72.8554 115.698 73.1099 115.396C73.3644 115.094 73.6999 114.871 74.0767 114.754C74.3632 114.771 74.6493 114.714 74.9068 114.588C75.1643 114.461 75.3842 114.269 75.5449 114.031C75.7098 113.521 75.2702 113.246 74.964 113.05C72.7106 112.571 72.0511 114.926 70.63 116.253C68.4955 118.954 66.6926 121.901 65.2597 125.031C65.093 125.332 65.0134 125.674 65.0301 126.018C65.0467 126.362 65.1589 126.694 65.3539 126.978C65.5569 127.261 65.8328 127.483 66.1522 127.621C66.4716 127.76 66.8225 127.809 67.1676 127.763C70.1511 126.868 72.161 124.827 73.904 122.33H75.6156C74.0159 125.316 71.4336 127.657 68.306 128.957C66.3196 129.538 63.5952 129.703 62.1585 128.07C59.8031 125.51 61.5382 121.788 62.7709 119.19C63.8235 117.26 65.2804 115.581 67.042 114.266C68.8036 112.952 70.8282 112.034 72.9776 111.574C73.8985 111.432 74.8404 111.596 75.6597 112.04C76.479 112.483 77.1308 113.183 77.5156 114.031H77.5549Z" fill="white"/>
<path d="M118.469 111.85C115.532 116.725 112.494 121.648 109.628 126.461C109.456 126.901 109.864 127.113 110.068 127.325C110.955 127.325 111.536 126.634 112.258 126.123C113.146 125.44 113.585 124.38 114.41 123.595H116.286C114.339 126.053 112.361 129.507 108.67 128.958C107.971 128.813 107.322 128.487 106.787 128.013C106.253 127.539 105.852 126.934 105.624 126.257C104.509 123.258 107.446 121.169 108.466 118.751C109.974 116.459 111.159 114.04 112.73 111.818C114.849 111.818 116.53 111.708 118.469 111.818V111.85Z" fill="white"/>
<path d="M118.469 111.85C115.532 116.725 112.494 121.648 109.628 126.461C109.456 126.901 109.864 127.113 110.068 127.325C110.955 127.325 111.536 126.634 112.258 126.123C113.146 125.44 113.585 124.38 114.41 123.595H116.286C114.339 126.053 112.361 129.507 108.67 128.958C107.971 128.813 107.322 128.487 106.787 128.013C106.253 127.539 105.852 126.934 105.624 126.257C104.509 123.258 107.446 121.169 108.466 118.751C109.974 116.459 111.159 114.04 112.73 111.818C114.849 111.818 116.53 111.708 118.469 111.818V111.85Z" fill="white"/>
<path d="M135.513 114.004C136.84 116.288 134.555 117.969 133.802 119.837C132.506 122.028 131.14 124.179 129.947 126.393C130.01 126.637 130.049 126.943 130.253 127.084C131.038 127.555 131.753 126.605 132.334 126.299C133.182 125.451 133.949 124.525 134.626 123.535C135.27 123.453 135.922 123.453 136.565 123.535C135.27 125.38 133.802 127.461 131.855 128.584C131.268 128.884 130.62 129.042 129.961 129.045C129.303 129.048 128.653 128.896 128.064 128.6C127.475 128.305 126.964 127.876 126.572 127.346C126.181 126.817 125.919 126.202 125.809 125.553C125.647 124.651 125.805 123.72 126.257 122.923C127.96 120.112 129.601 117.427 131.172 114.687C131.069 114.553 131.109 114.286 130.865 114.247C129.429 114.624 128.439 115.582 127.277 116.603C125.943 118.243 125.197 120.112 123.964 121.894C122.464 124.25 121.161 126.676 119.661 129.031L113.961 129.133C114.841 127.296 115.971 125.718 116.961 123.944C118.641 121.109 120.376 118.448 121.954 115.511C121.813 115.268 121.404 115.37 121.232 115.441L120.792 115.707L117.958 120.418H116.317L116.387 120.112C117.754 118.063 118.672 115.668 120.376 113.894C120.939 113.466 121.596 113.178 122.292 113.054C122.988 112.929 123.704 112.972 124.38 113.179C125.294 113.492 126.084 114.089 126.633 114.883C128.337 113.862 129.837 112.119 132.169 112.049C132.869 112.008 133.565 112.179 134.167 112.539C134.769 112.899 135.249 113.431 135.545 114.067L135.513 114.004Z" fill="white"/>
<path d="M135.513 114.004C136.84 116.288 134.555 117.969 133.802 119.837C132.506 122.028 131.14 124.179 129.947 126.393C130.01 126.637 130.049 126.943 130.253 127.084C131.038 127.555 131.753 126.605 132.334 126.299C133.182 125.451 133.949 124.525 134.626 123.535C135.27 123.453 135.922 123.453 136.565 123.535C135.27 125.38 133.802 127.461 131.855 128.584C131.268 128.884 130.62 129.042 129.961 129.045C129.303 129.048 128.653 128.896 128.064 128.6C127.475 128.305 126.964 127.876 126.572 127.346C126.181 126.817 125.919 126.202 125.809 125.553C125.647 124.651 125.805 123.72 126.257 122.923C127.96 120.112 129.601 117.427 131.172 114.687C131.069 114.553 131.109 114.286 130.865 114.247C129.429 114.624 128.439 115.582 127.277 116.603C125.943 118.243 125.197 120.112 123.964 121.894C122.464 124.25 121.161 126.676 119.661 129.031L113.961 129.133C114.841 127.296 115.971 125.718 116.961 123.944C118.641 121.109 120.376 118.448 121.954 115.511C121.813 115.268 121.404 115.37 121.232 115.441L120.792 115.707L117.958 120.418H116.317L116.387 120.112C117.754 118.063 118.672 115.668 120.376 113.894C120.939 113.466 121.596 113.178 122.292 113.054C122.988 112.929 123.704 112.972 124.38 113.179C125.294 113.492 126.084 114.089 126.633 114.883C128.337 113.862 129.837 112.119 132.169 112.049C132.869 112.008 133.565 112.179 134.167 112.539C134.769 112.899 135.249 113.431 135.545 114.067L135.513 114.004Z" fill="white"/>
<path d="M57.0714 112.869C57.2755 112.869 57.5503 112.461 57.6524 112.218C59.5289 112.218 61.6801 112.218 63.3446 112.218C60.5809 116.999 57.6524 121.584 55.0143 126.429C55.085 126.672 55.1164 127.08 55.4619 127.214C56.4825 127.214 57.4404 126.013 58.0607 125.329H59.6702C59.1715 126.309 58.4741 127.174 57.6224 127.869C56.7708 128.564 55.7835 129.073 54.7238 129.365C54.2178 129.496 53.687 129.498 53.1798 129.372C52.6725 129.246 52.2047 128.995 51.8189 128.643C51.3516 128.206 50.9893 127.669 50.7589 127.072C49.699 128.478 48.0659 129.868 45.9461 129.703C45.2893 129.661 44.652 129.463 44.0878 129.124C43.5235 128.785 43.0488 128.316 42.7035 127.756C40.9919 124.073 43.4494 120.548 45.1923 117.549C47.4143 115.083 49.7697 112.493 53.2478 111.77C54.6123 111.649 55.9717 112.053 57.0478 112.901L57.0714 112.869ZM55.3598 113.521C54.5747 113.215 53.9937 114.165 53.4755 114.612C50.568 117.918 48.1439 121.618 46.2758 125.604C46.0717 126.279 45.3494 127.175 46.0403 127.889C46.3465 128.195 46.8254 127.952 47.1316 127.818C50.4449 124.639 52.4941 120.752 54.7788 116.929C55.2891 115.971 56.0036 115.044 55.7681 113.922C55.6764 113.747 55.534 113.605 55.3598 113.513V113.521Z" fill="white"/>
<path d="M57.0714 112.869C57.2755 112.869 57.5503 112.461 57.6524 112.218C59.5289 112.218 61.6801 112.218 63.3446 112.218C60.5809 116.999 57.6524 121.584 55.0143 126.429C55.085 126.672 55.1164 127.08 55.4619 127.214C56.4825 127.214 57.4404 126.013 58.0607 125.329H59.6702C59.1715 126.309 58.4741 127.174 57.6224 127.869C56.7708 128.564 55.7835 129.073 54.7238 129.365C54.2178 129.496 53.687 129.498 53.1798 129.372C52.6725 129.246 52.2047 128.995 51.8189 128.643C51.3516 128.206 50.9893 127.669 50.7589 127.072C49.699 128.478 48.0659 129.868 45.9461 129.703C45.2893 129.661 44.652 129.463 44.0878 129.124C43.5235 128.785 43.0488 128.316 42.7035 127.756C40.9919 124.073 43.4494 120.548 45.1923 117.549C47.4143 115.083 49.7697 112.493 53.2478 111.77C54.6123 111.649 55.9717 112.053 57.0478 112.901L57.0714 112.869ZM55.3598 113.521C54.5747 113.215 53.9937 114.165 53.4755 114.612C50.568 117.918 48.1439 121.618 46.2758 125.604C46.0717 126.279 45.3494 127.175 46.0403 127.889C46.3465 128.195 46.8254 127.952 47.1316 127.818C50.4449 124.639 52.4941 120.752 54.7788 116.929C55.2891 115.971 56.0036 115.044 55.7681 113.922C55.6764 113.747 55.534 113.605 55.3598 113.513V113.521Z" fill="white"/>
<path d="M152.591 113.317C152.968 112.869 153.266 112.288 153.651 111.746C155.527 111.644 157.404 111.707 159.319 111.746C155.284 118.608 150.683 125.368 146.64 132.097C149.34 132.442 151.735 131.555 153.988 130.527L154.946 131.759C152.183 133.534 148.422 134.044 145.14 133.84C139.299 138.998 132.028 143.646 123.392 143.065C120.66 142.649 117.55 141.495 116.765 138.59C116.543 137.765 116.533 136.896 116.736 136.066C116.939 135.235 117.349 134.47 117.927 133.84C121.343 130.66 126.901 129.64 131.589 130.864C134.653 131.466 137.757 131.844 140.877 131.995C141.662 131.21 142.031 130.118 142.745 129.294C142.651 128.988 143.091 128.854 143.091 128.509C141.827 128.925 139.95 129.294 138.725 128.415C137.116 127.488 136.943 125.235 137.155 123.594C137.693 121.283 138.686 119.102 140.076 117.178C141.466 115.255 143.225 113.627 145.25 112.39C146.05 111.836 146.981 111.497 147.95 111.408C148.92 111.318 149.897 111.481 150.785 111.88C151.435 112.285 152.034 112.767 152.567 113.317H152.591ZM149.615 114.165C147.37 115.366 145.823 117.792 144.394 119.802C143.091 121.718 141.693 123.727 141.489 126.083C141.552 126.42 141.858 126.601 142.07 126.774C143.264 127.111 144.221 126.114 144.967 125.431C146.718 122.84 148.422 120.21 149.992 117.446C150.33 116.661 151.083 115.978 150.911 114.958C150.794 114.715 150.609 114.512 150.379 114.373C150.149 114.234 149.884 114.164 149.615 114.172V114.165ZM129.673 131.924C127.779 131.616 125.843 131.696 123.982 132.161C122.12 132.625 120.373 133.464 118.846 134.625C118.35 135.148 118.01 135.8 117.864 136.506C117.719 137.212 117.773 137.945 118.022 138.621C118.744 140.6 120.927 141.181 123.015 141.181C129.634 141.11 135.883 138.621 139.982 133.738V133.597L135.444 133.086L129.673 131.924Z" fill="white"/>
<path d="M152.591 113.317C152.968 112.869 153.266 112.288 153.651 111.746C155.527 111.644 157.404 111.707 159.319 111.746C155.284 118.608 150.683 125.368 146.64 132.097C149.34 132.442 151.735 131.555 153.988 130.527L154.946 131.759C152.183 133.534 148.422 134.044 145.14 133.84C139.299 138.998 132.028 143.646 123.392 143.065C120.66 142.649 117.55 141.495 116.765 138.59C116.543 137.765 116.533 136.896 116.736 136.066C116.939 135.235 117.349 134.47 117.927 133.84C121.343 130.66 126.901 129.64 131.589 130.864C134.653 131.466 137.757 131.844 140.877 131.995C141.662 131.21 142.031 130.118 142.745 129.294C142.651 128.988 143.091 128.854 143.091 128.509C141.827 128.925 139.95 129.294 138.725 128.415C137.116 127.488 136.943 125.235 137.155 123.594C137.693 121.283 138.686 119.102 140.076 117.178C141.466 115.255 143.225 113.627 145.25 112.39C146.05 111.836 146.981 111.497 147.95 111.408C148.92 111.318 149.897 111.481 150.785 111.88C151.435 112.285 152.034 112.767 152.567 113.317H152.591ZM149.615 114.165C147.37 115.366 145.823 117.792 144.394 119.802C143.091 121.718 141.693 123.727 141.489 126.083C141.552 126.42 141.858 126.601 142.07 126.774C143.264 127.111 144.221 126.114 144.967 125.431C146.718 122.84 148.422 120.21 149.992 117.446C150.33 116.661 151.083 115.978 150.911 114.958C150.794 114.715 150.609 114.512 150.379 114.373C150.149 114.234 149.884 114.164 149.615 114.172V114.165ZM129.673 131.924C127.779 131.616 125.843 131.696 123.982 132.161C122.12 132.625 120.373 133.464 118.846 134.625C118.35 135.148 118.01 135.8 117.864 136.506C117.719 137.212 117.773 137.945 118.022 138.621C118.744 140.6 120.927 141.181 123.015 141.181C129.634 141.11 135.883 138.621 139.982 133.738V133.597L135.444 133.086L129.673 131.924Z" fill="white"/>
<path d="M46.5815 112.395L38.7929 124.832C37.2619 127.422 35.2049 130.155 33.8466 132.926C36.3325 133.061 38.8062 132.493 40.9835 131.285C41.4624 131.489 41.6273 132.07 41.9727 132.447C39.2405 134.324 35.6917 134.724 32.135 134.63C27.118 139.176 21.0019 142.999 13.9357 143.918C10.1042 144.295 5.84096 143.439 4.06657 139.922C3.69699 138.977 3.6161 137.943 3.83413 136.953C4.05216 135.962 4.55931 135.058 5.29137 134.355C6.88226 133.103 8.71132 132.188 10.6672 131.666C12.623 131.144 14.6647 131.025 16.6679 131.317C20.4145 132.088 24.2156 132.566 28.0366 132.746C28.8534 131.612 29.5956 130.427 30.2586 129.197C28.2094 129.582 25.0688 130.532 23.7655 128.278C21.9911 125.679 24.7234 123.465 25.6812 121.275L31.0123 112.497C32.7474 112.364 34.7652 112.497 36.7437 112.434C33.8074 117.184 31.1458 121.997 28.1073 126.904C28.0705 127.113 28.1037 127.327 28.2017 127.515C28.2997 127.702 28.457 127.852 28.649 127.941C32.5747 127.799 33.2578 123.874 35.307 121.377C37.1206 118.346 39.1384 115.441 40.9049 112.434C42.7579 112.324 44.6971 112.293 46.5108 112.293L46.6129 112.395H46.5815ZM21.8577 133.743C18.2382 132.958 14.1398 131.929 10.3476 133.091C8.54182 133.876 6.42196 134.496 5.36203 136.232C5.08164 136.786 4.92968 137.396 4.91745 138.018C4.90522 138.639 5.03302 139.255 5.29137 139.82C6.0765 141.625 8.29843 142.175 10.3476 142.042C16.9427 141.767 23.2238 139.443 27.118 134.387L21.8577 133.774V133.743Z" fill="white"/>
<path d="M46.5815 112.395L38.7929 124.832C37.2619 127.422 35.2049 130.155 33.8466 132.926C36.3325 133.061 38.8062 132.493 40.9835 131.285C41.4624 131.489 41.6273 132.07 41.9727 132.447C39.2405 134.324 35.6917 134.724 32.135 134.63C27.118 139.176 21.0019 142.999 13.9357 143.918C10.1042 144.295 5.84096 143.439 4.06657 139.922C3.69699 138.977 3.6161 137.943 3.83413 136.953C4.05216 135.962 4.55931 135.058 5.29137 134.355C6.88226 133.103 8.71132 132.188 10.6672 131.666C12.623 131.144 14.6647 131.025 16.6679 131.317C20.4145 132.088 24.2156 132.566 28.0366 132.746C28.8534 131.612 29.5956 130.427 30.2586 129.197C28.2094 129.582 25.0688 130.532 23.7655 128.278C21.9911 125.679 24.7234 123.465 25.6812 121.275L31.0123 112.497C32.7474 112.364 34.7652 112.497 36.7437 112.434C33.8074 117.184 31.1458 121.997 28.1073 126.904C28.0705 127.113 28.1037 127.327 28.2017 127.515C28.2997 127.702 28.457 127.852 28.649 127.941C32.5747 127.799 33.2578 123.874 35.307 121.377C37.1206 118.346 39.1384 115.441 40.9049 112.434C42.7579 112.324 44.6971 112.293 46.5108 112.293L46.6129 112.395H46.5815ZM21.8577 133.743C18.2382 132.958 14.1398 131.929 10.3476 133.091C8.54182 133.876 6.42196 134.496 5.36203 136.232C5.08164 136.786 4.92968 137.396 4.91745 138.018C4.90522 138.639 5.03302 139.255 5.29137 139.82C6.0765 141.625 8.29843 142.175 10.3476 142.042C16.9427 141.767 23.2238 139.443 27.118 134.387L21.8577 133.774V133.743Z" fill="white"/>
<path d="M93.2346 42.2467C90.2452 45.7023 88.0026 49.7386 86.6474 54.1022C86.5184 54.6455 86.5157 55.2111 86.6396 55.7555C86.7634 56.3 87.0105 56.8087 87.3618 57.2427C88.1575 58.0663 89.2211 58.5786 90.361 58.6874L122.811 64.5916H122.944C129.437 56.6225 138.969 51.1658 149.748 50.6476L149.442 51.0559C143.642 56.2638 138.83 62.4772 135.239 69.3966C136.164 75.1465 139.282 80.3139 143.938 83.8116C139.823 83.9974 135.723 83.1948 131.982 81.471C128.24 79.7471 124.966 77.1521 122.434 73.9032L109.181 76.0231L109.008 76.1252L110.311 77.4834C107.265 79.3363 103.991 80.9066 100.89 82.6103L95.5193 79.6739C88.7841 80.665 81.9705 81.0199 75.1687 80.7339C74.775 80.7701 74.3967 80.9049 74.0688 81.1258C73.7408 81.3468 73.4738 81.6467 73.2923 81.9979C71.5179 87.2269 73.0567 93.0918 76.0559 97.3316C68.5815 96.3109 63.219 90.022 61.1384 83.1992C61.1384 83.0579 61.1384 82.893 60.9657 82.8616C54.9594 84.9736 48.6784 88.3182 44.7527 93.2018C44.8462 89.0404 46.1146 84.9903 48.4114 81.519C48.9218 80.6004 49.7776 79.8153 50.3193 78.9909C46.4037 78.1376 42.5566 76.9961 38.8093 75.5756C39.4867 74.7774 40.2187 74.0271 40.9998 73.3301C39.9374 73.5252 38.8885 73.7875 37.8593 74.1152C34.272 72.3291 31.0604 69.8718 28.3984 66.8763C37.4432 61.7572 47.9325 59.7394 58.312 57.6903C62.9207 56.9051 67.7335 56.3948 72.5228 55.8844C78.0188 49.4621 84.2292 43.1732 92.9363 42.1211H93.2425V42.2546L93.2346 42.2467ZM86.8201 46.7848C81.2771 49.5563 77.6576 53.7882 73.7633 58.5618C70.9683 58.7659 68.1026 59.0407 65.4017 59.3469C54.0565 61.0663 42.8606 63.0763 32.646 67.4494C34.3195 68.9379 36.1645 70.2214 38.1419 71.273C43.0254 69.8441 48.6313 69.0511 53.9231 69.9776C50.2015 70.6999 46.5114 71.9954 43.7164 74.4842C48.9256 76.1342 54.313 77.1569 59.7645 77.5305C59.7645 76.7454 59.4975 75.9603 59.5289 75.1751C60.4328 75.011 61.3504 74.9348 62.269 74.9475C62.6694 81.8331 65.1033 88.5616 70.8427 92.291C70.1203 88.5616 69.7749 84.1256 71.2431 80.6083C71.6207 79.9893 72.1216 79.4546 72.7145 79.0372C73.3074 78.6199 73.9797 78.3289 74.6898 78.1822C81.8659 78.3235 89.0656 78.1822 95.9355 76.8553L100.96 79.5797L105.875 76.8867L103.52 74.6334C103.449 74.5627 103.308 74.3979 103.52 74.3272L121.923 71.3751L123.596 71.171C126.736 75.7483 131.447 79.407 137.053 80.4669C134.581 77.2822 133.03 73.4802 132.57 69.4751C134.842 63.9254 138.122 58.8438 142.243 54.4869C137.214 56.014 132.583 58.6273 128.675 62.142C126.982 63.7772 125.385 65.51 123.894 67.3317L89.0263 61.0506L87.456 60.501C86.3117 59.9152 85.3707 58.998 84.7558 57.869C84.1409 56.7401 83.8807 55.452 84.0093 54.1729C84.6498 51.604 85.6017 49.1229 86.8436 46.7848H86.8201ZM53.5855 79.6033C51.7087 81.2832 50.1963 83.33 49.1416 85.6174C50.8037 84.492 52.5522 83.4996 54.3706 82.6496C56.2157 81.6917 58.4376 81.0793 60.2434 80.2942C58.0215 80.1293 55.7681 79.9252 53.5855 79.5797V79.6033Z" fill="white"/>
<path d="M41.6592 66.9096C41.7737 67.1057 41.8206 67.3339 41.7928 67.5592C41.7649 67.7846 41.6639 67.9945 41.5051 68.1568C41.3464 68.3191 41.1387 68.4248 40.9141 68.4577C40.6894 68.4905 40.4602 68.4487 40.2616 68.3386C40.0589 68.1916 39.9094 67.9827 39.8357 67.7434C39.7621 67.504 39.7683 67.2472 39.8534 67.0117C39.9554 66.627 40.3637 66.4935 40.6385 66.3914C40.8353 66.3772 41.0321 66.4181 41.2069 66.5097C41.3817 66.6012 41.5274 66.7397 41.6278 66.9096H41.6592Z" fill="white"/>
</svg>
