<svg width="1959" height="354" viewBox="0 0 1959 354" fill="none" xmlns="http://www.w3.org/2000/svg">
<path fill-rule="evenodd" clip-rule="evenodd" d="M239.349 27.0112L239.21 29.2055C237.532 55.8145 236.694 79.5313 236.694 100.36C236.694 111.371 237.054 119.923 237.761 126.05L238.018 128.28H225.936L225.555 126.768C217.664 95.4428 207.564 73.1361 195.405 59.5747C183.674 46.49 171.284 39.8985 158.214 39.3913V243.28C158.214 253.28 159.175 260.247 160.921 264.423C162.815 268.394 166.045 271.149 170.811 272.678C176.074 274.041 184.483 274.76 196.174 274.76H198.174V286.003L196.132 285.959C162.297 285.239 136.033 284.88 117.334 284.88C100.317 284.88 75.6147 285.239 43.2188 285.959L41.1744 286.005V274.76H43.1744C54.8897 274.76 63.1719 274.038 68.1797 272.678C73.2205 271.137 76.4042 268.375 78.0511 264.464L78.0682 264.423L78.0869 264.383C80.0474 260.245 81.1344 253.301 81.1344 243.28V39.3903C67.8251 39.8895 55.3157 46.4889 43.5836 59.5747C31.6697 72.891 21.6881 95.1909 13.7947 126.765L13.416 128.28H1.33037L1.58759 126.05C2.29464 119.923 2.65441 111.371 2.65441 100.36C2.65441 79.5313 1.81642 55.8145 0.138378 29.2055L0 27.0112L2.19754 27.0806C24.9626 27.7995 64.1741 28.1596 119.854 28.1596C175.295 28.1596 214.386 27.7995 237.151 27.0806L239.349 27.0112ZM42.0944 58.2396C54.1071 44.8408 67.1204 37.8906 81.1344 37.3889C81.6796 37.3694 82.2262 37.3596 82.7744 37.3596H83.1344V243.28C83.1344 253.36 82.0544 260.68 79.8944 265.24C77.9744 269.8 74.2544 272.92 68.7344 274.6C63.4544 276.04 54.9344 276.76 43.1744 276.76V283.96C43.8444 283.945 44.511 283.93 45.1744 283.915C76.5934 283.225 100.647 282.88 117.334 282.88C135.684 282.88 161.297 283.225 194.174 283.917C194.838 283.931 195.505 283.945 196.174 283.96V276.76C184.414 276.76 175.774 276.04 170.254 274.6C164.974 272.92 161.254 269.8 159.094 265.24C157.174 260.68 156.214 253.36 156.214 243.28V37.3596H156.574C157.122 37.3596 157.669 37.3697 158.214 37.3899C171.996 37.8995 184.889 44.8494 196.894 58.2396C209.374 72.1596 219.574 94.8396 227.494 126.28H235.774C235.7 125.638 235.63 124.972 235.564 124.28C234.984 118.238 234.694 110.265 234.694 100.36C234.694 80.0049 235.493 56.9132 237.089 31.0846C237.13 30.4181 237.172 29.7498 237.214 29.0796C236.559 29.1003 235.889 29.1208 235.207 29.1409C212.151 29.82 173.7 30.1596 119.854 30.1596C65.7757 30.1596 27.2049 29.82 4.14223 29.1408C3.45936 29.1207 2.79009 29.1003 2.13441 29.0796C2.17667 29.7498 2.2184 30.4181 2.2596 31.0846C3.85614 56.9132 4.65441 80.0049 4.65441 100.36C4.65441 110.265 4.36461 118.238 3.785 124.28C3.71861 124.972 3.64841 125.638 3.57441 126.28H11.8544C19.7744 94.5996 29.8544 71.9196 42.0944 58.2396ZM393.848 223.254L403.206 226.557L402.627 228.399C397.246 245.52 388.065 260.214 375.098 272.449C362.194 284.852 345.596 291 325.479 291C299.832 291 279.12 283.043 263.563 266.992C247.92 250.852 240.319 225.269 240.319 190.72C240.319 157.522 248.803 132.313 266.125 115.485C283.602 98.5008 306.574 90.0796 334.839 90.0796C357.925 90.0796 375.573 96.9359 387.398 110.95C399.167 124.899 404.879 145.606 404.879 172.72V174.72H311.867C311.716 177.425 311.639 181.072 311.639 185.68C311.639 208.585 315.595 224.44 323.068 233.734C330.893 243.165 340.189 247.76 351.039 247.76C367.824 247.76 381.773 240.109 392.973 224.475L393.848 223.254ZM309.999 172.72H402.879C402.879 172.049 402.876 171.382 402.868 170.72C402.31 118.293 379.633 92.0796 334.839 92.0796C306.999 92.0796 284.559 100.36 267.519 116.92C250.719 133.24 242.319 157.84 242.319 190.72C242.319 225.04 249.879 250 264.999 265.6C280.119 281.2 300.279 289 325.479 289C345.159 289 361.239 283 373.719 271C386.439 259 395.439 244.6 400.719 227.8C400.719 227.8 400.719 227.8 400.719 227.8L394.599 225.64C383.079 241.72 368.559 249.76 351.039 249.76C339.519 249.76 329.679 244.84 321.519 235C313.599 225.16 309.639 208.72 309.639 185.68C309.639 179.92 309.759 175.6 309.999 172.72ZM344.056 119.196L344.052 119.178C342.639 113.173 340.859 108.888 338.815 106.145C336.819 103.465 334.665 102.36 332.319 102.36C326.961 102.36 322.084 106.655 318.179 117.421C314.447 127.714 311.922 143.159 310.677 163.88H348.338C348.456 145.676 347.016 130.804 344.061 119.214L344.056 119.196ZM350.319 165.88H308.559C308.596 165.208 308.634 164.541 308.674 163.88C311.204 121.533 319.086 100.36 332.319 100.36C338.559 100.36 343.119 106.48 345.999 118.72C349.119 130.96 350.559 146.68 350.319 165.88ZM576.361 166.921L576.348 166.934C569.454 173.828 560.646 177.24 550.094 177.24C539.388 177.24 530.686 174.241 524.229 168.042L524.199 168.014L524.171 167.985C517.989 161.545 514.974 153.095 514.974 142.84C514.974 133.732 517.898 125.71 523.731 118.863L523.735 118.858C528.74 113.02 534.72 108.81 541.652 106.255C539.028 105.118 535.861 104.52 532.094 104.52C524.794 104.52 518.697 106.479 513.691 110.317C508.664 114.171 504.592 120.031 501.565 128.065L501.562 128.074C495.43 144.11 492.334 163.296 492.334 185.68C492.334 208.568 496.644 224.395 504.797 233.68C513.07 243.102 523.208 247.76 535.334 247.76C552.118 247.76 566.068 240.109 577.268 224.475L578.143 223.254L587.501 226.557L586.922 228.399C581.541 245.52 572.36 260.212 559.394 272.447C546.491 284.851 529.891 291 509.774 291C483.188 291 461.65 283.058 445.37 267.025C428.985 250.887 421.014 225.29 421.014 190.72C421.014 157.521 429.498 132.313 446.82 115.485C464.297 98.5007 487.269 90.0796 515.534 90.0796C525.505 90.0796 534.669 91.1725 543.012 93.3774C551.518 95.324 558.555 97.9003 564.06 101.151C571.065 105.157 576.595 110.558 580.614 117.34C584.652 124.154 586.654 131.832 586.654 140.32C586.654 150.872 583.243 159.784 576.373 166.908L576.361 166.921ZM563.054 102.88C557.774 99.7596 550.934 97.2396 542.534 95.3196C534.374 93.1596 525.374 92.0796 515.534 92.0796C487.694 92.0796 465.254 100.36 448.214 116.92C431.414 133.24 423.014 157.84 423.014 190.72C423.014 225.04 430.934 250 446.774 265.6C462.614 281.2 483.614 289 509.774 289C529.454 289 545.534 283 558.014 271C570.734 259 579.734 244.6 585.014 227.8L578.894 225.64C567.374 241.72 552.854 249.76 535.334 249.76C522.614 249.76 511.934 244.84 503.294 235C494.654 225.16 490.334 208.72 490.334 185.68C490.334 163.12 493.454 143.68 499.694 127.36C505.934 110.8 516.734 102.52 532.094 102.52C536.963 102.52 541.042 103.468 544.33 105.364C545.094 105.805 545.815 106.297 546.494 106.84C545.669 107.052 544.856 107.286 544.056 107.542C536.715 109.894 530.448 114.1 525.254 120.16C519.734 126.64 516.974 134.2 516.974 142.84C516.974 152.68 519.854 160.6 525.614 166.6C531.614 172.36 539.774 175.24 550.094 175.24C560.174 175.24 568.454 172 574.934 165.52C581.414 158.8 584.654 150.4 584.654 140.32C584.654 132.16 582.734 124.84 578.894 118.36C575.054 111.88 569.774 106.72 563.054 102.88ZM684.708 119.08C685.346 118.017 686.013 116.985 686.708 115.985C697.791 100.048 716.204 92.0796 741.948 92.0796C761.148 92.0796 774.708 96.8796 782.628 106.48C786.229 110.8 788.869 116.68 790.549 124.12C792.229 131.32 793.068 140.92 793.068 152.92V250.48C793.068 260.32 794.508 267.16 797.388 271C800.508 274.6 805.789 276.4 813.229 276.4V283.959C812.556 283.934 811.889 283.91 811.229 283.886C786.442 282.975 770.309 282.52 762.828 282.52C754.88 282.52 738.507 282.975 713.708 283.886C713.048 283.91 712.381 283.935 711.708 283.96V276.4C717.948 276.4 722.268 274.6 724.669 271C727.068 267.16 728.268 260.32 728.268 250.48V133.48C728.268 125.8 726.828 120.16 723.948 116.56C721.308 112.72 716.869 110.8 710.628 110.8C703.669 110.8 697.549 113.32 692.268 118.36C687.229 123.16 684.708 129.28 684.708 136.72V250.48C684.708 260.32 685.909 267.16 688.308 271C690.708 274.6 695.029 276.4 701.268 276.4V283.96C700.595 283.933 699.929 283.906 699.268 283.88C676.386 282.973 661.213 282.52 653.748 282.52C645.786 282.52 628.452 282.977 601.748 283.891C601.088 283.914 600.421 283.936 599.748 283.96V276.4C607.188 276.4 612.349 274.6 615.229 271C618.349 267.16 619.909 260.32 619.909 250.48V45.6396C619.909 34.5996 618.349 26.5596 615.229 21.5196C612.349 16.4796 607.188 13.9596 599.748 13.9596V6.39962C600.415 6.46413 601.082 6.52576 601.748 6.5845C608.522 7.18125 615.295 7.47963 622.068 7.47963C646.047 7.47963 666.261 5.9291 682.708 2.82805C683.381 2.70116 684.048 2.57169 684.708 2.43961V119.08ZM689.989 269.915C691.875 272.723 695.396 274.4 701.268 274.4H703.268V286.041L701.189 285.958C677.181 284.998 661.381 284.52 653.748 284.52C645.63 284.52 627.666 284.998 599.817 285.958L597.748 286.03V274.4H599.748C606.952 274.4 611.349 272.647 613.667 269.75L613.672 269.744L613.676 269.738C616.333 266.469 617.909 260.245 617.909 250.48V45.6396C617.909 34.6992 616.346 27.1251 613.528 22.5723L613.509 22.5424L613.492 22.5119C611.071 18.2746 606.705 15.9596 599.748 15.9596H597.748V4.19673L599.941 4.40892C607.317 5.12276 614.693 5.47963 622.068 5.47963C646.951 5.47963 667.689 3.80386 684.316 0.478447L686.708 0V112.604C698.398 97.4879 716.965 90.0796 741.948 90.0796C761.419 90.0796 775.703 94.9429 784.171 105.207C788.028 109.838 790.772 116.034 792.497 123.669C794.226 131.08 795.068 140.851 795.068 152.92V250.48C795.068 260.206 796.511 266.447 798.946 269.743C801.525 272.676 806.088 274.4 813.229 274.4H815.229V286.035L813.154 285.958C787.225 284.998 770.464 284.52 762.828 284.52C754.712 284.52 737.71 284.998 711.783 285.958L709.708 286.035V274.4H711.708C717.581 274.4 721.102 272.723 722.988 269.915C725.053 266.589 726.268 260.267 726.268 250.48V133.48C726.268 125.976 724.848 120.886 722.387 117.809L722.341 117.752L722.3 117.693C720.154 114.571 716.456 112.8 710.628 112.8C704.21 112.8 698.577 115.102 693.649 119.806L693.648 119.808C689.034 124.202 686.708 129.785 686.708 136.72V250.48C686.708 260.267 687.924 266.589 689.989 269.915ZM909.734 119.08C910.372 118.017 911.038 116.985 911.734 115.985C922.816 100.048 941.23 92.0796 966.974 92.0796C986.174 92.0796 999.734 96.8796 1007.65 106.48C1011.25 110.8 1013.89 116.68 1015.57 124.12C1017.25 131.32 1018.09 140.92 1018.09 152.92V250.48C1018.09 260.32 1019.53 267.16 1022.41 271C1025.53 274.6 1030.81 276.4 1038.25 276.4V283.96C1037.58 283.935 1036.91 283.91 1036.25 283.886C1011.47 282.975 995.334 282.52 987.854 282.52C979.906 282.52 963.532 282.975 938.734 283.886C938.073 283.91 937.406 283.935 936.734 283.96V276.4C942.974 276.4 947.294 274.6 949.694 271C952.094 267.16 953.294 260.32 953.294 250.48V133.48C953.294 125.8 951.854 120.16 948.974 116.56C946.334 112.72 941.894 110.8 935.654 110.8C928.694 110.8 922.574 113.32 917.294 118.36C912.254 123.16 909.734 129.28 909.734 136.72V250.48C909.734 260.32 910.934 267.16 913.334 271C915.734 274.6 920.054 276.4 926.294 276.4V283.959C925.621 283.932 924.954 283.906 924.294 283.88C901.412 282.973 886.238 282.52 878.774 282.52C870.811 282.52 853.478 282.977 826.774 283.891C826.113 283.914 825.446 283.936 824.774 283.96V276.4C832.214 276.4 837.374 274.6 840.254 271C843.374 267.16 844.934 260.32 844.934 250.48V136.36C844.934 125.32 843.374 117.28 840.254 112.24C837.374 107.2 832.214 104.68 824.774 104.68V97.1196C825.442 97.1823 826.109 97.2422 826.774 97.2994C833.747 97.8996 840.521 98.1996 847.094 98.1996C871.073 98.1996 891.286 96.6491 907.734 93.548C908.407 93.4212 909.073 93.2917 909.734 93.1596V119.08ZM948.013 269.915C950.079 266.589 951.294 260.267 951.294 250.48V133.48C951.294 125.976 949.873 120.886 947.412 117.809L947.367 117.752L947.326 117.693C945.179 114.571 941.481 112.8 935.654 112.8C929.235 112.8 923.603 115.102 918.675 119.806L918.673 119.808C914.059 124.202 911.734 129.785 911.734 136.72V250.48C911.734 260.266 912.949 266.587 915.014 269.914C916.899 272.722 920.421 274.4 926.294 274.4H928.294V286.041L926.214 285.958C902.206 284.998 886.407 284.52 878.774 284.52C870.655 284.52 852.692 284.998 824.843 285.958L822.774 286.03V274.4H824.774C831.977 274.4 836.375 272.647 838.692 269.75L838.697 269.744L838.702 269.738C841.358 266.469 842.934 260.245 842.934 250.48V136.36C842.934 125.419 841.372 117.845 838.553 113.292L838.535 113.262L838.517 113.232C836.096 108.995 831.73 106.68 824.774 106.68H822.774V94.9233L824.961 95.1283C832.583 95.8429 839.96 96.1996 847.094 96.1996C871.976 96.1996 892.715 94.5239 909.342 91.1985L911.734 90.72V112.603C923.423 97.4879 941.991 90.0796 966.974 90.0796C986.444 90.0796 1000.73 94.9429 1009.2 105.207C1013.05 109.838 1015.8 116.033 1017.52 123.668C1019.25 131.08 1020.09 140.85 1020.09 152.92V250.48C1020.09 260.206 1021.54 266.447 1023.97 269.743C1026.55 272.676 1031.11 274.4 1038.25 274.4H1040.25V286.035L1038.18 285.958C1012.25 284.998 995.49 284.52 987.854 284.52C979.738 284.52 962.736 284.998 936.808 285.958L934.734 286.035V274.4H936.734C942.606 274.4 946.127 272.723 948.013 269.915ZM1215.69 114.044C1199.13 97.9786 1175.76 90.0796 1145.89 90.0796C1116.02 90.0796 1092.66 97.9786 1076.1 114.044C1059.46 129.95 1051.37 155.682 1051.37 190.72C1051.37 225.764 1059.46 251.501 1076.11 267.406C1092.67 283.225 1116.03 291 1145.89 291C1175.76 291 1199.11 283.225 1215.68 267.406C1232.33 251.501 1240.41 225.764 1240.41 190.72C1240.41 155.682 1232.33 129.95 1215.69 114.044ZM1137.1 106.208C1134.27 109.7 1131.69 115.09 1129.45 122.537C1124.98 137.367 1122.69 160.047 1122.69 190.72C1122.69 221.392 1124.98 244.072 1129.45 258.902C1131.69 266.223 1134.27 271.519 1137.09 274.949C1139.87 278.335 1142.8 279.8 1145.89 279.8C1148.99 279.8 1151.91 278.335 1154.7 274.949C1157.52 271.517 1160.1 266.219 1162.34 258.894C1166.81 244.063 1169.09 221.386 1169.09 190.72C1169.09 160.047 1166.81 137.367 1162.34 122.537C1160.09 115.09 1157.52 109.7 1154.69 106.208C1151.9 102.761 1148.97 101.28 1145.89 101.28C1142.81 101.28 1139.89 102.761 1137.1 106.208ZM1164.25 259.48C1159.69 274.36 1153.57 281.8 1145.89 281.8C1138.21 281.8 1132.09 274.36 1127.53 259.48C1122.97 244.36 1120.69 221.44 1120.69 190.72C1120.69 160 1122.97 137.08 1127.53 121.96C1132.09 106.84 1138.21 99.2796 1145.89 99.2796C1153.57 99.2796 1159.69 106.84 1164.25 121.96C1168.81 137.08 1171.09 160 1171.09 190.72C1171.09 221.44 1168.81 244.36 1164.25 259.48ZM1337.56 250.48C1337.56 260.32 1339 267.16 1341.88 271C1345 274.6 1350.28 276.4 1357.72 276.4V283.96C1357.05 283.935 1356.38 283.91 1355.72 283.886C1330.92 282.975 1314.55 282.52 1306.6 282.52C1298.64 282.52 1281.3 282.977 1254.6 283.891C1253.94 283.914 1253.27 283.936 1252.6 283.96V276.4C1260.04 276.4 1265.2 274.6 1268.08 271C1271.2 267.16 1272.76 260.32 1272.76 250.48V45.6396C1272.76 34.5996 1271.2 26.5596 1268.08 21.5196C1265.2 16.4796 1260.04 13.9596 1252.6 13.9596V6.39962C1253.27 6.46413 1253.93 6.52576 1254.6 6.5845C1261.37 7.18125 1268.15 7.47963 1274.92 7.47963C1298.9 7.47963 1319.11 5.92909 1335.56 2.82804C1336.23 2.70116 1336.9 2.57169 1337.56 2.43961V250.48ZM1343.44 269.743C1341 266.446 1339.56 260.206 1339.56 250.48V0L1337.17 0.478447C1320.54 3.80386 1299.8 5.47963 1274.92 5.47963C1267.54 5.47963 1260.17 5.12276 1252.79 4.40892L1250.6 4.19673V15.9596H1252.6C1259.56 15.9596 1263.92 18.2746 1266.34 22.5119L1266.36 22.5424L1266.38 22.5723C1269.2 27.1251 1270.76 34.6992 1270.76 45.6396V250.48C1270.76 260.245 1269.18 266.469 1266.53 269.738L1266.52 269.744L1266.52 269.75C1264.2 272.647 1259.8 274.4 1252.6 274.4H1250.6V286.03L1252.67 285.958C1280.52 284.998 1298.48 284.52 1306.6 284.52C1314.72 284.52 1331.72 284.998 1357.65 285.958L1359.72 286.035V274.4H1357.72C1350.58 274.4 1346.02 272.676 1343.44 269.743ZM1534.2 114.044C1517.64 97.9786 1494.28 90.0796 1464.41 90.0796C1434.54 90.0796 1411.18 97.9786 1394.62 114.044C1377.97 129.95 1369.89 155.682 1369.89 190.72C1369.89 225.764 1377.98 251.501 1394.63 267.406C1411.19 283.225 1434.55 291 1464.41 291C1494.27 291 1517.63 283.225 1534.19 267.406C1550.84 251.501 1558.93 225.764 1558.93 190.72C1558.93 155.682 1550.85 129.95 1534.2 114.044ZM1455.61 106.208C1452.79 109.7 1450.21 115.09 1447.96 122.537C1443.49 137.367 1441.21 160.047 1441.21 190.72C1441.21 221.392 1443.49 244.072 1447.96 258.902C1450.21 266.223 1452.78 271.519 1455.6 274.949C1458.39 278.335 1461.32 279.8 1464.41 279.8C1467.5 279.8 1470.43 278.335 1473.21 274.949C1476.04 271.517 1478.61 266.219 1480.86 258.894C1485.33 244.063 1487.61 221.386 1487.61 190.72C1487.61 160.047 1485.33 137.367 1480.85 122.537C1478.61 115.09 1476.03 109.7 1473.2 106.208C1470.41 102.761 1467.49 101.28 1464.41 101.28C1461.33 101.28 1458.4 102.761 1455.61 106.208ZM1482.77 259.48C1478.21 274.36 1472.09 281.8 1464.41 281.8C1456.73 281.8 1450.61 274.36 1446.05 259.48C1441.49 244.36 1439.21 221.44 1439.21 190.72C1439.21 160 1441.49 137.08 1446.05 121.96C1450.61 106.84 1456.73 99.2796 1464.41 99.2796C1472.09 99.2796 1478.21 106.84 1482.77 121.96C1487.33 137.08 1489.61 160 1489.61 190.72C1489.61 221.44 1487.33 244.36 1482.77 259.48ZM1739.22 129.901L1739.18 129.854C1735.12 125.797 1733.19 120.323 1733.19 113.68C1733.19 109.003 1734.23 104.096 1736.25 98.972C1728.93 102.676 1723.33 107.403 1719.36 113.121C1727.92 122.738 1732.15 134.979 1732.15 149.68C1732.15 169.218 1724.81 184.267 1710.05 194.522L1710.05 194.526C1695.69 204.43 1676.52 209.28 1652.75 209.28C1648.67 209.28 1645.47 209.184 1643.22 208.984C1637.74 212.949 1635.31 217.304 1635.31 222.04C1635.31 225.506 1636.28 227.759 1637.88 229.185C1639.53 230.651 1642.21 231.56 1646.27 231.56H1681.19C1705.85 231.56 1725.34 235.782 1739.46 244.444C1754.04 252.999 1761.31 266.531 1761.31 284.68C1761.31 297.631 1757.07 309.347 1748.64 319.764C1740.41 330.229 1727.68 338.443 1710.67 344.52C1693.82 350.625 1672.81 353.64 1647.71 353.64C1622.88 353.64 1603.16 350.872 1588.66 345.223C1574.19 339.581 1566.15 331.262 1566.15 319.96C1566.15 312.236 1570.04 305.357 1577.32 299.339C1584.61 293.299 1595.51 288.646 1609.81 285.254L1611.21 284.922L1616.33 293.116L1615.42 294.226C1609.12 301.922 1606.15 309.168 1606.15 316C1606.15 324.618 1609.95 331.186 1617.78 335.885L1617.79 335.889L1617.79 335.893C1626 340.906 1637.58 343.52 1652.75 343.52C1668.36 343.52 1679.97 340.322 1687.89 334.216L1687.91 334.197L1687.94 334.178C1696.07 328.31 1700.07 320.51 1700.07 310.6C1700.07 303.763 1697.46 298.345 1692.19 294.17C1687.24 290.296 1678 288.12 1663.91 288.12H1644.47C1627.94 288.12 1614.98 284.967 1605.86 278.381C1596.71 271.769 1592.07 262.769 1592.07 251.56C1592.07 241.439 1595.63 232.555 1602.69 224.995L1602.7 224.982L1602.71 224.97C1608.84 218.634 1617.15 212.723 1627.58 207.21C1611.93 204.331 1599.2 198.646 1589.5 190.056L1589.49 190.04L1589.47 190.024C1578.68 179.985 1573.35 166.459 1573.35 149.68C1573.35 130.156 1580.56 115.218 1595.09 105.195C1609.69 95.0525 1628.97 90.0796 1652.75 90.0796C1677.24 90.0796 1696.63 95.0149 1710.68 105.13C1715.16 99.4209 1720.49 94.8414 1726.66 91.4113C1733.43 87.6513 1740.6 85.7596 1748.15 85.7596C1756.46 85.7596 1763.16 88.161 1767.95 93.2051C1768.76 94.0184 1769.5 94.8734 1770.17 95.7694C1786.3 96.7761 1802.68 97.2796 1819.32 97.2796C1834.86 97.2796 1852.21 96.5623 1871.37 95.1252L1873.52 94.964V106.68H1871.52C1864.63 106.68 1859.42 107.157 1855.82 108.056C1854.3 108.464 1853.36 109.069 1852.81 109.74C1852.26 110.394 1851.92 111.292 1851.92 112.6C1851.92 114.174 1852.31 115.79 1853.15 117.465L1853.18 117.524L1895.41 218.125L1908.86 177.136C1913.38 163.346 1915.6 151.324 1915.6 141.04C1915.6 130.015 1913.25 121.747 1908.81 115.979C1904.37 110.202 1898.55 107.121 1891.2 106.676L1889.32 106.562V94.8917L1891.53 95.1312C1900.31 96.0796 1912.82 96.5596 1929.12 96.5596C1942.82 96.5596 1951.87 96.0738 1956.45 95.1585L1958.84 94.68V106.121L1957.47 106.577C1952.89 108.106 1948.51 111.307 1944.36 116.364C1940.5 121.378 1936.75 129.277 1933.18 140.22L1933.18 140.228L1933.17 140.237L1888.17 274.157L1888.17 274.175L1873.05 317.734C1873.05 317.734 1873.05 317.735 1873.05 317.735C1868.68 330.36 1863.23 339.435 1856.54 344.585C1848.6 350.731 1836.92 353.64 1821.84 353.64C1809.51 353.64 1798.02 350.678 1787.4 344.755C1781.99 341.86 1777.84 338.156 1775.04 333.606C1772.24 329.048 1770.88 323.755 1770.88 317.8C1770.88 308.799 1774.39 301.49 1781.37 296.061C1788.29 290.678 1797.28 288.08 1808.16 288.08C1818.52 288.08 1826.94 290.424 1833.16 295.352C1839.49 300.36 1842.56 307.589 1842.56 316.72C1842.56 322.98 1840.33 328.8 1836.03 334.138C1833.35 337.807 1829.83 340.792 1825.53 343.117C1826.71 343.145 1828 343.16 1829.4 343.16C1837.26 343.16 1843.78 340.892 1849.08 336.43C1854.41 331.945 1858.65 325.12 1861.69 315.766C1861.69 315.758 1861.69 315.75 1861.7 315.741L1863.27 310.388L1779.7 125.664L1779.69 125.655L1779.69 125.647C1777.99 121.789 1776.32 118.638 1774.7 116.146C1774.02 121.21 1772.18 125.541 1769.09 129.043L1769.07 129.065L1769.05 129.087C1765.05 133.352 1759.95 135.48 1753.91 135.48C1748.38 135.48 1743.47 133.619 1739.27 129.945L1739.22 129.901ZM1772.93 113.663C1772.97 112.964 1772.99 112.25 1772.99 111.52C1772.99 111.231 1772.99 110.945 1772.98 110.661C1773.24 110.933 1773.5 111.219 1773.75 111.52C1774.16 111.988 1774.56 112.491 1774.96 113.029C1777.15 115.949 1779.33 119.885 1781.52 124.84L1865.4 310.24L1863.6 316.36C1857.36 335.56 1845.96 345.16 1829.4 345.16C1826.33 345.16 1823.75 345.092 1821.63 344.956C1819.77 344.836 1818.28 344.664 1817.16 344.44C1818.61 343.987 1819.99 343.483 1821.3 342.929C1826.94 340.541 1831.32 337.204 1834.44 332.92C1838.52 327.88 1840.56 322.48 1840.56 316.72C1840.56 308.08 1837.68 301.48 1831.92 296.92C1826.16 292.36 1818.24 290.08 1808.16 290.08C1797.6 290.08 1789.08 292.6 1782.6 297.64C1776.12 302.68 1772.88 309.4 1772.88 317.8C1772.88 329.08 1778.04 337.48 1788.36 343C1798.68 348.76 1809.84 351.64 1821.84 351.64C1836.72 351.64 1847.88 348.76 1855.32 343C1861.56 338.2 1866.84 329.56 1871.16 317.08L1886.28 273.52L1931.28 139.6C1934.88 128.56 1938.72 120.4 1942.8 115.12C1947.12 109.84 1951.8 106.36 1956.84 104.68V97.1196C1956.24 97.2392 1955.57 97.3513 1954.84 97.456C1949.67 98.1917 1941.09 98.5596 1929.12 98.5596C1913.99 98.5596 1902.05 98.147 1893.32 97.3218C1892.63 97.2569 1891.97 97.1895 1891.32 97.1196V104.68C1899.24 105.16 1905.6 108.52 1910.4 114.76C1915.2 121 1917.6 129.76 1917.6 141.04C1917.6 151.6 1915.32 163.84 1910.76 177.76L1895.64 223.84L1851.36 118.36C1850.4 116.44 1849.92 114.52 1849.92 112.6C1849.92 109.24 1851.72 107.08 1855.32 106.12C1859.16 105.16 1864.56 104.68 1871.52 104.68V97.1196C1870.85 97.1698 1870.18 97.2191 1869.52 97.2675C1851.11 98.6089 1834.38 99.2796 1819.32 99.2796C1803.16 99.2796 1787.24 98.8059 1771.56 97.8585C1770.73 97.8089 1769.91 97.7579 1769.09 97.7056C1768.59 96.9726 1768.04 96.269 1767.45 95.5948C1767.15 95.2556 1766.84 94.9239 1766.51 94.5996C1762.19 90.0396 1756.07 87.7596 1748.15 87.7596C1740.95 87.7596 1734.11 89.5596 1727.63 93.1596C1721.71 96.4474 1716.6 100.836 1712.28 106.326C1711.87 106.847 1711.47 107.377 1711.07 107.918C1711.07 107.919 1711.07 107.919 1711.07 107.92C1710.55 107.513 1710.01 107.115 1709.47 106.725C1695.89 96.9613 1676.98 92.0796 1652.75 92.0796C1629.23 92.0796 1610.39 96.9996 1596.23 106.84C1582.31 116.44 1575.35 130.72 1575.35 149.68C1575.35 166 1580.51 178.96 1590.83 188.56C1600.71 197.314 1613.94 203.023 1630.54 205.69C1631.69 205.874 1632.85 206.044 1634.03 206.2C1632.95 206.718 1631.9 207.24 1630.86 207.766C1619.44 213.56 1610.53 219.758 1604.15 226.36C1597.43 233.56 1594.07 241.96 1594.07 251.56C1594.07 262.12 1598.39 270.52 1607.03 276.76C1615.67 283 1628.15 286.12 1644.47 286.12H1663.91C1678.07 286.12 1687.91 288.28 1693.43 292.6C1699.19 297.16 1702.07 303.16 1702.07 310.6C1702.07 321.16 1697.75 329.56 1689.11 335.8C1680.71 342.28 1668.59 345.52 1652.75 345.52C1637.39 345.52 1625.39 342.88 1616.75 337.6C1608.35 332.56 1604.15 325.36 1604.15 316C1604.15 308.56 1607.39 300.88 1613.87 292.96L1610.27 287.2C1596.11 290.56 1585.55 295.12 1578.59 300.88C1571.63 306.64 1568.15 313 1568.15 319.96C1568.15 330.04 1575.23 337.84 1589.39 343.36C1603.55 348.88 1622.99 351.64 1647.71 351.64C1672.67 351.64 1693.43 348.64 1709.99 342.64C1726.79 336.64 1739.15 328.6 1747.07 318.52C1755.23 308.44 1759.31 297.16 1759.31 284.68C1759.31 267.16 1752.35 254.32 1738.43 246.16C1724.75 237.76 1705.67 233.56 1681.19 233.56H1646.27C1637.63 233.56 1633.31 229.72 1633.31 222.04C1633.31 216.28 1636.43 211.24 1642.67 206.92C1644.83 207.16 1648.19 207.28 1652.75 207.28C1676.27 207.28 1694.99 202.48 1708.91 192.88C1723.07 183.04 1730.15 168.64 1730.15 149.68C1730.15 134.8 1725.71 122.68 1716.83 113.32C1721.42 106.116 1728.28 100.401 1737.43 96.176C1738.34 95.7558 1739.28 95.3503 1740.23 94.9596C1739.77 95.8765 1739.35 96.7845 1738.95 97.6836C1736.44 103.374 1735.19 108.706 1735.19 113.68C1735.19 119.92 1736.99 124.84 1740.59 128.44C1744.43 131.8 1748.87 133.48 1753.91 133.48C1759.43 133.48 1763.99 131.56 1767.59 127.72C1770.8 124.083 1772.58 119.397 1772.93 113.663ZM1661.66 111.09L1661.65 111.055L1661.64 111.02C1659.28 103.247 1656.11 100.56 1652.75 100.56C1649.36 100.56 1646.09 103.289 1643.49 111.054C1641.2 118.42 1639.99 131.223 1639.99 149.68C1639.99 168.114 1641.19 181.043 1643.49 188.662C1646.07 196.14 1649.33 198.8 1652.75 198.8C1656.15 198.8 1659.3 196.177 1661.64 188.683L1661.65 188.665L1661.65 188.647C1664.18 181.058 1665.51 168.141 1665.51 149.68C1665.51 131.211 1664.18 118.427 1661.66 111.09ZM1641.59 110.44C1644.23 102.52 1647.95 98.5596 1652.75 98.5596C1657.55 98.5596 1661.15 102.52 1663.55 110.44C1666.19 118.12 1667.51 131.2 1667.51 149.68C1667.51 168.16 1666.19 181.36 1663.55 189.28C1661.15 196.96 1657.55 200.8 1652.75 200.8C1647.95 200.8 1644.23 196.96 1641.59 189.28C1639.19 181.36 1637.99 168.16 1637.99 149.68C1637.99 131.2 1639.19 118.12 1641.59 110.44ZM1214.29 115.48C1198.21 99.8796 1175.41 92.0796 1145.89 92.0796C1116.37 92.0796 1093.57 99.8796 1077.49 115.48C1061.41 130.84 1053.37 155.92 1053.37 190.72C1053.37 225.52 1061.41 250.6 1077.49 265.96C1093.57 281.32 1116.37 289 1145.89 289C1175.41 289 1198.21 281.32 1214.29 265.96C1230.37 250.6 1238.41 225.52 1238.41 190.72C1238.41 155.92 1230.37 130.84 1214.29 115.48ZM1532.81 115.48C1516.73 99.8796 1493.93 92.0796 1464.41 92.0796C1434.89 92.0796 1412.09 99.8796 1396.01 115.48C1379.93 130.84 1371.89 155.92 1371.89 190.72C1371.89 225.52 1379.93 250.6 1396.01 265.96C1412.09 281.32 1434.89 289 1464.41 289C1493.93 289 1516.73 281.32 1532.81 265.96C1548.89 250.6 1556.93 225.52 1556.93 190.72C1556.93 155.92 1548.89 130.84 1532.81 115.48Z" fill="#E9EBF0"/>
</svg>
