<svg width="14" height="12" viewBox="0 0 14 12" fill="none" xmlns="http://www.w3.org/2000/svg">
<path d="M13.9315 1.6457C13.4134 1.87296 12.8614 2.02359 12.2858 2.09673C12.8779 1.74322 13.3298 1.1877 13.5423 0.51812C12.9903 0.847251 12.3808 1.07973 11.7312 1.20947C11.207 0.65134 10.4599 0.305664 9.64496 0.305664C8.06373 0.305664 6.79074 1.5891 6.79074 3.16249C6.79074 3.38888 6.8099 3.60656 6.85691 3.81379C4.48246 3.69799 2.38142 2.55996 0.969981 0.826354C0.723568 1.25388 0.579028 1.74322 0.579028 2.27001C0.579028 3.25914 1.0884 4.13596 1.84767 4.64359C1.3888 4.63488 0.938635 4.50166 0.55726 4.29182C0.55726 4.30052 0.55726 4.31184 0.55726 4.32316C0.55726 5.71109 1.54727 6.86392 2.84551 7.12949C2.61303 7.19305 2.35965 7.22353 2.09669 7.22353C1.91384 7.22353 1.72925 7.21308 1.55598 7.17477C1.92603 8.30583 2.97612 9.13737 4.22473 9.16436C3.25301 9.9245 2.0192 10.3825 0.683515 10.3825C0.449291 10.3825 0.224646 10.372 0 10.3433C1.26515 11.1592 2.76453 11.625 4.38146 11.625C9.63712 11.625 12.5105 7.27142 12.5105 3.49772C12.5105 3.37147 12.5061 3.24957 12.5 3.12854C13.0669 2.72626 13.5432 2.22386 13.9315 1.6457Z" fill="#020F31"/>
</svg>
