<svg width="1320" height="354" viewBox="0 0 1320 354" fill="none" xmlns="http://www.w3.org/2000/svg">
<path d="M237.36 29.12L239.356 29.2459L239.494 27.0516L237.297 27.121L237.36 29.12ZM235.92 126.32V128.32H238.164L237.907 126.091L235.92 126.32ZM227.64 126.32L225.701 126.809L226.081 128.32H227.64V126.32ZM197.04 58.28L195.551 59.6151L197.04 58.28ZM156.36 37.4V35.4H154.36V37.4H156.36ZM159.24 265.28L157.397 266.056L157.414 266.097L157.433 266.136L159.24 265.28ZM170.4 274.64L169.794 276.546L169.844 276.562L169.895 276.575L170.4 274.64ZM196.32 276.8H198.32V274.8H196.32V276.8ZM196.32 284L196.277 286L198.32 286.043V284H196.32ZM43.32 284H41.32V286.045L43.3644 286L43.32 284ZM43.32 276.8V274.8H41.32V276.8H43.32ZM68.88 274.64L69.4062 276.57L69.4344 276.562L69.4623 276.553L68.88 274.64ZM80.04 265.28L78.2325 264.424L78.2138 264.463L78.1967 264.504L80.04 265.28ZM83.28 37.4H85.28V35.4H83.28V37.4ZM42.24 58.28L40.7509 56.9449L40.7495 56.9464L42.24 58.28ZM12 126.32V128.32H13.5616L13.9403 126.805L12 126.32ZM3.72 126.32L1.73318 126.091L1.47596 128.32H3.72V126.32ZM2.28 29.12L2.34313 27.121L0.145588 27.0516L0.283966 29.2459L2.28 29.12ZM235.364 28.9941C233.682 55.6652 232.84 79.4684 232.84 100.4H236.84C236.84 79.5716 237.678 55.8548 239.356 29.2459L235.364 28.9941ZM232.84 100.4C232.84 111.469 233.2 120.197 233.933 126.549L237.907 126.091C237.2 119.963 236.84 111.411 236.84 100.4H232.84ZM235.92 124.32H227.64V128.32H235.92V124.32ZM229.579 125.831C221.631 94.2768 211.331 71.2236 198.529 56.9449L195.551 59.6151C207.709 73.1764 217.809 95.4832 225.701 126.809L229.579 125.831ZM198.529 56.9449C185.79 42.7357 171.846 35.4 156.72 35.4V39.4C170.394 39.4 183.33 45.9843 195.551 59.6151L198.529 56.9449ZM156.72 35.4H156.36V39.4H156.72V35.4ZM154.36 37.4V243.32H158.36V37.4H154.36ZM154.36 243.32C154.36 253.447 155.313 261.107 157.397 266.056L161.083 264.504C159.327 260.333 158.36 253.353 158.36 243.32H154.36ZM157.433 266.136C159.855 271.25 164.043 274.716 169.794 276.546L171.006 272.734C166.197 271.204 162.945 268.43 161.047 264.424L157.433 266.136ZM169.895 276.575C175.676 278.083 184.53 278.8 196.32 278.8V274.8C184.59 274.8 176.164 274.077 170.905 272.705L169.895 276.575ZM194.32 276.8V284H198.32V276.8H194.32ZM196.363 282C162.518 281.28 136.221 280.92 117.48 280.92V284.92C136.179 284.92 162.442 285.28 196.277 286L196.363 282ZM117.48 280.92C100.417 280.92 75.6797 281.28 43.2756 282L43.3644 286C75.7603 285.28 100.463 284.92 117.48 284.92V280.92ZM45.32 284V276.8H41.32V284H45.32ZM43.32 278.8C55.1025 278.8 63.8512 278.085 69.4062 276.57L68.3538 272.71C63.3488 274.075 55.0575 274.8 43.32 274.8V278.8ZM69.4623 276.553C75.4455 274.732 79.6932 271.257 81.8833 266.056L78.1967 264.504C76.5468 268.423 73.3545 271.188 68.2977 272.727L69.4623 276.553ZM81.8475 266.136C84.2071 261.155 85.28 253.458 85.28 243.32H81.28C81.28 253.342 80.1929 260.285 78.2325 264.424L81.8475 266.136ZM85.28 243.32V37.4H81.28V243.32H85.28ZM83.28 35.4H82.92V39.4H83.28V35.4ZM82.92 35.4C67.5629 35.4 53.4981 42.7269 40.7509 56.9449L43.7291 59.6151C55.9419 45.9931 68.9971 39.4 82.92 39.4V35.4ZM40.7495 56.9464C28.1839 70.9903 18.006 94.0498 10.0597 125.835L13.9403 126.805C21.834 95.2301 31.8161 72.9297 43.7305 59.6136L40.7495 56.9464ZM12 124.32H3.72V128.32H12V124.32ZM5.70682 126.549C6.43977 120.197 6.8 111.469 6.8 100.4H2.8C2.8 111.411 2.44023 119.963 1.73318 126.091L5.70682 126.549ZM6.8 100.4C6.8 79.4684 5.95799 55.6652 4.27604 28.9941L0.283966 29.2459C1.96201 55.8548 2.8 79.5716 2.8 100.4H6.8ZM2.21688 31.119C25.0518 31.8401 64.3203 32.2 120 32.2V28.2C64.3197 28.2 25.1082 27.8399 2.34313 27.121L2.21688 31.119ZM120 32.2C175.44 32.2 214.588 31.8401 237.423 31.119L237.297 27.121C214.532 27.8399 175.44 28.2 120 28.2V32.2ZM434.719 97.16H436.719V94.7204L434.327 95.1988L434.719 97.16ZM434.719 104.72L435.351 106.617L436.719 106.162V104.72H434.719ZM420.679 115.16L419.131 113.894L419.113 113.915L419.096 113.937L420.679 115.16ZM409.159 139.64L411.055 140.277L411.057 140.269L411.06 140.26L409.159 139.64ZM364.159 273.56L366.048 274.216L366.051 274.206L366.055 274.197L364.159 273.56ZM349.039 317.12L347.149 316.464L347.149 316.466L349.039 317.12ZM333.199 343.04L331.979 341.455L331.974 341.459L333.199 343.04ZM266.239 343.04L267.213 341.294L267.198 341.285L267.182 341.276L266.239 343.04ZM260.479 297.68L259.251 296.101L260.479 297.68ZM309.799 296.96L308.557 298.528L309.799 296.96ZM312.319 332.96L310.764 331.702L310.732 331.742L310.701 331.784L312.319 332.96ZM295.039 344.48L294.442 342.571L294.647 346.441L295.039 344.48ZM341.479 316.4L343.381 317.018L343.39 316.991L343.397 316.964L341.479 316.4ZM343.279 310.28L345.197 310.844L345.407 310.132L345.101 309.456L343.279 310.28ZM259.399 124.88L257.569 125.687L257.573 125.696L257.577 125.704L259.399 124.88ZM248.599 108.68L247.363 110.253L247.389 110.273L247.416 110.293L248.599 108.68ZM238.519 104.72H236.519V106.72H238.519V104.72ZM238.519 97.16L238.668 95.1656L236.519 95.0044V97.16H238.519ZM349.399 97.16H351.399V95.0044L349.249 95.1656L349.399 97.16ZM349.399 104.72V106.72H351.399V104.72H349.399ZM333.199 106.16L332.714 104.22L332.699 104.223L332.683 104.228L333.199 106.16ZM329.239 118.4L331.083 117.626L331.057 117.565L331.028 117.506L329.239 118.4ZM373.519 223.88L371.675 224.654L373.749 229.595L375.419 224.504L373.519 223.88ZM388.639 177.8L390.539 178.424L390.539 178.423L388.639 177.8ZM388.279 114.8L389.864 113.581V113.581L388.279 114.8ZM369.199 104.72H367.199V106.602L369.078 106.716L369.199 104.72ZM369.199 97.16L369.414 95.1716L367.199 94.9321V97.16H369.199ZM406.999 100.6C420.655 100.6 430.088 100.126 435.111 99.1211L434.327 95.1988C429.75 96.1142 420.702 96.6 406.999 96.6V100.6ZM432.719 97.16V104.72H436.719V97.16H432.719ZM434.086 102.823C428.599 104.652 423.623 108.403 419.131 113.894L422.227 116.426C426.374 111.357 430.759 108.148 435.351 106.617L434.086 102.823ZM419.096 113.937C414.809 119.485 410.884 127.899 407.257 139.02L411.06 140.26C414.634 129.301 418.388 121.395 422.261 116.383L419.096 113.937ZM407.263 139.003L362.263 272.923L366.055 274.197L411.055 140.277L407.263 139.003ZM362.269 272.904L347.149 316.464L350.928 317.776L366.048 274.216L362.269 272.904ZM347.149 316.466C342.879 328.8 337.764 337.005 331.979 341.455L334.418 344.625C341.113 339.475 346.558 330.4 350.929 317.774L347.149 316.466ZM331.974 341.459C325.037 346.83 314.396 349.68 299.719 349.68V353.68C314.801 353.68 326.481 350.77 334.423 344.621L331.974 341.459ZM299.719 349.68C288.055 349.68 277.231 346.885 267.213 341.294L265.264 344.786C275.887 350.715 287.383 353.68 299.719 353.68V349.68ZM267.182 341.276C262.276 338.652 258.695 335.399 256.333 331.553C253.973 327.711 252.759 323.165 252.759 317.84H248.759C248.759 323.795 250.125 329.089 252.925 333.647C255.722 338.201 259.882 341.908 265.295 344.804L267.182 341.276ZM252.759 317.84C252.759 310.04 255.727 303.91 261.707 299.259L259.251 296.101C252.271 301.53 248.759 308.84 248.759 317.84H252.759ZM261.707 299.259C267.746 294.561 275.795 292.12 286.039 292.12V288.12C275.163 288.12 266.172 290.719 259.251 296.101L261.707 299.259ZM286.039 292.12C295.834 292.12 303.262 294.336 308.557 298.528L311.04 295.392C304.816 290.464 296.403 288.12 286.039 288.12V292.12ZM308.557 298.528C313.751 302.64 316.439 308.611 316.439 316.76H320.439C320.439 307.629 317.366 300.4 311.04 295.392L308.557 298.528ZM316.439 316.76C316.439 322.004 314.594 326.97 310.764 331.702L313.873 334.218C318.203 328.87 320.439 323.036 320.439 316.76H316.439ZM310.701 331.784C307.168 336.642 301.809 340.269 294.442 342.571L295.635 346.389C303.628 343.891 309.79 339.838 313.936 334.136L310.701 331.784ZM294.647 346.441C297.259 346.964 301.516 347.2 307.279 347.2V343.2C301.522 343.2 297.618 342.956 295.431 342.519L294.647 346.441ZM307.279 347.2C315.974 347.2 323.436 344.668 329.537 339.53C335.607 334.418 340.185 326.851 343.381 317.018L339.577 315.782C336.533 325.149 332.29 331.982 326.96 336.47C321.662 340.932 315.143 343.2 307.279 343.2V347.2ZM343.397 316.964L345.197 310.844L341.36 309.716L339.56 315.836L343.397 316.964ZM345.101 309.456L261.221 124.056L257.577 125.704L341.457 311.104L345.101 309.456ZM261.229 124.073C257.602 115.853 253.829 110.035 249.781 107.067L247.416 110.293C250.569 112.605 253.995 117.587 257.569 125.687L261.229 124.073ZM249.834 107.107C246.219 104.267 242.437 102.72 238.519 102.72V106.72C241.321 106.72 244.258 107.813 247.363 110.253L249.834 107.107ZM240.519 104.72V97.16H236.519V104.72H240.519ZM238.369 99.1544C257.621 100.598 277.231 101.32 297.199 101.32V97.32C277.327 97.32 257.817 96.6017 238.668 95.1656L238.369 99.1544ZM297.199 101.32C312.859 101.32 330.31 100.597 349.548 99.1544L349.249 95.1656C330.088 96.6027 312.739 97.32 297.199 97.32V101.32ZM347.399 97.16V104.72H351.399V97.16H347.399ZM349.399 102.72C342.379 102.72 336.788 103.201 332.714 104.22L333.684 108.1C337.289 107.199 342.499 106.72 349.399 106.72V102.72ZM332.683 104.228C330.612 104.78 328.851 105.733 327.612 107.22C326.357 108.726 325.799 110.587 325.799 112.64H329.799C329.799 111.333 330.141 110.434 330.685 109.78C331.246 109.107 332.185 108.5 333.714 108.092L332.683 104.228ZM325.799 112.64C325.799 114.906 326.368 117.13 327.45 119.294L331.028 117.506C330.19 115.83 329.799 114.214 329.799 112.64H325.799ZM327.395 119.174L371.675 224.654L375.363 223.106L331.083 117.626L327.395 119.174ZM375.419 224.504L390.539 178.424L386.738 177.176L371.618 223.256L375.419 224.504ZM390.539 178.423C395.142 164.373 397.479 151.916 397.479 141.08H393.479C393.479 151.364 391.256 163.387 386.738 177.177L390.539 178.423ZM397.479 141.08C397.479 129.544 395.027 120.293 389.864 113.581L386.694 116.019C391.13 121.787 393.479 130.056 393.479 141.08H397.479ZM389.864 113.581C384.708 106.878 377.812 103.238 369.32 102.724L369.078 106.716C376.426 107.162 382.249 110.242 386.694 116.019L389.864 113.581ZM371.199 104.72V97.16H367.199V104.72H371.199ZM368.984 99.1484C377.971 100.12 390.655 100.6 406.999 100.6V96.6C390.702 96.6 378.187 96.12 369.414 95.1716L368.984 99.1484ZM627.786 115.16L626.186 116.36V116.36L627.786 115.16ZM622.026 264.56L623.482 265.931L623.487 265.925L623.492 265.92L622.026 264.56ZM527.706 282.2L528.66 280.442L525.706 278.839V282.2H527.706ZM535.266 335.12L533.964 336.639L533.981 336.653L533.999 336.668L535.266 335.12ZM558.666 341.6H560.666V339.6H558.666V341.6ZM558.666 349.16L558.597 351.159L560.666 351.23V349.16H558.666ZM548.226 348.8L548.295 346.801L548.285 346.801L548.276 346.801L548.226 348.8ZM442.746 349.16H440.746V351.235L442.82 351.159L442.746 349.16ZM442.746 341.6V339.6H440.746V341.6H442.746ZM458.226 335.84L456.714 334.53L456.668 334.584L456.626 334.64L458.226 335.84ZM458.226 112.64L456.489 113.632L456.507 113.663L456.525 113.693L458.226 112.64ZM442.746 105.08H440.746V107.08H442.746V105.08ZM442.746 97.52L442.938 95.5293L440.746 95.3171V97.52H442.746ZM527.706 93.56H529.706V91.1204L527.313 91.5988L527.706 93.56ZM527.706 119.12H525.706V126.206L529.411 120.166L527.706 119.12ZM568.746 257L566.899 256.231L566.896 256.239L566.893 256.246L568.746 257ZM571.266 128.84L569.384 129.517L569.388 129.53L571.266 128.84ZM535.266 118.4L536.645 119.848L536.647 119.847L535.266 118.4ZM527.706 275.36H525.706V276.478L526.657 277.063L527.706 275.36ZM582.426 94.12C600.497 94.12 615.032 101.488 626.186 116.36L629.386 113.96C617.499 98.1116 601.794 90.12 582.426 90.12V94.12ZM626.186 116.36C637.34 131.232 643.066 153.174 643.066 182.48H647.066C647.066 152.746 641.271 129.808 629.386 113.96L626.186 116.36ZM643.066 182.48C643.066 220.459 635.406 247.193 620.559 263.2L623.492 265.92C639.365 248.807 647.066 220.821 647.066 182.48H643.066ZM620.569 263.189C605.636 279.056 585.91 287.04 561.186 287.04V291.04C586.861 291.04 607.695 282.704 623.482 265.931L620.569 263.189ZM561.186 287.04C547.457 287.04 536.664 284.787 528.66 280.442L526.751 283.958C535.548 288.733 547.074 291.04 561.186 291.04V287.04ZM525.706 282.2V312.08H529.706V282.2H525.706ZM525.706 312.08C525.706 323.328 528.259 331.748 533.964 336.639L536.567 333.601C532.193 329.852 529.706 322.912 529.706 312.08H525.706ZM533.999 336.668C539.779 341.397 548.111 343.6 558.666 343.6V339.6C548.581 339.6 541.312 337.483 536.532 333.572L533.999 336.668ZM556.666 341.6V349.16H560.666V341.6H556.666ZM558.735 347.161L548.295 346.801L548.157 350.799L558.597 351.159L558.735 347.161ZM548.276 346.801C519.482 346.081 500.856 345.72 492.426 345.72V349.72C500.796 349.72 519.369 350.079 548.176 350.799L548.276 346.801ZM492.426 345.72C485.181 345.72 468.58 346.202 442.672 347.161L442.82 351.159C468.751 350.198 485.27 349.72 492.426 349.72V345.72ZM444.746 349.16V341.6H440.746V349.16H444.746ZM442.746 343.6C450.461 343.6 456.397 341.612 459.826 337.04L456.626 334.64C454.295 337.748 449.91 339.6 442.746 339.6V343.6ZM459.737 337.15C463.37 332.958 464.906 325.572 464.906 315.68H460.906C460.906 325.468 459.321 331.522 456.714 334.53L459.737 337.15ZM464.906 315.68V136.76H460.906V315.68H464.906ZM464.906 136.76C464.906 125.62 463.348 117.115 459.926 111.587L456.525 113.693C459.343 118.245 460.906 125.82 460.906 136.76H464.906ZM459.962 111.648C456.623 105.805 450.669 103.08 442.746 103.08V107.08C449.702 107.08 454.068 109.395 456.489 113.632L459.962 111.648ZM444.746 105.08V97.52H440.746V105.08H444.746ZM442.553 99.5107C450.057 100.237 457.561 100.6 465.066 100.6V96.6C457.69 96.6 450.315 96.2431 442.938 95.5293L442.553 99.5107ZM465.066 100.6C490.103 100.6 511.125 98.9158 528.098 95.5211L527.313 91.5988C510.686 94.9242 489.948 96.6 465.066 96.6V100.6ZM525.706 93.56V119.12H529.706V93.56H525.706ZM529.411 120.166C540.008 102.888 557.515 94.12 582.426 94.12V90.12C556.456 90.12 537.484 99.3524 526.001 118.074L529.411 120.166ZM540.306 280.24C547.285 280.24 553.387 278.36 558.512 274.532C563.618 270.72 567.62 265.074 570.598 257.754L566.893 256.246C564.111 263.086 560.493 268.06 556.119 271.328C551.764 274.58 546.527 276.24 540.306 276.24V280.24ZM570.592 257.769C576.748 242.993 579.746 220.588 579.746 190.76H575.746C575.746 220.452 572.743 242.207 566.899 256.231L570.592 257.769ZM579.746 190.76C579.746 161.238 577.598 140.277 573.143 128.15L569.388 129.53C573.574 140.923 575.746 161.242 575.746 190.76H579.746ZM573.147 128.163C568.769 116 562.424 108.84 553.626 108.84V112.84C559.707 112.84 565.123 117.68 569.384 129.517L573.147 128.163ZM553.626 108.84C546.124 108.84 539.517 111.577 533.885 116.953L536.647 119.847C541.575 115.143 547.207 112.84 553.626 112.84V108.84ZM533.886 116.952C528.42 122.157 525.706 128.815 525.706 136.76H529.706C529.706 129.825 532.031 124.243 536.645 119.848L533.886 116.952ZM525.706 136.76V275.36H529.706V136.76H525.706ZM526.657 277.063C530.202 279.245 534.81 280.24 540.306 280.24V276.24C535.241 276.24 531.449 275.315 528.754 273.657L526.657 277.063ZM748.135 119.12H746.135V126.341L749.85 120.149L748.135 119.12ZM846.055 106.52L844.513 107.793L844.519 107.8L846.055 106.52ZM853.975 124.16L852.024 124.601L852.026 124.607L852.028 124.614L853.975 124.16ZM860.815 271.04L859.215 272.24L859.258 272.296L859.304 272.35L860.815 271.04ZM876.655 276.44H878.655V274.44H876.655V276.44ZM876.655 284L876.581 285.999L878.655 286.075V284H876.655ZM775.135 284H773.135V286.075L775.209 285.999L775.135 284ZM775.135 276.44V274.44H773.135V276.44H775.135ZM788.095 271.04L789.759 272.149L789.776 272.125L789.791 272.1L788.095 271.04ZM787.375 116.6L785.727 117.733L785.768 117.793L785.814 117.849L787.375 116.6ZM755.695 118.4L757.075 119.848L757.076 119.847L755.695 118.4ZM751.735 271.04L750.039 272.1L750.055 272.125L750.071 272.149L751.735 271.04ZM764.695 276.44H766.695V274.44H764.695V276.44ZM764.695 284L764.615 285.998L766.695 286.082V284H764.695ZM663.175 284H661.175V286.07L663.244 285.999L663.175 284ZM663.175 276.44V274.44H661.175V276.44H663.175ZM678.655 271.04L677.103 269.779L677.098 269.785L677.094 269.791L678.655 271.04ZM678.655 21.56L676.919 22.5523L676.936 22.5828L676.955 22.6127L678.655 21.56ZM663.175 14H661.175V16H663.175V14ZM663.175 6.43999L663.368 4.44929L661.175 4.2371V6.43999H663.175ZM748.135 2.47998H750.135V0.0403671L747.743 0.518814L748.135 2.47998ZM749.85 120.149C760.179 102.934 778.475 94.12 805.375 94.12V90.12C777.556 90.12 757.691 99.306 746.42 118.091L749.85 120.149ZM805.375 94.12C824.305 94.12 837.14 98.8567 844.513 107.793L847.598 105.247C839.13 94.9833 824.846 90.12 805.375 90.12V94.12ZM844.519 107.8C847.857 111.806 850.391 117.365 852.024 124.601L855.926 123.719C854.2 116.075 851.453 109.874 847.592 105.24L844.519 107.8ZM852.028 124.614C853.658 131.602 854.495 141.031 854.495 152.96H858.495C858.495 140.889 857.652 131.117 855.923 123.706L852.028 124.614ZM854.495 152.96V250.52H858.495V152.96H854.495ZM854.495 250.52C854.495 260.417 855.916 267.841 859.215 272.24L862.415 269.84C859.954 266.559 858.495 260.303 858.495 250.52H854.495ZM859.304 272.35C862.974 276.585 868.959 278.44 876.655 278.44V274.44C869.471 274.44 864.896 272.695 862.327 269.73L859.304 272.35ZM874.655 276.44V284H878.655V276.44H874.655ZM876.729 282.001C850.819 281.042 833.98 280.56 826.255 280.56V284.56C833.891 284.56 850.652 285.038 876.581 285.999L876.729 282.001ZM826.255 280.56C818.052 280.56 800.974 281.042 775.061 282.001L775.209 285.999C801.137 285.038 818.139 284.56 826.255 284.56V280.56ZM777.135 284V276.44H773.135V284H777.135ZM775.135 278.44C781.726 278.44 786.841 276.527 789.759 272.149L786.431 269.931C784.549 272.753 781.025 274.44 775.135 274.44V278.44ZM789.791 272.1C792.516 267.74 793.695 260.388 793.695 250.52H789.695C789.695 260.332 788.474 266.66 786.399 269.98L789.791 272.1ZM793.695 250.52V133.52H789.695V250.52H793.695ZM793.695 133.52C793.695 125.663 792.236 119.474 788.937 115.351L785.814 117.849C788.275 120.926 789.695 126.017 789.695 133.52H793.695ZM789.023 115.467C785.89 110.909 780.708 108.84 774.055 108.84V112.84C779.882 112.84 783.581 114.611 785.727 117.733L789.023 115.467ZM774.055 108.84C766.554 108.84 759.946 111.577 754.314 116.953L757.076 119.847C762.004 115.143 767.637 112.84 774.055 112.84V108.84ZM754.316 116.952C748.85 122.157 746.135 128.815 746.135 136.76H750.135C750.135 129.825 752.461 124.243 757.075 119.848L754.316 116.952ZM746.135 136.76V250.52H750.135V136.76H746.135ZM746.135 250.52C746.135 260.388 747.314 267.74 750.039 272.1L753.431 269.98C751.356 266.66 750.135 260.332 750.135 250.52H746.135ZM750.071 272.149C752.989 276.527 758.105 278.44 764.695 278.44V274.44C758.806 274.44 755.281 272.753 753.399 269.931L750.071 272.149ZM762.695 276.44V284H766.695V276.44H762.695ZM764.775 282.002C740.783 281.042 724.902 280.56 717.175 280.56V284.56C724.808 284.56 740.607 285.038 764.615 285.998L764.775 282.002ZM717.175 280.56C708.974 280.56 690.937 281.042 663.106 282.001L663.244 285.999C691.093 285.038 709.057 284.56 717.175 284.56V280.56ZM665.175 284V276.44H661.175V284H665.175ZM663.175 278.44C670.852 278.44 676.774 276.593 680.217 272.289L677.094 269.791C674.776 272.687 670.378 274.44 663.175 274.44V278.44ZM680.208 272.301C683.791 267.891 685.335 260.435 685.335 250.52H681.335C681.335 260.285 679.76 266.509 677.103 269.779L680.208 272.301ZM685.335 250.52V45.68H681.335V250.52H685.335ZM685.335 45.68C685.335 34.5404 683.777 26.0346 680.356 20.5073L676.955 22.6127C679.773 27.1654 681.335 34.7395 681.335 45.68H685.335ZM680.392 20.5677C677.053 14.7251 671.099 12 663.175 12V16C670.132 16 674.497 18.3149 676.919 22.5523L680.392 20.5677ZM665.175 14V6.43999H661.175V14H665.175ZM662.983 8.43069C670.486 9.15686 677.991 9.52 685.495 9.52V5.52C678.12 5.52 670.744 5.16312 663.368 4.44929L662.983 8.43069ZM685.495 9.52C710.533 9.52 731.555 7.83575 748.528 4.44114L747.743 0.518814C731.116 3.84422 710.378 5.52 685.495 5.52V9.52ZM746.135 2.47998V119.12H750.135V2.47998H746.135ZM1052.72 115.52L1051.33 116.955L1051.33 116.961L1051.34 116.966L1052.72 115.52ZM1052.72 266L1054.1 267.446L1052.72 266ZM915.921 266L914.539 267.446L915.921 266ZM915.921 115.52L917.302 116.966L917.308 116.961L917.313 116.955L915.921 115.52ZM965.961 122L967.875 122.577L965.961 122ZM965.961 259.52L964.046 260.097L964.048 260.106L965.961 259.52ZM1002.68 259.52L1004.59 260.106L1004.6 260.097L1002.68 259.52ZM984.321 94.12C1013.49 94.12 1035.73 101.821 1051.33 116.955L1054.11 114.085C1037.55 98.0189 1014.19 90.12 984.321 90.12V94.12ZM1051.34 116.966C1066.85 131.782 1074.84 156.204 1074.84 190.76H1078.84C1078.84 155.716 1070.75 129.978 1054.1 114.074L1051.34 116.966ZM1074.84 190.76C1074.84 225.316 1066.85 249.738 1051.34 264.554L1054.1 267.446C1070.75 251.542 1078.84 225.804 1078.84 190.76H1074.84ZM1051.34 264.554C1035.74 279.454 1013.5 287.04 984.321 287.04V291.04C1014.18 291.04 1037.54 283.266 1054.1 267.446L1051.34 264.554ZM984.321 287.04C955.142 287.04 932.901 279.454 917.302 264.554L914.539 267.446C931.1 283.266 954.459 291.04 984.321 291.04V287.04ZM917.302 264.554C901.792 249.738 893.801 225.316 893.801 190.76H889.801C889.801 225.804 897.889 251.542 914.539 267.446L917.302 264.554ZM893.801 190.76C893.801 156.204 901.792 131.782 917.302 116.966L914.539 114.074C897.889 129.978 889.801 155.716 889.801 190.76H893.801ZM917.313 116.955C932.913 101.821 955.15 94.12 984.321 94.12V90.12C954.451 90.12 931.088 98.0189 914.528 114.085L917.313 116.955ZM984.321 97.32C979.721 97.32 975.746 99.6187 972.416 103.732C969.123 107.8 966.36 113.75 964.046 121.423L967.875 122.577C970.122 115.13 972.698 109.74 975.525 106.248C978.316 102.801 981.24 101.32 984.321 101.32V97.32ZM964.046 121.423C959.398 136.832 957.121 159.992 957.121 190.76H961.121C961.121 160.088 963.403 137.408 967.875 122.577L964.046 121.423ZM957.121 190.76C957.121 221.528 959.398 244.688 964.046 260.097L967.875 258.943C963.403 244.112 961.121 221.432 961.121 190.76H957.121ZM964.048 260.106C966.364 267.661 969.129 273.522 972.426 277.531C975.761 281.584 979.734 283.84 984.321 283.84V279.84C981.227 279.84 978.301 278.376 975.515 274.989C972.692 271.558 970.118 266.259 967.873 258.934L964.048 260.106ZM984.321 283.84C988.907 283.84 992.881 281.584 996.215 277.531C999.512 273.522 1002.28 267.661 1004.59 260.106L1000.77 258.934C998.524 266.259 995.949 271.558 993.126 274.989C990.341 278.376 987.414 279.84 984.321 279.84V283.84ZM1004.6 260.097C1009.24 244.688 1011.52 221.528 1011.52 190.76H1007.52C1007.52 221.432 1005.24 244.112 1000.77 258.943L1004.6 260.097ZM1011.52 190.76C1011.52 159.992 1009.24 136.832 1004.6 121.423L1000.77 122.577C1005.24 137.408 1007.52 160.088 1007.52 190.76H1011.52ZM1004.6 121.423C1002.28 113.75 999.518 107.8 996.225 103.732C992.896 99.6187 988.92 97.32 984.321 97.32V101.32C987.401 101.32 990.326 102.801 993.116 106.248C995.943 109.74 998.52 115.13 1000.77 122.577L1004.6 121.423ZM1260.14 115.52L1258.75 116.955L1258.76 116.961L1258.76 116.966L1260.14 115.52ZM1260.14 266L1261.52 267.446L1260.14 266ZM1123.34 266L1121.96 267.446L1123.34 266ZM1123.34 115.52L1124.72 116.966L1124.73 116.961L1124.74 116.955L1123.34 115.52ZM1173.38 122L1175.3 122.577L1173.38 122ZM1173.38 259.52L1171.47 260.097L1171.47 260.106L1173.38 259.52ZM1210.1 259.52L1212.01 260.106L1212.02 260.097L1210.1 259.52ZM1191.74 94.12C1220.91 94.12 1243.15 101.821 1258.75 116.955L1261.54 114.085C1244.98 98.0189 1221.61 90.12 1191.74 90.12V94.12ZM1258.76 116.966C1274.27 131.782 1282.26 156.204 1282.26 190.76H1286.26C1286.26 155.716 1278.17 129.978 1261.52 114.074L1258.76 116.966ZM1282.26 190.76C1282.26 225.316 1274.27 249.738 1258.76 264.554L1261.52 267.446C1278.17 251.542 1286.26 225.804 1286.26 190.76H1282.26ZM1258.76 264.554C1243.16 279.454 1220.92 287.04 1191.74 287.04V291.04C1221.6 291.04 1244.96 283.266 1261.52 267.446L1258.76 264.554ZM1191.74 287.04C1162.56 287.04 1140.32 279.454 1124.72 264.554L1121.96 267.446C1138.52 283.266 1161.88 291.04 1191.74 291.04V287.04ZM1124.72 264.554C1109.21 249.738 1101.22 225.316 1101.22 190.76H1097.22C1097.22 225.804 1105.31 251.542 1121.96 267.446L1124.72 264.554ZM1101.22 190.76C1101.22 156.204 1109.21 131.782 1124.72 116.966L1121.96 114.074C1105.31 129.978 1097.22 155.716 1097.22 190.76H1101.22ZM1124.74 116.955C1140.34 101.821 1162.57 94.12 1191.74 94.12V90.12C1161.87 90.12 1138.51 98.0189 1121.95 114.085L1124.74 116.955ZM1191.74 97.32C1187.14 97.32 1183.17 99.6187 1179.84 103.732C1176.54 107.8 1173.78 113.75 1171.47 121.423L1175.3 122.577C1177.54 115.13 1180.12 109.74 1182.95 106.248C1185.74 102.801 1188.66 101.32 1191.74 101.32V97.32ZM1171.47 121.423C1166.82 136.832 1164.54 159.992 1164.54 190.76H1168.54C1168.54 160.088 1170.82 137.408 1175.3 122.577L1171.47 121.423ZM1164.54 190.76C1164.54 221.528 1166.82 244.688 1171.47 260.097L1175.3 258.943C1170.82 244.112 1168.54 221.432 1168.54 190.76H1164.54ZM1171.47 260.106C1173.79 267.661 1176.55 273.522 1179.85 277.531C1183.18 281.584 1187.16 283.84 1191.74 283.84V279.84C1188.65 279.84 1185.72 278.376 1182.94 274.989C1180.11 271.558 1177.54 266.259 1175.29 258.934L1171.47 260.106ZM1191.74 283.84C1196.33 283.84 1200.3 281.584 1203.64 277.531C1206.93 273.522 1209.7 267.661 1212.01 260.106L1208.19 258.934C1205.95 266.259 1203.37 271.558 1200.55 274.989C1197.76 278.376 1194.84 279.84 1191.74 279.84V283.84ZM1212.02 260.097C1216.66 244.688 1218.94 221.528 1218.94 190.76H1214.94C1214.94 221.432 1212.66 244.112 1208.19 258.943L1212.02 260.097ZM1218.94 190.76C1218.94 159.992 1216.66 136.832 1212.02 121.423L1208.19 122.577C1212.66 137.408 1214.94 160.088 1214.94 190.76H1218.94ZM1212.02 121.423C1209.7 113.75 1206.94 107.8 1203.65 103.732C1200.32 99.6187 1196.34 97.32 1191.74 97.32V101.32C1194.82 101.32 1197.75 102.801 1200.54 106.248C1203.36 109.74 1205.94 115.13 1208.19 122.577L1212.02 121.423ZM1485.92 106.52L1484.38 107.793L1484.39 107.8L1485.92 106.52ZM1493.84 124.16L1491.89 124.601L1491.9 124.607L1491.9 124.614L1493.84 124.16ZM1500.68 271.04L1499.08 272.24L1499.13 272.296L1499.17 272.35L1500.68 271.04ZM1516.52 276.44H1518.52V274.44H1516.52V276.44ZM1516.52 284L1516.45 285.999L1518.52 286.075V284H1516.52ZM1415 284H1413V286.075L1415.08 285.999L1415 284ZM1415 276.44V274.44H1413V276.44H1415ZM1427.96 271.04L1429.63 272.149L1429.64 272.125L1429.66 272.1L1427.96 271.04ZM1427.24 116.6L1425.6 117.733L1425.64 117.793L1425.68 117.849L1427.24 116.6ZM1395.56 118.4L1396.94 119.848L1396.95 119.847L1395.56 118.4ZM1391.6 271.04L1389.91 272.1L1389.92 272.125L1389.94 272.149L1391.6 271.04ZM1404.56 276.44H1406.56V274.44H1404.56V276.44ZM1404.56 284L1404.48 285.998L1406.56 286.082V284H1404.56ZM1303.04 284H1301.04V286.07L1303.11 285.999L1303.04 284ZM1303.04 276.44V274.44H1301.04V276.44H1303.04ZM1318.52 271.04L1316.97 269.779L1316.97 269.785L1316.96 269.791L1318.52 271.04ZM1318.52 112.28L1316.79 113.272L1316.81 113.303L1316.82 113.333L1318.52 112.28ZM1303.04 104.72H1301.04V106.72H1303.04V104.72ZM1303.04 97.16L1303.23 95.1687L1301.04 94.9637V97.16H1303.04ZM1388 93.2H1390V90.7604L1387.61 91.2388L1388 93.2ZM1388 119.12H1386V126.341L1389.72 120.149L1388 119.12ZM1445.24 94.12C1464.17 94.12 1477.01 98.8567 1484.38 107.793L1487.47 105.247C1479 94.9833 1464.71 90.12 1445.24 90.12V94.12ZM1484.39 107.8C1487.73 111.806 1490.26 117.365 1491.89 124.601L1495.8 123.719C1494.07 116.075 1491.32 109.874 1487.46 105.24L1484.39 107.8ZM1491.9 124.614C1493.53 131.602 1494.36 141.031 1494.36 152.96H1498.36C1498.36 140.889 1497.52 131.117 1495.79 123.706L1491.9 124.614ZM1494.36 152.96V250.52H1498.36V152.96H1494.36ZM1494.36 250.52C1494.36 260.417 1495.79 267.841 1499.08 272.24L1502.28 269.84C1499.82 266.559 1498.36 260.303 1498.36 250.52H1494.36ZM1499.17 272.35C1502.84 276.585 1508.83 278.44 1516.52 278.44V274.44C1509.34 274.44 1504.77 272.695 1502.2 269.73L1499.17 272.35ZM1514.52 276.44V284H1518.52V276.44H1514.52ZM1516.6 282.001C1490.69 281.042 1473.85 280.56 1466.12 280.56V284.56C1473.76 284.56 1490.52 285.038 1516.45 285.999L1516.6 282.001ZM1466.12 280.56C1457.92 280.56 1440.84 281.042 1414.93 282.001L1415.08 285.999C1441.01 285.038 1458.01 284.56 1466.12 284.56V280.56ZM1417 284V276.44H1413V284H1417ZM1415 278.44C1421.59 278.44 1426.71 276.527 1429.63 272.149L1426.3 269.931C1424.42 272.753 1420.89 274.44 1415 274.44V278.44ZM1429.66 272.1C1432.39 267.74 1433.56 260.388 1433.56 250.52H1429.56C1429.56 260.332 1428.34 266.66 1426.27 269.98L1429.66 272.1ZM1433.56 250.52V133.52H1429.56V250.52H1433.56ZM1433.56 133.52C1433.56 125.663 1432.1 119.474 1428.81 115.351L1425.68 117.849C1428.14 120.926 1429.56 126.017 1429.56 133.52H1433.56ZM1428.89 115.467C1425.76 110.909 1420.58 108.84 1413.92 108.84V112.84C1419.75 112.84 1423.45 114.611 1425.6 117.733L1428.89 115.467ZM1413.92 108.84C1406.42 108.84 1399.82 111.577 1394.18 116.953L1396.95 119.847C1401.87 115.143 1407.51 112.84 1413.92 112.84V108.84ZM1394.19 116.952C1388.72 122.157 1386 128.815 1386 136.76H1390C1390 129.825 1392.33 124.243 1396.94 119.848L1394.19 116.952ZM1386 136.76V250.52H1390V136.76H1386ZM1386 250.52C1386 260.388 1387.18 267.74 1389.91 272.1L1393.3 269.98C1391.23 266.66 1390 260.332 1390 250.52H1386ZM1389.94 272.149C1392.86 276.527 1397.97 278.44 1404.56 278.44V274.44C1398.68 274.44 1395.15 272.753 1393.27 269.931L1389.94 272.149ZM1402.56 276.44V284H1406.56V276.44H1402.56ZM1404.64 282.002C1380.65 281.042 1364.77 280.56 1357.04 280.56V284.56C1364.68 284.56 1380.48 285.038 1404.48 285.998L1404.64 282.002ZM1357.04 280.56C1348.84 280.56 1330.81 281.042 1302.98 282.001L1303.11 285.999C1330.96 285.038 1348.93 284.56 1357.04 284.56V280.56ZM1305.04 284V276.44H1301.04V284H1305.04ZM1303.04 278.44C1310.72 278.44 1316.64 276.593 1320.09 272.289L1316.96 269.791C1314.65 272.687 1310.25 274.44 1303.04 274.44V278.44ZM1320.08 272.301C1323.66 267.891 1325.2 260.435 1325.2 250.52H1321.2C1321.2 260.285 1319.63 266.509 1316.97 269.779L1320.08 272.301ZM1325.2 250.52V136.4H1321.2V250.52H1325.2ZM1325.2 136.4C1325.2 125.26 1323.65 116.755 1320.22 111.227L1316.82 113.333C1319.64 117.885 1321.2 125.46 1321.2 136.4H1325.2ZM1320.26 111.288C1316.92 105.445 1310.97 102.72 1303.04 102.72V106.72C1310 106.72 1314.37 109.035 1316.79 113.272L1320.26 111.288ZM1305.04 104.72V97.16H1301.04V104.72H1305.04ZM1302.86 99.1512C1310.6 99.8767 1318.1 100.24 1325.36 100.24V96.24C1318.23 96.24 1310.85 95.8833 1303.23 95.1687L1302.86 99.1512ZM1325.36 100.24C1350.4 100.24 1371.42 98.5558 1388.4 95.1611L1387.61 91.2388C1370.99 94.5642 1350.25 96.24 1325.36 96.24V100.24ZM1386 93.2V119.12H1390V93.2H1386ZM1389.72 120.149C1400.05 102.934 1418.34 94.12 1445.24 94.12V90.12C1417.42 90.12 1397.56 99.306 1386.29 118.091L1389.72 120.149Z" fill="black" fill-opacity="0.15"/>
</svg>
