<svg width="40" height="13" viewBox="0 0 40 13" fill="none" xmlns="http://www.w3.org/2000/svg">
<path fill-rule="evenodd" clip-rule="evenodd" d="M28.1746 8.58305C28.1746 6.63406 26.5661 5.78614 25.2829 5.10968C24.425 4.65744 23.7125 4.28183 23.7232 3.70511C23.7232 3.25196 24.1497 2.77217 25.0559 2.66554C26.133 2.56384 27.2179 2.74772 28.2013 3.19865L28.761 0.533109C27.8135 0.183791 26.8121 0.00335446 25.8023 0C22.6303 0 20.4712 1.67929 20.4712 4.07828C20.4712 5.82018 22.0391 6.72585 23.2344 7.41628L23.27 7.43687C24.4695 8.12991 24.9227 8.42312 24.9227 8.95623C24.9227 9.48934 23.9364 10.1557 23.0301 10.1557C21.8846 10.2066 20.7455 9.95853 19.7248 9.43603L19.1384 12.1016C20.2753 12.5144 21.4741 12.7307 22.6836 12.7413C26.0422 12.7413 28.2279 11.0887 28.2279 8.52974L28.1746 8.58305ZM19.5382 0.265513L16.8726 12.607H13.7006L16.3662 0.265513H19.5382ZM32.8664 8.26413L34.5457 3.62608L35.7185 8.23747L32.8664 8.26413ZM39.37 12.6356H36.4379L35.9847 10.7964H31.9065L31.2401 12.6356H27.8815L32.6795 1.20044C32.9067 0.650439 33.4438 0.292349 34.0389 0.294154H36.7044L39.37 12.6356ZM9.80921 12.607L14.9804 0.265513H11.7284L8.15657 8.66198L6.79714 1.54497C6.69177 0.814806 6.0688 0.271123 5.33109 0.265513H0V0.63869C1.03114 0.871558 2.03265 1.22029 2.98541 1.67825C3.39999 1.89628 3.67954 2.30563 3.73176 2.77113L6.39731 12.607H9.80921Z" fill="#A8A8A8"/>
</svg>
