<svg width="16" height="16" viewBox="0 0 16 16" fill="none" xmlns="http://www.w3.org/2000/svg">
<g clip-path="url(#clip0)">
<path d="M12.8447 8.40249C12.5945 8.08645 12.6661 7.94584 12.8447 7.66334C12.8479 7.66012 14.9138 4.80545 15.1267 3.83734L15.1279 3.83669C15.2337 3.48389 15.1279 3.22461 14.6165 3.22461H12.9241C12.4932 3.22461 12.2946 3.44713 12.1881 3.69609C12.1881 3.69609 11.3264 5.75872 10.1074 7.09576C9.714 7.4821 9.53212 7.60594 9.31734 7.60594C9.21157 7.60594 9.0471 7.4821 9.0471 7.1293V3.83669C9.0471 3.41359 8.92649 3.22461 8.56981 3.22461H5.90864C5.63839 3.22461 5.47779 3.42197 5.47779 3.60579C5.47779 4.00697 6.0873 4.0992 6.1505 5.22791V7.67689C6.1505 8.21351 6.05311 8.31219 5.83704 8.31219C5.26172 8.31219 3.86535 6.24117 3.03784 3.87088C2.87079 3.41101 2.70761 3.22525 2.27355 3.22525H0.58048C0.0973915 3.22525 0 3.44777 0 3.69673C0 4.13661 0.57532 6.32372 2.67537 9.21322C4.07497 11.1856 6.04602 12.2543 7.83905 12.2543C8.91681 12.2543 9.04839 12.0169 9.04839 11.6087C9.04839 9.72404 8.95099 9.54603 9.49084 9.54603C9.74109 9.54603 10.1719 9.66987 11.1781 10.6212C12.3281 11.7493 12.5171 12.2543 13.1608 12.2543H14.8532C15.3356 12.2543 15.5801 12.0169 15.4395 11.5487C15.1176 10.5638 12.9428 8.53793 12.8447 8.40249Z" fill="#020F31"/>
</g>
<defs>
<clipPath id="clip0">
<rect width="15.4795" height="15.4795" fill="white"/>
</clipPath>
</defs>
</svg>
